<?xml version="1.0"?>
<!DOCTYPE svg PUBLIC "-//W3C//DTD SVG 1.1//EN" "http://www.w3.org/Graphics/SVG/1.1/DTD/svg11.dtd">
<svg width="318.75mm" height="199.25mm" viewBox="0 0 318.75 199.25" xmlns="http://www.w3.org/2000/svg" version="1.1">
<g id="Sketch" transform="translate(99.625000,99.625000) scale(1,-1)">
<path id="Sketch_w0000"  d="M -56.0 56.0 L 56.0 56.0 L 56.0 -56.0 L -56.0 -56.0 L -56.0 56.0 " stroke="#000000" stroke-width="0.35 px" style="stroke-width:0.35;stroke-miterlimit:4;stroke-dasharray:none;fill:none;fill-rule: evenodd "/>
<circle cx="-46.6" cy="46.6" r="1.5" stroke="#000000" stroke-width="0.35 px" style="stroke-width:0.35;stroke-miterlimit:4;stroke-dasharray:none;fill:none"/>
<circle cx="46.6" cy="46.6" r="1.5" stroke="#000000" stroke-width="0.35 px" style="stroke-width:0.35;stroke-miterlimit:4;stroke-dasharray:none;fill:none"/>
<circle cx="-46.6" cy="-46.6" r="1.5" stroke="#000000" stroke-width="0.35 px" style="stroke-width:0.35;stroke-miterlimit:4;stroke-dasharray:none;fill:none"/>
<circle cx="46.6" cy="-46.6" r="1.5" stroke="#000000" stroke-width="0.35 px" style="stroke-width:0.35;stroke-miterlimit:4;stroke-dasharray:none;fill:none"/>
<path id="Sketch_w0005"  d="M -25.35 36.53 L 45.35 36.53 L 45.35 12.73 L -25.35 12.73 L -25.35 36.53 " stroke="#000000" stroke-width="0.35 px" style="stroke-width:0.35;stroke-miterlimit:4;stroke-dasharray:none;fill:none;fill-rule: evenodd "/>
<path id="Sketch_w0006"  d="M -53.0 26.0 L -50.0 26.0 L -50.0 14.0 L -53.0 14.0 L -53.0 26.0 " stroke="#000000" stroke-width="0.35 px" style="stroke-width:0.35;stroke-miterlimit:4;stroke-dasharray:none;fill:none;fill-rule: evenodd "/>
<path id="Sketch_w0007"  d="M -53.0 -14.0 L -50.0 -14.0 L -50.0 -26.0 L -53.0 -26.0 L -53.0 -14.0 " stroke="#000000" stroke-width="0.35 px" style="stroke-width:0.35;stroke-miterlimit:4;stroke-dasharray:none;fill:none;fill-rule: evenodd "/>
<path id="Sketch_w0008"  d="M 50.0 26.0 L 53.0 26.0 L 53.0 14.0 L 50.0 14.0 L 50.0 26.0 " stroke="#000000" stroke-width="0.35 px" style="stroke-width:0.35;stroke-miterlimit:4;stroke-dasharray:none;fill:none;fill-rule: evenodd "/>
<path id="Sketch_w0009"  d="M 50.0 -14.0 L 53.0 -14.0 L 53.0 -26.0 L 50.0 -26.0 L 50.0 -14.0 " stroke="#000000" stroke-width="0.35 px" style="stroke-width:0.35;stroke-miterlimit:4;stroke-dasharray:none;fill:none;fill-rule: evenodd "/>
<path id="Sketch_w0010"  d="M -26.0 -50.0 L -14.0 -50.0 L -14.0 -53.0 L -26.0 -53.0 L -26.0 -50.0 " stroke="#000000" stroke-width="0.35 px" style="stroke-width:0.35;stroke-miterlimit:4;stroke-dasharray:none;fill:none;fill-rule: evenodd "/>
<path id="Sketch_w0011"  d="M 14.0 -50.0 L 26.0 -50.0 L 26.0 -53.0 L 14.0 -53.0 L 14.0 -50.0 " stroke="#000000" stroke-width="0.35 px" style="stroke-width:0.35;stroke-miterlimit:4;stroke-dasharray:none;fill:none;fill-rule: evenodd "/>
<path id="Sketch_w0012"  d="M -26.0 53.0 L -14.0 53.0 L -14.0 50.0 L -26.0 50.0 L -26.0 53.0 " stroke="#000000" stroke-width="0.35 px" style="stroke-width:0.35;stroke-miterlimit:4;stroke-dasharray:none;fill:none;fill-rule: evenodd "/>
<path id="Sketch_w0013"  d="M 14.0 53.0 L 26.0 53.0 L 26.0 50.0 L 14.0 50.0 L 14.0 53.0 " stroke="#000000" stroke-width="0.35 px" style="stroke-width:0.35;stroke-miterlimit:4;stroke-dasharray:none;fill:none;fill-rule: evenodd "/>
<title>Bottom</title>
</g>
<g id="Sketch001" transform="translate(99.625000,99.625000) scale(1,-1)">
<path id="Sketch001_w0000"  d="M -53.0 93.5 L -26.0 93.5 L -26.0 96.5 L -14.0 96.5 L -14.0 93.5 L 14.0 93.5 L 14.0 96.5 L 26.0 96.5 L 26.0 93.5 L 53.0 93.5 L 53.0 84.5 L 50.0 84.5 L 50.0 75.5 L 53.0 75.5 L 53.0 66.5 L 26.0 66.5 L 26.0 63.5 L 14.0 63.5 L 14.0 66.5 L -14.0 66.5 L -14.0 63.5 L -26.0 63.5 L -26.0 66.5 L -53.0 66.5 L -53.0 75.5 L -50.0 75.5 L -50.0 84.5 L -53.0 84.5 L -53.0 93.5 " stroke="#000000" stroke-width="0.35 px" style="stroke-width:0.35;stroke-miterlimit:4;stroke-dasharray:none;fill:none;fill-rule: evenodd "/>
<title>up</title>
</g>
<g id="Sketch008" transform="translate(99.625000,99.625000) scale(1,-1)">
<path id="Sketch008_w0000"  d="M -93.5 -50.0 L -93.5 -26.0 L -96.5 -26.0 L -96.5 -14.0 L -93.5 -14.0 L -93.5 14.0 L -96.5 14.0 L -96.5 26.0 L -93.5 26.0 L -93.5 50.0 L -84.5 50.0 L -84.5 53.0 L -75.5 53.0 L -75.5 50.0 L -66.5 50.0 L -66.5 26.0 L -63.5 26.0 L -63.5 14.0 L -66.5 14.0 L -66.5 -14.0 L -63.5 -14.0 L -63.5 -26.0 L -66.5 -26.0 L -66.5 -50.0 L -75.5 -50.0 L -75.5 -53.0 L -84.5 -53.0 L -84.5 -50.0 L -93.5 -50.0 " stroke="#000000" stroke-width="0.35 px" style="stroke-width:0.35;stroke-miterlimit:4;stroke-dasharray:none;fill:none;fill-rule: evenodd "/>
<circle cx="-86.0" cy="-19.675" r="2.5" stroke="#000000" stroke-width="0.35 px" style="stroke-width:0.35;stroke-miterlimit:4;stroke-dasharray:none;fill:none"/>
<path id="Sketch008_w0002"  d="M -89.5 26.68 L -89.5 35.68 L -78.5 35.68 L -78.5 26.68 L -89.5 26.68 " stroke="#000000" stroke-width="0.35 px" style="stroke-width:0.35;stroke-miterlimit:4;stroke-dasharray:none;fill:none;fill-rule: evenodd "/>
<path id="Sketch008_w0003"  d="M -90.0 5.05 L -90.0 18.25 L -78.5 18.25 L -78.5 5.05 L -90.0 5.05 " stroke="#000000" stroke-width="0.35 px" style="stroke-width:0.35;stroke-miterlimit:4;stroke-dasharray:none;fill:none;fill-rule: evenodd "/>
<title>right</title>
</g>
<g id="Sketch006" transform="translate(99.625000,99.625000) scale(1,-1)">
<path id="Sketch006_w0000"  d="M -53.0 -66.5 L -26.0 -66.5 L -26.0 -63.5 L -14.0 -63.5 L -14.0 -66.5 L 14.0 -66.5 L 14.0 -63.5 L 26.0 -63.5 L 26.0 -66.5 L 53.0 -66.5 L 53.0 -75.5 L 50.0 -75.5 L 50.0 -84.5 L 53.0 -84.5 L 53.0 -93.5 L 26.0 -93.5 L 26.0 -96.5 L 14.0 -96.5 L 14.0 -93.5 L -14.0 -93.5 L -14.0 -96.5 L -26.0 -96.5 L -26.0 -93.5 L -53.0 -93.5 L -53.0 -84.5 L -50.0 -84.5 L -50.0 -75.5 L -53.0 -75.5 L -53.0 -66.5 " stroke="#000000" stroke-width="0.35 px" style="stroke-width:0.35;stroke-miterlimit:4;stroke-dasharray:none;fill:none;fill-rule: evenodd "/>
<title>down</title>
</g>
<g id="Sketch007" transform="translate(99.625000,99.625000) scale(1,-1)">
<path id="Sketch007_w0000"  d="M 66.5 -50.0 L 66.5 -26.0 L 63.5 -26.0 L 63.5 -14.0 L 66.5 -14.0 L 66.5 14.0 L 63.5 14.0 L 63.5 26.0 L 66.5 26.0 L 66.5 50.0 L 75.5 50.0 L 75.5 53.0 L 84.5 53.0 L 84.5 50.0 L 93.5 50.0 L 93.5 26.0 L 96.5 26.0 L 96.5 14.0 L 93.5 14.0 L 93.5 -14.0 L 96.5 -14.0 L 96.5 -26.0 L 93.5 -26.0 L 93.5 -50.0 L 84.5 -50.0 L 84.5 -53.0 L 75.5 -53.0 L 75.5 -50.0 L 66.5 -50.0 " stroke="#000000" stroke-width="0.35 px" style="stroke-width:0.35;stroke-miterlimit:4;stroke-dasharray:none;fill:none;fill-rule: evenodd "/>
<circle cx="86.0" cy="-19.675" r="2.5" stroke="#000000" stroke-width="0.35 px" style="stroke-width:0.35;stroke-miterlimit:4;stroke-dasharray:none;fill:none"/>
<title>left</title>
</g>
<g id="Sketch009" transform="translate(99.625000,99.625000) scale(1,-1)">
<path id="Sketch009_w0000"  d="M 104.0 56.0 L 216.0 56.0 L 216.0 -56.0 L 104.0 -56.0 L 104.0 56.0 " stroke="#000000" stroke-width="0.35 px" style="stroke-width:0.35;stroke-miterlimit:4;stroke-dasharray:none;fill:none;fill-rule: evenodd "/>
<path id="Sketch009_w0001"  d="M 107.0 26.0 L 110.0 26.0 L 110.0 14.0 L 107.0 14.0 L 107.0 26.0 " stroke="#000000" stroke-width="0.35 px" style="stroke-width:0.35;stroke-miterlimit:4;stroke-dasharray:none;fill:none;fill-rule: evenodd "/>
<path id="Sketch009_w0002"  d="M 107.0 -14.0 L 110.0 -14.0 L 110.0 -26.0 L 107.0 -26.0 L 107.0 -14.0 " stroke="#000000" stroke-width="0.35 px" style="stroke-width:0.35;stroke-miterlimit:4;stroke-dasharray:none;fill:none;fill-rule: evenodd "/>
<path id="Sketch009_w0003"  d="M 210.0 26.0 L 213.0 26.0 L 213.0 14.0 L 210.0 14.0 L 210.0 26.0 " stroke="#000000" stroke-width="0.35 px" style="stroke-width:0.35;stroke-miterlimit:4;stroke-dasharray:none;fill:none;fill-rule: evenodd "/>
<path id="Sketch009_w0004"  d="M 210.0 -14.0 L 213.0 -14.0 L 213.0 -26.0 L 210.0 -26.0 L 210.0 -14.0 " stroke="#000000" stroke-width="0.35 px" style="stroke-width:0.35;stroke-miterlimit:4;stroke-dasharray:none;fill:none;fill-rule: evenodd "/>
<path id="Sketch009_w0005"  d="M 134.0 -50.0 L 146.0 -50.0 L 146.0 -53.0 L 134.0 -53.0 L 134.0 -50.0 " stroke="#000000" stroke-width="0.35 px" style="stroke-width:0.35;stroke-miterlimit:4;stroke-dasharray:none;fill:none;fill-rule: evenodd "/>
<path id="Sketch009_w0006"  d="M 174.0 -50.0 L 186.0 -50.0 L 186.0 -53.0 L 174.0 -53.0 L 174.0 -50.0 " stroke="#000000" stroke-width="0.35 px" style="stroke-width:0.35;stroke-miterlimit:4;stroke-dasharray:none;fill:none;fill-rule: evenodd "/>
<path id="Sketch009_w0007"  d="M 134.0 53.0 L 146.0 53.0 L 146.0 50.0 L 134.0 50.0 L 134.0 53.0 " stroke="#000000" stroke-width="0.35 px" style="stroke-width:0.35;stroke-miterlimit:4;stroke-dasharray:none;fill:none;fill-rule: evenodd "/>
<path id="Sketch009_w0008"  d="M 174.0 53.0 L 186.0 53.0 L 186.0 50.0 L 174.0 50.0 L 174.0 53.0 " stroke="#000000" stroke-width="0.35 px" style="stroke-width:0.35;stroke-miterlimit:4;stroke-dasharray:none;fill:none;fill-rule: evenodd "/>
<path id="Sketch009_w0009"  d="M 112.0 3.5 L 208.0 3.5 L 208.0 -42.85 L 112.0 -42.85 L 112.0 3.5 " stroke="#000000" stroke-width="0.35 px" style="stroke-width:0.35;stroke-miterlimit:4;stroke-dasharray:none;fill:none;fill-rule: evenodd "/>
<title>Top</title>
</g>
</svg>