<?xml version="1.0"?>
<!DOCTYPE svg PUBLIC "-//W3C//DTD SVG 1.1//EN" "http://www.w3.org/Graphics/SVG/1.1/DTD/svg11.dtd">
<svg width="409.275mm" height="207.025mm" viewBox="0 0 409.275 207.025" xmlns="http://www.w3.org/2000/svg" version="1.1">
<g id="Sketch" transform="translate(103.512500,103.512500) scale(1,-1)">
<path id="Sketch_w0000"  d="M -50.0 50.0 L -25.0 50.0 L -25.0 53.0 L -13.0 53.0 L -13.0 50.0 L 13.0 50.0 L 13.0 53.0 L 25.0 53.0 L 25.0 50.0 L 50.0 50.0 L 50.0 25.0 L 53.0 25.0 L 53.0 13.0 L 50.0 13.0 L 50.0 -13.0 L 53.0 -13.0 L 53.0 -25.0 L 50.0 -25.0 L 50.0 -50.0 L 25.0 -50.0 L 25.0 -53.0 L 13.0 -53.0 L 13.0 -50.0 L -13.0 -50.0 L -13.0 -53.0 L -25.0 -53.0 L -25.0 -50.0 L -50.0 -50.0 L -50.0 -25.0 L -53.0 -25.0 L -53.0 -13.0 L -50.0 -13.0 L -50.0 13.0 L -53.0 13.0 L -53.0 25.0 L -50.0 25.0 L -50.0 50.0 " stroke="#000000" stroke-width="0.35 px" style="stroke-width:0.35;stroke-miterlimit:4;stroke-dasharray:none;fill:none;fill-rule: evenodd "/>
<circle cx="-46.6" cy="46.6" r="1.5" stroke="#000000" stroke-width="0.35 px" style="stroke-width:0.35;stroke-miterlimit:4;stroke-dasharray:none;fill:none"/>
<circle cx="46.6" cy="46.6" r="1.5" stroke="#000000" stroke-width="0.35 px" style="stroke-width:0.35;stroke-miterlimit:4;stroke-dasharray:none;fill:none"/>
<circle cx="46.6" cy="-46.6" r="1.5" stroke="#000000" stroke-width="0.35 px" style="stroke-width:0.35;stroke-miterlimit:4;stroke-dasharray:none;fill:none"/>
<circle cx="-46.6" cy="-46.6" r="1.5" stroke="#000000" stroke-width="0.35 px" style="stroke-width:0.35;stroke-miterlimit:4;stroke-dasharray:none;fill:none"/>
<path id="Sketch_w0005"  d="M -25.35 36.53 L 45.35 36.53 L 45.35 12.73 L -25.35 12.73 L -25.35 36.53 " stroke="#000000" stroke-width="0.35 px" style="stroke-width:0.35;stroke-miterlimit:4;stroke-dasharray:none;fill:none;fill-rule: evenodd "/>
<title>Bottom</title>
</g>
<g id="Sketch007" transform="translate(103.512500,103.512500) scale(1,-1)">
<path id="Sketch007_w0000"  d="M 60.5 -50.0 L 60.5 50.0 L 66.5 50.0 L 66.5 53.5 L 64.5 53.5 A 6.0208 6.0208 0 0 0 73.5 53.5L 73.5 50.0 L 89.5 50.0 L 89.5 53.5 A 6.08 6.08 0 0 0 92 55.1531C 92.0 45.0 94.5 40.0 94.5 35.0 A 1.25 1.25 0 1 1 97 35C 97.0 40.0 94.5 45.0 94.5 55.4708364795 A 6.08 6.08 0 0 0 98.5 53.5L 96.5 53.5 L 96.5 50.0 L 99.5 50.0 L 99.5 -50.0 L 96.5 -50.0 L 96.5 -53.5 L 98.5 -53.5 A 6.08 6.08 0 0 0 94.5 -55.4708C 94.5 -45.0 97.0 -40.0 97.0 -35.0 A 1.25 1.25 0 0 1 94.5 -35C 94.5 -40.0 92.0 -45.0 92.0 -55.1530679652 A 6.08 6.08 0 0 0 89.5 -53.5L 89.5 -50.0 L 73.5 -50.0 L 73.5 -53.5 A 6.0208 6.0208 0 0 0 64.5 -53.5L 66.5 -53.5 L 66.5 -50.0 L 60.5 -50.0 " stroke="#000000" stroke-width="0.35 px" style="stroke-width:0.35;stroke-miterlimit:4;stroke-dasharray:none;fill:none;fill-rule: evenodd "/>
<path id="Sketch007_w0001"  d="M 64.1 13.0 L 64.1 25.0 L 66.1 25.0 L 66.1 13.0 L 64.1 13.0 " stroke="#000000" stroke-width="0.35 px" style="stroke-width:0.35;stroke-miterlimit:4;stroke-dasharray:none;fill:none;fill-rule: evenodd "/>
<path id="Sketch007_w0002"  d="M 64.1 -25.0 L 64.1 -13.0 L 66.1 -13.0 L 66.1 -25.0 L 64.1 -25.0 " stroke="#000000" stroke-width="0.35 px" style="stroke-width:0.35;stroke-miterlimit:4;stroke-dasharray:none;fill:none;fill-rule: evenodd "/>
<path id="Sketch007_w0003"  d="M 93.9 -25.0 L 93.9 -13.0 L 95.9 -13.0 L 95.9 -25.0 L 93.9 -25.0 " stroke="#000000" stroke-width="0.35 px" style="stroke-width:0.35;stroke-miterlimit:4;stroke-dasharray:none;fill:none;fill-rule: evenodd "/>
<path id="Sketch007_w0004"  d="M 93.9 13.0 L 93.9 25.0 L 95.9 25.0 L 95.9 13.0 L 93.9 13.0 " stroke="#000000" stroke-width="0.35 px" style="stroke-width:0.35;stroke-miterlimit:4;stroke-dasharray:none;fill:none;fill-rule: evenodd "/>
<circle cx="86.0" cy="-19.675" r="3.5" stroke="#000000" stroke-width="0.35 px" style="stroke-width:0.35;stroke-miterlimit:4;stroke-dasharray:none;fill:none"/>
<title>left</title>
</g>
<g id="Sketch013" transform="translate(103.512500,103.512500) scale(1,-1)">
<path id="Sketch013_w0000"  d="M -60.5 50.0 L -60.5 -50.0 L -66.5 -50.0 L -66.5 -53.5 L -64.5 -53.5 A 6.0208 6.0208 0 0 0 -73.5 -53.5L -73.5 -50.0 L -89.5 -50.0 L -89.5 -53.5 A 6.08 6.08 0 0 0 -92 -55.1531C -92.0 -45.0 -94.5 -40.0 -94.5 -35.0 A 1.25 1.25 0 0 1 -97 -35C -97.0 -40.0 -94.5 -45.0 -94.5 -55.4708364795 A 6.08 6.08 0 0 0 -98.5 -53.5L -96.5 -53.5 L -96.5 -50.0 L -99.5 -50.0 L -99.5 50.0 L -96.5 50.0 L -96.5 53.5 L -98.5 53.5 A 6.08 6.08 0 0 0 -94.5 55.4708C -94.5 45.0 -97.0 40.0 -97.0 35.0 A 1.25 1.25 0 0 1 -94.5 35C -94.5 40.0 -92.0 45.0 -92.0 55.1530679652 A 6.08 6.08 0 0 0 -89.5 53.5L -89.5 50.0 L -73.5 50.0 L -73.5 53.5 A 6.0208 6.0208 0 0 0 -64.5 53.5L -66.5 53.5 L -66.5 50.0 L -60.5 50.0 " stroke="#000000" stroke-width="0.35 px" style="stroke-width:0.35;stroke-miterlimit:4;stroke-dasharray:none;fill:none;fill-rule: evenodd "/>
<path id="Sketch013_w0001"  d="M -64.1 -13.0 L -64.1 -25.0 L -66.1 -25.0 L -66.1 -13.0 L -64.1 -13.0 " stroke="#000000" stroke-width="0.35 px" style="stroke-width:0.35;stroke-miterlimit:4;stroke-dasharray:none;fill:none;fill-rule: evenodd "/>
<path id="Sketch013_w0002"  d="M -64.1 25.0 L -64.1 13.0 L -66.1 13.0 L -66.1 25.0 L -64.1 25.0 " stroke="#000000" stroke-width="0.35 px" style="stroke-width:0.35;stroke-miterlimit:4;stroke-dasharray:none;fill:none;fill-rule: evenodd "/>
<path id="Sketch013_w0003"  d="M -93.9 25.0 L -93.9 13.0 L -95.9 13.0 L -95.9 25.0 L -93.9 25.0 " stroke="#000000" stroke-width="0.35 px" style="stroke-width:0.35;stroke-miterlimit:4;stroke-dasharray:none;fill:none;fill-rule: evenodd "/>
<path id="Sketch013_w0004"  d="M -93.9 -13.0 L -93.9 -25.0 L -95.9 -25.0 L -95.9 -13.0 L -93.9 -13.0 " stroke="#000000" stroke-width="0.35 px" style="stroke-width:0.35;stroke-miterlimit:4;stroke-dasharray:none;fill:none;fill-rule: evenodd "/>
<circle cx="-86.0" cy="-19.675" r="3.5" stroke="#000000" stroke-width="0.35 px" style="stroke-width:0.35;stroke-miterlimit:4;stroke-dasharray:none;fill:none"/>
<path id="Sketch013_w0006"  d="M -78.5 35.68 L -78.5 26.68 L -89.5 26.68 L -89.5 35.68 L -78.5 35.68 " stroke="#000000" stroke-width="0.35 px" style="stroke-width:0.35;stroke-miterlimit:4;stroke-dasharray:none;fill:none;fill-rule: evenodd "/>
<path id="Sketch013_w0007"  d="M -78.5 18.25 L -78.5 5.05 L -90.0 5.05 L -90.0 18.25 L -78.5 18.25 " stroke="#000000" stroke-width="0.35 px" style="stroke-width:0.35;stroke-miterlimit:4;stroke-dasharray:none;fill:none;fill-rule: evenodd "/>
<title>right</title>
</g>
<g id="Sketch012" transform="translate(103.512500,103.512500) scale(1,-1)">
<path id="Sketch012_w0000"  d="M -56.0 99.5 L -56.0 60.5 L 56.0 60.5 L 56.0 99.5 L -56.0 99.5 " stroke="#000000" stroke-width="0.35 px" style="stroke-width:0.35;stroke-miterlimit:4;stroke-dasharray:none;fill:none;fill-rule: evenodd "/>
<path id="Sketch012_w0001"  d="M -13.0 64.1 L -25.0 64.1 L -25.0 66.1 L -13.0 66.1 L -13.0 64.1 " stroke="#000000" stroke-width="0.35 px" style="stroke-width:0.35;stroke-miterlimit:4;stroke-dasharray:none;fill:none;fill-rule: evenodd "/>
<path id="Sketch012_w0002"  d="M 25.0 64.1 L 13.0 64.1 L 13.0 66.1 L 25.0 66.1 L 25.0 64.1 " stroke="#000000" stroke-width="0.35 px" style="stroke-width:0.35;stroke-miterlimit:4;stroke-dasharray:none;fill:none;fill-rule: evenodd "/>
<path id="Sketch012_w0003"  d="M 25.0 93.9 L 13.0 93.9 L 13.0 95.9 L 25.0 95.9 L 25.0 93.9 " stroke="#000000" stroke-width="0.35 px" style="stroke-width:0.35;stroke-miterlimit:4;stroke-dasharray:none;fill:none;fill-rule: evenodd "/>
<path id="Sketch012_w0004"  d="M -13.0 93.9 L -25.0 93.9 L -25.0 95.9 L -13.0 95.9 L -13.0 93.9 " stroke="#000000" stroke-width="0.35 px" style="stroke-width:0.35;stroke-miterlimit:4;stroke-dasharray:none;fill:none;fill-rule: evenodd "/>
<path id="Sketch012_w0005"  d="M 52.4 66.5 L 50.4 66.5 L 50.4 73.5 L 52.4 73.5 L 52.4 66.5 " stroke="#000000" stroke-width="0.35 px" style="stroke-width:0.35;stroke-miterlimit:4;stroke-dasharray:none;fill:none;fill-rule: evenodd "/>
<path id="Sketch012_w0006"  d="M 52.4 89.5 L 50.4 89.5 L 50.4 96.5 L 52.4 96.5 L 52.4 89.5 " stroke="#000000" stroke-width="0.35 px" style="stroke-width:0.35;stroke-miterlimit:4;stroke-dasharray:none;fill:none;fill-rule: evenodd "/>
<path id="Sketch012_w0007"  d="M -50.4 66.5 L -52.4 66.5 L -52.4 73.5 L -50.4 73.5 L -50.4 66.5 " stroke="#000000" stroke-width="0.35 px" style="stroke-width:0.35;stroke-miterlimit:4;stroke-dasharray:none;fill:none;fill-rule: evenodd "/>
<path id="Sketch012_w0008"  d="M -50.4 89.5 L -52.4 89.5 L -52.4 96.5 L -50.4 96.5 L -50.4 89.5 " stroke="#000000" stroke-width="0.35 px" style="stroke-width:0.35;stroke-miterlimit:4;stroke-dasharray:none;fill:none;fill-rule: evenodd "/>
<title>up</title>
</g>
<g id="Sketch014" transform="translate(103.512500,103.512500) scale(1,-1)">
<path id="Sketch014_w0000"  d="M 238.25 -45.0 L 238.25 45.0 L 281.75 45.0 L 281.75 -45.0 L 238.25 -45.0 " stroke="#000000" stroke-width="0.35 px" style="stroke-width:0.35;stroke-miterlimit:4;stroke-dasharray:none;fill:none;fill-rule: evenodd "/>
<path id="Sketch014_w0001"  d="M 218.25 -45.0 L 218.25 45.0 L 233.25 45.0 L 233.25 -45.0 L 218.25 -45.0 " stroke="#000000" stroke-width="0.35 px" style="stroke-width:0.35;stroke-miterlimit:4;stroke-dasharray:none;fill:none;fill-rule: evenodd "/>
<path id="Sketch014_w0002"  d="M 286.75 -45.0 L 286.75 45.0 L 301.75 45.0 L 301.75 -45.0 L 286.75 -45.0 " stroke="#000000" stroke-width="0.35 px" style="stroke-width:0.35;stroke-miterlimit:4;stroke-dasharray:none;fill:none;fill-rule: evenodd "/>
<path id="Sketch014_w0003"  d="M 241.25 50.0 L 241.25 65.0 L 278.75 65.0 L 278.75 50.0 L 241.25 50.0 " stroke="#000000" stroke-width="0.35 px" style="stroke-width:0.35;stroke-miterlimit:4;stroke-dasharray:none;fill:none;fill-rule: evenodd "/>
<path id="Sketch014_w0004"  d="M 241.25 -65.0 L 241.25 -50.0 L 278.75 -50.0 L 278.75 -65.0 L 241.25 -65.0 " stroke="#000000" stroke-width="0.35 px" style="stroke-width:0.35;stroke-miterlimit:4;stroke-dasharray:none;fill:none;fill-rule: evenodd "/>
<circle cx="260.0" cy="-57.5" r="3.5" stroke="#000000" stroke-width="0.35 px" style="stroke-width:0.35;stroke-miterlimit:4;stroke-dasharray:none;fill:none"/>
<circle cx="260.0" cy="57.5" r="3.5" stroke="#000000" stroke-width="0.35 px" style="stroke-width:0.35;stroke-miterlimit:4;stroke-dasharray:none;fill:none"/>
<title>Plexi</title>
</g>
<g id="Sketch015" transform="translate(103.512500,103.512500) scale(1,-1)">
<path id="Sketch015_w0000"  d="M 56.0 -99.5 L 56.0 -60.5 L -56.0 -60.5 L -56.0 -99.5 L 56.0 -99.5 " stroke="#000000" stroke-width="0.35 px" style="stroke-width:0.35;stroke-miterlimit:4;stroke-dasharray:none;fill:none;fill-rule: evenodd "/>
<path id="Sketch015_w0001"  d="M 13.0 -64.1 L 25.0 -64.1 L 25.0 -66.1 L 13.0 -66.1 L 13.0 -64.1 " stroke="#000000" stroke-width="0.35 px" style="stroke-width:0.35;stroke-miterlimit:4;stroke-dasharray:none;fill:none;fill-rule: evenodd "/>
<path id="Sketch015_w0002"  d="M -25.0 -64.1 L -13.0 -64.1 L -13.0 -66.1 L -25.0 -66.1 L -25.0 -64.1 " stroke="#000000" stroke-width="0.35 px" style="stroke-width:0.35;stroke-miterlimit:4;stroke-dasharray:none;fill:none;fill-rule: evenodd "/>
<path id="Sketch015_w0003"  d="M -25.0 -93.9 L -13.0 -93.9 L -13.0 -95.9 L -25.0 -95.9 L -25.0 -93.9 " stroke="#000000" stroke-width="0.35 px" style="stroke-width:0.35;stroke-miterlimit:4;stroke-dasharray:none;fill:none;fill-rule: evenodd "/>
<path id="Sketch015_w0004"  d="M 13.0 -93.9 L 25.0 -93.9 L 25.0 -95.9 L 13.0 -95.9 L 13.0 -93.9 " stroke="#000000" stroke-width="0.35 px" style="stroke-width:0.35;stroke-miterlimit:4;stroke-dasharray:none;fill:none;fill-rule: evenodd "/>
<path id="Sketch015_w0005"  d="M -52.4 -66.5 L -50.4 -66.5 L -50.4 -73.5 L -52.4 -73.5 L -52.4 -66.5 " stroke="#000000" stroke-width="0.35 px" style="stroke-width:0.35;stroke-miterlimit:4;stroke-dasharray:none;fill:none;fill-rule: evenodd "/>
<path id="Sketch015_w0006"  d="M -52.4 -89.5 L -50.4 -89.5 L -50.4 -96.5 L -52.4 -96.5 L -52.4 -89.5 " stroke="#000000" stroke-width="0.35 px" style="stroke-width:0.35;stroke-miterlimit:4;stroke-dasharray:none;fill:none;fill-rule: evenodd "/>
<path id="Sketch015_w0007"  d="M 50.4 -66.5 L 52.4 -66.5 L 52.4 -73.5 L 50.4 -73.5 L 50.4 -66.5 " stroke="#000000" stroke-width="0.35 px" style="stroke-width:0.35;stroke-miterlimit:4;stroke-dasharray:none;fill:none;fill-rule: evenodd "/>
<path id="Sketch015_w0008"  d="M 50.4 -89.5 L 52.4 -89.5 L 52.4 -96.5 L 50.4 -96.5 L 50.4 -89.5 " stroke="#000000" stroke-width="0.35 px" style="stroke-width:0.35;stroke-miterlimit:4;stroke-dasharray:none;fill:none;fill-rule: evenodd "/>
<title>down</title>
</g>
<g id="Sketch010" transform="translate(103.512500,103.512500) scale(1,-1)">
<path id="Sketch010_w0000"  d="M 110.0 50.0 L 135.0 50.0 L 135.0 53.0 L 147.0 53.0 L 147.0 50.0 L 173.0 50.0 L 173.0 53.0 L 185.0 53.0 L 185.0 50.0 L 210.0 50.0 L 210.0 25.0 L 213.0 25.0 L 213.0 13.0 L 210.0 13.0 L 210.0 -13.0 L 213.0 -13.0 L 213.0 -25.0 L 210.0 -25.0 L 210.0 -50.0 L 185.0 -50.0 L 185.0 -53.0 L 173.0 -53.0 L 173.0 -50.0 L 147.0 -50.0 L 147.0 -53.0 L 135.0 -53.0 L 135.0 -50.0 L 110.0 -50.0 L 110.0 -25.0 L 107.0 -25.0 L 107.0 -13.0 L 110.0 -13.0 L 110.0 13.0 L 107.0 13.0 L 107.0 25.0 L 110.0 25.0 L 110.0 50.0 " stroke="#000000" stroke-width="0.35 px" style="stroke-width:0.35;stroke-miterlimit:4;stroke-dasharray:none;fill:none;fill-rule: evenodd "/>
<path id="Sketch010_w0001"  d="M 116.2 2.0 A 1.2 1.2 0 1 1 115 0.8L 115.0 -40.3 A 1.2 1.2 0 1 1 116.2 -41.5L 203.8 -41.5 A 1.2 1.2 0 1 1 205 -40.3L 205.0 0.8 A 1.2 1.2 0 1 1 203.8 2L 116.2 2.0 " stroke="#000000" stroke-width="0.35 px" style="stroke-width:0.35;stroke-miterlimit:4;stroke-dasharray:none;fill:none;fill-rule: evenodd "/>
<title>Top</title>
</g>
</svg>