<?xml version="1.0"?>
<!DOCTYPE svg PUBLIC "-//W3C//DTD SVG 1.1//EN" "http://www.w3.org/Graphics/SVG/1.1/DTD/svg11.dtd">
<svg width="318.75mm" height="205.25mm" viewBox="0 0 318.75 205.25" xmlns="http://www.w3.org/2000/svg" version="1.1">
<g id="Sketch" transform="translate(102.625000,102.625000) scale(1,-1)">
<path id="Sketch_w0000"  d="M -50.0 50.0 L -25.0 50.0 L -25.0 53.0 L -13.0 53.0 L -13.0 50.0 L 13.0 50.0 L 13.0 53.0 L 25.0 53.0 L 25.0 50.0 L 50.0 50.0 L 50.0 25.0 L 53.0 25.0 L 53.0 13.0 L 50.0 13.0 L 50.0 -13.0 L 53.0 -13.0 L 53.0 -25.0 L 50.0 -25.0 L 50.0 -50.0 L 25.0 -50.0 L 25.0 -53.0 L 13.0 -53.0 L 13.0 -50.0 L -13.0 -50.0 L -13.0 -53.0 L -25.0 -53.0 L -25.0 -50.0 L -50.0 -50.0 L -50.0 -25.0 L -53.0 -25.0 L -53.0 -13.0 L -50.0 -13.0 L -50.0 13.0 L -53.0 13.0 L -53.0 25.0 L -50.0 25.0 L -50.0 50.0 " stroke="#000000" stroke-width="0.35 px" style="stroke-width:0.35;stroke-miterlimit:4;stroke-dasharray:none;fill:none;fill-rule: evenodd "/>
<circle cx="-46.6" cy="46.6" r="1.5" stroke="#000000" stroke-width="0.35 px" style="stroke-width:0.35;stroke-miterlimit:4;stroke-dasharray:none;fill:none"/>
<circle cx="46.6" cy="46.6" r="1.5" stroke="#000000" stroke-width="0.35 px" style="stroke-width:0.35;stroke-miterlimit:4;stroke-dasharray:none;fill:none"/>
<circle cx="46.6" cy="-46.6" r="1.5" stroke="#000000" stroke-width="0.35 px" style="stroke-width:0.35;stroke-miterlimit:4;stroke-dasharray:none;fill:none"/>
<circle cx="-46.6" cy="-46.6" r="1.5" stroke="#000000" stroke-width="0.35 px" style="stroke-width:0.35;stroke-miterlimit:4;stroke-dasharray:none;fill:none"/>
<path id="Sketch_w0005"  d="M -25.35 36.53 L 45.35 36.53 L 45.35 12.73 L -25.35 12.73 L -25.35 36.53 " stroke="#000000" stroke-width="0.35 px" style="stroke-width:0.35;stroke-miterlimit:4;stroke-dasharray:none;fill:none;fill-rule: evenodd "/>
<title>Bottom</title>
</g>
<g id="Sketch014" transform="translate(102.625000,102.625000) scale(1,-1)">
<path id="Sketch014_w0000"  d="M 56.0 -99.5 L 56.0 -60.5 L -56.0 -60.5 L -56.0 -99.5 L 56.0 -99.5 " stroke="#000000" stroke-width="0.35 px" style="stroke-width:0.35;stroke-miterlimit:4;stroke-dasharray:none;fill:none;fill-rule: evenodd "/>
<path id="Sketch014_w0001"  d="M 13.0 -63.5 L 25.0 -63.5 L 25.0 -66.5 L 13.0 -66.5 L 13.0 -63.5 " stroke="#000000" stroke-width="0.35 px" style="stroke-width:0.35;stroke-miterlimit:4;stroke-dasharray:none;fill:none;fill-rule: evenodd "/>
<path id="Sketch014_w0002"  d="M -25.0 -63.5 L -13.0 -63.5 L -13.0 -66.5 L -25.0 -66.5 L -25.0 -63.5 " stroke="#000000" stroke-width="0.35 px" style="stroke-width:0.35;stroke-miterlimit:4;stroke-dasharray:none;fill:none;fill-rule: evenodd "/>
<path id="Sketch014_w0003"  d="M -25.0 -93.5 L -13.0 -93.5 L -13.0 -96.5 L -25.0 -96.5 L -25.0 -93.5 " stroke="#000000" stroke-width="0.35 px" style="stroke-width:0.35;stroke-miterlimit:4;stroke-dasharray:none;fill:none;fill-rule: evenodd "/>
<path id="Sketch014_w0004"  d="M 13.0 -93.5 L 25.0 -93.5 L 25.0 -96.5 L 13.0 -96.5 L 13.0 -93.5 " stroke="#000000" stroke-width="0.35 px" style="stroke-width:0.35;stroke-miterlimit:4;stroke-dasharray:none;fill:none;fill-rule: evenodd "/>
<path id="Sketch014_w0005"  d="M -53.0 -66.5 L -50.0 -66.5 L -50.0 -73.5 L -53.0 -73.5 L -53.0 -66.5 " stroke="#000000" stroke-width="0.35 px" style="stroke-width:0.35;stroke-miterlimit:4;stroke-dasharray:none;fill:none;fill-rule: evenodd "/>
<path id="Sketch014_w0006"  d="M -53.0 -89.5 L -50.0 -89.5 L -50.0 -96.5 L -53.0 -96.5 L -53.0 -89.5 " stroke="#000000" stroke-width="0.35 px" style="stroke-width:0.35;stroke-miterlimit:4;stroke-dasharray:none;fill:none;fill-rule: evenodd "/>
<path id="Sketch014_w0007"  d="M 50.0 -66.5 L 53.0 -66.5 L 53.0 -73.5 L 50.0 -73.5 L 50.0 -66.5 " stroke="#000000" stroke-width="0.35 px" style="stroke-width:0.35;stroke-miterlimit:4;stroke-dasharray:none;fill:none;fill-rule: evenodd "/>
<path id="Sketch014_w0008"  d="M 50.0 -89.5 L 53.0 -89.5 L 53.0 -96.5 L 50.0 -96.5 L 50.0 -89.5 " stroke="#000000" stroke-width="0.35 px" style="stroke-width:0.35;stroke-miterlimit:4;stroke-dasharray:none;fill:none;fill-rule: evenodd "/>
<title>down</title>
</g>
<g id="Sketch013" transform="translate(102.625000,102.625000) scale(1,-1)">
<path id="Sketch013_w0000"  d="M -60.5 50.0 L -60.5 -50.0 L -66.5 -50.0 L -66.5 -53.5 L -65.5 -53.5 A 6.08333 6.08333 0 0 0 -73.5 -53.5L -73.5 -50.0 L -89.5 -50.0 L -89.5 -53.5 A 6.08 6.08 0 0 0 -92 -54.8132C -92.0 -45.0 -94.5 -40.0 -94.5 -35.0 A 1.25 1.25 0 1 1 -97 -35C -97.0 -40.0 -94.5 -45.0 -94.5 -54.9182911796 A 6.08 6.08 0 0 0 -97.5 -53.5L -96.5 -53.5 L -96.5 -50.0 L -99.5 -50.0 L -99.5 50.0 L -96.5 50.0 L -96.5 53.5 L -97.5 53.5 A 6.08 6.08 0 0 0 -94.5 54.9183C -94.5 45.0 -97.0 40.0 -97.0 35.0 A 1.25 1.25 0 0 1 -94.5 35C -94.5 40.0 -92.0 45.0 -92.0 54.8131542904 A 6.08 6.08 0 0 0 -89.5 53.5L -89.5 50.0 L -73.5 50.0 L -73.5 53.5 A 6.08333 6.08333 0 0 0 -65.5 53.5L -66.5 53.5 L -66.5 50.0 L -60.5 50.0 " stroke="#000000" stroke-width="0.35 px" style="stroke-width:0.35;stroke-miterlimit:4;stroke-dasharray:none;fill:none;fill-rule: evenodd "/>
<path id="Sketch013_w0001"  d="M -63.5 -13.0 L -63.5 -25.0 L -66.5 -25.0 L -66.5 -13.0 L -63.5 -13.0 " stroke="#000000" stroke-width="0.35 px" style="stroke-width:0.35;stroke-miterlimit:4;stroke-dasharray:none;fill:none;fill-rule: evenodd "/>
<path id="Sketch013_w0002"  d="M -63.5 25.0 L -63.5 13.0 L -66.5 13.0 L -66.5 25.0 L -63.5 25.0 " stroke="#000000" stroke-width="0.35 px" style="stroke-width:0.35;stroke-miterlimit:4;stroke-dasharray:none;fill:none;fill-rule: evenodd "/>
<path id="Sketch013_w0003"  d="M -93.5 25.0 L -93.5 13.0 L -96.5 13.0 L -96.5 25.0 L -93.5 25.0 " stroke="#000000" stroke-width="0.35 px" style="stroke-width:0.35;stroke-miterlimit:4;stroke-dasharray:none;fill:none;fill-rule: evenodd "/>
<path id="Sketch013_w0004"  d="M -93.5 -13.0 L -93.5 -25.0 L -96.5 -25.0 L -96.5 -13.0 L -93.5 -13.0 " stroke="#000000" stroke-width="0.35 px" style="stroke-width:0.35;stroke-miterlimit:4;stroke-dasharray:none;fill:none;fill-rule: evenodd "/>
<circle cx="-89.0" cy="-19.675" r="2.5" stroke="#000000" stroke-width="0.35 px" style="stroke-width:0.35;stroke-miterlimit:4;stroke-dasharray:none;fill:none"/>
<path id="Sketch013_w0006"  d="M -75.5 35.68 L -75.5 26.68 L -86.5 26.68 L -86.5 35.68 L -75.5 35.68 " stroke="#000000" stroke-width="0.35 px" style="stroke-width:0.35;stroke-miterlimit:4;stroke-dasharray:none;fill:none;fill-rule: evenodd "/>
<path id="Sketch013_w0007"  d="M -75.5 18.25 L -75.5 5.05 L -87.0 5.05 L -87.0 18.25 L -75.5 18.25 " stroke="#000000" stroke-width="0.35 px" style="stroke-width:0.35;stroke-miterlimit:4;stroke-dasharray:none;fill:none;fill-rule: evenodd "/>
<title>right</title>
</g>
<g id="Sketch012" transform="translate(102.625000,102.625000) scale(1,-1)">
<path id="Sketch012_w0000"  d="M -56.0 99.5 L -56.0 60.5 L 56.0 60.5 L 56.0 99.5 L -56.0 99.5 " stroke="#000000" stroke-width="0.35 px" style="stroke-width:0.35;stroke-miterlimit:4;stroke-dasharray:none;fill:none;fill-rule: evenodd "/>
<path id="Sketch012_w0001"  d="M -13.0 63.5 L -25.0 63.5 L -25.0 66.5 L -13.0 66.5 L -13.0 63.5 " stroke="#000000" stroke-width="0.35 px" style="stroke-width:0.35;stroke-miterlimit:4;stroke-dasharray:none;fill:none;fill-rule: evenodd "/>
<path id="Sketch012_w0002"  d="M 25.0 63.5 L 13.0 63.5 L 13.0 66.5 L 25.0 66.5 L 25.0 63.5 " stroke="#000000" stroke-width="0.35 px" style="stroke-width:0.35;stroke-miterlimit:4;stroke-dasharray:none;fill:none;fill-rule: evenodd "/>
<path id="Sketch012_w0003"  d="M 25.0 93.5 L 13.0 93.5 L 13.0 96.5 L 25.0 96.5 L 25.0 93.5 " stroke="#000000" stroke-width="0.35 px" style="stroke-width:0.35;stroke-miterlimit:4;stroke-dasharray:none;fill:none;fill-rule: evenodd "/>
<path id="Sketch012_w0004"  d="M -13.0 93.5 L -25.0 93.5 L -25.0 96.5 L -13.0 96.5 L -13.0 93.5 " stroke="#000000" stroke-width="0.35 px" style="stroke-width:0.35;stroke-miterlimit:4;stroke-dasharray:none;fill:none;fill-rule: evenodd "/>
<path id="Sketch012_w0005"  d="M 53.0 66.5 L 50.0 66.5 L 50.0 73.5 L 53.0 73.5 L 53.0 66.5 " stroke="#000000" stroke-width="0.35 px" style="stroke-width:0.35;stroke-miterlimit:4;stroke-dasharray:none;fill:none;fill-rule: evenodd "/>
<path id="Sketch012_w0006"  d="M 53.0 89.5 L 50.0 89.5 L 50.0 96.5 L 53.0 96.5 L 53.0 89.5 " stroke="#000000" stroke-width="0.35 px" style="stroke-width:0.35;stroke-miterlimit:4;stroke-dasharray:none;fill:none;fill-rule: evenodd "/>
<path id="Sketch012_w0007"  d="M -50.0 66.5 L -53.0 66.5 L -53.0 73.5 L -50.0 73.5 L -50.0 66.5 " stroke="#000000" stroke-width="0.35 px" style="stroke-width:0.35;stroke-miterlimit:4;stroke-dasharray:none;fill:none;fill-rule: evenodd "/>
<path id="Sketch012_w0008"  d="M -50.0 89.5 L -53.0 89.5 L -53.0 96.5 L -50.0 96.5 L -50.0 89.5 " stroke="#000000" stroke-width="0.35 px" style="stroke-width:0.35;stroke-miterlimit:4;stroke-dasharray:none;fill:none;fill-rule: evenodd "/>
<title>up</title>
</g>
<g id="Sketch007" transform="translate(102.625000,102.625000) scale(1,-1)">
<path id="Sketch007_w0000"  d="M 60.5 -50.0 L 60.5 50.0 L 66.5 50.0 L 66.5 53.5 L 65.5 53.5 A 6.08333 6.08333 0 0 0 73.5 53.5L 73.5 50.0 L 89.5 50.0 L 89.5 53.5 A 6.08 6.08 0 0 0 92 54.8132C 92.0 45.0 94.5 40.0 94.5 35.0 A 1.25 1.25 0 1 1 97 35C 97.0 40.0 94.5 45.0 94.5 54.9182911796 A 6.08 6.08 0 0 0 97.5 53.5L 96.5 53.5 L 96.5 50.0 L 99.5 50.0 L 99.5 -50.0 L 96.5 -50.0 L 96.5 -53.5 L 97.5 -53.5 A 6.08 6.08 0 0 0 94.5 -54.9183C 94.5 -45.0 97.0 -40.0 97.0 -35.0 A 1.25 1.25 0 0 1 94.5 -35C 94.5 -40.0 92.0 -45.0 92.0 -54.8131542904 A 6.08 6.08 0 0 0 89.5 -53.5L 89.5 -50.0 L 73.5 -50.0 L 73.5 -53.5 A 6.08333 6.08333 0 0 0 65.5 -53.5L 66.5 -53.5 L 66.5 -50.0 L 60.5 -50.0 " stroke="#000000" stroke-width="0.35 px" style="stroke-width:0.35;stroke-miterlimit:4;stroke-dasharray:none;fill:none;fill-rule: evenodd "/>
<path id="Sketch007_w0001"  d="M 63.5 13.0 L 63.5 25.0 L 66.5 25.0 L 66.5 13.0 L 63.5 13.0 " stroke="#000000" stroke-width="0.35 px" style="stroke-width:0.35;stroke-miterlimit:4;stroke-dasharray:none;fill:none;fill-rule: evenodd "/>
<path id="Sketch007_w0002"  d="M 63.5 -25.0 L 63.5 -13.0 L 66.5 -13.0 L 66.5 -25.0 L 63.5 -25.0 " stroke="#000000" stroke-width="0.35 px" style="stroke-width:0.35;stroke-miterlimit:4;stroke-dasharray:none;fill:none;fill-rule: evenodd "/>
<path id="Sketch007_w0003"  d="M 93.5 -25.0 L 93.5 -13.0 L 96.5 -13.0 L 96.5 -25.0 L 93.5 -25.0 " stroke="#000000" stroke-width="0.35 px" style="stroke-width:0.35;stroke-miterlimit:4;stroke-dasharray:none;fill:none;fill-rule: evenodd "/>
<path id="Sketch007_w0004"  d="M 93.5 13.0 L 93.5 25.0 L 96.5 25.0 L 96.5 13.0 L 93.5 13.0 " stroke="#000000" stroke-width="0.35 px" style="stroke-width:0.35;stroke-miterlimit:4;stroke-dasharray:none;fill:none;fill-rule: evenodd "/>
<circle cx="89.0" cy="-19.675" r="2.5" stroke="#000000" stroke-width="0.35 px" style="stroke-width:0.35;stroke-miterlimit:4;stroke-dasharray:none;fill:none"/>
<title>left</title>
</g>
<g id="Sketch010" transform="translate(102.625000,102.625000) scale(1,-1)">
<path id="Sketch010_w0000"  d="M 110.0 50.0 L 135.0 50.0 L 135.0 53.0 L 147.0 53.0 L 147.0 50.0 L 173.0 50.0 L 173.0 53.0 L 185.0 53.0 L 185.0 50.0 L 210.0 50.0 L 210.0 25.0 L 213.0 25.0 L 213.0 13.0 L 210.0 13.0 L 210.0 -13.0 L 213.0 -13.0 L 213.0 -25.0 L 210.0 -25.0 L 210.0 -50.0 L 185.0 -50.0 L 185.0 -53.0 L 173.0 -53.0 L 173.0 -50.0 L 147.0 -50.0 L 147.0 -53.0 L 135.0 -53.0 L 135.0 -50.0 L 110.0 -50.0 L 110.0 -25.0 L 107.0 -25.0 L 107.0 -13.0 L 110.0 -13.0 L 110.0 13.0 L 107.0 13.0 L 107.0 25.0 L 110.0 25.0 L 110.0 50.0 " stroke="#000000" stroke-width="0.35 px" style="stroke-width:0.35;stroke-miterlimit:4;stroke-dasharray:none;fill:none;fill-rule: evenodd "/>
<path id="Sketch010_w0001"  d="M 112.0 3.5 L 208.0 3.5 L 208.0 -42.85 L 112.0 -42.85 L 112.0 3.5 " stroke="#000000" stroke-width="0.35 px" style="stroke-width:0.35;stroke-miterlimit:4;stroke-dasharray:none;fill:none;fill-rule: evenodd "/>
<title>Top</title>
</g>
</svg>