<?xml version="1.0"?>
<!DOCTYPE svg PUBLIC "-//W3C//DTD SVG 1.1//EN" "http://www.w3.org/Graphics/SVG/1.1/DTD/svg11.dtd">
<svg width="485.01mm" height="210.51mm" viewBox="0 0 485.01 210.51" xmlns="http://www.w3.org/2000/svg" version="1.1">
<g id="Sketch" transform="translate(105.255000,105.255000) scale(1,-1)">
<path id="Sketch_w0000"  d="M -52.0 52.0 L -26.0 52.0 L -26.0 55.0 L -14.0 55.0 L -14.0 52.0 L 14.0 52.0 L 14.0 55.0 L 26.0 55.0 L 26.0 52.0 L 52.0 52.0 L 52.0 26.0 L 55.0 26.0 L 55.0 14.0 L 52.0 14.0 L 52.0 -14.0 L 55.0 -14.0 L 55.0 -26.0 L 52.0 -26.0 L 52.0 -52.0 L 26.0 -52.0 L 26.0 -55.0 L 14.0 -55.0 L 14.0 -52.0 L -14.0 -52.0 L -14.0 -55.0 L -26.0 -55.0 L -26.0 -52.0 L -52.0 -52.0 L -52.0 -26.0 L -55.0 -26.0 L -55.0 -14.0 L -52.0 -14.0 L -52.0 14.0 L -55.0 14.0 L -55.0 26.0 L -52.0 26.0 L -52.0 52.0 " stroke="#000000" stroke-width="0.35 px" style="stroke-width:0.35;stroke-miterlimit:4;stroke-dasharray:none;fill:none;fill-rule: evenodd "/>
<circle cx="-46.6" cy="46.6" r="1.5" stroke="#000000" stroke-width="0.35 px" style="stroke-width:0.35;stroke-miterlimit:4;stroke-dasharray:none;fill:none"/>
<circle cx="46.6" cy="46.6" r="1.5" stroke="#000000" stroke-width="0.35 px" style="stroke-width:0.35;stroke-miterlimit:4;stroke-dasharray:none;fill:none"/>
<circle cx="46.6" cy="-46.6" r="1.5" stroke="#000000" stroke-width="0.35 px" style="stroke-width:0.35;stroke-miterlimit:4;stroke-dasharray:none;fill:none"/>
<circle cx="-46.6" cy="-46.6" r="1.5" stroke="#000000" stroke-width="0.35 px" style="stroke-width:0.35;stroke-miterlimit:4;stroke-dasharray:none;fill:none"/>
<path id="Sketch_w0005"  d="M -26.0 39.0 L 48.0 39.0 L 48.0 13.0 L -26.0 13.0 L -26.0 39.0 " stroke="#000000" stroke-width="0.35 px" style="stroke-width:0.35;stroke-miterlimit:4;stroke-dasharray:none;fill:none;fill-rule: evenodd "/>
<title>Bottom</title>
</g>
<g id="Sketch017" transform="translate(105.255000,105.255000) scale(1,-1)">
<path id="Sketch017_w0000"  d="M -58.0 -59.5 L 58.0 -59.5 L 58.0 -100.5 L -58.0 -100.5 L -58.0 -59.5 " stroke="#000000" stroke-width="0.35 px" style="stroke-width:0.35;stroke-miterlimit:4;stroke-dasharray:none;fill:none;fill-rule: evenodd "/>
<path id="Sketch017_w0001"  d="M -27.2 -62.5 L -12.8 -62.5 L -12.8 -65.5 L -27.2 -65.5 L -27.2 -62.5 " stroke="#000000" stroke-width="0.35 px" style="stroke-width:0.35;stroke-miterlimit:4;stroke-dasharray:none;fill:none;fill-rule: evenodd "/>
<path id="Sketch017_w0002"  d="M 12.8 -62.5 L 27.2 -62.5 L 27.2 -65.5 L 12.8 -65.5 L 12.8 -62.5 " stroke="#000000" stroke-width="0.35 px" style="stroke-width:0.35;stroke-miterlimit:4;stroke-dasharray:none;fill:none;fill-rule: evenodd "/>
<path id="Sketch017_w0003"  d="M 12.8 -94.5 L 27.2 -94.5 L 27.2 -97.5 L 12.8 -97.5 L 12.8 -94.5 " stroke="#000000" stroke-width="0.35 px" style="stroke-width:0.35;stroke-miterlimit:4;stroke-dasharray:none;fill:none;fill-rule: evenodd "/>
<path id="Sketch017_w0004"  d="M -27.2 -94.5 L -12.8 -94.5 L -12.8 -97.5 L -27.2 -97.5 L -27.2 -94.5 " stroke="#000000" stroke-width="0.35 px" style="stroke-width:0.35;stroke-miterlimit:4;stroke-dasharray:none;fill:none;fill-rule: evenodd "/>
<path id="Sketch017_w0005"  d="M -55.0 -64.3 L -52.0 -64.3 L -52.0 -73.7 L -55.0 -73.7 L -55.0 -64.3 " stroke="#000000" stroke-width="0.35 px" style="stroke-width:0.35;stroke-miterlimit:4;stroke-dasharray:none;fill:none;fill-rule: evenodd "/>
<path id="Sketch017_w0006"  d="M 52.0 -64.3 L 55.0 -64.3 L 55.0 -73.7 L 52.0 -73.7 L 52.0 -64.3 " stroke="#000000" stroke-width="0.35 px" style="stroke-width:0.35;stroke-miterlimit:4;stroke-dasharray:none;fill:none;fill-rule: evenodd "/>
<path id="Sketch017_w0007"  d="M -55.0 -89.3 L -52.0 -89.3 L -52.0 -98.7 L -55.0 -98.7 L -55.0 -89.3 " stroke="#000000" stroke-width="0.35 px" style="stroke-width:0.35;stroke-miterlimit:4;stroke-dasharray:none;fill:none;fill-rule: evenodd "/>
<path id="Sketch017_w0008"  d="M 52.0 -89.3 L 55.0 -89.3 L 55.0 -98.7 L 52.0 -98.7 L 52.0 -89.3 " stroke="#000000" stroke-width="0.35 px" style="stroke-width:0.35;stroke-miterlimit:4;stroke-dasharray:none;fill:none;fill-rule: evenodd "/>
<title>down</title>
</g>
<g id="Sketch019" transform="translate(105.255000,105.255000) scale(1,-1)">
<path id="Sketch019_w0000"  d="M 255.0 54.0 L 345.0 54.0 L 345.0 34.0 L 255.0 34.0 L 255.0 54.0 " stroke="#000000" stroke-width="0.35 px" style="stroke-width:0.35;stroke-miterlimit:4;stroke-dasharray:none;fill:none;fill-rule: evenodd "/>
<title>plexi_up</title>
</g>
<g id="Sketch018" transform="translate(105.255000,105.255000) scale(1,-1)">
<path id="Sketch018_w0000"  d="M 255.0 22.0 L 345.0 22.0 L 345.0 -22.0 L 255.0 -22.0 L 255.0 22.0 " stroke="#000000" stroke-width="0.35 px" style="stroke-width:0.35;stroke-miterlimit:4;stroke-dasharray:none;fill:none;fill-rule: evenodd "/>
<title>plexi_top</title>
</g>
<g id="Sketch020" transform="translate(105.255000,105.255000) scale(1,-1)">
<path id="Sketch020_w0000"  d="M 255.0 -34.0 L 345.0 -34.0 L 345.0 -54.0 L 255.0 -54.0 L 255.0 -34.0 " stroke="#000000" stroke-width="0.35 px" style="stroke-width:0.35;stroke-miterlimit:4;stroke-dasharray:none;fill:none;fill-rule: evenodd "/>
<title>plexi_down</title>
</g>
<g id="Sketch007" transform="translate(105.255000,105.255000) scale(1,-1)">
<path id="Sketch007_w0000"  d="M 59.5 -52.0 L 59.5 52.0 L 65.5 52.0 L 65.5 55.5 L 63.5 55.5 A 6.0208 6.0208 0 0 0 72.5 55.5L 72.5 52.0 L 90.5 52.0 L 90.5 55.5 A 6.08 6.08 0 0 0 93 57.1531C 93.0 47.0 95.5 42.0 95.5 37.0 A 1.25 1.25 0 1 1 98 37C 98.0 42.0 95.5 47.0 95.5 57.4708364795 A 6.08 6.08 0 0 0 99.5 55.5L 97.5 55.5 L 97.5 52.0 L 100.5 52.0 L 100.5 -52.0 L 97.5 -52.0 L 97.5 -55.5 L 99.5 -55.5 A 6.08 6.08 0 0 0 95.5 -57.4708C 95.5 -47.0 98.0 -42.0 98.0 -37.0 A 1.25 1.25 0 0 1 95.5 -37C 95.5 -42.0 93.0 -47.0 93.0 -57.1530679652 A 6.08 6.08 0 0 0 90.5 -55.5L 90.5 -52.0 L 72.5 -52.0 L 72.5 -55.5 A 6.0208 6.0208 0 0 0 63.5 -55.5L 65.5 -55.5 L 65.5 -52.0 L 59.5 -52.0 " stroke="#000000" stroke-width="0.35 px" style="stroke-width:0.35;stroke-miterlimit:4;stroke-dasharray:none;fill:none;fill-rule: evenodd "/>
<path id="Sketch007_w0001"  d="M 62.5 -27.2 L 62.5 -12.8 L 65.5 -12.8 L 65.5 -27.2 L 62.5 -27.2 " stroke="#000000" stroke-width="0.35 px" style="stroke-width:0.35;stroke-miterlimit:4;stroke-dasharray:none;fill:none;fill-rule: evenodd "/>
<path id="Sketch007_w0002"  d="M 62.5 12.8 L 62.5 27.2 L 65.5 27.2 L 65.5 12.8 L 62.5 12.8 " stroke="#000000" stroke-width="0.35 px" style="stroke-width:0.35;stroke-miterlimit:4;stroke-dasharray:none;fill:none;fill-rule: evenodd "/>
<path id="Sketch007_w0003"  d="M 94.5 -27.2 L 94.5 -12.8 L 97.5 -12.8 L 97.5 -27.2 L 94.5 -27.2 " stroke="#000000" stroke-width="0.35 px" style="stroke-width:0.35;stroke-miterlimit:4;stroke-dasharray:none;fill:none;fill-rule: evenodd "/>
<path id="Sketch007_w0004"  d="M 94.5 12.8 L 94.5 27.2 L 97.5 27.2 L 97.5 12.8 L 94.5 12.8 " stroke="#000000" stroke-width="0.35 px" style="stroke-width:0.35;stroke-miterlimit:4;stroke-dasharray:none;fill:none;fill-rule: evenodd "/>
<circle cx="84.5" cy="-19.75" r="7.5" stroke="#000000" stroke-width="0.35 px" style="stroke-width:0.35;stroke-miterlimit:4;stroke-dasharray:none;fill:none"/>
<title>left</title>
</g>
<g id="Sketch010" transform="translate(105.255000,105.255000) scale(1,-1)">
<path id="Sketch010_w0000"  d="M 108.0 52.0 L 134.0 52.0 L 134.0 55.0 L 146.0 55.0 L 146.0 52.0 L 174.0 52.0 L 174.0 55.0 L 186.0 55.0 L 186.0 52.0 L 212.0 52.0 L 212.0 26.0 L 215.0 26.0 L 215.0 14.0 L 212.0 14.0 L 212.0 -14.0 L 215.0 -14.0 L 215.0 -26.0 L 212.0 -26.0 L 212.0 -52.0 L 186.0 -52.0 L 186.0 -55.0 L 174.0 -55.0 L 174.0 -52.0 L 146.0 -52.0 L 146.0 -55.0 L 134.0 -55.0 L 134.0 -52.0 L 108.0 -52.0 L 108.0 -26.0 L 105.0 -26.0 L 105.0 -14.0 L 108.0 -14.0 L 108.0 14.0 L 105.0 14.0 L 105.0 26.0 L 108.0 26.0 L 108.0 52.0 " stroke="#000000" stroke-width="0.35 px" style="stroke-width:0.35;stroke-miterlimit:4;stroke-dasharray:none;fill:none;fill-rule: evenodd "/>
<path id="Sketch010_w0001"  d="M 115.2 3.0 A 1.2 1.2 0 1 1 114 1.8L 114.0 -41.3 A 1.2 1.2 0 1 1 115.2 -42.5L 204.8 -42.5 A 1.2 1.2 0 1 1 206 -41.3L 206.0 1.8 A 1.2 1.2 0 1 1 204.8 3L 115.2 3.0 " stroke="#000000" stroke-width="0.35 px" style="stroke-width:0.35;stroke-miterlimit:4;stroke-dasharray:none;fill:none;fill-rule: evenodd "/>
<title>Top</title>
</g>
<g id="Sketch012" transform="translate(105.255000,105.255000) scale(1,-1)">
<path id="Sketch012_w0000"  d="M 58.0 59.5 L -58.0 59.5 L -58.0 100.5 L 58.0 100.5 L 58.0 59.5 " stroke="#000000" stroke-width="0.35 px" style="stroke-width:0.35;stroke-miterlimit:4;stroke-dasharray:none;fill:none;fill-rule: evenodd "/>
<path id="Sketch012_w0001"  d="M 27.2 62.5 L 12.8 62.5 L 12.8 65.5 L 27.2 65.5 L 27.2 62.5 " stroke="#000000" stroke-width="0.35 px" style="stroke-width:0.35;stroke-miterlimit:4;stroke-dasharray:none;fill:none;fill-rule: evenodd "/>
<path id="Sketch012_w0002"  d="M -12.8 62.5 L -27.2 62.5 L -27.2 65.5 L -12.8 65.5 L -12.8 62.5 " stroke="#000000" stroke-width="0.35 px" style="stroke-width:0.35;stroke-miterlimit:4;stroke-dasharray:none;fill:none;fill-rule: evenodd "/>
<path id="Sketch012_w0003"  d="M -12.8 94.5 L -27.2 94.5 L -27.2 97.5 L -12.8 97.5 L -12.8 94.5 " stroke="#000000" stroke-width="0.35 px" style="stroke-width:0.35;stroke-miterlimit:4;stroke-dasharray:none;fill:none;fill-rule: evenodd "/>
<path id="Sketch012_w0004"  d="M 27.2 94.5 L 12.8 94.5 L 12.8 97.5 L 27.2 97.5 L 27.2 94.5 " stroke="#000000" stroke-width="0.35 px" style="stroke-width:0.35;stroke-miterlimit:4;stroke-dasharray:none;fill:none;fill-rule: evenodd "/>
<path id="Sketch012_w0005"  d="M 55.0 64.3 L 52.0 64.3 L 52.0 73.7 L 55.0 73.7 L 55.0 64.3 " stroke="#000000" stroke-width="0.35 px" style="stroke-width:0.35;stroke-miterlimit:4;stroke-dasharray:none;fill:none;fill-rule: evenodd "/>
<path id="Sketch012_w0006"  d="M -52.0 64.3 L -55.0 64.3 L -55.0 73.7 L -52.0 73.7 L -52.0 64.3 " stroke="#000000" stroke-width="0.35 px" style="stroke-width:0.35;stroke-miterlimit:4;stroke-dasharray:none;fill:none;fill-rule: evenodd "/>
<path id="Sketch012_w0007"  d="M 55.0 89.3 L 52.0 89.3 L 52.0 98.7 L 55.0 98.7 L 55.0 89.3 " stroke="#000000" stroke-width="0.35 px" style="stroke-width:0.35;stroke-miterlimit:4;stroke-dasharray:none;fill:none;fill-rule: evenodd "/>
<path id="Sketch012_w0008"  d="M -52.0 89.3 L -55.0 89.3 L -55.0 98.7 L -52.0 98.7 L -52.0 89.3 " stroke="#000000" stroke-width="0.35 px" style="stroke-width:0.35;stroke-miterlimit:4;stroke-dasharray:none;fill:none;fill-rule: evenodd "/>
<title>up</title>
</g>
<g id="Sketch016" transform="translate(105.255000,105.255000) scale(1,-1)">
<path id="Sketch016_w0000"  d="M -59.5 52.0 L -59.5 -52.0 L -65.5 -52.0 L -65.5 -55.5 L -63.5 -55.5 A 6.0208 6.0208 0 0 0 -72.5 -55.5L -72.5 -52.0 L -90.5 -52.0 L -90.5 -55.5 A 6.08 6.08 0 0 0 -93 -57.1531C -93.0 -47.0 -95.5 -42.0 -95.5 -37.0 A 1.25 1.25 0 1 1 -98 -37C -98.0 -42.0 -95.5 -47.0 -95.5 -57.4708364795 A 6.08 6.08 0 0 0 -99.5 -55.5L -97.5 -55.5 L -97.5 -52.0 L -100.5 -52.0 L -100.5 52.0 L -97.5 52.0 L -97.5 55.5 L -99.5 55.5 A 6.08 6.08 0 0 0 -95.5 57.4708C -95.5 47.0 -98.0 42.0 -98.0 37.0 A 1.25 1.25 0 0 1 -95.5 37C -95.5 42.0 -93.0 47.0 -93.0 57.1530679652 A 6.08 6.08 0 0 0 -90.5 55.5L -90.5 52.0 L -72.5 52.0 L -72.5 55.5 A 6.0208 6.0208 0 0 0 -63.5 55.5L -65.5 55.5 L -65.5 52.0 L -59.5 52.0 " stroke="#000000" stroke-width="0.35 px" style="stroke-width:0.35;stroke-miterlimit:4;stroke-dasharray:none;fill:none;fill-rule: evenodd "/>
<path id="Sketch016_w0001"  d="M -62.5 27.2 L -62.5 12.8 L -65.5 12.8 L -65.5 27.2 L -62.5 27.2 " stroke="#000000" stroke-width="0.35 px" style="stroke-width:0.35;stroke-miterlimit:4;stroke-dasharray:none;fill:none;fill-rule: evenodd "/>
<path id="Sketch016_w0002"  d="M -62.5 -12.8 L -62.5 -27.2 L -65.5 -27.2 L -65.5 -12.8 L -62.5 -12.8 " stroke="#000000" stroke-width="0.35 px" style="stroke-width:0.35;stroke-miterlimit:4;stroke-dasharray:none;fill:none;fill-rule: evenodd "/>
<path id="Sketch016_w0003"  d="M -94.5 27.2 L -94.5 12.8 L -97.5 12.8 L -97.5 27.2 L -94.5 27.2 " stroke="#000000" stroke-width="0.35 px" style="stroke-width:0.35;stroke-miterlimit:4;stroke-dasharray:none;fill:none;fill-rule: evenodd "/>
<path id="Sketch016_w0004"  d="M -94.5 -12.8 L -94.5 -27.2 L -97.5 -27.2 L -97.5 -12.8 L -94.5 -12.8 " stroke="#000000" stroke-width="0.35 px" style="stroke-width:0.35;stroke-miterlimit:4;stroke-dasharray:none;fill:none;fill-rule: evenodd "/>
<circle cx="-84.5" cy="-19.75" r="7.5" stroke="#000000" stroke-width="0.35 px" style="stroke-width:0.35;stroke-miterlimit:4;stroke-dasharray:none;fill:none"/>
<path id="Sketch016_w0006"  d="M -74.5 35.68 L -74.5 26.68 L -85.5 26.68 L -85.5 35.68 L -74.5 35.68 " stroke="#000000" stroke-width="0.35 px" style="stroke-width:0.35;stroke-miterlimit:4;stroke-dasharray:none;fill:none;fill-rule: evenodd "/>
<path id="Sketch016_w0007"  d="M -74.5 18.25 L -74.5 5.05 L -86.0 5.05 L -86.0 18.25 L -74.5 18.25 " stroke="#000000" stroke-width="0.35 px" style="stroke-width:0.35;stroke-miterlimit:4;stroke-dasharray:none;fill:none;fill-rule: evenodd "/>
<title>right</title>
</g>
<g id="Sketch022" transform="translate(105.255000,105.255000) scale(1,-1)">
<path id="Sketch022_w0000"  d="M 355.0 19.0 L 375.0 19.0 L 375.0 -19.0 L 355.0 -19.0 L 355.0 19.0 " stroke="#000000" stroke-width="0.35 px" style="stroke-width:0.35;stroke-miterlimit:4;stroke-dasharray:none;fill:none;fill-rule: evenodd "/>
<circle cx="365.0" cy="0.0" r="3.0" stroke="#000000" stroke-width="0.35 px" style="stroke-width:0.35;stroke-miterlimit:4;stroke-dasharray:none;fill:none"/>
<title>plexi_right</title>
</g>
<g id="Sketch021" transform="translate(105.255000,105.255000) scale(1,-1)">
<path id="Sketch021_w0000"  d="M 225.0 19.0 L 245.0 19.0 L 245.0 -19.0 L 225.0 -19.0 L 225.0 19.0 " stroke="#000000" stroke-width="0.35 px" style="stroke-width:0.35;stroke-miterlimit:4;stroke-dasharray:none;fill:none;fill-rule: evenodd "/>
<circle cx="235.0" cy="0.0" r="3.0" stroke="#000000" stroke-width="0.35 px" style="stroke-width:0.35;stroke-miterlimit:4;stroke-dasharray:none;fill:none"/>
<title>plexi_left</title>
</g>
</svg>