G04 #@! TF.GenerationSoftware,KiCad,Pcbnew,5.0.2-5.fc29*
G04 #@! TF.CreationDate,2019-03-25T18:39:32+01:00*
G04 #@! TF.ProjectId,gas-sensor,6761732d-7365-46e7-936f-722e6b696361,rev?*
G04 #@! TF.SameCoordinates,Original*
G04 #@! TF.FileFunction,Paste,Top*
G04 #@! TF.FilePolarity,Positive*
%FSLAX46Y46*%
G04 Gerber Fmt 4.6, Leading zero omitted, Abs format (unit mm)*
G04 Created by KiCad (PCBNEW 5.0.2-5.fc29) date Mon 25 Mar 2019 06:39:32 PM CET*
%MOMM*%
%LPD*%
G01*
G04 APERTURE LIST*
%ADD10C,0.100000*%
%ADD11C,1.150000*%
%ADD12R,0.900000X1.200000*%
%ADD13R,2.000000X1.500000*%
%ADD14R,2.000000X3.800000*%
%ADD15R,2.400000X3.500000*%
%ADD16R,0.550000X1.600000*%
%ADD17R,1.600000X0.550000*%
G04 APERTURE END LIST*
D10*
G04 #@! TO.C,C2*
G36*
X79710762Y-134055806D02*
X79735030Y-134059406D01*
X79758829Y-134065367D01*
X79781928Y-134073632D01*
X79804107Y-134084122D01*
X79825150Y-134096734D01*
X79844856Y-134111349D01*
X79863034Y-134127825D01*
X79879510Y-134146003D01*
X79894125Y-134165709D01*
X79906737Y-134186752D01*
X79917227Y-134208931D01*
X79925492Y-134232030D01*
X79931453Y-134255829D01*
X79935053Y-134280097D01*
X79936257Y-134304601D01*
X79936257Y-135204603D01*
X79935053Y-135229107D01*
X79931453Y-135253375D01*
X79925492Y-135277174D01*
X79917227Y-135300273D01*
X79906737Y-135322452D01*
X79894125Y-135343495D01*
X79879510Y-135363201D01*
X79863034Y-135381379D01*
X79844856Y-135397855D01*
X79825150Y-135412470D01*
X79804107Y-135425082D01*
X79781928Y-135435572D01*
X79758829Y-135443837D01*
X79735030Y-135449798D01*
X79710762Y-135453398D01*
X79686258Y-135454602D01*
X79036256Y-135454602D01*
X79011752Y-135453398D01*
X78987484Y-135449798D01*
X78963685Y-135443837D01*
X78940586Y-135435572D01*
X78918407Y-135425082D01*
X78897364Y-135412470D01*
X78877658Y-135397855D01*
X78859480Y-135381379D01*
X78843004Y-135363201D01*
X78828389Y-135343495D01*
X78815777Y-135322452D01*
X78805287Y-135300273D01*
X78797022Y-135277174D01*
X78791061Y-135253375D01*
X78787461Y-135229107D01*
X78786257Y-135204603D01*
X78786257Y-134304601D01*
X78787461Y-134280097D01*
X78791061Y-134255829D01*
X78797022Y-134232030D01*
X78805287Y-134208931D01*
X78815777Y-134186752D01*
X78828389Y-134165709D01*
X78843004Y-134146003D01*
X78859480Y-134127825D01*
X78877658Y-134111349D01*
X78897364Y-134096734D01*
X78918407Y-134084122D01*
X78940586Y-134073632D01*
X78963685Y-134065367D01*
X78987484Y-134059406D01*
X79011752Y-134055806D01*
X79036256Y-134054602D01*
X79686258Y-134054602D01*
X79710762Y-134055806D01*
X79710762Y-134055806D01*
G37*
D11*
X79361257Y-134754602D03*
D10*
G36*
X81760762Y-134055806D02*
X81785030Y-134059406D01*
X81808829Y-134065367D01*
X81831928Y-134073632D01*
X81854107Y-134084122D01*
X81875150Y-134096734D01*
X81894856Y-134111349D01*
X81913034Y-134127825D01*
X81929510Y-134146003D01*
X81944125Y-134165709D01*
X81956737Y-134186752D01*
X81967227Y-134208931D01*
X81975492Y-134232030D01*
X81981453Y-134255829D01*
X81985053Y-134280097D01*
X81986257Y-134304601D01*
X81986257Y-135204603D01*
X81985053Y-135229107D01*
X81981453Y-135253375D01*
X81975492Y-135277174D01*
X81967227Y-135300273D01*
X81956737Y-135322452D01*
X81944125Y-135343495D01*
X81929510Y-135363201D01*
X81913034Y-135381379D01*
X81894856Y-135397855D01*
X81875150Y-135412470D01*
X81854107Y-135425082D01*
X81831928Y-135435572D01*
X81808829Y-135443837D01*
X81785030Y-135449798D01*
X81760762Y-135453398D01*
X81736258Y-135454602D01*
X81086256Y-135454602D01*
X81061752Y-135453398D01*
X81037484Y-135449798D01*
X81013685Y-135443837D01*
X80990586Y-135435572D01*
X80968407Y-135425082D01*
X80947364Y-135412470D01*
X80927658Y-135397855D01*
X80909480Y-135381379D01*
X80893004Y-135363201D01*
X80878389Y-135343495D01*
X80865777Y-135322452D01*
X80855287Y-135300273D01*
X80847022Y-135277174D01*
X80841061Y-135253375D01*
X80837461Y-135229107D01*
X80836257Y-135204603D01*
X80836257Y-134304601D01*
X80837461Y-134280097D01*
X80841061Y-134255829D01*
X80847022Y-134232030D01*
X80855287Y-134208931D01*
X80865777Y-134186752D01*
X80878389Y-134165709D01*
X80893004Y-134146003D01*
X80909480Y-134127825D01*
X80927658Y-134111349D01*
X80947364Y-134096734D01*
X80968407Y-134084122D01*
X80990586Y-134073632D01*
X81013685Y-134065367D01*
X81037484Y-134059406D01*
X81061752Y-134055806D01*
X81086256Y-134054602D01*
X81736258Y-134054602D01*
X81760762Y-134055806D01*
X81760762Y-134055806D01*
G37*
D11*
X81411257Y-134754602D03*
G04 #@! TD*
D10*
G04 #@! TO.C,C3*
G36*
X131086344Y-139389064D02*
X131110612Y-139392664D01*
X131134411Y-139398625D01*
X131157510Y-139406890D01*
X131179689Y-139417380D01*
X131200732Y-139429992D01*
X131220438Y-139444607D01*
X131238616Y-139461083D01*
X131255092Y-139479261D01*
X131269707Y-139498967D01*
X131282319Y-139520010D01*
X131292809Y-139542189D01*
X131301074Y-139565288D01*
X131307035Y-139589087D01*
X131310635Y-139613355D01*
X131311839Y-139637859D01*
X131311839Y-140537861D01*
X131310635Y-140562365D01*
X131307035Y-140586633D01*
X131301074Y-140610432D01*
X131292809Y-140633531D01*
X131282319Y-140655710D01*
X131269707Y-140676753D01*
X131255092Y-140696459D01*
X131238616Y-140714637D01*
X131220438Y-140731113D01*
X131200732Y-140745728D01*
X131179689Y-140758340D01*
X131157510Y-140768830D01*
X131134411Y-140777095D01*
X131110612Y-140783056D01*
X131086344Y-140786656D01*
X131061840Y-140787860D01*
X130411838Y-140787860D01*
X130387334Y-140786656D01*
X130363066Y-140783056D01*
X130339267Y-140777095D01*
X130316168Y-140768830D01*
X130293989Y-140758340D01*
X130272946Y-140745728D01*
X130253240Y-140731113D01*
X130235062Y-140714637D01*
X130218586Y-140696459D01*
X130203971Y-140676753D01*
X130191359Y-140655710D01*
X130180869Y-140633531D01*
X130172604Y-140610432D01*
X130166643Y-140586633D01*
X130163043Y-140562365D01*
X130161839Y-140537861D01*
X130161839Y-139637859D01*
X130163043Y-139613355D01*
X130166643Y-139589087D01*
X130172604Y-139565288D01*
X130180869Y-139542189D01*
X130191359Y-139520010D01*
X130203971Y-139498967D01*
X130218586Y-139479261D01*
X130235062Y-139461083D01*
X130253240Y-139444607D01*
X130272946Y-139429992D01*
X130293989Y-139417380D01*
X130316168Y-139406890D01*
X130339267Y-139398625D01*
X130363066Y-139392664D01*
X130387334Y-139389064D01*
X130411838Y-139387860D01*
X131061840Y-139387860D01*
X131086344Y-139389064D01*
X131086344Y-139389064D01*
G37*
D11*
X130736839Y-140087860D03*
D10*
G36*
X129036344Y-139389064D02*
X129060612Y-139392664D01*
X129084411Y-139398625D01*
X129107510Y-139406890D01*
X129129689Y-139417380D01*
X129150732Y-139429992D01*
X129170438Y-139444607D01*
X129188616Y-139461083D01*
X129205092Y-139479261D01*
X129219707Y-139498967D01*
X129232319Y-139520010D01*
X129242809Y-139542189D01*
X129251074Y-139565288D01*
X129257035Y-139589087D01*
X129260635Y-139613355D01*
X129261839Y-139637859D01*
X129261839Y-140537861D01*
X129260635Y-140562365D01*
X129257035Y-140586633D01*
X129251074Y-140610432D01*
X129242809Y-140633531D01*
X129232319Y-140655710D01*
X129219707Y-140676753D01*
X129205092Y-140696459D01*
X129188616Y-140714637D01*
X129170438Y-140731113D01*
X129150732Y-140745728D01*
X129129689Y-140758340D01*
X129107510Y-140768830D01*
X129084411Y-140777095D01*
X129060612Y-140783056D01*
X129036344Y-140786656D01*
X129011840Y-140787860D01*
X128361838Y-140787860D01*
X128337334Y-140786656D01*
X128313066Y-140783056D01*
X128289267Y-140777095D01*
X128266168Y-140768830D01*
X128243989Y-140758340D01*
X128222946Y-140745728D01*
X128203240Y-140731113D01*
X128185062Y-140714637D01*
X128168586Y-140696459D01*
X128153971Y-140676753D01*
X128141359Y-140655710D01*
X128130869Y-140633531D01*
X128122604Y-140610432D01*
X128116643Y-140586633D01*
X128113043Y-140562365D01*
X128111839Y-140537861D01*
X128111839Y-139637859D01*
X128113043Y-139613355D01*
X128116643Y-139589087D01*
X128122604Y-139565288D01*
X128130869Y-139542189D01*
X128141359Y-139520010D01*
X128153971Y-139498967D01*
X128168586Y-139479261D01*
X128185062Y-139461083D01*
X128203240Y-139444607D01*
X128222946Y-139429992D01*
X128243989Y-139417380D01*
X128266168Y-139406890D01*
X128289267Y-139398625D01*
X128313066Y-139392664D01*
X128337334Y-139389064D01*
X128361838Y-139387860D01*
X129011840Y-139387860D01*
X129036344Y-139389064D01*
X129036344Y-139389064D01*
G37*
D11*
X128686839Y-140087860D03*
G04 #@! TD*
D10*
G04 #@! TO.C,C4*
G36*
X131091344Y-143049064D02*
X131115612Y-143052664D01*
X131139411Y-143058625D01*
X131162510Y-143066890D01*
X131184689Y-143077380D01*
X131205732Y-143089992D01*
X131225438Y-143104607D01*
X131243616Y-143121083D01*
X131260092Y-143139261D01*
X131274707Y-143158967D01*
X131287319Y-143180010D01*
X131297809Y-143202189D01*
X131306074Y-143225288D01*
X131312035Y-143249087D01*
X131315635Y-143273355D01*
X131316839Y-143297859D01*
X131316839Y-144197861D01*
X131315635Y-144222365D01*
X131312035Y-144246633D01*
X131306074Y-144270432D01*
X131297809Y-144293531D01*
X131287319Y-144315710D01*
X131274707Y-144336753D01*
X131260092Y-144356459D01*
X131243616Y-144374637D01*
X131225438Y-144391113D01*
X131205732Y-144405728D01*
X131184689Y-144418340D01*
X131162510Y-144428830D01*
X131139411Y-144437095D01*
X131115612Y-144443056D01*
X131091344Y-144446656D01*
X131066840Y-144447860D01*
X130416838Y-144447860D01*
X130392334Y-144446656D01*
X130368066Y-144443056D01*
X130344267Y-144437095D01*
X130321168Y-144428830D01*
X130298989Y-144418340D01*
X130277946Y-144405728D01*
X130258240Y-144391113D01*
X130240062Y-144374637D01*
X130223586Y-144356459D01*
X130208971Y-144336753D01*
X130196359Y-144315710D01*
X130185869Y-144293531D01*
X130177604Y-144270432D01*
X130171643Y-144246633D01*
X130168043Y-144222365D01*
X130166839Y-144197861D01*
X130166839Y-143297859D01*
X130168043Y-143273355D01*
X130171643Y-143249087D01*
X130177604Y-143225288D01*
X130185869Y-143202189D01*
X130196359Y-143180010D01*
X130208971Y-143158967D01*
X130223586Y-143139261D01*
X130240062Y-143121083D01*
X130258240Y-143104607D01*
X130277946Y-143089992D01*
X130298989Y-143077380D01*
X130321168Y-143066890D01*
X130344267Y-143058625D01*
X130368066Y-143052664D01*
X130392334Y-143049064D01*
X130416838Y-143047860D01*
X131066840Y-143047860D01*
X131091344Y-143049064D01*
X131091344Y-143049064D01*
G37*
D11*
X130741839Y-143747860D03*
D10*
G36*
X129041344Y-143049064D02*
X129065612Y-143052664D01*
X129089411Y-143058625D01*
X129112510Y-143066890D01*
X129134689Y-143077380D01*
X129155732Y-143089992D01*
X129175438Y-143104607D01*
X129193616Y-143121083D01*
X129210092Y-143139261D01*
X129224707Y-143158967D01*
X129237319Y-143180010D01*
X129247809Y-143202189D01*
X129256074Y-143225288D01*
X129262035Y-143249087D01*
X129265635Y-143273355D01*
X129266839Y-143297859D01*
X129266839Y-144197861D01*
X129265635Y-144222365D01*
X129262035Y-144246633D01*
X129256074Y-144270432D01*
X129247809Y-144293531D01*
X129237319Y-144315710D01*
X129224707Y-144336753D01*
X129210092Y-144356459D01*
X129193616Y-144374637D01*
X129175438Y-144391113D01*
X129155732Y-144405728D01*
X129134689Y-144418340D01*
X129112510Y-144428830D01*
X129089411Y-144437095D01*
X129065612Y-144443056D01*
X129041344Y-144446656D01*
X129016840Y-144447860D01*
X128366838Y-144447860D01*
X128342334Y-144446656D01*
X128318066Y-144443056D01*
X128294267Y-144437095D01*
X128271168Y-144428830D01*
X128248989Y-144418340D01*
X128227946Y-144405728D01*
X128208240Y-144391113D01*
X128190062Y-144374637D01*
X128173586Y-144356459D01*
X128158971Y-144336753D01*
X128146359Y-144315710D01*
X128135869Y-144293531D01*
X128127604Y-144270432D01*
X128121643Y-144246633D01*
X128118043Y-144222365D01*
X128116839Y-144197861D01*
X128116839Y-143297859D01*
X128118043Y-143273355D01*
X128121643Y-143249087D01*
X128127604Y-143225288D01*
X128135869Y-143202189D01*
X128146359Y-143180010D01*
X128158971Y-143158967D01*
X128173586Y-143139261D01*
X128190062Y-143121083D01*
X128208240Y-143104607D01*
X128227946Y-143089992D01*
X128248989Y-143077380D01*
X128271168Y-143066890D01*
X128294267Y-143058625D01*
X128318066Y-143052664D01*
X128342334Y-143049064D01*
X128366838Y-143047860D01*
X129016840Y-143047860D01*
X129041344Y-143049064D01*
X129041344Y-143049064D01*
G37*
D11*
X128691839Y-143747860D03*
G04 #@! TD*
D10*
G04 #@! TO.C,C6*
G36*
X96120114Y-120829485D02*
X96144382Y-120833085D01*
X96168181Y-120839046D01*
X96191280Y-120847311D01*
X96213459Y-120857801D01*
X96234502Y-120870413D01*
X96254208Y-120885028D01*
X96272386Y-120901504D01*
X96288862Y-120919682D01*
X96303477Y-120939388D01*
X96316089Y-120960431D01*
X96326579Y-120982610D01*
X96334844Y-121005709D01*
X96340805Y-121029508D01*
X96344405Y-121053776D01*
X96345609Y-121078280D01*
X96345609Y-121728282D01*
X96344405Y-121752786D01*
X96340805Y-121777054D01*
X96334844Y-121800853D01*
X96326579Y-121823952D01*
X96316089Y-121846131D01*
X96303477Y-121867174D01*
X96288862Y-121886880D01*
X96272386Y-121905058D01*
X96254208Y-121921534D01*
X96234502Y-121936149D01*
X96213459Y-121948761D01*
X96191280Y-121959251D01*
X96168181Y-121967516D01*
X96144382Y-121973477D01*
X96120114Y-121977077D01*
X96095610Y-121978281D01*
X95195608Y-121978281D01*
X95171104Y-121977077D01*
X95146836Y-121973477D01*
X95123037Y-121967516D01*
X95099938Y-121959251D01*
X95077759Y-121948761D01*
X95056716Y-121936149D01*
X95037010Y-121921534D01*
X95018832Y-121905058D01*
X95002356Y-121886880D01*
X94987741Y-121867174D01*
X94975129Y-121846131D01*
X94964639Y-121823952D01*
X94956374Y-121800853D01*
X94950413Y-121777054D01*
X94946813Y-121752786D01*
X94945609Y-121728282D01*
X94945609Y-121078280D01*
X94946813Y-121053776D01*
X94950413Y-121029508D01*
X94956374Y-121005709D01*
X94964639Y-120982610D01*
X94975129Y-120960431D01*
X94987741Y-120939388D01*
X95002356Y-120919682D01*
X95018832Y-120901504D01*
X95037010Y-120885028D01*
X95056716Y-120870413D01*
X95077759Y-120857801D01*
X95099938Y-120847311D01*
X95123037Y-120839046D01*
X95146836Y-120833085D01*
X95171104Y-120829485D01*
X95195608Y-120828281D01*
X96095610Y-120828281D01*
X96120114Y-120829485D01*
X96120114Y-120829485D01*
G37*
D11*
X95645609Y-121403281D03*
D10*
G36*
X96120114Y-118779485D02*
X96144382Y-118783085D01*
X96168181Y-118789046D01*
X96191280Y-118797311D01*
X96213459Y-118807801D01*
X96234502Y-118820413D01*
X96254208Y-118835028D01*
X96272386Y-118851504D01*
X96288862Y-118869682D01*
X96303477Y-118889388D01*
X96316089Y-118910431D01*
X96326579Y-118932610D01*
X96334844Y-118955709D01*
X96340805Y-118979508D01*
X96344405Y-119003776D01*
X96345609Y-119028280D01*
X96345609Y-119678282D01*
X96344405Y-119702786D01*
X96340805Y-119727054D01*
X96334844Y-119750853D01*
X96326579Y-119773952D01*
X96316089Y-119796131D01*
X96303477Y-119817174D01*
X96288862Y-119836880D01*
X96272386Y-119855058D01*
X96254208Y-119871534D01*
X96234502Y-119886149D01*
X96213459Y-119898761D01*
X96191280Y-119909251D01*
X96168181Y-119917516D01*
X96144382Y-119923477D01*
X96120114Y-119927077D01*
X96095610Y-119928281D01*
X95195608Y-119928281D01*
X95171104Y-119927077D01*
X95146836Y-119923477D01*
X95123037Y-119917516D01*
X95099938Y-119909251D01*
X95077759Y-119898761D01*
X95056716Y-119886149D01*
X95037010Y-119871534D01*
X95018832Y-119855058D01*
X95002356Y-119836880D01*
X94987741Y-119817174D01*
X94975129Y-119796131D01*
X94964639Y-119773952D01*
X94956374Y-119750853D01*
X94950413Y-119727054D01*
X94946813Y-119702786D01*
X94945609Y-119678282D01*
X94945609Y-119028280D01*
X94946813Y-119003776D01*
X94950413Y-118979508D01*
X94956374Y-118955709D01*
X94964639Y-118932610D01*
X94975129Y-118910431D01*
X94987741Y-118889388D01*
X95002356Y-118869682D01*
X95018832Y-118851504D01*
X95037010Y-118835028D01*
X95056716Y-118820413D01*
X95077759Y-118807801D01*
X95099938Y-118797311D01*
X95123037Y-118789046D01*
X95146836Y-118783085D01*
X95171104Y-118779485D01*
X95195608Y-118778281D01*
X96095610Y-118778281D01*
X96120114Y-118779485D01*
X96120114Y-118779485D01*
G37*
D11*
X95645609Y-119353281D03*
G04 #@! TD*
D12*
G04 #@! TO.C,D1*
X72870000Y-127030000D03*
X76170000Y-127030000D03*
G04 #@! TD*
G04 #@! TO.C,D2*
X119780000Y-145710000D03*
X123080000Y-145710000D03*
G04 #@! TD*
G04 #@! TO.C,D3*
X125408674Y-130780878D03*
X128708674Y-130780878D03*
G04 #@! TD*
D10*
G04 #@! TO.C,R1*
G36*
X88375762Y-131850806D02*
X88400030Y-131854406D01*
X88423829Y-131860367D01*
X88446928Y-131868632D01*
X88469107Y-131879122D01*
X88490150Y-131891734D01*
X88509856Y-131906349D01*
X88528034Y-131922825D01*
X88544510Y-131941003D01*
X88559125Y-131960709D01*
X88571737Y-131981752D01*
X88582227Y-132003931D01*
X88590492Y-132027030D01*
X88596453Y-132050829D01*
X88600053Y-132075097D01*
X88601257Y-132099601D01*
X88601257Y-132749603D01*
X88600053Y-132774107D01*
X88596453Y-132798375D01*
X88590492Y-132822174D01*
X88582227Y-132845273D01*
X88571737Y-132867452D01*
X88559125Y-132888495D01*
X88544510Y-132908201D01*
X88528034Y-132926379D01*
X88509856Y-132942855D01*
X88490150Y-132957470D01*
X88469107Y-132970082D01*
X88446928Y-132980572D01*
X88423829Y-132988837D01*
X88400030Y-132994798D01*
X88375762Y-132998398D01*
X88351258Y-132999602D01*
X87451256Y-132999602D01*
X87426752Y-132998398D01*
X87402484Y-132994798D01*
X87378685Y-132988837D01*
X87355586Y-132980572D01*
X87333407Y-132970082D01*
X87312364Y-132957470D01*
X87292658Y-132942855D01*
X87274480Y-132926379D01*
X87258004Y-132908201D01*
X87243389Y-132888495D01*
X87230777Y-132867452D01*
X87220287Y-132845273D01*
X87212022Y-132822174D01*
X87206061Y-132798375D01*
X87202461Y-132774107D01*
X87201257Y-132749603D01*
X87201257Y-132099601D01*
X87202461Y-132075097D01*
X87206061Y-132050829D01*
X87212022Y-132027030D01*
X87220287Y-132003931D01*
X87230777Y-131981752D01*
X87243389Y-131960709D01*
X87258004Y-131941003D01*
X87274480Y-131922825D01*
X87292658Y-131906349D01*
X87312364Y-131891734D01*
X87333407Y-131879122D01*
X87355586Y-131868632D01*
X87378685Y-131860367D01*
X87402484Y-131854406D01*
X87426752Y-131850806D01*
X87451256Y-131849602D01*
X88351258Y-131849602D01*
X88375762Y-131850806D01*
X88375762Y-131850806D01*
G37*
D11*
X87901257Y-132424602D03*
D10*
G36*
X88375762Y-129800806D02*
X88400030Y-129804406D01*
X88423829Y-129810367D01*
X88446928Y-129818632D01*
X88469107Y-129829122D01*
X88490150Y-129841734D01*
X88509856Y-129856349D01*
X88528034Y-129872825D01*
X88544510Y-129891003D01*
X88559125Y-129910709D01*
X88571737Y-129931752D01*
X88582227Y-129953931D01*
X88590492Y-129977030D01*
X88596453Y-130000829D01*
X88600053Y-130025097D01*
X88601257Y-130049601D01*
X88601257Y-130699603D01*
X88600053Y-130724107D01*
X88596453Y-130748375D01*
X88590492Y-130772174D01*
X88582227Y-130795273D01*
X88571737Y-130817452D01*
X88559125Y-130838495D01*
X88544510Y-130858201D01*
X88528034Y-130876379D01*
X88509856Y-130892855D01*
X88490150Y-130907470D01*
X88469107Y-130920082D01*
X88446928Y-130930572D01*
X88423829Y-130938837D01*
X88400030Y-130944798D01*
X88375762Y-130948398D01*
X88351258Y-130949602D01*
X87451256Y-130949602D01*
X87426752Y-130948398D01*
X87402484Y-130944798D01*
X87378685Y-130938837D01*
X87355586Y-130930572D01*
X87333407Y-130920082D01*
X87312364Y-130907470D01*
X87292658Y-130892855D01*
X87274480Y-130876379D01*
X87258004Y-130858201D01*
X87243389Y-130838495D01*
X87230777Y-130817452D01*
X87220287Y-130795273D01*
X87212022Y-130772174D01*
X87206061Y-130748375D01*
X87202461Y-130724107D01*
X87201257Y-130699603D01*
X87201257Y-130049601D01*
X87202461Y-130025097D01*
X87206061Y-130000829D01*
X87212022Y-129977030D01*
X87220287Y-129953931D01*
X87230777Y-129931752D01*
X87243389Y-129910709D01*
X87258004Y-129891003D01*
X87274480Y-129872825D01*
X87292658Y-129856349D01*
X87312364Y-129841734D01*
X87333407Y-129829122D01*
X87355586Y-129818632D01*
X87378685Y-129810367D01*
X87402484Y-129804406D01*
X87426752Y-129800806D01*
X87451256Y-129799602D01*
X88351258Y-129799602D01*
X88375762Y-129800806D01*
X88375762Y-129800806D01*
G37*
D11*
X87901257Y-130374602D03*
G04 #@! TD*
D10*
G04 #@! TO.C,R2*
G36*
X113522439Y-135043959D02*
X113546707Y-135047559D01*
X113570506Y-135053520D01*
X113593605Y-135061785D01*
X113615784Y-135072275D01*
X113636827Y-135084887D01*
X113656533Y-135099502D01*
X113674711Y-135115978D01*
X113691187Y-135134156D01*
X113705802Y-135153862D01*
X113718414Y-135174905D01*
X113728904Y-135197084D01*
X113737169Y-135220183D01*
X113743130Y-135243982D01*
X113746730Y-135268250D01*
X113747934Y-135292754D01*
X113747934Y-136192756D01*
X113746730Y-136217260D01*
X113743130Y-136241528D01*
X113737169Y-136265327D01*
X113728904Y-136288426D01*
X113718414Y-136310605D01*
X113705802Y-136331648D01*
X113691187Y-136351354D01*
X113674711Y-136369532D01*
X113656533Y-136386008D01*
X113636827Y-136400623D01*
X113615784Y-136413235D01*
X113593605Y-136423725D01*
X113570506Y-136431990D01*
X113546707Y-136437951D01*
X113522439Y-136441551D01*
X113497935Y-136442755D01*
X112847933Y-136442755D01*
X112823429Y-136441551D01*
X112799161Y-136437951D01*
X112775362Y-136431990D01*
X112752263Y-136423725D01*
X112730084Y-136413235D01*
X112709041Y-136400623D01*
X112689335Y-136386008D01*
X112671157Y-136369532D01*
X112654681Y-136351354D01*
X112640066Y-136331648D01*
X112627454Y-136310605D01*
X112616964Y-136288426D01*
X112608699Y-136265327D01*
X112602738Y-136241528D01*
X112599138Y-136217260D01*
X112597934Y-136192756D01*
X112597934Y-135292754D01*
X112599138Y-135268250D01*
X112602738Y-135243982D01*
X112608699Y-135220183D01*
X112616964Y-135197084D01*
X112627454Y-135174905D01*
X112640066Y-135153862D01*
X112654681Y-135134156D01*
X112671157Y-135115978D01*
X112689335Y-135099502D01*
X112709041Y-135084887D01*
X112730084Y-135072275D01*
X112752263Y-135061785D01*
X112775362Y-135053520D01*
X112799161Y-135047559D01*
X112823429Y-135043959D01*
X112847933Y-135042755D01*
X113497935Y-135042755D01*
X113522439Y-135043959D01*
X113522439Y-135043959D01*
G37*
D11*
X113172934Y-135742755D03*
D10*
G36*
X111472439Y-135043959D02*
X111496707Y-135047559D01*
X111520506Y-135053520D01*
X111543605Y-135061785D01*
X111565784Y-135072275D01*
X111586827Y-135084887D01*
X111606533Y-135099502D01*
X111624711Y-135115978D01*
X111641187Y-135134156D01*
X111655802Y-135153862D01*
X111668414Y-135174905D01*
X111678904Y-135197084D01*
X111687169Y-135220183D01*
X111693130Y-135243982D01*
X111696730Y-135268250D01*
X111697934Y-135292754D01*
X111697934Y-136192756D01*
X111696730Y-136217260D01*
X111693130Y-136241528D01*
X111687169Y-136265327D01*
X111678904Y-136288426D01*
X111668414Y-136310605D01*
X111655802Y-136331648D01*
X111641187Y-136351354D01*
X111624711Y-136369532D01*
X111606533Y-136386008D01*
X111586827Y-136400623D01*
X111565784Y-136413235D01*
X111543605Y-136423725D01*
X111520506Y-136431990D01*
X111496707Y-136437951D01*
X111472439Y-136441551D01*
X111447935Y-136442755D01*
X110797933Y-136442755D01*
X110773429Y-136441551D01*
X110749161Y-136437951D01*
X110725362Y-136431990D01*
X110702263Y-136423725D01*
X110680084Y-136413235D01*
X110659041Y-136400623D01*
X110639335Y-136386008D01*
X110621157Y-136369532D01*
X110604681Y-136351354D01*
X110590066Y-136331648D01*
X110577454Y-136310605D01*
X110566964Y-136288426D01*
X110558699Y-136265327D01*
X110552738Y-136241528D01*
X110549138Y-136217260D01*
X110547934Y-136192756D01*
X110547934Y-135292754D01*
X110549138Y-135268250D01*
X110552738Y-135243982D01*
X110558699Y-135220183D01*
X110566964Y-135197084D01*
X110577454Y-135174905D01*
X110590066Y-135153862D01*
X110604681Y-135134156D01*
X110621157Y-135115978D01*
X110639335Y-135099502D01*
X110659041Y-135084887D01*
X110680084Y-135072275D01*
X110702263Y-135061785D01*
X110725362Y-135053520D01*
X110749161Y-135047559D01*
X110773429Y-135043959D01*
X110797933Y-135042755D01*
X111447935Y-135042755D01*
X111472439Y-135043959D01*
X111472439Y-135043959D01*
G37*
D11*
X111122934Y-135742755D03*
G04 #@! TD*
D10*
G04 #@! TO.C,R3*
G36*
X98360114Y-120839485D02*
X98384382Y-120843085D01*
X98408181Y-120849046D01*
X98431280Y-120857311D01*
X98453459Y-120867801D01*
X98474502Y-120880413D01*
X98494208Y-120895028D01*
X98512386Y-120911504D01*
X98528862Y-120929682D01*
X98543477Y-120949388D01*
X98556089Y-120970431D01*
X98566579Y-120992610D01*
X98574844Y-121015709D01*
X98580805Y-121039508D01*
X98584405Y-121063776D01*
X98585609Y-121088280D01*
X98585609Y-121738282D01*
X98584405Y-121762786D01*
X98580805Y-121787054D01*
X98574844Y-121810853D01*
X98566579Y-121833952D01*
X98556089Y-121856131D01*
X98543477Y-121877174D01*
X98528862Y-121896880D01*
X98512386Y-121915058D01*
X98494208Y-121931534D01*
X98474502Y-121946149D01*
X98453459Y-121958761D01*
X98431280Y-121969251D01*
X98408181Y-121977516D01*
X98384382Y-121983477D01*
X98360114Y-121987077D01*
X98335610Y-121988281D01*
X97435608Y-121988281D01*
X97411104Y-121987077D01*
X97386836Y-121983477D01*
X97363037Y-121977516D01*
X97339938Y-121969251D01*
X97317759Y-121958761D01*
X97296716Y-121946149D01*
X97277010Y-121931534D01*
X97258832Y-121915058D01*
X97242356Y-121896880D01*
X97227741Y-121877174D01*
X97215129Y-121856131D01*
X97204639Y-121833952D01*
X97196374Y-121810853D01*
X97190413Y-121787054D01*
X97186813Y-121762786D01*
X97185609Y-121738282D01*
X97185609Y-121088280D01*
X97186813Y-121063776D01*
X97190413Y-121039508D01*
X97196374Y-121015709D01*
X97204639Y-120992610D01*
X97215129Y-120970431D01*
X97227741Y-120949388D01*
X97242356Y-120929682D01*
X97258832Y-120911504D01*
X97277010Y-120895028D01*
X97296716Y-120880413D01*
X97317759Y-120867801D01*
X97339938Y-120857311D01*
X97363037Y-120849046D01*
X97386836Y-120843085D01*
X97411104Y-120839485D01*
X97435608Y-120838281D01*
X98335610Y-120838281D01*
X98360114Y-120839485D01*
X98360114Y-120839485D01*
G37*
D11*
X97885609Y-121413281D03*
D10*
G36*
X98360114Y-118789485D02*
X98384382Y-118793085D01*
X98408181Y-118799046D01*
X98431280Y-118807311D01*
X98453459Y-118817801D01*
X98474502Y-118830413D01*
X98494208Y-118845028D01*
X98512386Y-118861504D01*
X98528862Y-118879682D01*
X98543477Y-118899388D01*
X98556089Y-118920431D01*
X98566579Y-118942610D01*
X98574844Y-118965709D01*
X98580805Y-118989508D01*
X98584405Y-119013776D01*
X98585609Y-119038280D01*
X98585609Y-119688282D01*
X98584405Y-119712786D01*
X98580805Y-119737054D01*
X98574844Y-119760853D01*
X98566579Y-119783952D01*
X98556089Y-119806131D01*
X98543477Y-119827174D01*
X98528862Y-119846880D01*
X98512386Y-119865058D01*
X98494208Y-119881534D01*
X98474502Y-119896149D01*
X98453459Y-119908761D01*
X98431280Y-119919251D01*
X98408181Y-119927516D01*
X98384382Y-119933477D01*
X98360114Y-119937077D01*
X98335610Y-119938281D01*
X97435608Y-119938281D01*
X97411104Y-119937077D01*
X97386836Y-119933477D01*
X97363037Y-119927516D01*
X97339938Y-119919251D01*
X97317759Y-119908761D01*
X97296716Y-119896149D01*
X97277010Y-119881534D01*
X97258832Y-119865058D01*
X97242356Y-119846880D01*
X97227741Y-119827174D01*
X97215129Y-119806131D01*
X97204639Y-119783952D01*
X97196374Y-119760853D01*
X97190413Y-119737054D01*
X97186813Y-119712786D01*
X97185609Y-119688282D01*
X97185609Y-119038280D01*
X97186813Y-119013776D01*
X97190413Y-118989508D01*
X97196374Y-118965709D01*
X97204639Y-118942610D01*
X97215129Y-118920431D01*
X97227741Y-118899388D01*
X97242356Y-118879682D01*
X97258832Y-118861504D01*
X97277010Y-118845028D01*
X97296716Y-118830413D01*
X97317759Y-118817801D01*
X97339938Y-118807311D01*
X97363037Y-118799046D01*
X97386836Y-118793085D01*
X97411104Y-118789485D01*
X97435608Y-118788281D01*
X98335610Y-118788281D01*
X98360114Y-118789485D01*
X98360114Y-118789485D01*
G37*
D11*
X97885609Y-119363281D03*
G04 #@! TD*
D10*
G04 #@! TO.C,R4*
G36*
X118179505Y-118491204D02*
X118203773Y-118494804D01*
X118227572Y-118500765D01*
X118250671Y-118509030D01*
X118272850Y-118519520D01*
X118293893Y-118532132D01*
X118313599Y-118546747D01*
X118331777Y-118563223D01*
X118348253Y-118581401D01*
X118362868Y-118601107D01*
X118375480Y-118622150D01*
X118385970Y-118644329D01*
X118394235Y-118667428D01*
X118400196Y-118691227D01*
X118403796Y-118715495D01*
X118405000Y-118739999D01*
X118405000Y-119640001D01*
X118403796Y-119664505D01*
X118400196Y-119688773D01*
X118394235Y-119712572D01*
X118385970Y-119735671D01*
X118375480Y-119757850D01*
X118362868Y-119778893D01*
X118348253Y-119798599D01*
X118331777Y-119816777D01*
X118313599Y-119833253D01*
X118293893Y-119847868D01*
X118272850Y-119860480D01*
X118250671Y-119870970D01*
X118227572Y-119879235D01*
X118203773Y-119885196D01*
X118179505Y-119888796D01*
X118155001Y-119890000D01*
X117504999Y-119890000D01*
X117480495Y-119888796D01*
X117456227Y-119885196D01*
X117432428Y-119879235D01*
X117409329Y-119870970D01*
X117387150Y-119860480D01*
X117366107Y-119847868D01*
X117346401Y-119833253D01*
X117328223Y-119816777D01*
X117311747Y-119798599D01*
X117297132Y-119778893D01*
X117284520Y-119757850D01*
X117274030Y-119735671D01*
X117265765Y-119712572D01*
X117259804Y-119688773D01*
X117256204Y-119664505D01*
X117255000Y-119640001D01*
X117255000Y-118739999D01*
X117256204Y-118715495D01*
X117259804Y-118691227D01*
X117265765Y-118667428D01*
X117274030Y-118644329D01*
X117284520Y-118622150D01*
X117297132Y-118601107D01*
X117311747Y-118581401D01*
X117328223Y-118563223D01*
X117346401Y-118546747D01*
X117366107Y-118532132D01*
X117387150Y-118519520D01*
X117409329Y-118509030D01*
X117432428Y-118500765D01*
X117456227Y-118494804D01*
X117480495Y-118491204D01*
X117504999Y-118490000D01*
X118155001Y-118490000D01*
X118179505Y-118491204D01*
X118179505Y-118491204D01*
G37*
D11*
X117830000Y-119190000D03*
D10*
G36*
X116129505Y-118491204D02*
X116153773Y-118494804D01*
X116177572Y-118500765D01*
X116200671Y-118509030D01*
X116222850Y-118519520D01*
X116243893Y-118532132D01*
X116263599Y-118546747D01*
X116281777Y-118563223D01*
X116298253Y-118581401D01*
X116312868Y-118601107D01*
X116325480Y-118622150D01*
X116335970Y-118644329D01*
X116344235Y-118667428D01*
X116350196Y-118691227D01*
X116353796Y-118715495D01*
X116355000Y-118739999D01*
X116355000Y-119640001D01*
X116353796Y-119664505D01*
X116350196Y-119688773D01*
X116344235Y-119712572D01*
X116335970Y-119735671D01*
X116325480Y-119757850D01*
X116312868Y-119778893D01*
X116298253Y-119798599D01*
X116281777Y-119816777D01*
X116263599Y-119833253D01*
X116243893Y-119847868D01*
X116222850Y-119860480D01*
X116200671Y-119870970D01*
X116177572Y-119879235D01*
X116153773Y-119885196D01*
X116129505Y-119888796D01*
X116105001Y-119890000D01*
X115454999Y-119890000D01*
X115430495Y-119888796D01*
X115406227Y-119885196D01*
X115382428Y-119879235D01*
X115359329Y-119870970D01*
X115337150Y-119860480D01*
X115316107Y-119847868D01*
X115296401Y-119833253D01*
X115278223Y-119816777D01*
X115261747Y-119798599D01*
X115247132Y-119778893D01*
X115234520Y-119757850D01*
X115224030Y-119735671D01*
X115215765Y-119712572D01*
X115209804Y-119688773D01*
X115206204Y-119664505D01*
X115205000Y-119640001D01*
X115205000Y-118739999D01*
X115206204Y-118715495D01*
X115209804Y-118691227D01*
X115215765Y-118667428D01*
X115224030Y-118644329D01*
X115234520Y-118622150D01*
X115247132Y-118601107D01*
X115261747Y-118581401D01*
X115278223Y-118563223D01*
X115296401Y-118546747D01*
X115316107Y-118532132D01*
X115337150Y-118519520D01*
X115359329Y-118509030D01*
X115382428Y-118500765D01*
X115406227Y-118494804D01*
X115430495Y-118491204D01*
X115454999Y-118490000D01*
X116105001Y-118490000D01*
X116129505Y-118491204D01*
X116129505Y-118491204D01*
G37*
D11*
X115780000Y-119190000D03*
G04 #@! TD*
D13*
G04 #@! TO.C,Q1*
X127030000Y-121170000D03*
X127030000Y-116570000D03*
X127030000Y-118870000D03*
D14*
X120730000Y-118870000D03*
G04 #@! TD*
D13*
G04 #@! TO.C,Q2*
X110470000Y-114610000D03*
X110470000Y-110010000D03*
X110470000Y-112310000D03*
D14*
X104170000Y-112310000D03*
G04 #@! TD*
D10*
G04 #@! TO.C,C1*
G36*
X79765762Y-129005806D02*
X79790030Y-129009406D01*
X79813829Y-129015367D01*
X79836928Y-129023632D01*
X79859107Y-129034122D01*
X79880150Y-129046734D01*
X79899856Y-129061349D01*
X79918034Y-129077825D01*
X79934510Y-129096003D01*
X79949125Y-129115709D01*
X79961737Y-129136752D01*
X79972227Y-129158931D01*
X79980492Y-129182030D01*
X79986453Y-129205829D01*
X79990053Y-129230097D01*
X79991257Y-129254601D01*
X79991257Y-130154603D01*
X79990053Y-130179107D01*
X79986453Y-130203375D01*
X79980492Y-130227174D01*
X79972227Y-130250273D01*
X79961737Y-130272452D01*
X79949125Y-130293495D01*
X79934510Y-130313201D01*
X79918034Y-130331379D01*
X79899856Y-130347855D01*
X79880150Y-130362470D01*
X79859107Y-130375082D01*
X79836928Y-130385572D01*
X79813829Y-130393837D01*
X79790030Y-130399798D01*
X79765762Y-130403398D01*
X79741258Y-130404602D01*
X79091256Y-130404602D01*
X79066752Y-130403398D01*
X79042484Y-130399798D01*
X79018685Y-130393837D01*
X78995586Y-130385572D01*
X78973407Y-130375082D01*
X78952364Y-130362470D01*
X78932658Y-130347855D01*
X78914480Y-130331379D01*
X78898004Y-130313201D01*
X78883389Y-130293495D01*
X78870777Y-130272452D01*
X78860287Y-130250273D01*
X78852022Y-130227174D01*
X78846061Y-130203375D01*
X78842461Y-130179107D01*
X78841257Y-130154603D01*
X78841257Y-129254601D01*
X78842461Y-129230097D01*
X78846061Y-129205829D01*
X78852022Y-129182030D01*
X78860287Y-129158931D01*
X78870777Y-129136752D01*
X78883389Y-129115709D01*
X78898004Y-129096003D01*
X78914480Y-129077825D01*
X78932658Y-129061349D01*
X78952364Y-129046734D01*
X78973407Y-129034122D01*
X78995586Y-129023632D01*
X79018685Y-129015367D01*
X79042484Y-129009406D01*
X79066752Y-129005806D01*
X79091256Y-129004602D01*
X79741258Y-129004602D01*
X79765762Y-129005806D01*
X79765762Y-129005806D01*
G37*
D11*
X79416257Y-129704602D03*
D10*
G36*
X81815762Y-129005806D02*
X81840030Y-129009406D01*
X81863829Y-129015367D01*
X81886928Y-129023632D01*
X81909107Y-129034122D01*
X81930150Y-129046734D01*
X81949856Y-129061349D01*
X81968034Y-129077825D01*
X81984510Y-129096003D01*
X81999125Y-129115709D01*
X82011737Y-129136752D01*
X82022227Y-129158931D01*
X82030492Y-129182030D01*
X82036453Y-129205829D01*
X82040053Y-129230097D01*
X82041257Y-129254601D01*
X82041257Y-130154603D01*
X82040053Y-130179107D01*
X82036453Y-130203375D01*
X82030492Y-130227174D01*
X82022227Y-130250273D01*
X82011737Y-130272452D01*
X81999125Y-130293495D01*
X81984510Y-130313201D01*
X81968034Y-130331379D01*
X81949856Y-130347855D01*
X81930150Y-130362470D01*
X81909107Y-130375082D01*
X81886928Y-130385572D01*
X81863829Y-130393837D01*
X81840030Y-130399798D01*
X81815762Y-130403398D01*
X81791258Y-130404602D01*
X81141256Y-130404602D01*
X81116752Y-130403398D01*
X81092484Y-130399798D01*
X81068685Y-130393837D01*
X81045586Y-130385572D01*
X81023407Y-130375082D01*
X81002364Y-130362470D01*
X80982658Y-130347855D01*
X80964480Y-130331379D01*
X80948004Y-130313201D01*
X80933389Y-130293495D01*
X80920777Y-130272452D01*
X80910287Y-130250273D01*
X80902022Y-130227174D01*
X80896061Y-130203375D01*
X80892461Y-130179107D01*
X80891257Y-130154603D01*
X80891257Y-129254601D01*
X80892461Y-129230097D01*
X80896061Y-129205829D01*
X80902022Y-129182030D01*
X80910287Y-129158931D01*
X80920777Y-129136752D01*
X80933389Y-129115709D01*
X80948004Y-129096003D01*
X80964480Y-129077825D01*
X80982658Y-129061349D01*
X81002364Y-129046734D01*
X81023407Y-129034122D01*
X81045586Y-129023632D01*
X81068685Y-129015367D01*
X81092484Y-129009406D01*
X81116752Y-129005806D01*
X81141256Y-129004602D01*
X81791258Y-129004602D01*
X81815762Y-129005806D01*
X81815762Y-129005806D01*
G37*
D11*
X81466257Y-129704602D03*
G04 #@! TD*
D15*
G04 #@! TO.C,Y1*
X84421257Y-134864602D03*
X84421257Y-129664602D03*
G04 #@! TD*
D10*
G04 #@! TO.C,C5*
G36*
X107844505Y-127481204D02*
X107868773Y-127484804D01*
X107892572Y-127490765D01*
X107915671Y-127499030D01*
X107937850Y-127509520D01*
X107958893Y-127522132D01*
X107978599Y-127536747D01*
X107996777Y-127553223D01*
X108013253Y-127571401D01*
X108027868Y-127591107D01*
X108040480Y-127612150D01*
X108050970Y-127634329D01*
X108059235Y-127657428D01*
X108065196Y-127681227D01*
X108068796Y-127705495D01*
X108070000Y-127729999D01*
X108070000Y-128380001D01*
X108068796Y-128404505D01*
X108065196Y-128428773D01*
X108059235Y-128452572D01*
X108050970Y-128475671D01*
X108040480Y-128497850D01*
X108027868Y-128518893D01*
X108013253Y-128538599D01*
X107996777Y-128556777D01*
X107978599Y-128573253D01*
X107958893Y-128587868D01*
X107937850Y-128600480D01*
X107915671Y-128610970D01*
X107892572Y-128619235D01*
X107868773Y-128625196D01*
X107844505Y-128628796D01*
X107820001Y-128630000D01*
X106919999Y-128630000D01*
X106895495Y-128628796D01*
X106871227Y-128625196D01*
X106847428Y-128619235D01*
X106824329Y-128610970D01*
X106802150Y-128600480D01*
X106781107Y-128587868D01*
X106761401Y-128573253D01*
X106743223Y-128556777D01*
X106726747Y-128538599D01*
X106712132Y-128518893D01*
X106699520Y-128497850D01*
X106689030Y-128475671D01*
X106680765Y-128452572D01*
X106674804Y-128428773D01*
X106671204Y-128404505D01*
X106670000Y-128380001D01*
X106670000Y-127729999D01*
X106671204Y-127705495D01*
X106674804Y-127681227D01*
X106680765Y-127657428D01*
X106689030Y-127634329D01*
X106699520Y-127612150D01*
X106712132Y-127591107D01*
X106726747Y-127571401D01*
X106743223Y-127553223D01*
X106761401Y-127536747D01*
X106781107Y-127522132D01*
X106802150Y-127509520D01*
X106824329Y-127499030D01*
X106847428Y-127490765D01*
X106871227Y-127484804D01*
X106895495Y-127481204D01*
X106919999Y-127480000D01*
X107820001Y-127480000D01*
X107844505Y-127481204D01*
X107844505Y-127481204D01*
G37*
D11*
X107370000Y-128055000D03*
D10*
G36*
X107844505Y-129531204D02*
X107868773Y-129534804D01*
X107892572Y-129540765D01*
X107915671Y-129549030D01*
X107937850Y-129559520D01*
X107958893Y-129572132D01*
X107978599Y-129586747D01*
X107996777Y-129603223D01*
X108013253Y-129621401D01*
X108027868Y-129641107D01*
X108040480Y-129662150D01*
X108050970Y-129684329D01*
X108059235Y-129707428D01*
X108065196Y-129731227D01*
X108068796Y-129755495D01*
X108070000Y-129779999D01*
X108070000Y-130430001D01*
X108068796Y-130454505D01*
X108065196Y-130478773D01*
X108059235Y-130502572D01*
X108050970Y-130525671D01*
X108040480Y-130547850D01*
X108027868Y-130568893D01*
X108013253Y-130588599D01*
X107996777Y-130606777D01*
X107978599Y-130623253D01*
X107958893Y-130637868D01*
X107937850Y-130650480D01*
X107915671Y-130660970D01*
X107892572Y-130669235D01*
X107868773Y-130675196D01*
X107844505Y-130678796D01*
X107820001Y-130680000D01*
X106919999Y-130680000D01*
X106895495Y-130678796D01*
X106871227Y-130675196D01*
X106847428Y-130669235D01*
X106824329Y-130660970D01*
X106802150Y-130650480D01*
X106781107Y-130637868D01*
X106761401Y-130623253D01*
X106743223Y-130606777D01*
X106726747Y-130588599D01*
X106712132Y-130568893D01*
X106699520Y-130547850D01*
X106689030Y-130525671D01*
X106680765Y-130502572D01*
X106674804Y-130478773D01*
X106671204Y-130454505D01*
X106670000Y-130430001D01*
X106670000Y-129779999D01*
X106671204Y-129755495D01*
X106674804Y-129731227D01*
X106680765Y-129707428D01*
X106689030Y-129684329D01*
X106699520Y-129662150D01*
X106712132Y-129641107D01*
X106726747Y-129621401D01*
X106743223Y-129603223D01*
X106761401Y-129586747D01*
X106781107Y-129572132D01*
X106802150Y-129559520D01*
X106824329Y-129549030D01*
X106847428Y-129540765D01*
X106871227Y-129534804D01*
X106895495Y-129531204D01*
X106919999Y-129530000D01*
X107820001Y-129530000D01*
X107844505Y-129531204D01*
X107844505Y-129531204D01*
G37*
D11*
X107370000Y-130105000D03*
G04 #@! TD*
D10*
G04 #@! TO.C,R5*
G36*
X105854505Y-121271204D02*
X105878773Y-121274804D01*
X105902572Y-121280765D01*
X105925671Y-121289030D01*
X105947850Y-121299520D01*
X105968893Y-121312132D01*
X105988599Y-121326747D01*
X106006777Y-121343223D01*
X106023253Y-121361401D01*
X106037868Y-121381107D01*
X106050480Y-121402150D01*
X106060970Y-121424329D01*
X106069235Y-121447428D01*
X106075196Y-121471227D01*
X106078796Y-121495495D01*
X106080000Y-121519999D01*
X106080000Y-122420001D01*
X106078796Y-122444505D01*
X106075196Y-122468773D01*
X106069235Y-122492572D01*
X106060970Y-122515671D01*
X106050480Y-122537850D01*
X106037868Y-122558893D01*
X106023253Y-122578599D01*
X106006777Y-122596777D01*
X105988599Y-122613253D01*
X105968893Y-122627868D01*
X105947850Y-122640480D01*
X105925671Y-122650970D01*
X105902572Y-122659235D01*
X105878773Y-122665196D01*
X105854505Y-122668796D01*
X105830001Y-122670000D01*
X105179999Y-122670000D01*
X105155495Y-122668796D01*
X105131227Y-122665196D01*
X105107428Y-122659235D01*
X105084329Y-122650970D01*
X105062150Y-122640480D01*
X105041107Y-122627868D01*
X105021401Y-122613253D01*
X105003223Y-122596777D01*
X104986747Y-122578599D01*
X104972132Y-122558893D01*
X104959520Y-122537850D01*
X104949030Y-122515671D01*
X104940765Y-122492572D01*
X104934804Y-122468773D01*
X104931204Y-122444505D01*
X104930000Y-122420001D01*
X104930000Y-121519999D01*
X104931204Y-121495495D01*
X104934804Y-121471227D01*
X104940765Y-121447428D01*
X104949030Y-121424329D01*
X104959520Y-121402150D01*
X104972132Y-121381107D01*
X104986747Y-121361401D01*
X105003223Y-121343223D01*
X105021401Y-121326747D01*
X105041107Y-121312132D01*
X105062150Y-121299520D01*
X105084329Y-121289030D01*
X105107428Y-121280765D01*
X105131227Y-121274804D01*
X105155495Y-121271204D01*
X105179999Y-121270000D01*
X105830001Y-121270000D01*
X105854505Y-121271204D01*
X105854505Y-121271204D01*
G37*
D11*
X105505000Y-121970000D03*
D10*
G36*
X107904505Y-121271204D02*
X107928773Y-121274804D01*
X107952572Y-121280765D01*
X107975671Y-121289030D01*
X107997850Y-121299520D01*
X108018893Y-121312132D01*
X108038599Y-121326747D01*
X108056777Y-121343223D01*
X108073253Y-121361401D01*
X108087868Y-121381107D01*
X108100480Y-121402150D01*
X108110970Y-121424329D01*
X108119235Y-121447428D01*
X108125196Y-121471227D01*
X108128796Y-121495495D01*
X108130000Y-121519999D01*
X108130000Y-122420001D01*
X108128796Y-122444505D01*
X108125196Y-122468773D01*
X108119235Y-122492572D01*
X108110970Y-122515671D01*
X108100480Y-122537850D01*
X108087868Y-122558893D01*
X108073253Y-122578599D01*
X108056777Y-122596777D01*
X108038599Y-122613253D01*
X108018893Y-122627868D01*
X107997850Y-122640480D01*
X107975671Y-122650970D01*
X107952572Y-122659235D01*
X107928773Y-122665196D01*
X107904505Y-122668796D01*
X107880001Y-122670000D01*
X107229999Y-122670000D01*
X107205495Y-122668796D01*
X107181227Y-122665196D01*
X107157428Y-122659235D01*
X107134329Y-122650970D01*
X107112150Y-122640480D01*
X107091107Y-122627868D01*
X107071401Y-122613253D01*
X107053223Y-122596777D01*
X107036747Y-122578599D01*
X107022132Y-122558893D01*
X107009520Y-122537850D01*
X106999030Y-122515671D01*
X106990765Y-122492572D01*
X106984804Y-122468773D01*
X106981204Y-122444505D01*
X106980000Y-122420001D01*
X106980000Y-121519999D01*
X106981204Y-121495495D01*
X106984804Y-121471227D01*
X106990765Y-121447428D01*
X106999030Y-121424329D01*
X107009520Y-121402150D01*
X107022132Y-121381107D01*
X107036747Y-121361401D01*
X107053223Y-121343223D01*
X107071401Y-121326747D01*
X107091107Y-121312132D01*
X107112150Y-121299520D01*
X107134329Y-121289030D01*
X107157428Y-121280765D01*
X107181227Y-121274804D01*
X107205495Y-121271204D01*
X107229999Y-121270000D01*
X107880001Y-121270000D01*
X107904505Y-121271204D01*
X107904505Y-121271204D01*
G37*
D11*
X107555000Y-121970000D03*
G04 #@! TD*
D16*
G04 #@! TO.C,U2*
X93917934Y-126012755D03*
X94717934Y-126012755D03*
X95517934Y-126012755D03*
X96317934Y-126012755D03*
X97117934Y-126012755D03*
X97917934Y-126012755D03*
X98717934Y-126012755D03*
X99517934Y-126012755D03*
D17*
X100967934Y-127462755D03*
X100967934Y-128262755D03*
X100967934Y-129062755D03*
X100967934Y-129862755D03*
X100967934Y-130662755D03*
X100967934Y-131462755D03*
X100967934Y-132262755D03*
X100967934Y-133062755D03*
D16*
X99517934Y-134512755D03*
X98717934Y-134512755D03*
X97917934Y-134512755D03*
X97117934Y-134512755D03*
X96317934Y-134512755D03*
X95517934Y-134512755D03*
X94717934Y-134512755D03*
X93917934Y-134512755D03*
D17*
X92467934Y-133062755D03*
X92467934Y-132262755D03*
X92467934Y-131462755D03*
X92467934Y-130662755D03*
X92467934Y-129862755D03*
X92467934Y-129062755D03*
X92467934Y-128262755D03*
X92467934Y-127462755D03*
G04 #@! TD*
D10*
G04 #@! TO.C,R6*
G36*
X105149505Y-104151204D02*
X105173773Y-104154804D01*
X105197572Y-104160765D01*
X105220671Y-104169030D01*
X105242850Y-104179520D01*
X105263893Y-104192132D01*
X105283599Y-104206747D01*
X105301777Y-104223223D01*
X105318253Y-104241401D01*
X105332868Y-104261107D01*
X105345480Y-104282150D01*
X105355970Y-104304329D01*
X105364235Y-104327428D01*
X105370196Y-104351227D01*
X105373796Y-104375495D01*
X105375000Y-104399999D01*
X105375000Y-105300001D01*
X105373796Y-105324505D01*
X105370196Y-105348773D01*
X105364235Y-105372572D01*
X105355970Y-105395671D01*
X105345480Y-105417850D01*
X105332868Y-105438893D01*
X105318253Y-105458599D01*
X105301777Y-105476777D01*
X105283599Y-105493253D01*
X105263893Y-105507868D01*
X105242850Y-105520480D01*
X105220671Y-105530970D01*
X105197572Y-105539235D01*
X105173773Y-105545196D01*
X105149505Y-105548796D01*
X105125001Y-105550000D01*
X104474999Y-105550000D01*
X104450495Y-105548796D01*
X104426227Y-105545196D01*
X104402428Y-105539235D01*
X104379329Y-105530970D01*
X104357150Y-105520480D01*
X104336107Y-105507868D01*
X104316401Y-105493253D01*
X104298223Y-105476777D01*
X104281747Y-105458599D01*
X104267132Y-105438893D01*
X104254520Y-105417850D01*
X104244030Y-105395671D01*
X104235765Y-105372572D01*
X104229804Y-105348773D01*
X104226204Y-105324505D01*
X104225000Y-105300001D01*
X104225000Y-104399999D01*
X104226204Y-104375495D01*
X104229804Y-104351227D01*
X104235765Y-104327428D01*
X104244030Y-104304329D01*
X104254520Y-104282150D01*
X104267132Y-104261107D01*
X104281747Y-104241401D01*
X104298223Y-104223223D01*
X104316401Y-104206747D01*
X104336107Y-104192132D01*
X104357150Y-104179520D01*
X104379329Y-104169030D01*
X104402428Y-104160765D01*
X104426227Y-104154804D01*
X104450495Y-104151204D01*
X104474999Y-104150000D01*
X105125001Y-104150000D01*
X105149505Y-104151204D01*
X105149505Y-104151204D01*
G37*
D11*
X104800000Y-104850000D03*
D10*
G36*
X107199505Y-104151204D02*
X107223773Y-104154804D01*
X107247572Y-104160765D01*
X107270671Y-104169030D01*
X107292850Y-104179520D01*
X107313893Y-104192132D01*
X107333599Y-104206747D01*
X107351777Y-104223223D01*
X107368253Y-104241401D01*
X107382868Y-104261107D01*
X107395480Y-104282150D01*
X107405970Y-104304329D01*
X107414235Y-104327428D01*
X107420196Y-104351227D01*
X107423796Y-104375495D01*
X107425000Y-104399999D01*
X107425000Y-105300001D01*
X107423796Y-105324505D01*
X107420196Y-105348773D01*
X107414235Y-105372572D01*
X107405970Y-105395671D01*
X107395480Y-105417850D01*
X107382868Y-105438893D01*
X107368253Y-105458599D01*
X107351777Y-105476777D01*
X107333599Y-105493253D01*
X107313893Y-105507868D01*
X107292850Y-105520480D01*
X107270671Y-105530970D01*
X107247572Y-105539235D01*
X107223773Y-105545196D01*
X107199505Y-105548796D01*
X107175001Y-105550000D01*
X106524999Y-105550000D01*
X106500495Y-105548796D01*
X106476227Y-105545196D01*
X106452428Y-105539235D01*
X106429329Y-105530970D01*
X106407150Y-105520480D01*
X106386107Y-105507868D01*
X106366401Y-105493253D01*
X106348223Y-105476777D01*
X106331747Y-105458599D01*
X106317132Y-105438893D01*
X106304520Y-105417850D01*
X106294030Y-105395671D01*
X106285765Y-105372572D01*
X106279804Y-105348773D01*
X106276204Y-105324505D01*
X106275000Y-105300001D01*
X106275000Y-104399999D01*
X106276204Y-104375495D01*
X106279804Y-104351227D01*
X106285765Y-104327428D01*
X106294030Y-104304329D01*
X106304520Y-104282150D01*
X106317132Y-104261107D01*
X106331747Y-104241401D01*
X106348223Y-104223223D01*
X106366401Y-104206747D01*
X106386107Y-104192132D01*
X106407150Y-104179520D01*
X106429329Y-104169030D01*
X106452428Y-104160765D01*
X106476227Y-104154804D01*
X106500495Y-104151204D01*
X106524999Y-104150000D01*
X107175001Y-104150000D01*
X107199505Y-104151204D01*
X107199505Y-104151204D01*
G37*
D11*
X106850000Y-104850000D03*
G04 #@! TD*
M02*
