G04 #@! TF.GenerationSoftware,KiCad,Pcbnew,(5.0.2-4-g3082e92af)*
G04 #@! TF.CreationDate,2019-03-14T11:46:11+01:00*
G04 #@! TF.ProjectId,gas-sensor,6761732d-7365-46e7-936f-722e6b696361,rev?*
G04 #@! TF.SameCoordinates,Original*
G04 #@! TF.FileFunction,Legend,Top*
G04 #@! TF.FilePolarity,Positive*
%FSLAX46Y46*%
G04 Gerber Fmt 4.6, Leading zero omitted, Abs format (unit mm)*
G04 Created by KiCad (PCBNEW (5.0.2-4-g3082e92af)) date 2019 March 14, Thursday 11:46:11*
%MOMM*%
%LPD*%
G01*
G04 APERTURE LIST*
%ADD10C,0.300000*%
%ADD11C,0.200000*%
%ADD12C,0.150000*%
%ADD13C,0.120000*%
%ADD14C,0.100000*%
%ADD15C,0.010000*%
G04 APERTURE END LIST*
D10*
X59221142Y-146354000D02*
X59078285Y-146282571D01*
X58864000Y-146282571D01*
X58649714Y-146354000D01*
X58506857Y-146496857D01*
X58435428Y-146639714D01*
X58364000Y-146925428D01*
X58364000Y-147139714D01*
X58435428Y-147425428D01*
X58506857Y-147568285D01*
X58649714Y-147711142D01*
X58864000Y-147782571D01*
X59006857Y-147782571D01*
X59221142Y-147711142D01*
X59292571Y-147639714D01*
X59292571Y-147139714D01*
X59006857Y-147139714D01*
X60578285Y-147782571D02*
X60578285Y-146996857D01*
X60506857Y-146854000D01*
X60364000Y-146782571D01*
X60078285Y-146782571D01*
X59935428Y-146854000D01*
X60578285Y-147711142D02*
X60435428Y-147782571D01*
X60078285Y-147782571D01*
X59935428Y-147711142D01*
X59864000Y-147568285D01*
X59864000Y-147425428D01*
X59935428Y-147282571D01*
X60078285Y-147211142D01*
X60435428Y-147211142D01*
X60578285Y-147139714D01*
X61221142Y-147711142D02*
X61364000Y-147782571D01*
X61649714Y-147782571D01*
X61792571Y-147711142D01*
X61864000Y-147568285D01*
X61864000Y-147496857D01*
X61792571Y-147354000D01*
X61649714Y-147282571D01*
X61435428Y-147282571D01*
X61292571Y-147211142D01*
X61221142Y-147068285D01*
X61221142Y-146996857D01*
X61292571Y-146854000D01*
X61435428Y-146782571D01*
X61649714Y-146782571D01*
X61792571Y-146854000D01*
X63578285Y-147711142D02*
X63721142Y-147782571D01*
X64006857Y-147782571D01*
X64149714Y-147711142D01*
X64221142Y-147568285D01*
X64221142Y-147496857D01*
X64149714Y-147354000D01*
X64006857Y-147282571D01*
X63792571Y-147282571D01*
X63649714Y-147211142D01*
X63578285Y-147068285D01*
X63578285Y-146996857D01*
X63649714Y-146854000D01*
X63792571Y-146782571D01*
X64006857Y-146782571D01*
X64149714Y-146854000D01*
X65435428Y-147711142D02*
X65292571Y-147782571D01*
X65006857Y-147782571D01*
X64864000Y-147711142D01*
X64792571Y-147568285D01*
X64792571Y-146996857D01*
X64864000Y-146854000D01*
X65006857Y-146782571D01*
X65292571Y-146782571D01*
X65435428Y-146854000D01*
X65506857Y-146996857D01*
X65506857Y-147139714D01*
X64792571Y-147282571D01*
X66149714Y-146782571D02*
X66149714Y-147782571D01*
X66149714Y-146925428D02*
X66221142Y-146854000D01*
X66364000Y-146782571D01*
X66578285Y-146782571D01*
X66721142Y-146854000D01*
X66792571Y-146996857D01*
X66792571Y-147782571D01*
X67435428Y-147711142D02*
X67578285Y-147782571D01*
X67864000Y-147782571D01*
X68006857Y-147711142D01*
X68078285Y-147568285D01*
X68078285Y-147496857D01*
X68006857Y-147354000D01*
X67864000Y-147282571D01*
X67649714Y-147282571D01*
X67506857Y-147211142D01*
X67435428Y-147068285D01*
X67435428Y-146996857D01*
X67506857Y-146854000D01*
X67649714Y-146782571D01*
X67864000Y-146782571D01*
X68006857Y-146854000D01*
X68935428Y-147782571D02*
X68792571Y-147711142D01*
X68721142Y-147639714D01*
X68649714Y-147496857D01*
X68649714Y-147068285D01*
X68721142Y-146925428D01*
X68792571Y-146854000D01*
X68935428Y-146782571D01*
X69149714Y-146782571D01*
X69292571Y-146854000D01*
X69364000Y-146925428D01*
X69435428Y-147068285D01*
X69435428Y-147496857D01*
X69364000Y-147639714D01*
X69292571Y-147711142D01*
X69149714Y-147782571D01*
X68935428Y-147782571D01*
X70078285Y-147782571D02*
X70078285Y-146782571D01*
X70078285Y-147068285D02*
X70149714Y-146925428D01*
X70221142Y-146854000D01*
X70364000Y-146782571D01*
X70506857Y-146782571D01*
X72006857Y-146782571D02*
X72364000Y-147782571D01*
X72721142Y-146782571D01*
X74078285Y-147782571D02*
X73221142Y-147782571D01*
X73649714Y-147782571D02*
X73649714Y-146282571D01*
X73506857Y-146496857D01*
X73364000Y-146639714D01*
X73221142Y-146711142D01*
X74721142Y-147639714D02*
X74792571Y-147711142D01*
X74721142Y-147782571D01*
X74649714Y-147711142D01*
X74721142Y-147639714D01*
X74721142Y-147782571D01*
X75721142Y-146282571D02*
X75864000Y-146282571D01*
X76006857Y-146354000D01*
X76078285Y-146425428D01*
X76149714Y-146568285D01*
X76221142Y-146854000D01*
X76221142Y-147211142D01*
X76149714Y-147496857D01*
X76078285Y-147639714D01*
X76006857Y-147711142D01*
X75864000Y-147782571D01*
X75721142Y-147782571D01*
X75578285Y-147711142D01*
X75506857Y-147639714D01*
X75435428Y-147496857D01*
X75364000Y-147211142D01*
X75364000Y-146854000D01*
X75435428Y-146568285D01*
X75506857Y-146425428D01*
X75578285Y-146354000D01*
X75721142Y-146282571D01*
X76864000Y-147639714D02*
X76935428Y-147711142D01*
X76864000Y-147782571D01*
X76792571Y-147711142D01*
X76864000Y-147639714D01*
X76864000Y-147782571D01*
X77864000Y-146282571D02*
X78006857Y-146282571D01*
X78149714Y-146354000D01*
X78221142Y-146425428D01*
X78292571Y-146568285D01*
X78364000Y-146854000D01*
X78364000Y-147211142D01*
X78292571Y-147496857D01*
X78221142Y-147639714D01*
X78149714Y-147711142D01*
X78006857Y-147782571D01*
X77864000Y-147782571D01*
X77721142Y-147711142D01*
X77649714Y-147639714D01*
X77578285Y-147496857D01*
X77506857Y-147211142D01*
X77506857Y-146854000D01*
X77578285Y-146568285D01*
X77649714Y-146425428D01*
X77721142Y-146354000D01*
X77864000Y-146282571D01*
D11*
X56700000Y-63150000D02*
X143700000Y-63150000D01*
X143700000Y-63150000D02*
X143700000Y-97500000D01*
X56700000Y-97500000D02*
X143300000Y-97500000D01*
X56700000Y-63150000D02*
X56700000Y-97500000D01*
X150000000Y-103500000D02*
X50000000Y-103500000D01*
X50000000Y-57150000D02*
X150000000Y-57150000D01*
X50000000Y-150000000D02*
X50000000Y-50000000D01*
X150000000Y-150000000D02*
X50000000Y-150000000D01*
X150000000Y-50000000D02*
X150000000Y-150000000D01*
X50000000Y-50000000D02*
X150000000Y-50000000D01*
D12*
G04 #@! TO.C,GS3*
X83980000Y-64285000D02*
X83980000Y-67120000D01*
X93980000Y-64285000D02*
X93980000Y-67120000D01*
X83750000Y-96455000D02*
X83750000Y-93620000D01*
X96750000Y-96455000D02*
X96750000Y-93620000D01*
X96750000Y-96455000D02*
X83750000Y-96455000D01*
X93980000Y-64285000D02*
X83980000Y-64285000D01*
X80500000Y-67120000D02*
X80500000Y-93620000D01*
X100000000Y-67120000D02*
X80500000Y-67120000D01*
X100000000Y-93620000D02*
X100000000Y-67120000D01*
X80500000Y-93620000D02*
X100000000Y-93620000D01*
D13*
G04 #@! TO.C,U1*
X108991522Y-87741522D02*
G75*
G03X110830000Y-92180000I1838478J-1838478D01*
G01*
X112668478Y-87741522D02*
G75*
G02X110830000Y-92180000I-1838478J-1838478D01*
G01*
X112630000Y-87730000D02*
X109030000Y-87730000D01*
D12*
G04 #@! TO.C,U3*
X76780000Y-97340000D02*
X61680000Y-97340000D01*
X61680000Y-64340000D02*
X76780000Y-64340000D01*
X61680000Y-64340000D02*
X61680000Y-97340000D01*
X76780000Y-64340000D02*
X76780000Y-97340000D01*
D13*
G04 #@! TO.C,C2*
X80647509Y-134044602D02*
X80125005Y-134044602D01*
X80647509Y-135464602D02*
X80125005Y-135464602D01*
G04 #@! TO.C,C3*
X129450587Y-140797860D02*
X129973091Y-140797860D01*
X129450587Y-139377860D02*
X129973091Y-139377860D01*
G04 #@! TO.C,C4*
X129455587Y-144457860D02*
X129978091Y-144457860D01*
X129455587Y-143037860D02*
X129978091Y-143037860D01*
G04 #@! TO.C,C6*
X94935609Y-120117029D02*
X94935609Y-120639533D01*
X96355609Y-120117029D02*
X96355609Y-120639533D01*
G04 #@! TO.C,D1*
X76770000Y-128030000D02*
X72870000Y-128030000D01*
X76770000Y-126030000D02*
X72870000Y-126030000D01*
X76770000Y-128030000D02*
X76770000Y-126030000D01*
G04 #@! TO.C,D2*
X123680000Y-146710000D02*
X119780000Y-146710000D01*
X123680000Y-144710000D02*
X119780000Y-144710000D01*
X123680000Y-146710000D02*
X123680000Y-144710000D01*
G04 #@! TO.C,D3*
X129308674Y-131780878D02*
X125408674Y-131780878D01*
X129308674Y-129780878D02*
X125408674Y-129780878D01*
X129308674Y-131780878D02*
X129308674Y-129780878D01*
G04 #@! TO.C,R1*
X87191257Y-131138350D02*
X87191257Y-131660854D01*
X88611257Y-131138350D02*
X88611257Y-131660854D01*
G04 #@! TO.C,R2*
X111886682Y-136452755D02*
X112409186Y-136452755D01*
X111886682Y-135032755D02*
X112409186Y-135032755D01*
G04 #@! TO.C,R3*
X97175609Y-120127029D02*
X97175609Y-120649533D01*
X98595609Y-120127029D02*
X98595609Y-120649533D01*
G04 #@! TO.C,R4*
X116543748Y-119900000D02*
X117066252Y-119900000D01*
X116543748Y-118480000D02*
X117066252Y-118480000D01*
G04 #@! TO.C,Q1*
X127980000Y-122280000D02*
X121970000Y-122280000D01*
X125730000Y-115460000D02*
X121970000Y-115460000D01*
X121970000Y-122280000D02*
X121970000Y-121020000D01*
X121970000Y-115460000D02*
X121970000Y-116720000D01*
G04 #@! TO.C,Q2*
X111420000Y-115720000D02*
X105410000Y-115720000D01*
X109170000Y-108900000D02*
X105410000Y-108900000D01*
X105410000Y-115720000D02*
X105410000Y-114460000D01*
X105410000Y-108900000D02*
X105410000Y-110160000D01*
G04 #@! TO.C,C1*
X80702509Y-128994602D02*
X80180005Y-128994602D01*
X80702509Y-130414602D02*
X80180005Y-130414602D01*
G04 #@! TO.C,Y1*
X82621257Y-127714602D02*
X82621257Y-134964602D01*
X86221257Y-127714602D02*
X82621257Y-127714602D01*
X86221257Y-134964602D02*
X86221257Y-127714602D01*
G04 #@! TO.C,C5*
X108080000Y-129341252D02*
X108080000Y-128818748D01*
X106660000Y-129341252D02*
X106660000Y-128818748D01*
G04 #@! TO.C,J1*
X67200000Y-121960000D02*
X67200000Y-123290000D01*
X65870000Y-121960000D02*
X67200000Y-121960000D01*
X64600000Y-121960000D02*
X64600000Y-124620000D01*
X64600000Y-124620000D02*
X51840000Y-124620000D01*
X64600000Y-121960000D02*
X51840000Y-121960000D01*
X51840000Y-121960000D02*
X51840000Y-124620000D01*
G04 #@! TO.C,J2*
X68600000Y-105020000D02*
X68600000Y-118220000D01*
X68600000Y-118220000D02*
X59580000Y-118220000D01*
D14*
X50720000Y-118220000D02*
X50600000Y-118220000D01*
D13*
X50600000Y-118220000D02*
X57380000Y-118220000D01*
D14*
X50610000Y-118220000D02*
X50600000Y-118220000D01*
D13*
X50600000Y-118220000D02*
X50600000Y-105020000D01*
X50600000Y-105020000D02*
X57380000Y-105020000D01*
D14*
X59650000Y-105020000D02*
X59580000Y-105020000D01*
D13*
X59580000Y-105020000D02*
X68600000Y-105020000D01*
X66600000Y-104550000D02*
X68130000Y-104550000D01*
G04 #@! TO.C,J7*
X65070000Y-129610000D02*
X65070000Y-132210000D01*
X50370000Y-129610000D02*
X65070000Y-129610000D01*
X65070000Y-138810000D02*
X63170000Y-138810000D01*
X65070000Y-136110000D02*
X65070000Y-138810000D01*
X50370000Y-138810000D02*
X50370000Y-129610000D01*
X59170000Y-138810000D02*
X50370000Y-138810000D01*
X64220000Y-129410000D02*
X65270000Y-129410000D01*
X65270000Y-130460000D02*
X65270000Y-129410000D01*
G04 #@! TO.C,R5*
X106791252Y-121260000D02*
X106268748Y-121260000D01*
X106791252Y-122680000D02*
X106268748Y-122680000D01*
D12*
G04 #@! TO.C,U2*
X93092934Y-126862755D02*
X91667934Y-126862755D01*
X100342934Y-126637755D02*
X100017934Y-126637755D01*
X100342934Y-133887755D02*
X100017934Y-133887755D01*
X93092934Y-133887755D02*
X93417934Y-133887755D01*
X93092934Y-126637755D02*
X93417934Y-126637755D01*
X93092934Y-133887755D02*
X93092934Y-133562755D01*
X100342934Y-133887755D02*
X100342934Y-133562755D01*
X100342934Y-126637755D02*
X100342934Y-126962755D01*
X93092934Y-126637755D02*
X93092934Y-126862755D01*
G04 #@! TO.C,GS1*
X140930000Y-85130000D02*
G75*
G03X140930000Y-85130000I-8650000J0D01*
G01*
G04 #@! TO.C,GS2*
X121990000Y-74050000D02*
G75*
G03X121990000Y-74050000I-8650000J0D01*
G01*
D13*
G04 #@! TO.C,SP1*
X120215000Y-128210000D02*
X120215000Y-128845000D01*
X119580000Y-128210000D02*
X120215000Y-128210000D01*
D15*
G04 #@! TO.C,G1*
G36*
X133821178Y-129938836D02*
X134021646Y-130019159D01*
X134142007Y-130185691D01*
X134200984Y-130465152D01*
X134217301Y-130884263D01*
X134217333Y-130910543D01*
X134214526Y-131248603D01*
X134199725Y-131451752D01*
X134163365Y-131554395D01*
X134095877Y-131590935D01*
X134026833Y-131595587D01*
X133789687Y-131619374D01*
X133622780Y-131653061D01*
X133389324Y-131648011D01*
X133178280Y-131526706D01*
X132985720Y-131291408D01*
X132957525Y-131158392D01*
X133116666Y-131158392D01*
X133184559Y-131366439D01*
X133355360Y-131487441D01*
X133579748Y-131508524D01*
X133808403Y-131416809D01*
X133878666Y-131357333D01*
X134006760Y-131155630D01*
X134048000Y-130976333D01*
X134031221Y-130843518D01*
X133950051Y-130782073D01*
X133758243Y-130765109D01*
X133683933Y-130764666D01*
X133363908Y-130801506D01*
X133180789Y-130920098D01*
X133117134Y-131132547D01*
X133116666Y-131158392D01*
X132957525Y-131158392D01*
X132947333Y-131110310D01*
X133016468Y-130840661D01*
X133222550Y-130669269D01*
X133563596Y-130597584D01*
X133652500Y-130595333D01*
X133898944Y-130583641D01*
X134017342Y-130538212D01*
X134047999Y-130443515D01*
X134048000Y-130442933D01*
X133977955Y-130230207D01*
X133768221Y-130112722D01*
X133528063Y-130087333D01*
X133308350Y-130066636D01*
X133170664Y-130015562D01*
X133159000Y-130002666D01*
X133200438Y-129949985D01*
X133387805Y-129921526D01*
X133521880Y-129918000D01*
X133821178Y-129938836D01*
X133821178Y-129938836D01*
G37*
X133821178Y-129938836D02*
X134021646Y-130019159D01*
X134142007Y-130185691D01*
X134200984Y-130465152D01*
X134217301Y-130884263D01*
X134217333Y-130910543D01*
X134214526Y-131248603D01*
X134199725Y-131451752D01*
X134163365Y-131554395D01*
X134095877Y-131590935D01*
X134026833Y-131595587D01*
X133789687Y-131619374D01*
X133622780Y-131653061D01*
X133389324Y-131648011D01*
X133178280Y-131526706D01*
X132985720Y-131291408D01*
X132957525Y-131158392D01*
X133116666Y-131158392D01*
X133184559Y-131366439D01*
X133355360Y-131487441D01*
X133579748Y-131508524D01*
X133808403Y-131416809D01*
X133878666Y-131357333D01*
X134006760Y-131155630D01*
X134048000Y-130976333D01*
X134031221Y-130843518D01*
X133950051Y-130782073D01*
X133758243Y-130765109D01*
X133683933Y-130764666D01*
X133363908Y-130801506D01*
X133180789Y-130920098D01*
X133117134Y-131132547D01*
X133116666Y-131158392D01*
X132957525Y-131158392D01*
X132947333Y-131110310D01*
X133016468Y-130840661D01*
X133222550Y-130669269D01*
X133563596Y-130597584D01*
X133652500Y-130595333D01*
X133898944Y-130583641D01*
X134017342Y-130538212D01*
X134047999Y-130443515D01*
X134048000Y-130442933D01*
X133977955Y-130230207D01*
X133768221Y-130112722D01*
X133528063Y-130087333D01*
X133308350Y-130066636D01*
X133170664Y-130015562D01*
X133159000Y-130002666D01*
X133200438Y-129949985D01*
X133387805Y-129921526D01*
X133521880Y-129918000D01*
X133821178Y-129938836D01*
G36*
X135370956Y-129915891D02*
X135561775Y-130065359D01*
X135644391Y-130282521D01*
X135633012Y-130409270D01*
X135595824Y-130480238D01*
X135538965Y-130404287D01*
X135507144Y-130331713D01*
X135338361Y-130097039D01*
X135109537Y-130006552D01*
X134859690Y-130068225D01*
X134725333Y-130172000D01*
X134615514Y-130335953D01*
X134564481Y-130575710D01*
X134556000Y-130805048D01*
X134566831Y-131086894D01*
X134612411Y-131256076D01*
X134712371Y-131368585D01*
X134767049Y-131407048D01*
X135032343Y-131501650D01*
X135279995Y-131455895D01*
X135461567Y-131282521D01*
X135492696Y-131216226D01*
X135577880Y-131064273D01*
X135637611Y-131065493D01*
X135644970Y-131203734D01*
X135626531Y-131296541D01*
X135514475Y-131481240D01*
X135358379Y-131596818D01*
X135117130Y-131679739D01*
X134905381Y-131664453D01*
X134752034Y-131610742D01*
X134538723Y-131452626D01*
X134419788Y-131178519D01*
X134386666Y-130816549D01*
X134432094Y-130390167D01*
X134572711Y-130094481D01*
X134815014Y-129915938D01*
X134819339Y-129914131D01*
X135110593Y-129857641D01*
X135370956Y-129915891D01*
X135370956Y-129915891D01*
G37*
X135370956Y-129915891D02*
X135561775Y-130065359D01*
X135644391Y-130282521D01*
X135633012Y-130409270D01*
X135595824Y-130480238D01*
X135538965Y-130404287D01*
X135507144Y-130331713D01*
X135338361Y-130097039D01*
X135109537Y-130006552D01*
X134859690Y-130068225D01*
X134725333Y-130172000D01*
X134615514Y-130335953D01*
X134564481Y-130575710D01*
X134556000Y-130805048D01*
X134566831Y-131086894D01*
X134612411Y-131256076D01*
X134712371Y-131368585D01*
X134767049Y-131407048D01*
X135032343Y-131501650D01*
X135279995Y-131455895D01*
X135461567Y-131282521D01*
X135492696Y-131216226D01*
X135577880Y-131064273D01*
X135637611Y-131065493D01*
X135644970Y-131203734D01*
X135626531Y-131296541D01*
X135514475Y-131481240D01*
X135358379Y-131596818D01*
X135117130Y-131679739D01*
X134905381Y-131664453D01*
X134752034Y-131610742D01*
X134538723Y-131452626D01*
X134419788Y-131178519D01*
X134386666Y-130816549D01*
X134432094Y-130390167D01*
X134572711Y-130094481D01*
X134815014Y-129915938D01*
X134819339Y-129914131D01*
X135110593Y-129857641D01*
X135370956Y-129915891D01*
G36*
X136033916Y-129470692D02*
X136064292Y-129700850D01*
X136081716Y-130015971D01*
X136083994Y-130155830D01*
X136087989Y-130891666D01*
X136576091Y-130360707D01*
X136802477Y-130127265D01*
X136987449Y-129960274D01*
X137101728Y-129885219D01*
X137120908Y-129886463D01*
X137101507Y-129975064D01*
X136990569Y-130141210D01*
X136882811Y-130269499D01*
X136715365Y-130467619D01*
X136608551Y-130618551D01*
X136588000Y-130667540D01*
X136633764Y-130773371D01*
X136749933Y-130960678D01*
X136825479Y-131069463D01*
X137014107Y-131335898D01*
X137117116Y-131497748D01*
X137150225Y-131586093D01*
X137129151Y-131632012D01*
X137114993Y-131641928D01*
X137035389Y-131600693D01*
X136897827Y-131450790D01*
X136761694Y-131266778D01*
X136601142Y-131044684D01*
X136474481Y-130893277D01*
X136418538Y-130849333D01*
X136296326Y-130918674D01*
X136170821Y-131080997D01*
X136089531Y-131267748D01*
X136080000Y-131337836D01*
X136044140Y-131505908D01*
X135995333Y-131569000D01*
X135957884Y-131511851D01*
X135930979Y-131292072D01*
X135915111Y-130916067D01*
X135910666Y-130468333D01*
X135916562Y-129962000D01*
X135933922Y-129606337D01*
X135962253Y-129407749D01*
X135995333Y-129367666D01*
X136033916Y-129470692D01*
X136033916Y-129470692D01*
G37*
X136033916Y-129470692D02*
X136064292Y-129700850D01*
X136081716Y-130015971D01*
X136083994Y-130155830D01*
X136087989Y-130891666D01*
X136576091Y-130360707D01*
X136802477Y-130127265D01*
X136987449Y-129960274D01*
X137101728Y-129885219D01*
X137120908Y-129886463D01*
X137101507Y-129975064D01*
X136990569Y-130141210D01*
X136882811Y-130269499D01*
X136715365Y-130467619D01*
X136608551Y-130618551D01*
X136588000Y-130667540D01*
X136633764Y-130773371D01*
X136749933Y-130960678D01*
X136825479Y-131069463D01*
X137014107Y-131335898D01*
X137117116Y-131497748D01*
X137150225Y-131586093D01*
X137129151Y-131632012D01*
X137114993Y-131641928D01*
X137035389Y-131600693D01*
X136897827Y-131450790D01*
X136761694Y-131266778D01*
X136601142Y-131044684D01*
X136474481Y-130893277D01*
X136418538Y-130849333D01*
X136296326Y-130918674D01*
X136170821Y-131080997D01*
X136089531Y-131267748D01*
X136080000Y-131337836D01*
X136044140Y-131505908D01*
X135995333Y-131569000D01*
X135957884Y-131511851D01*
X135930979Y-131292072D01*
X135915111Y-130916067D01*
X135910666Y-130468333D01*
X135916562Y-129962000D01*
X135933922Y-129606337D01*
X135962253Y-129407749D01*
X135995333Y-129367666D01*
X136033916Y-129470692D01*
G36*
X138490072Y-129998463D02*
X138518539Y-130223461D01*
X138533593Y-130568409D01*
X138535333Y-130759404D01*
X138532280Y-131145588D01*
X138519594Y-131392407D01*
X138491980Y-131529774D01*
X138444145Y-131587601D01*
X138387166Y-131596681D01*
X138200467Y-131612133D01*
X137969445Y-131653737D01*
X137755758Y-131672873D01*
X137585550Y-131591559D01*
X137482612Y-131497642D01*
X137372917Y-131372075D01*
X137307820Y-131235537D01*
X137275921Y-131040902D01*
X137265825Y-130741042D01*
X137265333Y-130599181D01*
X137275183Y-130262364D01*
X137302096Y-130025506D01*
X137342111Y-129920458D01*
X137350000Y-129918000D01*
X137392152Y-129997090D01*
X137421699Y-130212475D01*
X137434458Y-130531325D01*
X137434666Y-130582211D01*
X137442605Y-130941744D01*
X137471659Y-131173267D01*
X137529681Y-131317579D01*
X137589500Y-131386544D01*
X137801800Y-131511677D01*
X138022229Y-131484843D01*
X138177827Y-131394865D01*
X138273236Y-131310008D01*
X138329802Y-131192863D01*
X138357361Y-131001398D01*
X138365747Y-130693576D01*
X138366000Y-130590532D01*
X138375966Y-130256832D01*
X138403153Y-130022546D01*
X138443487Y-129920018D01*
X138450666Y-129918000D01*
X138490072Y-129998463D01*
X138490072Y-129998463D01*
G37*
X138490072Y-129998463D02*
X138518539Y-130223461D01*
X138533593Y-130568409D01*
X138535333Y-130759404D01*
X138532280Y-131145588D01*
X138519594Y-131392407D01*
X138491980Y-131529774D01*
X138444145Y-131587601D01*
X138387166Y-131596681D01*
X138200467Y-131612133D01*
X137969445Y-131653737D01*
X137755758Y-131672873D01*
X137585550Y-131591559D01*
X137482612Y-131497642D01*
X137372917Y-131372075D01*
X137307820Y-131235537D01*
X137275921Y-131040902D01*
X137265825Y-130741042D01*
X137265333Y-130599181D01*
X137275183Y-130262364D01*
X137302096Y-130025506D01*
X137342111Y-129920458D01*
X137350000Y-129918000D01*
X137392152Y-129997090D01*
X137421699Y-130212475D01*
X137434458Y-130531325D01*
X137434666Y-130582211D01*
X137442605Y-130941744D01*
X137471659Y-131173267D01*
X137529681Y-131317579D01*
X137589500Y-131386544D01*
X137801800Y-131511677D01*
X138022229Y-131484843D01*
X138177827Y-131394865D01*
X138273236Y-131310008D01*
X138329802Y-131192863D01*
X138357361Y-131001398D01*
X138365747Y-130693576D01*
X138366000Y-130590532D01*
X138375966Y-130256832D01*
X138403153Y-130022546D01*
X138443487Y-129920018D01*
X138450666Y-129918000D01*
X138490072Y-129998463D01*
G36*
X139384665Y-129922592D02*
X139607445Y-129951731D01*
X139792908Y-130005250D01*
X139852651Y-130038173D01*
X139937186Y-130128529D01*
X139991902Y-130275228D01*
X140025593Y-130516296D01*
X140046508Y-130876403D01*
X140058880Y-131224236D01*
X140055644Y-131436147D01*
X140028902Y-131545373D01*
X139970752Y-131585150D01*
X139877175Y-131588826D01*
X139632358Y-131607405D01*
X139466666Y-131640394D01*
X139216281Y-131644391D01*
X139043333Y-131589017D01*
X138878791Y-131446109D01*
X138809126Y-131207782D01*
X138806016Y-131175417D01*
X138811843Y-131109270D01*
X138901094Y-131109270D01*
X138954717Y-131265287D01*
X139137183Y-131465423D01*
X139365426Y-131517208D01*
X139600071Y-131418658D01*
X139714521Y-131303581D01*
X139837271Y-131102196D01*
X139889964Y-130925832D01*
X139890000Y-130922581D01*
X139863689Y-130826979D01*
X139757728Y-130779519D01*
X139531569Y-130764968D01*
X139469645Y-130764666D01*
X139142930Y-130806409D01*
X138949861Y-130924731D01*
X138901094Y-131109270D01*
X138811843Y-131109270D01*
X138832222Y-130877962D01*
X138977952Y-130690978D01*
X139254050Y-130604311D01*
X139425384Y-130595333D01*
X139711298Y-130571092D01*
X139846787Y-130490758D01*
X139844763Y-130342910D01*
X139806269Y-130258416D01*
X139683025Y-130134906D01*
X139461043Y-130089034D01*
X139384017Y-130087333D01*
X139159573Y-130067480D01*
X139016252Y-130018226D01*
X139001000Y-130002666D01*
X139030585Y-129945940D01*
X139175426Y-129919955D01*
X139384665Y-129922592D01*
X139384665Y-129922592D01*
G37*
X139384665Y-129922592D02*
X139607445Y-129951731D01*
X139792908Y-130005250D01*
X139852651Y-130038173D01*
X139937186Y-130128529D01*
X139991902Y-130275228D01*
X140025593Y-130516296D01*
X140046508Y-130876403D01*
X140058880Y-131224236D01*
X140055644Y-131436147D01*
X140028902Y-131545373D01*
X139970752Y-131585150D01*
X139877175Y-131588826D01*
X139632358Y-131607405D01*
X139466666Y-131640394D01*
X139216281Y-131644391D01*
X139043333Y-131589017D01*
X138878791Y-131446109D01*
X138809126Y-131207782D01*
X138806016Y-131175417D01*
X138811843Y-131109270D01*
X138901094Y-131109270D01*
X138954717Y-131265287D01*
X139137183Y-131465423D01*
X139365426Y-131517208D01*
X139600071Y-131418658D01*
X139714521Y-131303581D01*
X139837271Y-131102196D01*
X139889964Y-130925832D01*
X139890000Y-130922581D01*
X139863689Y-130826979D01*
X139757728Y-130779519D01*
X139531569Y-130764968D01*
X139469645Y-130764666D01*
X139142930Y-130806409D01*
X138949861Y-130924731D01*
X138901094Y-131109270D01*
X138811843Y-131109270D01*
X138832222Y-130877962D01*
X138977952Y-130690978D01*
X139254050Y-130604311D01*
X139425384Y-130595333D01*
X139711298Y-130571092D01*
X139846787Y-130490758D01*
X139844763Y-130342910D01*
X139806269Y-130258416D01*
X139683025Y-130134906D01*
X139461043Y-130089034D01*
X139384017Y-130087333D01*
X139159573Y-130067480D01*
X139016252Y-130018226D01*
X139001000Y-130002666D01*
X139030585Y-129945940D01*
X139175426Y-129919955D01*
X139384665Y-129922592D01*
G36*
X142387994Y-129996792D02*
X142417729Y-130210077D01*
X142429920Y-130523221D01*
X142430000Y-130553000D01*
X142438299Y-130902874D01*
X142469586Y-131129473D01*
X142533447Y-131278325D01*
X142599333Y-131357333D01*
X142806684Y-131502161D01*
X143006886Y-131491943D01*
X143232271Y-131324730D01*
X143238181Y-131318848D01*
X143348820Y-131187395D01*
X143411747Y-131036678D01*
X143439841Y-130815799D01*
X143446000Y-130497581D01*
X143454876Y-130164370D01*
X143482475Y-129990946D01*
X143530251Y-129968648D01*
X143534159Y-129972292D01*
X143574503Y-130098927D01*
X143597383Y-130358913D01*
X143600114Y-130716912D01*
X143597659Y-130807910D01*
X143582321Y-131167489D01*
X143559650Y-131390849D01*
X143521239Y-131511099D01*
X143458680Y-131561348D01*
X143403666Y-131571911D01*
X143184414Y-131605094D01*
X143022666Y-131638683D01*
X142778988Y-131647497D01*
X142619268Y-131610062D01*
X142444116Y-131472827D01*
X142344101Y-131311760D01*
X142300080Y-131119324D01*
X142272887Y-130849068D01*
X142262483Y-130547706D01*
X142268826Y-130261953D01*
X142291875Y-130038523D01*
X142331588Y-129924131D01*
X142345333Y-129918000D01*
X142387994Y-129996792D01*
X142387994Y-129996792D01*
G37*
X142387994Y-129996792D02*
X142417729Y-130210077D01*
X142429920Y-130523221D01*
X142430000Y-130553000D01*
X142438299Y-130902874D01*
X142469586Y-131129473D01*
X142533447Y-131278325D01*
X142599333Y-131357333D01*
X142806684Y-131502161D01*
X143006886Y-131491943D01*
X143232271Y-131324730D01*
X143238181Y-131318848D01*
X143348820Y-131187395D01*
X143411747Y-131036678D01*
X143439841Y-130815799D01*
X143446000Y-130497581D01*
X143454876Y-130164370D01*
X143482475Y-129990946D01*
X143530251Y-129968648D01*
X143534159Y-129972292D01*
X143574503Y-130098927D01*
X143597383Y-130358913D01*
X143600114Y-130716912D01*
X143597659Y-130807910D01*
X143582321Y-131167489D01*
X143559650Y-131390849D01*
X143521239Y-131511099D01*
X143458680Y-131561348D01*
X143403666Y-131571911D01*
X143184414Y-131605094D01*
X143022666Y-131638683D01*
X142778988Y-131647497D01*
X142619268Y-131610062D01*
X142444116Y-131472827D01*
X142344101Y-131311760D01*
X142300080Y-131119324D01*
X142272887Y-130849068D01*
X142262483Y-130547706D01*
X142268826Y-130261953D01*
X142291875Y-130038523D01*
X142331588Y-129924131D01*
X142345333Y-129918000D01*
X142387994Y-129996792D01*
G36*
X132730011Y-129576178D02*
X132757287Y-129808467D01*
X132773691Y-130173161D01*
X132778000Y-130553000D01*
X132769986Y-130979713D01*
X132748740Y-131308351D01*
X132718452Y-131527020D01*
X132683312Y-131623826D01*
X132647513Y-131586875D01*
X132615245Y-131404273D01*
X132591540Y-131082166D01*
X132566333Y-130553000D01*
X131635000Y-130553000D01*
X131609793Y-131082166D01*
X131584828Y-131415289D01*
X131552321Y-131591378D01*
X131516464Y-131622329D01*
X131481448Y-131520035D01*
X131451462Y-131296389D01*
X131430699Y-130963286D01*
X131423333Y-130553000D01*
X131429854Y-130094525D01*
X131448437Y-129753577D01*
X131477612Y-129548525D01*
X131508000Y-129494666D01*
X131556297Y-129570813D01*
X131586952Y-129765508D01*
X131592666Y-129918000D01*
X131592666Y-130341333D01*
X132608666Y-130341333D01*
X132608666Y-129918000D01*
X132623896Y-129676512D01*
X132662835Y-129523235D01*
X132693333Y-129494666D01*
X132730011Y-129576178D01*
X132730011Y-129576178D01*
G37*
X132730011Y-129576178D02*
X132757287Y-129808467D01*
X132773691Y-130173161D01*
X132778000Y-130553000D01*
X132769986Y-130979713D01*
X132748740Y-131308351D01*
X132718452Y-131527020D01*
X132683312Y-131623826D01*
X132647513Y-131586875D01*
X132615245Y-131404273D01*
X132591540Y-131082166D01*
X132566333Y-130553000D01*
X131635000Y-130553000D01*
X131609793Y-131082166D01*
X131584828Y-131415289D01*
X131552321Y-131591378D01*
X131516464Y-131622329D01*
X131481448Y-131520035D01*
X131451462Y-131296389D01*
X131430699Y-130963286D01*
X131423333Y-130553000D01*
X131429854Y-130094525D01*
X131448437Y-129753577D01*
X131477612Y-129548525D01*
X131508000Y-129494666D01*
X131556297Y-129570813D01*
X131586952Y-129765508D01*
X131592666Y-129918000D01*
X131592666Y-130341333D01*
X132608666Y-130341333D01*
X132608666Y-129918000D01*
X132623896Y-129676512D01*
X132662835Y-129523235D01*
X132693333Y-129494666D01*
X132730011Y-129576178D01*
G36*
X141202333Y-129959065D02*
X141304319Y-130048461D01*
X141281355Y-130072351D01*
X141113854Y-130045511D01*
X141093059Y-130041506D01*
X140771087Y-130047965D01*
X140606225Y-130124135D01*
X140501711Y-130206208D01*
X140439510Y-130311175D01*
X140408783Y-130481287D01*
X140398694Y-130758798D01*
X140398000Y-130935951D01*
X140388071Y-131270680D01*
X140360976Y-131505814D01*
X140320747Y-131609174D01*
X140313333Y-131611333D01*
X140273927Y-131530870D01*
X140245460Y-131305871D01*
X140230406Y-130960923D01*
X140228666Y-130769928D01*
X140231719Y-130383744D01*
X140244405Y-130136926D01*
X140272019Y-129999559D01*
X140319854Y-129941731D01*
X140376833Y-129932651D01*
X140566573Y-129917429D01*
X140779000Y-129879799D01*
X141053245Y-129879032D01*
X141202333Y-129959065D01*
X141202333Y-129959065D01*
G37*
X141202333Y-129959065D02*
X141304319Y-130048461D01*
X141281355Y-130072351D01*
X141113854Y-130045511D01*
X141093059Y-130041506D01*
X140771087Y-130047965D01*
X140606225Y-130124135D01*
X140501711Y-130206208D01*
X140439510Y-130311175D01*
X140408783Y-130481287D01*
X140398694Y-130758798D01*
X140398000Y-130935951D01*
X140388071Y-131270680D01*
X140360976Y-131505814D01*
X140320747Y-131609174D01*
X140313333Y-131611333D01*
X140273927Y-131530870D01*
X140245460Y-131305871D01*
X140230406Y-130960923D01*
X140228666Y-130769928D01*
X140231719Y-130383744D01*
X140244405Y-130136926D01*
X140272019Y-129999559D01*
X140319854Y-129941731D01*
X140376833Y-129932651D01*
X140566573Y-129917429D01*
X140779000Y-129879799D01*
X141053245Y-129879032D01*
X141202333Y-129959065D01*
G36*
X142006666Y-130764666D02*
X141998617Y-131157986D01*
X141976094Y-131442350D01*
X141941539Y-131593361D01*
X141922000Y-131611333D01*
X141881431Y-131531407D01*
X141852492Y-131310158D01*
X141838271Y-130975383D01*
X141837333Y-130849333D01*
X141831952Y-130474569D01*
X141812848Y-130241143D01*
X141775579Y-130121312D01*
X141715704Y-130087334D01*
X141715330Y-130087333D01*
X141571181Y-130035733D01*
X141541000Y-130002666D01*
X141574084Y-129942703D01*
X141738809Y-129918040D01*
X141747669Y-129918000D01*
X142006666Y-129918000D01*
X142006666Y-130764666D01*
X142006666Y-130764666D01*
G37*
X142006666Y-130764666D02*
X141998617Y-131157986D01*
X141976094Y-131442350D01*
X141941539Y-131593361D01*
X141922000Y-131611333D01*
X141881431Y-131531407D01*
X141852492Y-131310158D01*
X141838271Y-130975383D01*
X141837333Y-130849333D01*
X141831952Y-130474569D01*
X141812848Y-130241143D01*
X141775579Y-130121312D01*
X141715704Y-130087334D01*
X141715330Y-130087333D01*
X141571181Y-130035733D01*
X141541000Y-130002666D01*
X141574084Y-129942703D01*
X141738809Y-129918040D01*
X141747669Y-129918000D01*
X142006666Y-129918000D01*
X142006666Y-130764666D01*
G36*
X145395766Y-129872631D02*
X145604378Y-130036693D01*
X145608848Y-130041151D01*
X145714127Y-130163956D01*
X145776535Y-130302757D01*
X145806972Y-130504180D01*
X145816336Y-130814848D01*
X145816666Y-130930151D01*
X145806816Y-131266968D01*
X145779903Y-131503826D01*
X145739888Y-131608874D01*
X145732000Y-131611333D01*
X145689968Y-131532174D01*
X145660465Y-131316308D01*
X145647580Y-130996150D01*
X145647333Y-130940047D01*
X145636410Y-130554058D01*
X145600062Y-130303747D01*
X145532918Y-130156647D01*
X145514285Y-130135714D01*
X145351535Y-130019422D01*
X145179235Y-130030158D01*
X145049100Y-130090312D01*
X144967896Y-130154852D01*
X144918637Y-130266578D01*
X144893743Y-130462730D01*
X144885630Y-130780549D01*
X144885333Y-130894645D01*
X144875933Y-131244075D01*
X144850093Y-131491395D01*
X144811352Y-131606650D01*
X144800666Y-131611333D01*
X144758514Y-131532242D01*
X144728966Y-131316858D01*
X144716208Y-130998008D01*
X144716000Y-130947122D01*
X144709072Y-130594308D01*
X144682318Y-130367303D01*
X144626779Y-130222930D01*
X144546322Y-130129355D01*
X144386041Y-130026765D01*
X144216456Y-130050210D01*
X144165322Y-130072084D01*
X144062669Y-130128964D01*
X144000086Y-130210271D01*
X143967702Y-130354208D01*
X143955645Y-130598978D01*
X143954000Y-130889851D01*
X143944658Y-131240962D01*
X143918956Y-131489682D01*
X143880383Y-131606300D01*
X143869333Y-131611333D01*
X143829869Y-131530895D01*
X143801378Y-131306075D01*
X143786361Y-130961611D01*
X143784666Y-130774089D01*
X143784666Y-129936845D01*
X144088001Y-129879939D01*
X144398796Y-129873872D01*
X144598103Y-129958512D01*
X144763018Y-130045669D01*
X144891100Y-130026628D01*
X144990940Y-129963662D01*
X145209997Y-129850633D01*
X145395766Y-129872631D01*
X145395766Y-129872631D01*
G37*
X145395766Y-129872631D02*
X145604378Y-130036693D01*
X145608848Y-130041151D01*
X145714127Y-130163956D01*
X145776535Y-130302757D01*
X145806972Y-130504180D01*
X145816336Y-130814848D01*
X145816666Y-130930151D01*
X145806816Y-131266968D01*
X145779903Y-131503826D01*
X145739888Y-131608874D01*
X145732000Y-131611333D01*
X145689968Y-131532174D01*
X145660465Y-131316308D01*
X145647580Y-130996150D01*
X145647333Y-130940047D01*
X145636410Y-130554058D01*
X145600062Y-130303747D01*
X145532918Y-130156647D01*
X145514285Y-130135714D01*
X145351535Y-130019422D01*
X145179235Y-130030158D01*
X145049100Y-130090312D01*
X144967896Y-130154852D01*
X144918637Y-130266578D01*
X144893743Y-130462730D01*
X144885630Y-130780549D01*
X144885333Y-130894645D01*
X144875933Y-131244075D01*
X144850093Y-131491395D01*
X144811352Y-131606650D01*
X144800666Y-131611333D01*
X144758514Y-131532242D01*
X144728966Y-131316858D01*
X144716208Y-130998008D01*
X144716000Y-130947122D01*
X144709072Y-130594308D01*
X144682318Y-130367303D01*
X144626779Y-130222930D01*
X144546322Y-130129355D01*
X144386041Y-130026765D01*
X144216456Y-130050210D01*
X144165322Y-130072084D01*
X144062669Y-130128964D01*
X144000086Y-130210271D01*
X143967702Y-130354208D01*
X143955645Y-130598978D01*
X143954000Y-130889851D01*
X143944658Y-131240962D01*
X143918956Y-131489682D01*
X143880383Y-131606300D01*
X143869333Y-131611333D01*
X143829869Y-131530895D01*
X143801378Y-131306075D01*
X143786361Y-130961611D01*
X143784666Y-130774089D01*
X143784666Y-129936845D01*
X144088001Y-129879939D01*
X144398796Y-129873872D01*
X144598103Y-129958512D01*
X144763018Y-130045669D01*
X144891100Y-130026628D01*
X144990940Y-129963662D01*
X145209997Y-129850633D01*
X145395766Y-129872631D01*
G36*
X142004206Y-129389762D02*
X142006666Y-129410000D01*
X141942237Y-129492206D01*
X141922000Y-129494666D01*
X141839793Y-129430237D01*
X141837333Y-129410000D01*
X141901762Y-129327793D01*
X141922000Y-129325333D01*
X142004206Y-129389762D01*
X142004206Y-129389762D01*
G37*
X142004206Y-129389762D02*
X142006666Y-129410000D01*
X141942237Y-129492206D01*
X141922000Y-129494666D01*
X141839793Y-129430237D01*
X141837333Y-129410000D01*
X141901762Y-129327793D01*
X141922000Y-129325333D01*
X142004206Y-129389762D01*
G36*
X138738988Y-120822532D02*
X138793927Y-121028000D01*
X138948854Y-121531624D01*
X139228045Y-121921598D01*
X139636833Y-122204808D01*
X139742212Y-122252437D01*
X140220223Y-122367675D01*
X140699354Y-122332231D01*
X141142536Y-122157352D01*
X141512697Y-121854288D01*
X141648898Y-121673909D01*
X141778605Y-121470421D01*
X141861095Y-121339443D01*
X141876144Y-121314398D01*
X141952440Y-121294653D01*
X142137468Y-121258020D01*
X142197166Y-121247062D01*
X142514666Y-121189660D01*
X142514666Y-123352496D01*
X142515307Y-124015324D01*
X142518242Y-124529718D01*
X142524987Y-124916575D01*
X142537060Y-125196794D01*
X142555979Y-125391272D01*
X142583261Y-125520907D01*
X142620423Y-125606596D01*
X142668982Y-125669238D01*
X142684000Y-125684666D01*
X142761870Y-125749463D01*
X142863598Y-125795335D01*
X143017355Y-125825501D01*
X143251313Y-125843182D01*
X143593642Y-125851598D01*
X144072515Y-125853966D01*
X144165666Y-125854000D01*
X144669526Y-125855686D01*
X145032240Y-125862894D01*
X145281979Y-125878841D01*
X145446915Y-125906747D01*
X145555218Y-125949833D01*
X145635061Y-126011318D01*
X145647333Y-126023333D01*
X145792725Y-126276715D01*
X145798776Y-126569804D01*
X145667777Y-126849493D01*
X145608848Y-126916181D01*
X145526229Y-126993049D01*
X145437721Y-127048161D01*
X145315494Y-127085136D01*
X145131716Y-127107590D01*
X144858559Y-127119140D01*
X144468193Y-127123403D01*
X144009850Y-127124000D01*
X143492024Y-127122940D01*
X143111219Y-127117007D01*
X142835122Y-127102064D01*
X142631422Y-127073978D01*
X142467807Y-127028615D01*
X142311965Y-126961840D01*
X142167409Y-126888258D01*
X141739402Y-126576650D01*
X141442642Y-126159198D01*
X141279005Y-125639322D01*
X141244666Y-125209331D01*
X141239202Y-124914678D01*
X141214936Y-124751506D01*
X141160060Y-124682110D01*
X141075333Y-124668666D01*
X141001044Y-124679437D01*
X140952355Y-124731321D01*
X140923895Y-124853675D01*
X140910296Y-125075854D01*
X140906189Y-125427217D01*
X140906000Y-125594488D01*
X140898959Y-125994849D01*
X140879932Y-126350162D01*
X140852059Y-126615180D01*
X140827379Y-126727098D01*
X140670786Y-126925202D01*
X140420349Y-127040359D01*
X140141580Y-127046878D01*
X140066575Y-127025442D01*
X139897117Y-126944936D01*
X139779022Y-126830671D01*
X139703210Y-126653606D01*
X139660597Y-126384701D01*
X139642100Y-125994913D01*
X139638692Y-125657291D01*
X139635414Y-125231324D01*
X139625514Y-124947698D01*
X139604808Y-124779442D01*
X139569113Y-124699581D01*
X139514246Y-124681143D01*
X139487833Y-124684566D01*
X139422871Y-124717210D01*
X139376718Y-124804869D01*
X139344100Y-124975780D01*
X139319743Y-125258179D01*
X139298373Y-125680302D01*
X139297333Y-125704540D01*
X139266497Y-126214403D01*
X139217131Y-126578313D01*
X139138313Y-126819482D01*
X139019121Y-126961119D01*
X138848631Y-127026434D01*
X138669209Y-127039333D01*
X138354093Y-126971109D01*
X138142680Y-126774237D01*
X138069630Y-126588912D01*
X138049268Y-126427078D01*
X138029387Y-126142999D01*
X138012893Y-125783743D01*
X138006003Y-125558647D01*
X137992559Y-125167072D01*
X137971670Y-124914142D01*
X137937397Y-124769176D01*
X137883803Y-124701493D01*
X137836833Y-124684606D01*
X137773868Y-124686810D01*
X137731674Y-124739968D01*
X137706173Y-124871000D01*
X137693285Y-125106826D01*
X137688932Y-125474369D01*
X137688666Y-125662493D01*
X137685745Y-126099631D01*
X137673703Y-126401448D01*
X137647618Y-126601904D01*
X137602571Y-126734959D01*
X137533642Y-126834575D01*
X137516035Y-126854035D01*
X137271994Y-127004074D01*
X136974594Y-127036760D01*
X136693693Y-126950892D01*
X136588000Y-126870000D01*
X136515303Y-126780179D01*
X136466771Y-126661323D01*
X136437666Y-126480268D01*
X136423249Y-126203850D01*
X136418784Y-125798904D01*
X136418666Y-125684666D01*
X136416706Y-125254827D01*
X136407933Y-124966436D01*
X136388007Y-124791629D01*
X136352591Y-124702539D01*
X136297344Y-124671300D01*
X136260467Y-124668666D01*
X136176668Y-124690426D01*
X136123018Y-124778619D01*
X136088545Y-124967619D01*
X136062457Y-125289006D01*
X135966921Y-125893727D01*
X135762591Y-126372622D01*
X135443802Y-126734175D01*
X135004890Y-126986867D01*
X134903199Y-127024742D01*
X134734245Y-127054359D01*
X134436600Y-127079071D01*
X134046572Y-127098383D01*
X133600469Y-127111801D01*
X133134600Y-127118828D01*
X132685273Y-127118970D01*
X132288795Y-127111730D01*
X131981477Y-127096614D01*
X131799624Y-127073127D01*
X131781385Y-127067333D01*
X131638796Y-126937267D01*
X131521528Y-126714019D01*
X131461830Y-126473596D01*
X131471318Y-126336601D01*
X131534479Y-126159203D01*
X131616777Y-126031516D01*
X131744637Y-125945410D01*
X131944488Y-125892750D01*
X132242757Y-125865406D01*
X132665872Y-125855244D01*
X133039610Y-125854000D01*
X133500599Y-125848533D01*
X133916318Y-125833510D01*
X134250071Y-125810994D01*
X134465158Y-125783047D01*
X134508154Y-125771428D01*
X134725333Y-125688857D01*
X134725333Y-121189660D01*
X135042833Y-121244687D01*
X135272957Y-121313579D01*
X135430246Y-121412253D01*
X135445000Y-121430923D01*
X135822934Y-121898497D01*
X136248120Y-122211810D01*
X136709625Y-122367039D01*
X137196517Y-122360360D01*
X137661344Y-122206066D01*
X138067372Y-121922541D01*
X138354036Y-121520996D01*
X138494015Y-121134919D01*
X138581912Y-120867759D01*
X138665391Y-120762980D01*
X138738988Y-120822532D01*
X138738988Y-120822532D01*
G37*
X138738988Y-120822532D02*
X138793927Y-121028000D01*
X138948854Y-121531624D01*
X139228045Y-121921598D01*
X139636833Y-122204808D01*
X139742212Y-122252437D01*
X140220223Y-122367675D01*
X140699354Y-122332231D01*
X141142536Y-122157352D01*
X141512697Y-121854288D01*
X141648898Y-121673909D01*
X141778605Y-121470421D01*
X141861095Y-121339443D01*
X141876144Y-121314398D01*
X141952440Y-121294653D01*
X142137468Y-121258020D01*
X142197166Y-121247062D01*
X142514666Y-121189660D01*
X142514666Y-123352496D01*
X142515307Y-124015324D01*
X142518242Y-124529718D01*
X142524987Y-124916575D01*
X142537060Y-125196794D01*
X142555979Y-125391272D01*
X142583261Y-125520907D01*
X142620423Y-125606596D01*
X142668982Y-125669238D01*
X142684000Y-125684666D01*
X142761870Y-125749463D01*
X142863598Y-125795335D01*
X143017355Y-125825501D01*
X143251313Y-125843182D01*
X143593642Y-125851598D01*
X144072515Y-125853966D01*
X144165666Y-125854000D01*
X144669526Y-125855686D01*
X145032240Y-125862894D01*
X145281979Y-125878841D01*
X145446915Y-125906747D01*
X145555218Y-125949833D01*
X145635061Y-126011318D01*
X145647333Y-126023333D01*
X145792725Y-126276715D01*
X145798776Y-126569804D01*
X145667777Y-126849493D01*
X145608848Y-126916181D01*
X145526229Y-126993049D01*
X145437721Y-127048161D01*
X145315494Y-127085136D01*
X145131716Y-127107590D01*
X144858559Y-127119140D01*
X144468193Y-127123403D01*
X144009850Y-127124000D01*
X143492024Y-127122940D01*
X143111219Y-127117007D01*
X142835122Y-127102064D01*
X142631422Y-127073978D01*
X142467807Y-127028615D01*
X142311965Y-126961840D01*
X142167409Y-126888258D01*
X141739402Y-126576650D01*
X141442642Y-126159198D01*
X141279005Y-125639322D01*
X141244666Y-125209331D01*
X141239202Y-124914678D01*
X141214936Y-124751506D01*
X141160060Y-124682110D01*
X141075333Y-124668666D01*
X141001044Y-124679437D01*
X140952355Y-124731321D01*
X140923895Y-124853675D01*
X140910296Y-125075854D01*
X140906189Y-125427217D01*
X140906000Y-125594488D01*
X140898959Y-125994849D01*
X140879932Y-126350162D01*
X140852059Y-126615180D01*
X140827379Y-126727098D01*
X140670786Y-126925202D01*
X140420349Y-127040359D01*
X140141580Y-127046878D01*
X140066575Y-127025442D01*
X139897117Y-126944936D01*
X139779022Y-126830671D01*
X139703210Y-126653606D01*
X139660597Y-126384701D01*
X139642100Y-125994913D01*
X139638692Y-125657291D01*
X139635414Y-125231324D01*
X139625514Y-124947698D01*
X139604808Y-124779442D01*
X139569113Y-124699581D01*
X139514246Y-124681143D01*
X139487833Y-124684566D01*
X139422871Y-124717210D01*
X139376718Y-124804869D01*
X139344100Y-124975780D01*
X139319743Y-125258179D01*
X139298373Y-125680302D01*
X139297333Y-125704540D01*
X139266497Y-126214403D01*
X139217131Y-126578313D01*
X139138313Y-126819482D01*
X139019121Y-126961119D01*
X138848631Y-127026434D01*
X138669209Y-127039333D01*
X138354093Y-126971109D01*
X138142680Y-126774237D01*
X138069630Y-126588912D01*
X138049268Y-126427078D01*
X138029387Y-126142999D01*
X138012893Y-125783743D01*
X138006003Y-125558647D01*
X137992559Y-125167072D01*
X137971670Y-124914142D01*
X137937397Y-124769176D01*
X137883803Y-124701493D01*
X137836833Y-124684606D01*
X137773868Y-124686810D01*
X137731674Y-124739968D01*
X137706173Y-124871000D01*
X137693285Y-125106826D01*
X137688932Y-125474369D01*
X137688666Y-125662493D01*
X137685745Y-126099631D01*
X137673703Y-126401448D01*
X137647618Y-126601904D01*
X137602571Y-126734959D01*
X137533642Y-126834575D01*
X137516035Y-126854035D01*
X137271994Y-127004074D01*
X136974594Y-127036760D01*
X136693693Y-126950892D01*
X136588000Y-126870000D01*
X136515303Y-126780179D01*
X136466771Y-126661323D01*
X136437666Y-126480268D01*
X136423249Y-126203850D01*
X136418784Y-125798904D01*
X136418666Y-125684666D01*
X136416706Y-125254827D01*
X136407933Y-124966436D01*
X136388007Y-124791629D01*
X136352591Y-124702539D01*
X136297344Y-124671300D01*
X136260467Y-124668666D01*
X136176668Y-124690426D01*
X136123018Y-124778619D01*
X136088545Y-124967619D01*
X136062457Y-125289006D01*
X135966921Y-125893727D01*
X135762591Y-126372622D01*
X135443802Y-126734175D01*
X135004890Y-126986867D01*
X134903199Y-127024742D01*
X134734245Y-127054359D01*
X134436600Y-127079071D01*
X134046572Y-127098383D01*
X133600469Y-127111801D01*
X133134600Y-127118828D01*
X132685273Y-127118970D01*
X132288795Y-127111730D01*
X131981477Y-127096614D01*
X131799624Y-127073127D01*
X131781385Y-127067333D01*
X131638796Y-126937267D01*
X131521528Y-126714019D01*
X131461830Y-126473596D01*
X131471318Y-126336601D01*
X131534479Y-126159203D01*
X131616777Y-126031516D01*
X131744637Y-125945410D01*
X131944488Y-125892750D01*
X132242757Y-125865406D01*
X132665872Y-125855244D01*
X133039610Y-125854000D01*
X133500599Y-125848533D01*
X133916318Y-125833510D01*
X134250071Y-125810994D01*
X134465158Y-125783047D01*
X134508154Y-125771428D01*
X134725333Y-125688857D01*
X134725333Y-121189660D01*
X135042833Y-121244687D01*
X135272957Y-121313579D01*
X135430246Y-121412253D01*
X135445000Y-121430923D01*
X135822934Y-121898497D01*
X136248120Y-122211810D01*
X136709625Y-122367039D01*
X137196517Y-122360360D01*
X137661344Y-122206066D01*
X138067372Y-121922541D01*
X138354036Y-121520996D01*
X138494015Y-121134919D01*
X138581912Y-120867759D01*
X138665391Y-120762980D01*
X138738988Y-120822532D01*
G36*
X137317669Y-119751341D02*
X137677262Y-119961963D01*
X137962083Y-120311041D01*
X137993044Y-120367628D01*
X138103061Y-120747058D01*
X138048633Y-121131897D01*
X137833458Y-121507517D01*
X137657140Y-121696329D01*
X137356880Y-121872375D01*
X136985420Y-121943456D01*
X136608357Y-121904410D01*
X136359277Y-121798457D01*
X136061428Y-121524794D01*
X135885776Y-121180688D01*
X135836254Y-120845388D01*
X136164991Y-120845388D01*
X136211308Y-120912313D01*
X136228166Y-120919117D01*
X136312003Y-121024054D01*
X136334000Y-121147944D01*
X136352788Y-121318556D01*
X136381235Y-121385680D01*
X136502244Y-121408859D01*
X136661825Y-121359396D01*
X136765818Y-121269793D01*
X136771515Y-121250958D01*
X136784021Y-121101244D01*
X136792682Y-120901000D01*
X136836475Y-120700744D01*
X136926666Y-120647000D01*
X137016800Y-120703673D01*
X137034637Y-120890455D01*
X137032800Y-120917576D01*
X137060893Y-121161938D01*
X137194764Y-121316211D01*
X137384103Y-121403301D01*
X137491815Y-121342051D01*
X137519333Y-121180503D01*
X137583489Y-120988000D01*
X137667500Y-120894402D01*
X137768096Y-120801696D01*
X137731414Y-120724892D01*
X137659936Y-120669007D01*
X137547242Y-120511352D01*
X137532936Y-120388605D01*
X137514105Y-120261174D01*
X137371249Y-120222087D01*
X137356443Y-120221829D01*
X137185740Y-120182549D01*
X137116554Y-120115996D01*
X137018123Y-120021918D01*
X136878890Y-120037220D01*
X136788182Y-120138397D01*
X136678232Y-120226400D01*
X136536839Y-120213885D01*
X136384529Y-120201640D01*
X136335675Y-120295646D01*
X136334000Y-120342636D01*
X136290734Y-120560580D01*
X136228166Y-120701544D01*
X136164991Y-120845388D01*
X135836254Y-120845388D01*
X135830063Y-120803471D01*
X135892031Y-120430475D01*
X136069420Y-120099034D01*
X136359972Y-119846479D01*
X136480992Y-119786523D01*
X136910009Y-119689440D01*
X137317669Y-119751341D01*
X137317669Y-119751341D01*
G37*
X137317669Y-119751341D02*
X137677262Y-119961963D01*
X137962083Y-120311041D01*
X137993044Y-120367628D01*
X138103061Y-120747058D01*
X138048633Y-121131897D01*
X137833458Y-121507517D01*
X137657140Y-121696329D01*
X137356880Y-121872375D01*
X136985420Y-121943456D01*
X136608357Y-121904410D01*
X136359277Y-121798457D01*
X136061428Y-121524794D01*
X135885776Y-121180688D01*
X135836254Y-120845388D01*
X136164991Y-120845388D01*
X136211308Y-120912313D01*
X136228166Y-120919117D01*
X136312003Y-121024054D01*
X136334000Y-121147944D01*
X136352788Y-121318556D01*
X136381235Y-121385680D01*
X136502244Y-121408859D01*
X136661825Y-121359396D01*
X136765818Y-121269793D01*
X136771515Y-121250958D01*
X136784021Y-121101244D01*
X136792682Y-120901000D01*
X136836475Y-120700744D01*
X136926666Y-120647000D01*
X137016800Y-120703673D01*
X137034637Y-120890455D01*
X137032800Y-120917576D01*
X137060893Y-121161938D01*
X137194764Y-121316211D01*
X137384103Y-121403301D01*
X137491815Y-121342051D01*
X137519333Y-121180503D01*
X137583489Y-120988000D01*
X137667500Y-120894402D01*
X137768096Y-120801696D01*
X137731414Y-120724892D01*
X137659936Y-120669007D01*
X137547242Y-120511352D01*
X137532936Y-120388605D01*
X137514105Y-120261174D01*
X137371249Y-120222087D01*
X137356443Y-120221829D01*
X137185740Y-120182549D01*
X137116554Y-120115996D01*
X137018123Y-120021918D01*
X136878890Y-120037220D01*
X136788182Y-120138397D01*
X136678232Y-120226400D01*
X136536839Y-120213885D01*
X136384529Y-120201640D01*
X136335675Y-120295646D01*
X136334000Y-120342636D01*
X136290734Y-120560580D01*
X136228166Y-120701544D01*
X136164991Y-120845388D01*
X135836254Y-120845388D01*
X135830063Y-120803471D01*
X135892031Y-120430475D01*
X136069420Y-120099034D01*
X136359972Y-119846479D01*
X136480992Y-119786523D01*
X136910009Y-119689440D01*
X137317669Y-119751341D01*
G36*
X140691469Y-119733981D02*
X141041022Y-119911457D01*
X141305072Y-120206627D01*
X141455883Y-120603708D01*
X141473006Y-120720549D01*
X141439736Y-121124387D01*
X141273087Y-121469350D01*
X141004357Y-121735995D01*
X140664843Y-121904877D01*
X140285843Y-121956555D01*
X139898657Y-121871586D01*
X139745943Y-121793427D01*
X139452834Y-121528750D01*
X139277668Y-121190265D01*
X139218521Y-120816088D01*
X139225843Y-120766546D01*
X139563585Y-120766546D01*
X139584562Y-120901536D01*
X139687117Y-120977321D01*
X139781304Y-121084753D01*
X139771509Y-121163354D01*
X139756047Y-121326011D01*
X139816886Y-121438478D01*
X139858229Y-121451333D01*
X139958287Y-121415868D01*
X140072954Y-121359376D01*
X140187087Y-121262342D01*
X140209262Y-121106621D01*
X140190344Y-120977271D01*
X140171641Y-120763765D01*
X140230109Y-120656794D01*
X140275501Y-120633557D01*
X140424511Y-120643076D01*
X140510861Y-120752974D01*
X140485716Y-120896385D01*
X140476362Y-120908595D01*
X140433736Y-121074272D01*
X140520919Y-121256033D01*
X140672728Y-121377760D01*
X140844067Y-121410443D01*
X140936669Y-121308598D01*
X140928081Y-121103294D01*
X140940031Y-120970026D01*
X141023125Y-120943333D01*
X141137705Y-120887903D01*
X141148106Y-120771013D01*
X141051627Y-120666759D01*
X141033493Y-120658905D01*
X140940712Y-120545391D01*
X140927660Y-120417013D01*
X140911497Y-120272242D01*
X140788368Y-120241445D01*
X140754986Y-120244339D01*
X140582164Y-120211841D01*
X140513094Y-120138506D01*
X140402281Y-120025102D01*
X140255084Y-120042601D01*
X140169304Y-120133108D01*
X140037981Y-120226824D01*
X139932264Y-120238942D01*
X139804881Y-120266589D01*
X139782807Y-120408499D01*
X139783672Y-120417013D01*
X139751175Y-120589835D01*
X139677839Y-120658905D01*
X139563585Y-120766546D01*
X139225843Y-120766546D01*
X139273470Y-120444334D01*
X139440591Y-120113119D01*
X139717959Y-119860559D01*
X139846801Y-119795238D01*
X140284150Y-119689981D01*
X140691469Y-119733981D01*
X140691469Y-119733981D01*
G37*
X140691469Y-119733981D02*
X141041022Y-119911457D01*
X141305072Y-120206627D01*
X141455883Y-120603708D01*
X141473006Y-120720549D01*
X141439736Y-121124387D01*
X141273087Y-121469350D01*
X141004357Y-121735995D01*
X140664843Y-121904877D01*
X140285843Y-121956555D01*
X139898657Y-121871586D01*
X139745943Y-121793427D01*
X139452834Y-121528750D01*
X139277668Y-121190265D01*
X139218521Y-120816088D01*
X139225843Y-120766546D01*
X139563585Y-120766546D01*
X139584562Y-120901536D01*
X139687117Y-120977321D01*
X139781304Y-121084753D01*
X139771509Y-121163354D01*
X139756047Y-121326011D01*
X139816886Y-121438478D01*
X139858229Y-121451333D01*
X139958287Y-121415868D01*
X140072954Y-121359376D01*
X140187087Y-121262342D01*
X140209262Y-121106621D01*
X140190344Y-120977271D01*
X140171641Y-120763765D01*
X140230109Y-120656794D01*
X140275501Y-120633557D01*
X140424511Y-120643076D01*
X140510861Y-120752974D01*
X140485716Y-120896385D01*
X140476362Y-120908595D01*
X140433736Y-121074272D01*
X140520919Y-121256033D01*
X140672728Y-121377760D01*
X140844067Y-121410443D01*
X140936669Y-121308598D01*
X140928081Y-121103294D01*
X140940031Y-120970026D01*
X141023125Y-120943333D01*
X141137705Y-120887903D01*
X141148106Y-120771013D01*
X141051627Y-120666759D01*
X141033493Y-120658905D01*
X140940712Y-120545391D01*
X140927660Y-120417013D01*
X140911497Y-120272242D01*
X140788368Y-120241445D01*
X140754986Y-120244339D01*
X140582164Y-120211841D01*
X140513094Y-120138506D01*
X140402281Y-120025102D01*
X140255084Y-120042601D01*
X140169304Y-120133108D01*
X140037981Y-120226824D01*
X139932264Y-120238942D01*
X139804881Y-120266589D01*
X139782807Y-120408499D01*
X139783672Y-120417013D01*
X139751175Y-120589835D01*
X139677839Y-120658905D01*
X139563585Y-120766546D01*
X139225843Y-120766546D01*
X139273470Y-120444334D01*
X139440591Y-120113119D01*
X139717959Y-119860559D01*
X139846801Y-119795238D01*
X140284150Y-119689981D01*
X140691469Y-119733981D01*
G36*
X139270047Y-117013852D02*
X139641799Y-117100442D01*
X140436301Y-117413703D01*
X141110793Y-117845700D01*
X141663605Y-118394856D01*
X142093070Y-119059596D01*
X142338746Y-119649495D01*
X142458903Y-120030338D01*
X142512417Y-120276852D01*
X142495582Y-120411913D01*
X142404689Y-120458396D01*
X142236032Y-120439177D01*
X142211625Y-120433820D01*
X142009177Y-120382163D01*
X141896833Y-120342026D01*
X141890604Y-120336903D01*
X141661142Y-119985164D01*
X141479996Y-119746863D01*
X141314598Y-119586670D01*
X141132379Y-119469257D01*
X141054188Y-119429590D01*
X140926887Y-119372728D01*
X140794178Y-119329319D01*
X140632117Y-119297588D01*
X140416764Y-119275760D01*
X140124176Y-119262059D01*
X139730410Y-119254711D01*
X139211525Y-119251942D01*
X138656768Y-119251859D01*
X137933827Y-119254884D01*
X137358106Y-119266090D01*
X136907515Y-119290891D01*
X136559963Y-119334699D01*
X136293361Y-119402926D01*
X136085618Y-119500985D01*
X135914643Y-119634287D01*
X135758346Y-119808246D01*
X135617349Y-119996551D01*
X135392613Y-120270121D01*
X135194546Y-120414834D01*
X135062839Y-120453563D01*
X134879782Y-120458601D01*
X134813447Y-120386528D01*
X134810000Y-120343546D01*
X134847709Y-120095613D01*
X134947298Y-119754684D01*
X135088455Y-119375813D01*
X135250869Y-119014053D01*
X135398406Y-118748638D01*
X135870248Y-118158847D01*
X136447161Y-117675453D01*
X137102372Y-117308858D01*
X137809105Y-117069460D01*
X138540589Y-116967658D01*
X139270047Y-117013852D01*
X139270047Y-117013852D01*
G37*
X139270047Y-117013852D02*
X139641799Y-117100442D01*
X140436301Y-117413703D01*
X141110793Y-117845700D01*
X141663605Y-118394856D01*
X142093070Y-119059596D01*
X142338746Y-119649495D01*
X142458903Y-120030338D01*
X142512417Y-120276852D01*
X142495582Y-120411913D01*
X142404689Y-120458396D01*
X142236032Y-120439177D01*
X142211625Y-120433820D01*
X142009177Y-120382163D01*
X141896833Y-120342026D01*
X141890604Y-120336903D01*
X141661142Y-119985164D01*
X141479996Y-119746863D01*
X141314598Y-119586670D01*
X141132379Y-119469257D01*
X141054188Y-119429590D01*
X140926887Y-119372728D01*
X140794178Y-119329319D01*
X140632117Y-119297588D01*
X140416764Y-119275760D01*
X140124176Y-119262059D01*
X139730410Y-119254711D01*
X139211525Y-119251942D01*
X138656768Y-119251859D01*
X137933827Y-119254884D01*
X137358106Y-119266090D01*
X136907515Y-119290891D01*
X136559963Y-119334699D01*
X136293361Y-119402926D01*
X136085618Y-119500985D01*
X135914643Y-119634287D01*
X135758346Y-119808246D01*
X135617349Y-119996551D01*
X135392613Y-120270121D01*
X135194546Y-120414834D01*
X135062839Y-120453563D01*
X134879782Y-120458601D01*
X134813447Y-120386528D01*
X134810000Y-120343546D01*
X134847709Y-120095613D01*
X134947298Y-119754684D01*
X135088455Y-119375813D01*
X135250869Y-119014053D01*
X135398406Y-118748638D01*
X135870248Y-118158847D01*
X136447161Y-117675453D01*
X137102372Y-117308858D01*
X137809105Y-117069460D01*
X138540589Y-116967658D01*
X139270047Y-117013852D01*
G04 #@! TO.C,GS3*
D12*
X85750000Y-81060476D02*
X85702380Y-81155714D01*
X85702380Y-81298571D01*
X85750000Y-81441428D01*
X85845238Y-81536666D01*
X85940476Y-81584285D01*
X86130952Y-81631904D01*
X86273809Y-81631904D01*
X86464285Y-81584285D01*
X86559523Y-81536666D01*
X86654761Y-81441428D01*
X86702380Y-81298571D01*
X86702380Y-81203333D01*
X86654761Y-81060476D01*
X86607142Y-81012857D01*
X86273809Y-81012857D01*
X86273809Y-81203333D01*
X86654761Y-80631904D02*
X86702380Y-80489047D01*
X86702380Y-80250952D01*
X86654761Y-80155714D01*
X86607142Y-80108095D01*
X86511904Y-80060476D01*
X86416666Y-80060476D01*
X86321428Y-80108095D01*
X86273809Y-80155714D01*
X86226190Y-80250952D01*
X86178571Y-80441428D01*
X86130952Y-80536666D01*
X86083333Y-80584285D01*
X85988095Y-80631904D01*
X85892857Y-80631904D01*
X85797619Y-80584285D01*
X85750000Y-80536666D01*
X85702380Y-80441428D01*
X85702380Y-80203333D01*
X85750000Y-80060476D01*
X85702380Y-79727142D02*
X85702380Y-79108095D01*
X86083333Y-79441428D01*
X86083333Y-79298571D01*
X86130952Y-79203333D01*
X86178571Y-79155714D01*
X86273809Y-79108095D01*
X86511904Y-79108095D01*
X86607142Y-79155714D01*
X86654761Y-79203333D01*
X86702380Y-79298571D01*
X86702380Y-79584285D01*
X86654761Y-79679523D01*
X86607142Y-79727142D01*
G04 #@! TO.C,U1*
X110068095Y-92592380D02*
X110068095Y-93401904D01*
X110115714Y-93497142D01*
X110163333Y-93544761D01*
X110258571Y-93592380D01*
X110449047Y-93592380D01*
X110544285Y-93544761D01*
X110591904Y-93497142D01*
X110639523Y-93401904D01*
X110639523Y-92592380D01*
X111639523Y-93592380D02*
X111068095Y-93592380D01*
X111353809Y-93592380D02*
X111353809Y-92592380D01*
X111258571Y-92735238D01*
X111163333Y-92830476D01*
X111068095Y-92878095D01*
G04 #@! TO.C,U3*
X68998095Y-95652380D02*
X68998095Y-96461904D01*
X69045714Y-96557142D01*
X69093333Y-96604761D01*
X69188571Y-96652380D01*
X69379047Y-96652380D01*
X69474285Y-96604761D01*
X69521904Y-96557142D01*
X69569523Y-96461904D01*
X69569523Y-95652380D01*
X69950476Y-95652380D02*
X70569523Y-95652380D01*
X70236190Y-96033333D01*
X70379047Y-96033333D01*
X70474285Y-96080952D01*
X70521904Y-96128571D01*
X70569523Y-96223809D01*
X70569523Y-96461904D01*
X70521904Y-96557142D01*
X70474285Y-96604761D01*
X70379047Y-96652380D01*
X70093333Y-96652380D01*
X69998095Y-96604761D01*
X69950476Y-96557142D01*
G04 #@! TO.C,C2*
X80219590Y-136761744D02*
X80171971Y-136809363D01*
X80029114Y-136856982D01*
X79933876Y-136856982D01*
X79791018Y-136809363D01*
X79695780Y-136714125D01*
X79648161Y-136618887D01*
X79600542Y-136428411D01*
X79600542Y-136285554D01*
X79648161Y-136095078D01*
X79695780Y-135999840D01*
X79791018Y-135904602D01*
X79933876Y-135856982D01*
X80029114Y-135856982D01*
X80171971Y-135904602D01*
X80219590Y-135952221D01*
X80600542Y-135952221D02*
X80648161Y-135904602D01*
X80743399Y-135856982D01*
X80981495Y-135856982D01*
X81076733Y-135904602D01*
X81124352Y-135952221D01*
X81171971Y-136047459D01*
X81171971Y-136142697D01*
X81124352Y-136285554D01*
X80552923Y-136856982D01*
X81171971Y-136856982D01*
G04 #@! TO.C,C3*
X129545172Y-138795002D02*
X129497553Y-138842621D01*
X129354696Y-138890240D01*
X129259458Y-138890240D01*
X129116600Y-138842621D01*
X129021362Y-138747383D01*
X128973743Y-138652145D01*
X128926124Y-138461669D01*
X128926124Y-138318812D01*
X128973743Y-138128336D01*
X129021362Y-138033098D01*
X129116600Y-137937860D01*
X129259458Y-137890240D01*
X129354696Y-137890240D01*
X129497553Y-137937860D01*
X129545172Y-137985479D01*
X129878505Y-137890240D02*
X130497553Y-137890240D01*
X130164219Y-138271193D01*
X130307077Y-138271193D01*
X130402315Y-138318812D01*
X130449934Y-138366431D01*
X130497553Y-138461669D01*
X130497553Y-138699764D01*
X130449934Y-138795002D01*
X130402315Y-138842621D01*
X130307077Y-138890240D01*
X130021362Y-138890240D01*
X129926124Y-138842621D01*
X129878505Y-138795002D01*
G04 #@! TO.C,C4*
X129550172Y-142455002D02*
X129502553Y-142502621D01*
X129359696Y-142550240D01*
X129264458Y-142550240D01*
X129121600Y-142502621D01*
X129026362Y-142407383D01*
X128978743Y-142312145D01*
X128931124Y-142121669D01*
X128931124Y-141978812D01*
X128978743Y-141788336D01*
X129026362Y-141693098D01*
X129121600Y-141597860D01*
X129264458Y-141550240D01*
X129359696Y-141550240D01*
X129502553Y-141597860D01*
X129550172Y-141645479D01*
X130407315Y-141883574D02*
X130407315Y-142550240D01*
X130169219Y-141502621D02*
X129931124Y-142216907D01*
X130550172Y-142216907D01*
G04 #@! TO.C,C6*
X97652751Y-120544947D02*
X97700370Y-120592566D01*
X97747989Y-120735423D01*
X97747989Y-120830661D01*
X97700370Y-120973519D01*
X97605132Y-121068757D01*
X97509894Y-121116376D01*
X97319418Y-121163995D01*
X97176561Y-121163995D01*
X96986085Y-121116376D01*
X96890847Y-121068757D01*
X96795609Y-120973519D01*
X96747989Y-120830661D01*
X96747989Y-120735423D01*
X96795609Y-120592566D01*
X96843228Y-120544947D01*
X96747989Y-119687804D02*
X96747989Y-119878281D01*
X96795609Y-119973519D01*
X96843228Y-120021138D01*
X96986085Y-120116376D01*
X97176561Y-120163995D01*
X97557513Y-120163995D01*
X97652751Y-120116376D01*
X97700370Y-120068757D01*
X97747989Y-119973519D01*
X97747989Y-119783042D01*
X97700370Y-119687804D01*
X97652751Y-119640185D01*
X97557513Y-119592566D01*
X97319418Y-119592566D01*
X97224180Y-119640185D01*
X97176561Y-119687804D01*
X97128942Y-119783042D01*
X97128942Y-119973519D01*
X97176561Y-120068757D01*
X97224180Y-120116376D01*
X97319418Y-120163995D01*
G04 #@! TO.C,D1*
X73781904Y-129482380D02*
X73781904Y-128482380D01*
X74020000Y-128482380D01*
X74162857Y-128530000D01*
X74258095Y-128625238D01*
X74305714Y-128720476D01*
X74353333Y-128910952D01*
X74353333Y-129053809D01*
X74305714Y-129244285D01*
X74258095Y-129339523D01*
X74162857Y-129434761D01*
X74020000Y-129482380D01*
X73781904Y-129482380D01*
X75305714Y-129482380D02*
X74734285Y-129482380D01*
X75020000Y-129482380D02*
X75020000Y-128482380D01*
X74924761Y-128625238D01*
X74829523Y-128720476D01*
X74734285Y-128768095D01*
G04 #@! TO.C,D2*
X120691904Y-148162380D02*
X120691904Y-147162380D01*
X120930000Y-147162380D01*
X121072857Y-147210000D01*
X121168095Y-147305238D01*
X121215714Y-147400476D01*
X121263333Y-147590952D01*
X121263333Y-147733809D01*
X121215714Y-147924285D01*
X121168095Y-148019523D01*
X121072857Y-148114761D01*
X120930000Y-148162380D01*
X120691904Y-148162380D01*
X121644285Y-147257619D02*
X121691904Y-147210000D01*
X121787142Y-147162380D01*
X122025238Y-147162380D01*
X122120476Y-147210000D01*
X122168095Y-147257619D01*
X122215714Y-147352857D01*
X122215714Y-147448095D01*
X122168095Y-147590952D01*
X121596666Y-148162380D01*
X122215714Y-148162380D01*
G04 #@! TO.C,D3*
X126320578Y-133233258D02*
X126320578Y-132233258D01*
X126558674Y-132233258D01*
X126701531Y-132280878D01*
X126796769Y-132376116D01*
X126844388Y-132471354D01*
X126892007Y-132661830D01*
X126892007Y-132804687D01*
X126844388Y-132995163D01*
X126796769Y-133090401D01*
X126701531Y-133185639D01*
X126558674Y-133233258D01*
X126320578Y-133233258D01*
X127225340Y-132233258D02*
X127844388Y-132233258D01*
X127511054Y-132614211D01*
X127653912Y-132614211D01*
X127749150Y-132661830D01*
X127796769Y-132709449D01*
X127844388Y-132804687D01*
X127844388Y-133042782D01*
X127796769Y-133138020D01*
X127749150Y-133185639D01*
X127653912Y-133233258D01*
X127368197Y-133233258D01*
X127272959Y-133185639D01*
X127225340Y-133138020D01*
G04 #@! TO.C,R1*
X90003637Y-131566268D02*
X89527447Y-131899602D01*
X90003637Y-132137697D02*
X89003637Y-132137697D01*
X89003637Y-131756744D01*
X89051257Y-131661506D01*
X89098876Y-131613887D01*
X89194114Y-131566268D01*
X89336971Y-131566268D01*
X89432209Y-131613887D01*
X89479828Y-131661506D01*
X89527447Y-131756744D01*
X89527447Y-132137697D01*
X90003637Y-130613887D02*
X90003637Y-131185316D01*
X90003637Y-130899602D02*
X89003637Y-130899602D01*
X89146495Y-130994840D01*
X89241733Y-131090078D01*
X89289352Y-131185316D01*
G04 #@! TO.C,R2*
X111981267Y-134545135D02*
X111647934Y-134068945D01*
X111409838Y-134545135D02*
X111409838Y-133545135D01*
X111790791Y-133545135D01*
X111886029Y-133592755D01*
X111933648Y-133640374D01*
X111981267Y-133735612D01*
X111981267Y-133878469D01*
X111933648Y-133973707D01*
X111886029Y-134021326D01*
X111790791Y-134068945D01*
X111409838Y-134068945D01*
X112362219Y-133640374D02*
X112409838Y-133592755D01*
X112505076Y-133545135D01*
X112743172Y-133545135D01*
X112838410Y-133592755D01*
X112886029Y-133640374D01*
X112933648Y-133735612D01*
X112933648Y-133830850D01*
X112886029Y-133973707D01*
X112314600Y-134545135D01*
X112933648Y-134545135D01*
G04 #@! TO.C,R3*
X99987989Y-120554947D02*
X99511799Y-120888281D01*
X99987989Y-121126376D02*
X98987989Y-121126376D01*
X98987989Y-120745423D01*
X99035609Y-120650185D01*
X99083228Y-120602566D01*
X99178466Y-120554947D01*
X99321323Y-120554947D01*
X99416561Y-120602566D01*
X99464180Y-120650185D01*
X99511799Y-120745423D01*
X99511799Y-121126376D01*
X98987989Y-120221614D02*
X98987989Y-119602566D01*
X99368942Y-119935900D01*
X99368942Y-119793042D01*
X99416561Y-119697804D01*
X99464180Y-119650185D01*
X99559418Y-119602566D01*
X99797513Y-119602566D01*
X99892751Y-119650185D01*
X99940370Y-119697804D01*
X99987989Y-119793042D01*
X99987989Y-120078757D01*
X99940370Y-120173995D01*
X99892751Y-120221614D01*
G04 #@! TO.C,R4*
X116638333Y-117992380D02*
X116305000Y-117516190D01*
X116066904Y-117992380D02*
X116066904Y-116992380D01*
X116447857Y-116992380D01*
X116543095Y-117040000D01*
X116590714Y-117087619D01*
X116638333Y-117182857D01*
X116638333Y-117325714D01*
X116590714Y-117420952D01*
X116543095Y-117468571D01*
X116447857Y-117516190D01*
X116066904Y-117516190D01*
X117495476Y-117325714D02*
X117495476Y-117992380D01*
X117257380Y-116944761D02*
X117019285Y-117659047D01*
X117638333Y-117659047D01*
G04 #@! TO.C,Q1*
X123784761Y-123917619D02*
X123689523Y-123870000D01*
X123594285Y-123774761D01*
X123451428Y-123631904D01*
X123356190Y-123584285D01*
X123260952Y-123584285D01*
X123308571Y-123822380D02*
X123213333Y-123774761D01*
X123118095Y-123679523D01*
X123070476Y-123489047D01*
X123070476Y-123155714D01*
X123118095Y-122965238D01*
X123213333Y-122870000D01*
X123308571Y-122822380D01*
X123499047Y-122822380D01*
X123594285Y-122870000D01*
X123689523Y-122965238D01*
X123737142Y-123155714D01*
X123737142Y-123489047D01*
X123689523Y-123679523D01*
X123594285Y-123774761D01*
X123499047Y-123822380D01*
X123308571Y-123822380D01*
X124689523Y-123822380D02*
X124118095Y-123822380D01*
X124403809Y-123822380D02*
X124403809Y-122822380D01*
X124308571Y-122965238D01*
X124213333Y-123060476D01*
X124118095Y-123108095D01*
G04 #@! TO.C,Q2*
X107224761Y-117357619D02*
X107129523Y-117310000D01*
X107034285Y-117214761D01*
X106891428Y-117071904D01*
X106796190Y-117024285D01*
X106700952Y-117024285D01*
X106748571Y-117262380D02*
X106653333Y-117214761D01*
X106558095Y-117119523D01*
X106510476Y-116929047D01*
X106510476Y-116595714D01*
X106558095Y-116405238D01*
X106653333Y-116310000D01*
X106748571Y-116262380D01*
X106939047Y-116262380D01*
X107034285Y-116310000D01*
X107129523Y-116405238D01*
X107177142Y-116595714D01*
X107177142Y-116929047D01*
X107129523Y-117119523D01*
X107034285Y-117214761D01*
X106939047Y-117262380D01*
X106748571Y-117262380D01*
X107558095Y-116357619D02*
X107605714Y-116310000D01*
X107700952Y-116262380D01*
X107939047Y-116262380D01*
X108034285Y-116310000D01*
X108081904Y-116357619D01*
X108129523Y-116452857D01*
X108129523Y-116548095D01*
X108081904Y-116690952D01*
X107510476Y-117262380D01*
X108129523Y-117262380D01*
G04 #@! TO.C,C1*
X80274590Y-131711744D02*
X80226971Y-131759363D01*
X80084114Y-131806982D01*
X79988876Y-131806982D01*
X79846018Y-131759363D01*
X79750780Y-131664125D01*
X79703161Y-131568887D01*
X79655542Y-131378411D01*
X79655542Y-131235554D01*
X79703161Y-131045078D01*
X79750780Y-130949840D01*
X79846018Y-130854602D01*
X79988876Y-130806982D01*
X80084114Y-130806982D01*
X80226971Y-130854602D01*
X80274590Y-130902221D01*
X81226971Y-131806982D02*
X80655542Y-131806982D01*
X80941257Y-131806982D02*
X80941257Y-130806982D01*
X80846018Y-130949840D01*
X80750780Y-131045078D01*
X80655542Y-131092697D01*
G04 #@! TO.C,J4*
X146316666Y-48602380D02*
X146316666Y-49316666D01*
X146269047Y-49459523D01*
X146173809Y-49554761D01*
X146030952Y-49602380D01*
X145935714Y-49602380D01*
X147221428Y-48935714D02*
X147221428Y-49602380D01*
X146983333Y-48554761D02*
X146745238Y-49269047D01*
X147364285Y-49269047D01*
G04 #@! TO.C,J5*
X146316666Y-141902380D02*
X146316666Y-142616666D01*
X146269047Y-142759523D01*
X146173809Y-142854761D01*
X146030952Y-142902380D01*
X145935714Y-142902380D01*
X147269047Y-141902380D02*
X146792857Y-141902380D01*
X146745238Y-142378571D01*
X146792857Y-142330952D01*
X146888095Y-142283333D01*
X147126190Y-142283333D01*
X147221428Y-142330952D01*
X147269047Y-142378571D01*
X147316666Y-142473809D01*
X147316666Y-142711904D01*
X147269047Y-142807142D01*
X147221428Y-142854761D01*
X147126190Y-142902380D01*
X146888095Y-142902380D01*
X146792857Y-142854761D01*
X146745238Y-142807142D01*
G04 #@! TO.C,J6*
X53016666Y-48602380D02*
X53016666Y-49316666D01*
X52969047Y-49459523D01*
X52873809Y-49554761D01*
X52730952Y-49602380D01*
X52635714Y-49602380D01*
X53921428Y-48602380D02*
X53730952Y-48602380D01*
X53635714Y-48650000D01*
X53588095Y-48697619D01*
X53492857Y-48840476D01*
X53445238Y-49030952D01*
X53445238Y-49411904D01*
X53492857Y-49507142D01*
X53540476Y-49554761D01*
X53635714Y-49602380D01*
X53826190Y-49602380D01*
X53921428Y-49554761D01*
X53969047Y-49507142D01*
X54016666Y-49411904D01*
X54016666Y-49173809D01*
X53969047Y-49078571D01*
X53921428Y-49030952D01*
X53826190Y-48983333D01*
X53635714Y-48983333D01*
X53540476Y-49030952D01*
X53492857Y-49078571D01*
X53445238Y-49173809D01*
G04 #@! TO.C,Y1*
X87197447Y-132740792D02*
X87673637Y-132740792D01*
X86673637Y-133074125D02*
X87197447Y-132740792D01*
X86673637Y-132407459D01*
X87673637Y-131550316D02*
X87673637Y-132121744D01*
X87673637Y-131836030D02*
X86673637Y-131836030D01*
X86816495Y-131931268D01*
X86911733Y-132026506D01*
X86959352Y-132121744D01*
G04 #@! TO.C,C5*
X106077142Y-129246666D02*
X106124761Y-129294285D01*
X106172380Y-129437142D01*
X106172380Y-129532380D01*
X106124761Y-129675238D01*
X106029523Y-129770476D01*
X105934285Y-129818095D01*
X105743809Y-129865714D01*
X105600952Y-129865714D01*
X105410476Y-129818095D01*
X105315238Y-129770476D01*
X105220000Y-129675238D01*
X105172380Y-129532380D01*
X105172380Y-129437142D01*
X105220000Y-129294285D01*
X105267619Y-129246666D01*
X105172380Y-128341904D02*
X105172380Y-128818095D01*
X105648571Y-128865714D01*
X105600952Y-128818095D01*
X105553333Y-128722857D01*
X105553333Y-128484761D01*
X105600952Y-128389523D01*
X105648571Y-128341904D01*
X105743809Y-128294285D01*
X105981904Y-128294285D01*
X106077142Y-128341904D01*
X106124761Y-128389523D01*
X106172380Y-128484761D01*
X106172380Y-128722857D01*
X106124761Y-128818095D01*
X106077142Y-128865714D01*
G04 #@! TO.C,J1*
X67652380Y-123623333D02*
X68366666Y-123623333D01*
X68509523Y-123670952D01*
X68604761Y-123766190D01*
X68652380Y-123909047D01*
X68652380Y-124004285D01*
X68652380Y-122623333D02*
X68652380Y-123194761D01*
X68652380Y-122909047D02*
X67652380Y-122909047D01*
X67795238Y-123004285D01*
X67890476Y-123099523D01*
X67938095Y-123194761D01*
G04 #@! TO.C,J2*
X68982380Y-107113333D02*
X69696666Y-107113333D01*
X69839523Y-107160952D01*
X69934761Y-107256190D01*
X69982380Y-107399047D01*
X69982380Y-107494285D01*
X69077619Y-106684761D02*
X69030000Y-106637142D01*
X68982380Y-106541904D01*
X68982380Y-106303809D01*
X69030000Y-106208571D01*
X69077619Y-106160952D01*
X69172857Y-106113333D01*
X69268095Y-106113333D01*
X69410952Y-106160952D01*
X69982380Y-106732380D01*
X69982380Y-106113333D01*
G04 #@! TO.C,J3*
X53016666Y-141902380D02*
X53016666Y-142616666D01*
X52969047Y-142759523D01*
X52873809Y-142854761D01*
X52730952Y-142902380D01*
X52635714Y-142902380D01*
X53397619Y-141902380D02*
X54016666Y-141902380D01*
X53683333Y-142283333D01*
X53826190Y-142283333D01*
X53921428Y-142330952D01*
X53969047Y-142378571D01*
X54016666Y-142473809D01*
X54016666Y-142711904D01*
X53969047Y-142807142D01*
X53921428Y-142854761D01*
X53826190Y-142902380D01*
X53540476Y-142902380D01*
X53445238Y-142854761D01*
X53397619Y-142807142D01*
G04 #@! TO.C,J7*
X55386666Y-139412380D02*
X55386666Y-140126666D01*
X55339047Y-140269523D01*
X55243809Y-140364761D01*
X55100952Y-140412380D01*
X55005714Y-140412380D01*
X55767619Y-139412380D02*
X56434285Y-139412380D01*
X56005714Y-140412380D01*
G04 #@! TO.C,R5*
X106363333Y-124072380D02*
X106030000Y-123596190D01*
X105791904Y-124072380D02*
X105791904Y-123072380D01*
X106172857Y-123072380D01*
X106268095Y-123120000D01*
X106315714Y-123167619D01*
X106363333Y-123262857D01*
X106363333Y-123405714D01*
X106315714Y-123500952D01*
X106268095Y-123548571D01*
X106172857Y-123596190D01*
X105791904Y-123596190D01*
X107268095Y-123072380D02*
X106791904Y-123072380D01*
X106744285Y-123548571D01*
X106791904Y-123500952D01*
X106887142Y-123453333D01*
X107125238Y-123453333D01*
X107220476Y-123500952D01*
X107268095Y-123548571D01*
X107315714Y-123643809D01*
X107315714Y-123881904D01*
X107268095Y-123977142D01*
X107220476Y-124024761D01*
X107125238Y-124072380D01*
X106887142Y-124072380D01*
X106791904Y-124024761D01*
X106744285Y-123977142D01*
G04 #@! TO.C,U2*
X95956029Y-123665135D02*
X95956029Y-124474659D01*
X96003648Y-124569897D01*
X96051267Y-124617516D01*
X96146505Y-124665135D01*
X96336981Y-124665135D01*
X96432219Y-124617516D01*
X96479838Y-124569897D01*
X96527457Y-124474659D01*
X96527457Y-123665135D01*
X96956029Y-123760374D02*
X97003648Y-123712755D01*
X97098886Y-123665135D01*
X97336981Y-123665135D01*
X97432219Y-123712755D01*
X97479838Y-123760374D01*
X97527457Y-123855612D01*
X97527457Y-123950850D01*
X97479838Y-124093707D01*
X96908410Y-124665135D01*
X97527457Y-124665135D01*
G04 #@! TO.C,J8*
X146316666Y-55402380D02*
X146316666Y-56116666D01*
X146269047Y-56259523D01*
X146173809Y-56354761D01*
X146030952Y-56402380D01*
X145935714Y-56402380D01*
X146935714Y-55830952D02*
X146840476Y-55783333D01*
X146792857Y-55735714D01*
X146745238Y-55640476D01*
X146745238Y-55592857D01*
X146792857Y-55497619D01*
X146840476Y-55450000D01*
X146935714Y-55402380D01*
X147126190Y-55402380D01*
X147221428Y-55450000D01*
X147269047Y-55497619D01*
X147316666Y-55592857D01*
X147316666Y-55640476D01*
X147269047Y-55735714D01*
X147221428Y-55783333D01*
X147126190Y-55830952D01*
X146935714Y-55830952D01*
X146840476Y-55878571D01*
X146792857Y-55926190D01*
X146745238Y-56021428D01*
X146745238Y-56211904D01*
X146792857Y-56307142D01*
X146840476Y-56354761D01*
X146935714Y-56402380D01*
X147126190Y-56402380D01*
X147221428Y-56354761D01*
X147269047Y-56307142D01*
X147316666Y-56211904D01*
X147316666Y-56021428D01*
X147269047Y-55926190D01*
X147221428Y-55878571D01*
X147126190Y-55830952D01*
G04 #@! TO.C,J9*
X146316666Y-95752380D02*
X146316666Y-96466666D01*
X146269047Y-96609523D01*
X146173809Y-96704761D01*
X146030952Y-96752380D01*
X145935714Y-96752380D01*
X146840476Y-96752380D02*
X147030952Y-96752380D01*
X147126190Y-96704761D01*
X147173809Y-96657142D01*
X147269047Y-96514285D01*
X147316666Y-96323809D01*
X147316666Y-95942857D01*
X147269047Y-95847619D01*
X147221428Y-95800000D01*
X147126190Y-95752380D01*
X146935714Y-95752380D01*
X146840476Y-95800000D01*
X146792857Y-95847619D01*
X146745238Y-95942857D01*
X146745238Y-96180952D01*
X146792857Y-96276190D01*
X146840476Y-96323809D01*
X146935714Y-96371428D01*
X147126190Y-96371428D01*
X147221428Y-96323809D01*
X147269047Y-96276190D01*
X147316666Y-96180952D01*
G04 #@! TO.C,J10*
X52540476Y-55402380D02*
X52540476Y-56116666D01*
X52492857Y-56259523D01*
X52397619Y-56354761D01*
X52254761Y-56402380D01*
X52159523Y-56402380D01*
X53540476Y-56402380D02*
X52969047Y-56402380D01*
X53254761Y-56402380D02*
X53254761Y-55402380D01*
X53159523Y-55545238D01*
X53064285Y-55640476D01*
X52969047Y-55688095D01*
X54159523Y-55402380D02*
X54254761Y-55402380D01*
X54350000Y-55450000D01*
X54397619Y-55497619D01*
X54445238Y-55592857D01*
X54492857Y-55783333D01*
X54492857Y-56021428D01*
X54445238Y-56211904D01*
X54397619Y-56307142D01*
X54350000Y-56354761D01*
X54254761Y-56402380D01*
X54159523Y-56402380D01*
X54064285Y-56354761D01*
X54016666Y-56307142D01*
X53969047Y-56211904D01*
X53921428Y-56021428D01*
X53921428Y-55783333D01*
X53969047Y-55592857D01*
X54016666Y-55497619D01*
X54064285Y-55450000D01*
X54159523Y-55402380D01*
G04 #@! TO.C,J11*
X52540476Y-95752380D02*
X52540476Y-96466666D01*
X52492857Y-96609523D01*
X52397619Y-96704761D01*
X52254761Y-96752380D01*
X52159523Y-96752380D01*
X53540476Y-96752380D02*
X52969047Y-96752380D01*
X53254761Y-96752380D02*
X53254761Y-95752380D01*
X53159523Y-95895238D01*
X53064285Y-95990476D01*
X52969047Y-96038095D01*
X54492857Y-96752380D02*
X53921428Y-96752380D01*
X54207142Y-96752380D02*
X54207142Y-95752380D01*
X54111904Y-95895238D01*
X54016666Y-95990476D01*
X53921428Y-96038095D01*
G04 #@! TO.C,GS1*
X131589523Y-83360000D02*
X131494285Y-83312380D01*
X131351428Y-83312380D01*
X131208571Y-83360000D01*
X131113333Y-83455238D01*
X131065714Y-83550476D01*
X131018095Y-83740952D01*
X131018095Y-83883809D01*
X131065714Y-84074285D01*
X131113333Y-84169523D01*
X131208571Y-84264761D01*
X131351428Y-84312380D01*
X131446666Y-84312380D01*
X131589523Y-84264761D01*
X131637142Y-84217142D01*
X131637142Y-83883809D01*
X131446666Y-83883809D01*
X132018095Y-84264761D02*
X132160952Y-84312380D01*
X132399047Y-84312380D01*
X132494285Y-84264761D01*
X132541904Y-84217142D01*
X132589523Y-84121904D01*
X132589523Y-84026666D01*
X132541904Y-83931428D01*
X132494285Y-83883809D01*
X132399047Y-83836190D01*
X132208571Y-83788571D01*
X132113333Y-83740952D01*
X132065714Y-83693333D01*
X132018095Y-83598095D01*
X132018095Y-83502857D01*
X132065714Y-83407619D01*
X132113333Y-83360000D01*
X132208571Y-83312380D01*
X132446666Y-83312380D01*
X132589523Y-83360000D01*
X133541904Y-84312380D02*
X132970476Y-84312380D01*
X133256190Y-84312380D02*
X133256190Y-83312380D01*
X133160952Y-83455238D01*
X133065714Y-83550476D01*
X132970476Y-83598095D01*
G04 #@! TO.C,GS2*
X112649523Y-72280000D02*
X112554285Y-72232380D01*
X112411428Y-72232380D01*
X112268571Y-72280000D01*
X112173333Y-72375238D01*
X112125714Y-72470476D01*
X112078095Y-72660952D01*
X112078095Y-72803809D01*
X112125714Y-72994285D01*
X112173333Y-73089523D01*
X112268571Y-73184761D01*
X112411428Y-73232380D01*
X112506666Y-73232380D01*
X112649523Y-73184761D01*
X112697142Y-73137142D01*
X112697142Y-72803809D01*
X112506666Y-72803809D01*
X113078095Y-73184761D02*
X113220952Y-73232380D01*
X113459047Y-73232380D01*
X113554285Y-73184761D01*
X113601904Y-73137142D01*
X113649523Y-73041904D01*
X113649523Y-72946666D01*
X113601904Y-72851428D01*
X113554285Y-72803809D01*
X113459047Y-72756190D01*
X113268571Y-72708571D01*
X113173333Y-72660952D01*
X113125714Y-72613333D01*
X113078095Y-72518095D01*
X113078095Y-72422857D01*
X113125714Y-72327619D01*
X113173333Y-72280000D01*
X113268571Y-72232380D01*
X113506666Y-72232380D01*
X113649523Y-72280000D01*
X114030476Y-72327619D02*
X114078095Y-72280000D01*
X114173333Y-72232380D01*
X114411428Y-72232380D01*
X114506666Y-72280000D01*
X114554285Y-72327619D01*
X114601904Y-72422857D01*
X114601904Y-72518095D01*
X114554285Y-72660952D01*
X113982857Y-73232380D01*
X114601904Y-73232380D01*
G04 #@! TO.C,SP1*
X117048095Y-127184761D02*
X117190952Y-127232380D01*
X117429047Y-127232380D01*
X117524285Y-127184761D01*
X117571904Y-127137142D01*
X117619523Y-127041904D01*
X117619523Y-126946666D01*
X117571904Y-126851428D01*
X117524285Y-126803809D01*
X117429047Y-126756190D01*
X117238571Y-126708571D01*
X117143333Y-126660952D01*
X117095714Y-126613333D01*
X117048095Y-126518095D01*
X117048095Y-126422857D01*
X117095714Y-126327619D01*
X117143333Y-126280000D01*
X117238571Y-126232380D01*
X117476666Y-126232380D01*
X117619523Y-126280000D01*
X118048095Y-127232380D02*
X118048095Y-126232380D01*
X118429047Y-126232380D01*
X118524285Y-126280000D01*
X118571904Y-126327619D01*
X118619523Y-126422857D01*
X118619523Y-126565714D01*
X118571904Y-126660952D01*
X118524285Y-126708571D01*
X118429047Y-126756190D01*
X118048095Y-126756190D01*
X119571904Y-127232380D02*
X119000476Y-127232380D01*
X119286190Y-127232380D02*
X119286190Y-126232380D01*
X119190952Y-126375238D01*
X119095714Y-126470476D01*
X119000476Y-126518095D01*
G04 #@! TD*
M02*
