G04 #@! TF.GenerationSoftware,KiCad,Pcbnew,5.0.2-5.fc29*
G04 #@! TF.CreationDate,2019-03-26T06:15:52+01:00*
G04 #@! TF.ProjectId,gas-sensor,6761732d-7365-46e7-936f-722e6b696361,rev?*
G04 #@! TF.SameCoordinates,Original*
G04 #@! TF.FileFunction,Copper,L2,Bot*
G04 #@! TF.FilePolarity,Positive*
%FSLAX46Y46*%
G04 Gerber Fmt 4.6, Leading zero omitted, Abs format (unit mm)*
G04 Created by KiCad (PCBNEW 5.0.2-5.fc29) date Tue 26 Mar 2019 06:15:52 AM CET*
%MOMM*%
%LPD*%
G01*
G04 APERTURE LIST*
G04 #@! TA.AperFunction,ComponentPad*
%ADD10R,1.500000X1.500000*%
G04 #@! TD*
G04 #@! TA.AperFunction,ComponentPad*
%ADD11C,1.500000*%
G04 #@! TD*
G04 #@! TA.AperFunction,ComponentPad*
%ADD12R,1.050000X1.500000*%
G04 #@! TD*
G04 #@! TA.AperFunction,ComponentPad*
%ADD13O,1.050000X1.500000*%
G04 #@! TD*
G04 #@! TA.AperFunction,ComponentPad*
%ADD14C,3.000000*%
G04 #@! TD*
G04 #@! TA.AperFunction,ComponentPad*
%ADD15O,1.800000X2.600000*%
G04 #@! TD*
G04 #@! TA.AperFunction,ComponentPad*
%ADD16R,1.800000X2.600000*%
G04 #@! TD*
G04 #@! TA.AperFunction,ComponentPad*
%ADD17O,1.700000X1.700000*%
G04 #@! TD*
G04 #@! TA.AperFunction,ComponentPad*
%ADD18R,1.700000X1.700000*%
G04 #@! TD*
G04 #@! TA.AperFunction,ComponentPad*
%ADD19R,1.520000X1.520000*%
G04 #@! TD*
G04 #@! TA.AperFunction,ComponentPad*
%ADD20C,1.520000*%
G04 #@! TD*
G04 #@! TA.AperFunction,Conductor*
%ADD21C,0.100000*%
G04 #@! TD*
G04 #@! TA.AperFunction,ComponentPad*
%ADD22C,3.500000*%
G04 #@! TD*
G04 #@! TA.AperFunction,ComponentPad*
%ADD23R,3.500000X3.500000*%
G04 #@! TD*
G04 #@! TA.AperFunction,ComponentPad*
%ADD24C,2.000000*%
G04 #@! TD*
G04 #@! TA.AperFunction,ComponentPad*
%ADD25R,2.000000X2.000000*%
G04 #@! TD*
G04 #@! TA.AperFunction,ComponentPad*
%ADD26C,1.198000*%
G04 #@! TD*
G04 #@! TA.AperFunction,ComponentPad*
%ADD27R,1.198000X1.198000*%
G04 #@! TD*
G04 #@! TA.AperFunction,ViaPad*
%ADD28C,0.800000*%
G04 #@! TD*
G04 #@! TA.AperFunction,Conductor*
%ADD29C,0.500000*%
G04 #@! TD*
G04 #@! TA.AperFunction,Conductor*
%ADD30C,1.000000*%
G04 #@! TD*
G04 #@! TA.AperFunction,Conductor*
%ADD31C,0.254000*%
G04 #@! TD*
G04 APERTURE END LIST*
D10*
G04 #@! TO.P,U3,4*
G04 #@! TO.N,GND*
X75150000Y-94220000D03*
G04 #@! TO.P,U3,3*
G04 #@! TO.N,N/C*
X72610000Y-94220000D03*
G04 #@! TO.P,U3,2*
G04 #@! TO.N,/HUM*
X70070000Y-94220000D03*
G04 #@! TO.P,U3,1*
G04 #@! TO.N,+5V*
X67610000Y-94220000D03*
G04 #@! TD*
D11*
G04 #@! TO.P,GS3,9*
G04 #@! TO.N,/PWM_MH-Z19*
X92790000Y-65595000D03*
G04 #@! TO.P,GS3,8*
G04 #@! TO.N,N/C*
X90250000Y-65595000D03*
G04 #@! TO.P,GS3,7*
G04 #@! TO.N,GND*
X87710000Y-65595000D03*
G04 #@! TO.P,GS3,1*
G04 #@! TO.N,/Sensor3*
X85170000Y-95145000D03*
G04 #@! TO.P,GS3,2*
G04 #@! TO.N,/TX_MH-Z19*
X87710000Y-95145000D03*
G04 #@! TO.P,GS3,3*
G04 #@! TO.N,/RX_MH-Z19*
X90250000Y-95145000D03*
G04 #@! TO.P,GS3,4*
G04 #@! TO.N,N/C*
X92790000Y-95145000D03*
G04 #@! TO.P,GS3,5*
X95330000Y-95145000D03*
G04 #@! TO.P,GS3,6*
G04 #@! TO.N,+5V*
X85170000Y-65595000D03*
G04 #@! TD*
D12*
G04 #@! TO.P,U1,1*
G04 #@! TO.N,GND*
X112100000Y-89580000D03*
D13*
G04 #@! TO.P,U1,3*
G04 #@! TO.N,+5V*
X109560000Y-89580000D03*
G04 #@! TO.P,U1,2*
G04 #@! TO.N,/TEMP*
X110830000Y-89580000D03*
G04 #@! TD*
D14*
G04 #@! TO.P,DS1,*
G04 #@! TO.N,*
X147247934Y-140122755D03*
X147247414Y-109122055D03*
X72248834Y-109122055D03*
X72248834Y-140122755D03*
D15*
G04 #@! TO.P,DS1,16*
G04 #@! TO.N,GND*
X115847934Y-140122755D03*
G04 #@! TO.P,DS1,15*
G04 #@! TO.N,Net-(DS1-Pad15)*
X113307934Y-140122755D03*
G04 #@! TO.P,DS1,14*
G04 #@! TO.N,/LCD4_SCK*
X110767934Y-140122755D03*
G04 #@! TO.P,DS1,13*
G04 #@! TO.N,/LCD3_MISO*
X108227934Y-140122755D03*
G04 #@! TO.P,DS1,12*
G04 #@! TO.N,/LCD2_MOSI*
X105687934Y-140122755D03*
G04 #@! TO.P,DS1,11*
G04 #@! TO.N,/LCD1*
X103147934Y-140122755D03*
G04 #@! TO.P,DS1,10*
G04 #@! TO.N,N/C*
X100607934Y-140122755D03*
G04 #@! TO.P,DS1,9*
X98067934Y-140122755D03*
G04 #@! TO.P,DS1,8*
X95527934Y-140122755D03*
G04 #@! TO.P,DS1,7*
X92987934Y-140122755D03*
G04 #@! TO.P,DS1,6*
G04 #@! TO.N,/LCD_E*
X90447934Y-140122755D03*
G04 #@! TO.P,DS1,5*
G04 #@! TO.N,GND*
X87907934Y-140122755D03*
G04 #@! TO.P,DS1,4*
G04 #@! TO.N,/LCD_RS*
X85367934Y-140122755D03*
G04 #@! TO.P,DS1,3*
G04 #@! TO.N,Net-(DS1-Pad3)*
X82827934Y-140122755D03*
G04 #@! TO.P,DS1,2*
G04 #@! TO.N,VCC*
X80287934Y-140122755D03*
D16*
G04 #@! TO.P,DS1,1*
G04 #@! TO.N,GND*
X77747934Y-140122755D03*
G04 #@! TD*
D17*
G04 #@! TO.P,J1,6*
G04 #@! TO.N,/DTR*
X53170000Y-123290000D03*
G04 #@! TO.P,J1,5*
G04 #@! TO.N,/RX*
X55710000Y-123290000D03*
G04 #@! TO.P,J1,4*
G04 #@! TO.N,/TX*
X58250000Y-123290000D03*
G04 #@! TO.P,J1,3*
G04 #@! TO.N,/VCC-FTDI*
X60790000Y-123290000D03*
G04 #@! TO.P,J1,2*
G04 #@! TO.N,N/C*
X63330000Y-123290000D03*
D18*
G04 #@! TO.P,J1,1*
G04 #@! TO.N,GND*
X65870000Y-123290000D03*
G04 #@! TD*
D19*
G04 #@! TO.P,J2,1*
G04 #@! TO.N,N/C*
X67370000Y-108450000D03*
D20*
G04 #@! TO.P,J2,2*
G04 #@! TO.N,/SCL*
X64830000Y-109720000D03*
G04 #@! TO.P,J2,3*
G04 #@! TO.N,/SDA*
X67370000Y-110990000D03*
G04 #@! TO.P,J2,4*
G04 #@! TO.N,GND*
X64830000Y-112260000D03*
G04 #@! TO.P,J2,5*
G04 #@! TO.N,N/C*
X67370000Y-113530000D03*
G04 #@! TO.P,J2,6*
G04 #@! TO.N,GND*
X64830000Y-114800000D03*
G04 #@! TD*
D21*
G04 #@! TO.N,N/C*
G04 #@! TO.C,J7*
G36*
X62810765Y-134134213D02*
X62895704Y-134146813D01*
X62978999Y-134167677D01*
X63059848Y-134196605D01*
X63137472Y-134233319D01*
X63211124Y-134277464D01*
X63280094Y-134328616D01*
X63343718Y-134386282D01*
X63401384Y-134449906D01*
X63452536Y-134518876D01*
X63496681Y-134592528D01*
X63533395Y-134670152D01*
X63562323Y-134751001D01*
X63583187Y-134834296D01*
X63595787Y-134919235D01*
X63600000Y-135005000D01*
X63600000Y-136755000D01*
X63595787Y-136840765D01*
X63583187Y-136925704D01*
X63562323Y-137008999D01*
X63533395Y-137089848D01*
X63496681Y-137167472D01*
X63452536Y-137241124D01*
X63401384Y-137310094D01*
X63343718Y-137373718D01*
X63280094Y-137431384D01*
X63211124Y-137482536D01*
X63137472Y-137526681D01*
X63059848Y-137563395D01*
X62978999Y-137592323D01*
X62895704Y-137613187D01*
X62810765Y-137625787D01*
X62725000Y-137630000D01*
X60975000Y-137630000D01*
X60889235Y-137625787D01*
X60804296Y-137613187D01*
X60721001Y-137592323D01*
X60640152Y-137563395D01*
X60562528Y-137526681D01*
X60488876Y-137482536D01*
X60419906Y-137431384D01*
X60356282Y-137373718D01*
X60298616Y-137310094D01*
X60247464Y-137241124D01*
X60203319Y-137167472D01*
X60166605Y-137089848D01*
X60137677Y-137008999D01*
X60116813Y-136925704D01*
X60104213Y-136840765D01*
X60100000Y-136755000D01*
X60100000Y-135005000D01*
X60104213Y-134919235D01*
X60116813Y-134834296D01*
X60137677Y-134751001D01*
X60166605Y-134670152D01*
X60203319Y-134592528D01*
X60247464Y-134518876D01*
X60298616Y-134449906D01*
X60356282Y-134386282D01*
X60419906Y-134328616D01*
X60488876Y-134277464D01*
X60562528Y-134233319D01*
X60640152Y-134196605D01*
X60721001Y-134167677D01*
X60804296Y-134146813D01*
X60889235Y-134134213D01*
X60975000Y-134130000D01*
X62725000Y-134130000D01*
X62810765Y-134134213D01*
X62810765Y-134134213D01*
G37*
D22*
G04 #@! TD*
G04 #@! TO.P,J7,3*
G04 #@! TO.N,N/C*
X61850000Y-135880000D03*
D21*
G04 #@! TO.N,GND*
G04 #@! TO.C,J7*
G36*
X59673513Y-129433611D02*
X59746318Y-129444411D01*
X59817714Y-129462295D01*
X59887013Y-129487090D01*
X59953548Y-129518559D01*
X60016678Y-129556398D01*
X60075795Y-129600242D01*
X60130330Y-129649670D01*
X60179758Y-129704205D01*
X60223602Y-129763322D01*
X60261441Y-129826452D01*
X60292910Y-129892987D01*
X60317705Y-129962286D01*
X60335589Y-130033682D01*
X60346389Y-130106487D01*
X60350000Y-130180000D01*
X60350000Y-132180000D01*
X60346389Y-132253513D01*
X60335589Y-132326318D01*
X60317705Y-132397714D01*
X60292910Y-132467013D01*
X60261441Y-132533548D01*
X60223602Y-132596678D01*
X60179758Y-132655795D01*
X60130330Y-132710330D01*
X60075795Y-132759758D01*
X60016678Y-132803602D01*
X59953548Y-132841441D01*
X59887013Y-132872910D01*
X59817714Y-132897705D01*
X59746318Y-132915589D01*
X59673513Y-132926389D01*
X59600000Y-132930000D01*
X58100000Y-132930000D01*
X58026487Y-132926389D01*
X57953682Y-132915589D01*
X57882286Y-132897705D01*
X57812987Y-132872910D01*
X57746452Y-132841441D01*
X57683322Y-132803602D01*
X57624205Y-132759758D01*
X57569670Y-132710330D01*
X57520242Y-132655795D01*
X57476398Y-132596678D01*
X57438559Y-132533548D01*
X57407090Y-132467013D01*
X57382295Y-132397714D01*
X57364411Y-132326318D01*
X57353611Y-132253513D01*
X57350000Y-132180000D01*
X57350000Y-130180000D01*
X57353611Y-130106487D01*
X57364411Y-130033682D01*
X57382295Y-129962286D01*
X57407090Y-129892987D01*
X57438559Y-129826452D01*
X57476398Y-129763322D01*
X57520242Y-129704205D01*
X57569670Y-129649670D01*
X57624205Y-129600242D01*
X57683322Y-129556398D01*
X57746452Y-129518559D01*
X57812987Y-129487090D01*
X57882286Y-129462295D01*
X57953682Y-129444411D01*
X58026487Y-129433611D01*
X58100000Y-129430000D01*
X59600000Y-129430000D01*
X59673513Y-129433611D01*
X59673513Y-129433611D01*
G37*
D14*
G04 #@! TD*
G04 #@! TO.P,J7,2*
G04 #@! TO.N,GND*
X58850000Y-131180000D03*
D23*
G04 #@! TO.P,J7,1*
G04 #@! TO.N,+5V*
X64850000Y-131180000D03*
G04 #@! TD*
D24*
G04 #@! TO.P,GS1,1*
G04 #@! TO.N,/Sensor1*
X134178750Y-88248750D03*
D25*
G04 #@! TO.P,GS1,6*
G04 #@! TO.N,Net-(GS1-Pad6)*
X130820000Y-89640000D03*
D24*
G04 #@! TO.P,GS1,2*
G04 #@! TO.N,/Sensor1*
X127461250Y-88248750D03*
G04 #@! TO.P,GS1,4*
G04 #@! TO.N,+5V*
X127461250Y-81531250D03*
G04 #@! TO.P,GS1,5*
X130820000Y-80140000D03*
G04 #@! TO.P,GS1,3*
X134178750Y-81531250D03*
G04 #@! TD*
G04 #@! TO.P,GS2,1*
G04 #@! TO.N,/Sensor2*
X116698750Y-77408750D03*
D25*
G04 #@! TO.P,GS2,6*
G04 #@! TO.N,Net-(GS2-Pad6)*
X113340000Y-78800000D03*
D24*
G04 #@! TO.P,GS2,2*
G04 #@! TO.N,/Sensor2*
X109981250Y-77408750D03*
G04 #@! TO.P,GS2,4*
G04 #@! TO.N,+5V*
X109981250Y-70691250D03*
G04 #@! TO.P,GS2,5*
X113340000Y-69300000D03*
G04 #@! TO.P,GS2,3*
X116698750Y-70691250D03*
G04 #@! TD*
D26*
G04 #@! TO.P,R7,3*
G04 #@! TO.N,Net-(DS1-Pad3)*
X86040000Y-145525000D03*
G04 #@! TO.P,R7,2*
G04 #@! TO.N,N/C*
X83500000Y-148065000D03*
D27*
G04 #@! TO.P,R7,1*
G04 #@! TO.N,VCC*
X80960000Y-145525000D03*
G04 #@! TD*
D28*
G04 #@! TO.N,GND*
X104320000Y-123200000D03*
X108840000Y-126600000D03*
X80250000Y-132950000D03*
X117070000Y-120920000D03*
X116890000Y-132150000D03*
X132095513Y-140108738D03*
X94420000Y-129250000D03*
X99090000Y-129640000D03*
X89220000Y-138430000D03*
G04 #@! TO.N,/RESET*
X99087790Y-132668212D03*
X104350000Y-132690000D03*
X113276031Y-127166031D03*
X116200000Y-127440032D03*
G04 #@! TO.N,/SDA*
X98161426Y-122873923D03*
X98165895Y-118100535D03*
G04 #@! TO.N,/SCL*
X97167934Y-122760000D03*
X96442069Y-118244165D03*
G04 #@! TO.N,/Sensor3*
X92750000Y-124410000D03*
X92770000Y-116000000D03*
G04 #@! TO.N,/TEMP*
X94150000Y-127800000D03*
X102238340Y-122247073D03*
G04 #@! TO.N,VCC*
X96540000Y-131470000D03*
X98650000Y-130700000D03*
X111860000Y-125970000D03*
X119590000Y-126180000D03*
X99640000Y-121110000D03*
X91050001Y-126699999D03*
G04 #@! TO.N,/PWM_MH-Z19*
X90920000Y-122490000D03*
X90920000Y-114580000D03*
G04 #@! TO.N,/HUM*
X81500000Y-137980000D03*
X78410000Y-137980000D03*
G04 #@! TO.N,/Sensor2*
X103710000Y-126250000D03*
X103710000Y-131650000D03*
G04 #@! TO.N,/Sensor1_ON*
X106952182Y-124762182D03*
X110110000Y-124790000D03*
G04 #@! TO.N,/LCD_LED*
X108557934Y-135792755D03*
X97396548Y-136493451D03*
G04 #@! TO.N,/LCD3_MISO*
X113119997Y-128312029D03*
X114211062Y-129681062D03*
G04 #@! TD*
D29*
G04 #@! TO.N,/RESET*
X99087790Y-132668212D02*
X102601788Y-132668212D01*
X102623576Y-132690000D02*
X104350000Y-132690000D01*
X102601788Y-132668212D02*
X102623576Y-132690000D01*
X113276031Y-127166031D02*
X115925999Y-127166031D01*
X115925999Y-127166031D02*
X116200000Y-127440032D01*
G04 #@! TO.N,/SDA*
X98161426Y-118105004D02*
X98165895Y-118100535D01*
X98161426Y-122873923D02*
X98161426Y-118105004D01*
G04 #@! TO.N,/SCL*
X96842068Y-118644164D02*
X96442069Y-118244165D01*
X97167934Y-122760000D02*
X97167934Y-118970030D01*
X97167934Y-118970030D02*
X96842068Y-118644164D01*
D30*
G04 #@! TO.N,/Sensor3*
X92750000Y-124410000D02*
X92750000Y-116820000D01*
X92750000Y-116020000D02*
X92770000Y-116000000D01*
X92750000Y-116820000D02*
X92750000Y-116020000D01*
D29*
G04 #@! TO.N,/TEMP*
X101838341Y-122647072D02*
X102238340Y-122247073D01*
X94150000Y-127800000D02*
X96685413Y-127800000D01*
X96685413Y-127800000D02*
X101838341Y-122647072D01*
G04 #@! TO.N,VCC*
X97880000Y-131470000D02*
X98650000Y-130700000D01*
X96540000Y-131470000D02*
X97880000Y-131470000D01*
D30*
X119380000Y-125970000D02*
X119590000Y-126180000D01*
X111860000Y-125970000D02*
X119380000Y-125970000D01*
X95963352Y-126699999D02*
X91050001Y-126699999D01*
X99640000Y-123023351D02*
X95963352Y-126699999D01*
X99640000Y-121110000D02*
X99640000Y-123023351D01*
D29*
G04 #@! TO.N,/PWM_MH-Z19*
X90920000Y-122490000D02*
X90920000Y-114580000D01*
G04 #@! TO.N,/HUM*
X81500000Y-137980000D02*
X78410000Y-137980000D01*
D30*
G04 #@! TO.N,/Sensor2*
X103710000Y-126250000D02*
X103710000Y-126815685D01*
X103710000Y-126815685D02*
X103710000Y-131650000D01*
D29*
G04 #@! TO.N,/Sensor1_ON*
X110082182Y-124762182D02*
X110110000Y-124790000D01*
X106952182Y-124762182D02*
X110082182Y-124762182D01*
G04 #@! TO.N,/LCD_LED*
X97971537Y-136502755D02*
X107847934Y-136502755D01*
X97962233Y-136493451D02*
X97971537Y-136502755D01*
X107847934Y-136502755D02*
X108557934Y-135792755D01*
X97396548Y-136493451D02*
X97962233Y-136493451D01*
G04 #@! TO.N,/LCD3_MISO*
X113119997Y-128312029D02*
X114211062Y-129403094D01*
X114211062Y-129403094D02*
X114211062Y-129681062D01*
G04 #@! TD*
D31*
G04 #@! TO.N,GND*
G36*
X149813000Y-149822924D02*
X50127000Y-149763076D01*
X50127000Y-146205431D01*
X51115000Y-146205431D01*
X51115000Y-147094569D01*
X51455259Y-147916026D01*
X52083974Y-148544741D01*
X52905431Y-148885000D01*
X53794569Y-148885000D01*
X54616026Y-148544741D01*
X55244741Y-147916026D01*
X55284706Y-147819542D01*
X82266000Y-147819542D01*
X82266000Y-148310458D01*
X82453866Y-148764005D01*
X82800995Y-149111134D01*
X83254542Y-149299000D01*
X83745458Y-149299000D01*
X84199005Y-149111134D01*
X84546134Y-148764005D01*
X84734000Y-148310458D01*
X84734000Y-147819542D01*
X84546134Y-147365995D01*
X84199005Y-147018866D01*
X83745458Y-146831000D01*
X83254542Y-146831000D01*
X82800995Y-147018866D01*
X82453866Y-147365995D01*
X82266000Y-147819542D01*
X55284706Y-147819542D01*
X55585000Y-147094569D01*
X55585000Y-146205431D01*
X55244741Y-145383974D01*
X54786767Y-144926000D01*
X79713560Y-144926000D01*
X79713560Y-146124000D01*
X79762843Y-146371765D01*
X79903191Y-146581809D01*
X80113235Y-146722157D01*
X80361000Y-146771440D01*
X81559000Y-146771440D01*
X81806765Y-146722157D01*
X82016809Y-146581809D01*
X82157157Y-146371765D01*
X82206440Y-146124000D01*
X82206440Y-145279542D01*
X84806000Y-145279542D01*
X84806000Y-145770458D01*
X84993866Y-146224005D01*
X85340995Y-146571134D01*
X85794542Y-146759000D01*
X86285458Y-146759000D01*
X86739005Y-146571134D01*
X87086134Y-146224005D01*
X87093827Y-146205431D01*
X144415000Y-146205431D01*
X144415000Y-147094569D01*
X144755259Y-147916026D01*
X145383974Y-148544741D01*
X146205431Y-148885000D01*
X147094569Y-148885000D01*
X147916026Y-148544741D01*
X148544741Y-147916026D01*
X148885000Y-147094569D01*
X148885000Y-146205431D01*
X148544741Y-145383974D01*
X147916026Y-144755259D01*
X147094569Y-144415000D01*
X146205431Y-144415000D01*
X145383974Y-144755259D01*
X144755259Y-145383974D01*
X144415000Y-146205431D01*
X87093827Y-146205431D01*
X87274000Y-145770458D01*
X87274000Y-145279542D01*
X87086134Y-144825995D01*
X86739005Y-144478866D01*
X86285458Y-144291000D01*
X85794542Y-144291000D01*
X85340995Y-144478866D01*
X84993866Y-144825995D01*
X84806000Y-145279542D01*
X82206440Y-145279542D01*
X82206440Y-144926000D01*
X82157157Y-144678235D01*
X82016809Y-144468191D01*
X81806765Y-144327843D01*
X81559000Y-144278560D01*
X80361000Y-144278560D01*
X80113235Y-144327843D01*
X79903191Y-144468191D01*
X79762843Y-144678235D01*
X79713560Y-144926000D01*
X54786767Y-144926000D01*
X54616026Y-144755259D01*
X53794569Y-144415000D01*
X52905431Y-144415000D01*
X52083974Y-144755259D01*
X51455259Y-145383974D01*
X51115000Y-146205431D01*
X50127000Y-146205431D01*
X50127000Y-139698077D01*
X70113834Y-139698077D01*
X70113834Y-140547433D01*
X70438868Y-141332135D01*
X71039454Y-141932721D01*
X71824156Y-142257755D01*
X72673512Y-142257755D01*
X73458214Y-141932721D01*
X74058800Y-141332135D01*
X74383834Y-140547433D01*
X74383834Y-140408505D01*
X76212934Y-140408505D01*
X76212934Y-141549065D01*
X76309607Y-141782454D01*
X76488236Y-141961082D01*
X76721625Y-142057755D01*
X77462184Y-142057755D01*
X77620934Y-141899005D01*
X77620934Y-140249755D01*
X76371684Y-140249755D01*
X76212934Y-140408505D01*
X74383834Y-140408505D01*
X74383834Y-139698077D01*
X74058800Y-138913375D01*
X73841870Y-138696445D01*
X76212934Y-138696445D01*
X76212934Y-139837005D01*
X76371684Y-139995755D01*
X77620934Y-139995755D01*
X77620934Y-139975755D01*
X77874934Y-139975755D01*
X77874934Y-139995755D01*
X77894934Y-139995755D01*
X77894934Y-140249755D01*
X77874934Y-140249755D01*
X77874934Y-141899005D01*
X78033684Y-142057755D01*
X78774243Y-142057755D01*
X79007632Y-141961082D01*
X79186261Y-141782454D01*
X79234823Y-141665216D01*
X79689008Y-141968693D01*
X80287934Y-142087827D01*
X80886861Y-141968693D01*
X81394607Y-141629428D01*
X81557934Y-141384991D01*
X81721262Y-141629428D01*
X82229008Y-141968693D01*
X82827934Y-142087827D01*
X83426861Y-141968693D01*
X83934607Y-141629428D01*
X84097934Y-141384991D01*
X84261262Y-141629428D01*
X84769008Y-141968693D01*
X85367934Y-142087827D01*
X85966861Y-141968693D01*
X86474607Y-141629428D01*
X86649637Y-141367478D01*
X86912328Y-141697967D01*
X87437848Y-141989511D01*
X87543194Y-142013791D01*
X87780934Y-141893133D01*
X87780934Y-140249755D01*
X87760934Y-140249755D01*
X87760934Y-139995755D01*
X87780934Y-139995755D01*
X87780934Y-138352377D01*
X88034934Y-138352377D01*
X88034934Y-139995755D01*
X88054934Y-139995755D01*
X88054934Y-140249755D01*
X88034934Y-140249755D01*
X88034934Y-141893133D01*
X88272674Y-142013791D01*
X88378020Y-141989511D01*
X88903540Y-141697967D01*
X89166232Y-141367477D01*
X89341262Y-141629428D01*
X89849008Y-141968693D01*
X90447934Y-142087827D01*
X91046861Y-141968693D01*
X91554607Y-141629428D01*
X91717934Y-141384991D01*
X91881262Y-141629428D01*
X92389008Y-141968693D01*
X92987934Y-142087827D01*
X93586861Y-141968693D01*
X94094607Y-141629428D01*
X94257934Y-141384991D01*
X94421262Y-141629428D01*
X94929008Y-141968693D01*
X95527934Y-142087827D01*
X96126861Y-141968693D01*
X96634607Y-141629428D01*
X96797934Y-141384991D01*
X96961262Y-141629428D01*
X97469008Y-141968693D01*
X98067934Y-142087827D01*
X98666861Y-141968693D01*
X99174607Y-141629428D01*
X99337934Y-141384991D01*
X99501262Y-141629428D01*
X100009008Y-141968693D01*
X100607934Y-142087827D01*
X101206861Y-141968693D01*
X101714607Y-141629428D01*
X101877934Y-141384991D01*
X102041262Y-141629428D01*
X102549008Y-141968693D01*
X103147934Y-142087827D01*
X103746861Y-141968693D01*
X104254607Y-141629428D01*
X104417934Y-141384991D01*
X104581262Y-141629428D01*
X105089008Y-141968693D01*
X105687934Y-142087827D01*
X106286861Y-141968693D01*
X106794607Y-141629428D01*
X106957934Y-141384991D01*
X107121262Y-141629428D01*
X107629008Y-141968693D01*
X108227934Y-142087827D01*
X108826861Y-141968693D01*
X109334607Y-141629428D01*
X109497934Y-141384991D01*
X109661262Y-141629428D01*
X110169008Y-141968693D01*
X110767934Y-142087827D01*
X111366861Y-141968693D01*
X111874607Y-141629428D01*
X112037934Y-141384991D01*
X112201262Y-141629428D01*
X112709008Y-141968693D01*
X113307934Y-142087827D01*
X113906861Y-141968693D01*
X114414607Y-141629428D01*
X114589637Y-141367478D01*
X114852328Y-141697967D01*
X115377848Y-141989511D01*
X115483194Y-142013791D01*
X115720934Y-141893133D01*
X115720934Y-140249755D01*
X115974934Y-140249755D01*
X115974934Y-141893133D01*
X116212674Y-142013791D01*
X116318020Y-141989511D01*
X116843540Y-141697967D01*
X117217488Y-141227507D01*
X117382934Y-140649755D01*
X117382934Y-140249755D01*
X115974934Y-140249755D01*
X115720934Y-140249755D01*
X115700934Y-140249755D01*
X115700934Y-139995755D01*
X115720934Y-139995755D01*
X115720934Y-138352377D01*
X115974934Y-138352377D01*
X115974934Y-139995755D01*
X117382934Y-139995755D01*
X117382934Y-139698077D01*
X145112934Y-139698077D01*
X145112934Y-140547433D01*
X145437968Y-141332135D01*
X146038554Y-141932721D01*
X146823256Y-142257755D01*
X147672612Y-142257755D01*
X148457314Y-141932721D01*
X149057900Y-141332135D01*
X149382934Y-140547433D01*
X149382934Y-139698077D01*
X149057900Y-138913375D01*
X148457314Y-138312789D01*
X147672612Y-137987755D01*
X146823256Y-137987755D01*
X146038554Y-138312789D01*
X145437968Y-138913375D01*
X145112934Y-139698077D01*
X117382934Y-139698077D01*
X117382934Y-139595755D01*
X117217488Y-139018003D01*
X116843540Y-138547543D01*
X116318020Y-138255999D01*
X116212674Y-138231719D01*
X115974934Y-138352377D01*
X115720934Y-138352377D01*
X115483194Y-138231719D01*
X115377848Y-138255999D01*
X114852328Y-138547543D01*
X114589637Y-138878032D01*
X114414607Y-138616082D01*
X113906860Y-138276817D01*
X113307934Y-138157683D01*
X112709007Y-138276817D01*
X112201261Y-138616082D01*
X112037934Y-138860518D01*
X111874607Y-138616082D01*
X111366860Y-138276817D01*
X110767934Y-138157683D01*
X110169007Y-138276817D01*
X109661261Y-138616082D01*
X109497934Y-138860518D01*
X109334607Y-138616082D01*
X108826860Y-138276817D01*
X108227934Y-138157683D01*
X107629007Y-138276817D01*
X107121261Y-138616082D01*
X106957934Y-138860518D01*
X106794607Y-138616082D01*
X106286860Y-138276817D01*
X105687934Y-138157683D01*
X105089007Y-138276817D01*
X104581261Y-138616082D01*
X104417934Y-138860518D01*
X104254607Y-138616082D01*
X103746860Y-138276817D01*
X103147934Y-138157683D01*
X102549007Y-138276817D01*
X102041261Y-138616082D01*
X101877934Y-138860518D01*
X101714607Y-138616082D01*
X101206860Y-138276817D01*
X100607934Y-138157683D01*
X100009007Y-138276817D01*
X99501261Y-138616082D01*
X99337934Y-138860518D01*
X99174607Y-138616082D01*
X98666860Y-138276817D01*
X98067934Y-138157683D01*
X97469007Y-138276817D01*
X96961261Y-138616082D01*
X96797934Y-138860518D01*
X96634607Y-138616082D01*
X96126860Y-138276817D01*
X95527934Y-138157683D01*
X94929007Y-138276817D01*
X94421261Y-138616082D01*
X94257934Y-138860518D01*
X94094607Y-138616082D01*
X93586860Y-138276817D01*
X92987934Y-138157683D01*
X92389007Y-138276817D01*
X91881261Y-138616082D01*
X91717934Y-138860518D01*
X91554607Y-138616082D01*
X91046860Y-138276817D01*
X90447934Y-138157683D01*
X89849007Y-138276817D01*
X89341261Y-138616082D01*
X89166232Y-138878033D01*
X88903540Y-138547543D01*
X88378020Y-138255999D01*
X88272674Y-138231719D01*
X88034934Y-138352377D01*
X87780934Y-138352377D01*
X87543194Y-138231719D01*
X87437848Y-138255999D01*
X86912328Y-138547543D01*
X86649637Y-138878032D01*
X86474607Y-138616082D01*
X85966860Y-138276817D01*
X85367934Y-138157683D01*
X84769007Y-138276817D01*
X84261261Y-138616082D01*
X84097934Y-138860518D01*
X83934607Y-138616082D01*
X83426860Y-138276817D01*
X82827934Y-138157683D01*
X82521423Y-138218652D01*
X82535000Y-138185874D01*
X82535000Y-137774126D01*
X82377431Y-137393720D01*
X82086280Y-137102569D01*
X81705874Y-136945000D01*
X81294126Y-136945000D01*
X80931993Y-137095000D01*
X78978007Y-137095000D01*
X78615874Y-136945000D01*
X78204126Y-136945000D01*
X77823720Y-137102569D01*
X77532569Y-137393720D01*
X77375000Y-137774126D01*
X77375000Y-138185874D01*
X77375779Y-138187755D01*
X76721625Y-138187755D01*
X76488236Y-138284428D01*
X76309607Y-138463056D01*
X76212934Y-138696445D01*
X73841870Y-138696445D01*
X73458214Y-138312789D01*
X72673512Y-137987755D01*
X71824156Y-137987755D01*
X71039454Y-138312789D01*
X70438868Y-138913375D01*
X70113834Y-139698077D01*
X50127000Y-139698077D01*
X50127000Y-135005000D01*
X59452560Y-135005000D01*
X59452560Y-136755000D01*
X59568449Y-137337613D01*
X59898472Y-137831528D01*
X60392387Y-138161551D01*
X60975000Y-138277440D01*
X62725000Y-138277440D01*
X63307613Y-138161551D01*
X63801528Y-137831528D01*
X64131551Y-137337613D01*
X64247440Y-136755000D01*
X64247440Y-136287577D01*
X96361548Y-136287577D01*
X96361548Y-136699325D01*
X96519117Y-137079731D01*
X96810268Y-137370882D01*
X97190674Y-137528451D01*
X97602422Y-137528451D01*
X97923369Y-137395511D01*
X97971537Y-137405092D01*
X98058698Y-137387755D01*
X107760773Y-137387755D01*
X107847934Y-137405092D01*
X107935095Y-137387755D01*
X107935099Y-137387755D01*
X108193244Y-137336407D01*
X108485983Y-137140804D01*
X108535359Y-137066908D01*
X108782082Y-136820186D01*
X109144214Y-136670186D01*
X109435365Y-136379035D01*
X109592934Y-135998629D01*
X109592934Y-135586881D01*
X109435365Y-135206475D01*
X109144214Y-134915324D01*
X108763808Y-134757755D01*
X108352060Y-134757755D01*
X107971654Y-134915324D01*
X107680503Y-135206475D01*
X107530503Y-135568607D01*
X107481356Y-135617755D01*
X98096173Y-135617755D01*
X98049398Y-135608451D01*
X98049394Y-135608451D01*
X97962233Y-135591114D01*
X97935525Y-135596426D01*
X97602422Y-135458451D01*
X97190674Y-135458451D01*
X96810268Y-135616020D01*
X96519117Y-135907171D01*
X96361548Y-136287577D01*
X64247440Y-136287577D01*
X64247440Y-135005000D01*
X64131551Y-134422387D01*
X63801528Y-133928472D01*
X63307613Y-133598449D01*
X63201994Y-133577440D01*
X66600000Y-133577440D01*
X66847765Y-133528157D01*
X67057809Y-133387809D01*
X67198157Y-133177765D01*
X67247440Y-132930000D01*
X67247440Y-131264126D01*
X95505000Y-131264126D01*
X95505000Y-131675874D01*
X95662569Y-132056280D01*
X95953720Y-132347431D01*
X96334126Y-132505000D01*
X96745874Y-132505000D01*
X97108007Y-132355000D01*
X97792839Y-132355000D01*
X97880000Y-132372337D01*
X97967161Y-132355000D01*
X97967165Y-132355000D01*
X98108931Y-132326801D01*
X98052790Y-132462338D01*
X98052790Y-132874086D01*
X98210359Y-133254492D01*
X98501510Y-133545643D01*
X98881916Y-133703212D01*
X99293664Y-133703212D01*
X99655797Y-133553212D01*
X102426875Y-133553212D01*
X102536411Y-133575000D01*
X102536415Y-133575000D01*
X102623576Y-133592337D01*
X102710737Y-133575000D01*
X103781993Y-133575000D01*
X104144126Y-133725000D01*
X104555874Y-133725000D01*
X104936280Y-133567431D01*
X105227431Y-133276280D01*
X105385000Y-132895874D01*
X105385000Y-132484126D01*
X105227431Y-132103720D01*
X104936280Y-131812569D01*
X104842615Y-131773772D01*
X104845000Y-131761783D01*
X104845000Y-126138217D01*
X104779146Y-125807145D01*
X104528289Y-125431711D01*
X104152854Y-125180854D01*
X103710000Y-125092765D01*
X103267145Y-125180854D01*
X102891711Y-125431711D01*
X102640854Y-125807146D01*
X102575000Y-126138218D01*
X102575000Y-126703903D01*
X102575001Y-131761783D01*
X102576803Y-131770845D01*
X102514627Y-131783212D01*
X99655797Y-131783212D01*
X99293664Y-131633212D01*
X99101612Y-131633212D01*
X99236280Y-131577431D01*
X99527431Y-131286280D01*
X99685000Y-130905874D01*
X99685000Y-130494126D01*
X99527431Y-130113720D01*
X99236280Y-129822569D01*
X98855874Y-129665000D01*
X98444126Y-129665000D01*
X98063720Y-129822569D01*
X97772569Y-130113720D01*
X97622569Y-130475852D01*
X97513422Y-130585000D01*
X97108007Y-130585000D01*
X96745874Y-130435000D01*
X96334126Y-130435000D01*
X95953720Y-130592569D01*
X95662569Y-130883720D01*
X95505000Y-131264126D01*
X67247440Y-131264126D01*
X67247440Y-129430000D01*
X67198157Y-129182235D01*
X67057809Y-128972191D01*
X66847765Y-128831843D01*
X66600000Y-128782560D01*
X63100000Y-128782560D01*
X62852235Y-128831843D01*
X62642191Y-128972191D01*
X62501843Y-129182235D01*
X62452560Y-129430000D01*
X62452560Y-132930000D01*
X62501843Y-133177765D01*
X62642191Y-133387809D01*
X62809001Y-133499269D01*
X62725000Y-133482560D01*
X60975000Y-133482560D01*
X60392387Y-133598449D01*
X59898472Y-133928472D01*
X59568449Y-134422387D01*
X59452560Y-135005000D01*
X50127000Y-135005000D01*
X50127000Y-131465750D01*
X56715000Y-131465750D01*
X56715000Y-133056310D01*
X56811673Y-133289699D01*
X56990302Y-133468327D01*
X57223691Y-133565000D01*
X58564250Y-133565000D01*
X58723000Y-133406250D01*
X58723000Y-131307000D01*
X58977000Y-131307000D01*
X58977000Y-133406250D01*
X59135750Y-133565000D01*
X60476309Y-133565000D01*
X60709698Y-133468327D01*
X60888327Y-133289699D01*
X60985000Y-133056310D01*
X60985000Y-131465750D01*
X60826250Y-131307000D01*
X58977000Y-131307000D01*
X58723000Y-131307000D01*
X56873750Y-131307000D01*
X56715000Y-131465750D01*
X50127000Y-131465750D01*
X50127000Y-129303690D01*
X56715000Y-129303690D01*
X56715000Y-130894250D01*
X56873750Y-131053000D01*
X58723000Y-131053000D01*
X58723000Y-128953750D01*
X58977000Y-128953750D01*
X58977000Y-131053000D01*
X60826250Y-131053000D01*
X60985000Y-130894250D01*
X60985000Y-129303690D01*
X60888327Y-129070301D01*
X60709698Y-128891673D01*
X60476309Y-128795000D01*
X59135750Y-128795000D01*
X58977000Y-128953750D01*
X58723000Y-128953750D01*
X58564250Y-128795000D01*
X57223691Y-128795000D01*
X56990302Y-128891673D01*
X56811673Y-129070301D01*
X56715000Y-129303690D01*
X50127000Y-129303690D01*
X50127000Y-123290000D01*
X51655908Y-123290000D01*
X51771161Y-123869418D01*
X52099375Y-124360625D01*
X52590582Y-124688839D01*
X53023744Y-124775000D01*
X53316256Y-124775000D01*
X53749418Y-124688839D01*
X54240625Y-124360625D01*
X54440000Y-124062239D01*
X54639375Y-124360625D01*
X55130582Y-124688839D01*
X55563744Y-124775000D01*
X55856256Y-124775000D01*
X56289418Y-124688839D01*
X56780625Y-124360625D01*
X56980000Y-124062239D01*
X57179375Y-124360625D01*
X57670582Y-124688839D01*
X58103744Y-124775000D01*
X58396256Y-124775000D01*
X58829418Y-124688839D01*
X59320625Y-124360625D01*
X59520000Y-124062239D01*
X59719375Y-124360625D01*
X60210582Y-124688839D01*
X60643744Y-124775000D01*
X60936256Y-124775000D01*
X61369418Y-124688839D01*
X61860625Y-124360625D01*
X62060000Y-124062239D01*
X62259375Y-124360625D01*
X62750582Y-124688839D01*
X63183744Y-124775000D01*
X63476256Y-124775000D01*
X63909418Y-124688839D01*
X64400625Y-124360625D01*
X64415096Y-124338967D01*
X64481673Y-124499698D01*
X64660301Y-124678327D01*
X64893690Y-124775000D01*
X65584250Y-124775000D01*
X65743000Y-124616250D01*
X65743000Y-123417000D01*
X65997000Y-123417000D01*
X65997000Y-124616250D01*
X66155750Y-124775000D01*
X66846310Y-124775000D01*
X67079699Y-124678327D01*
X67258327Y-124499698D01*
X67355000Y-124266309D01*
X67355000Y-123575750D01*
X67196250Y-123417000D01*
X65997000Y-123417000D01*
X65743000Y-123417000D01*
X65723000Y-123417000D01*
X65723000Y-123163000D01*
X65743000Y-123163000D01*
X65743000Y-121963750D01*
X65997000Y-121963750D01*
X65997000Y-123163000D01*
X67196250Y-123163000D01*
X67355000Y-123004250D01*
X67355000Y-122313691D01*
X67258327Y-122080302D01*
X67079699Y-121901673D01*
X66846310Y-121805000D01*
X66155750Y-121805000D01*
X65997000Y-121963750D01*
X65743000Y-121963750D01*
X65584250Y-121805000D01*
X64893690Y-121805000D01*
X64660301Y-121901673D01*
X64481673Y-122080302D01*
X64415096Y-122241033D01*
X64400625Y-122219375D01*
X63909418Y-121891161D01*
X63476256Y-121805000D01*
X63183744Y-121805000D01*
X62750582Y-121891161D01*
X62259375Y-122219375D01*
X62060000Y-122517761D01*
X61860625Y-122219375D01*
X61369418Y-121891161D01*
X60936256Y-121805000D01*
X60643744Y-121805000D01*
X60210582Y-121891161D01*
X59719375Y-122219375D01*
X59520000Y-122517761D01*
X59320625Y-122219375D01*
X58829418Y-121891161D01*
X58396256Y-121805000D01*
X58103744Y-121805000D01*
X57670582Y-121891161D01*
X57179375Y-122219375D01*
X56980000Y-122517761D01*
X56780625Y-122219375D01*
X56289418Y-121891161D01*
X55856256Y-121805000D01*
X55563744Y-121805000D01*
X55130582Y-121891161D01*
X54639375Y-122219375D01*
X54440000Y-122517761D01*
X54240625Y-122219375D01*
X53749418Y-121891161D01*
X53316256Y-121805000D01*
X53023744Y-121805000D01*
X52590582Y-121891161D01*
X52099375Y-122219375D01*
X51771161Y-122710582D01*
X51655908Y-123290000D01*
X50127000Y-123290000D01*
X50127000Y-116250458D01*
X56220000Y-116250458D01*
X56220000Y-117149542D01*
X56564065Y-117980187D01*
X57199813Y-118615935D01*
X58030458Y-118960000D01*
X58929542Y-118960000D01*
X59760187Y-118615935D01*
X60395935Y-117980187D01*
X60740000Y-117149542D01*
X60740000Y-116250458D01*
X60544618Y-115778764D01*
X64030841Y-115778764D01*
X64100059Y-116020742D01*
X64622780Y-116207155D01*
X65177049Y-116179341D01*
X65559941Y-116020742D01*
X65629159Y-115778764D01*
X64830000Y-114979605D01*
X64030841Y-115778764D01*
X60544618Y-115778764D01*
X60395935Y-115419813D01*
X59760187Y-114784065D01*
X59298385Y-114592780D01*
X63422845Y-114592780D01*
X63450659Y-115147049D01*
X63609258Y-115529941D01*
X63851236Y-115599159D01*
X64650395Y-114800000D01*
X65009605Y-114800000D01*
X65808764Y-115599159D01*
X66050742Y-115529941D01*
X66237155Y-115007220D01*
X66209341Y-114452951D01*
X66050742Y-114070059D01*
X65808764Y-114000841D01*
X65009605Y-114800000D01*
X64650395Y-114800000D01*
X63851236Y-114000841D01*
X63609258Y-114070059D01*
X63422845Y-114592780D01*
X59298385Y-114592780D01*
X58929542Y-114440000D01*
X58030458Y-114440000D01*
X57199813Y-114784065D01*
X56564065Y-115419813D01*
X56220000Y-116250458D01*
X50127000Y-116250458D01*
X50127000Y-113238764D01*
X64030841Y-113238764D01*
X64100059Y-113480742D01*
X64227863Y-113526320D01*
X64100059Y-113579258D01*
X64030841Y-113821236D01*
X64830000Y-114620395D01*
X65629159Y-113821236D01*
X65559941Y-113579258D01*
X65432137Y-113533680D01*
X65559941Y-113480742D01*
X65629159Y-113238764D01*
X64830000Y-112439605D01*
X64030841Y-113238764D01*
X50127000Y-113238764D01*
X50127000Y-112052780D01*
X63422845Y-112052780D01*
X63450659Y-112607049D01*
X63609258Y-112989941D01*
X63851236Y-113059159D01*
X64650395Y-112260000D01*
X65009605Y-112260000D01*
X65808764Y-113059159D01*
X66050742Y-112989941D01*
X66237155Y-112467220D01*
X66209341Y-111912951D01*
X66050742Y-111530059D01*
X65808764Y-111460841D01*
X65009605Y-112260000D01*
X64650395Y-112260000D01*
X63851236Y-111460841D01*
X63609258Y-111530059D01*
X63422845Y-112052780D01*
X50127000Y-112052780D01*
X50127000Y-109442517D01*
X63435000Y-109442517D01*
X63435000Y-109997483D01*
X63647376Y-110510204D01*
X64039796Y-110902624D01*
X64234859Y-110983422D01*
X64100059Y-111039258D01*
X64030841Y-111281236D01*
X64830000Y-112080395D01*
X65629159Y-111281236D01*
X65559941Y-111039258D01*
X65415069Y-110987594D01*
X65620204Y-110902624D01*
X66012624Y-110510204D01*
X66225000Y-109997483D01*
X66225000Y-109716459D01*
X66362235Y-109808157D01*
X66543049Y-109844123D01*
X66187376Y-110199796D01*
X65975000Y-110712517D01*
X65975000Y-111267483D01*
X66187376Y-111780204D01*
X66579796Y-112172624D01*
X66790740Y-112260000D01*
X66579796Y-112347376D01*
X66187376Y-112739796D01*
X65975000Y-113252517D01*
X65975000Y-113807483D01*
X66187376Y-114320204D01*
X66579796Y-114712624D01*
X67092517Y-114925000D01*
X67647483Y-114925000D01*
X68160204Y-114712624D01*
X68498702Y-114374126D01*
X89885000Y-114374126D01*
X89885000Y-114785874D01*
X90035001Y-115148009D01*
X90035000Y-121921993D01*
X89885000Y-122284126D01*
X89885000Y-122695874D01*
X90042569Y-123076280D01*
X90333720Y-123367431D01*
X90714126Y-123525000D01*
X91125874Y-123525000D01*
X91506280Y-123367431D01*
X91615000Y-123258711D01*
X91615000Y-124521782D01*
X91680854Y-124852854D01*
X91931711Y-125228289D01*
X92307145Y-125479146D01*
X92738759Y-125564999D01*
X90938218Y-125564999D01*
X90607146Y-125630853D01*
X90231712Y-125881710D01*
X89980855Y-126257144D01*
X89892766Y-126699999D01*
X89980855Y-127142854D01*
X90231712Y-127518288D01*
X90607146Y-127769145D01*
X90938218Y-127834999D01*
X93115000Y-127834999D01*
X93115000Y-128005874D01*
X93272569Y-128386280D01*
X93563720Y-128677431D01*
X93944126Y-128835000D01*
X94355874Y-128835000D01*
X94718007Y-128685000D01*
X96598252Y-128685000D01*
X96685413Y-128702337D01*
X96772574Y-128685000D01*
X96772578Y-128685000D01*
X97030723Y-128633652D01*
X97323462Y-128438049D01*
X97372838Y-128364153D01*
X101180683Y-124556308D01*
X105917182Y-124556308D01*
X105917182Y-124968056D01*
X106074751Y-125348462D01*
X106365902Y-125639613D01*
X106746308Y-125797182D01*
X107158056Y-125797182D01*
X107520189Y-125647182D01*
X109503471Y-125647182D01*
X109523720Y-125667431D01*
X109904126Y-125825000D01*
X110315874Y-125825000D01*
X110696280Y-125667431D01*
X110779504Y-125584207D01*
X110702765Y-125970000D01*
X110790854Y-126412855D01*
X111041711Y-126788289D01*
X111417145Y-127039146D01*
X111748217Y-127105000D01*
X112241031Y-127105000D01*
X112241031Y-127371905D01*
X112345119Y-127623196D01*
X112242566Y-127725749D01*
X112084997Y-128106155D01*
X112084997Y-128517903D01*
X112242566Y-128898309D01*
X112533717Y-129189460D01*
X112895850Y-129339460D01*
X113176062Y-129619673D01*
X113176062Y-129886936D01*
X113333631Y-130267342D01*
X113624782Y-130558493D01*
X114005188Y-130716062D01*
X114416936Y-130716062D01*
X114639700Y-130623790D01*
X114639700Y-130720831D01*
X114811778Y-131136264D01*
X115129736Y-131454222D01*
X115545169Y-131626300D01*
X115994831Y-131626300D01*
X116410264Y-131454222D01*
X116728222Y-131136264D01*
X116900300Y-130720831D01*
X116900300Y-130271169D01*
X116728222Y-129855736D01*
X116410264Y-129537778D01*
X116270776Y-129480000D01*
X116410264Y-129422222D01*
X116577317Y-129255169D01*
X119719700Y-129255169D01*
X119719700Y-129704831D01*
X119891778Y-130120264D01*
X120209736Y-130438222D01*
X120625169Y-130610300D01*
X121074831Y-130610300D01*
X121490264Y-130438222D01*
X121808222Y-130120264D01*
X121980300Y-129704831D01*
X121980300Y-129255169D01*
X121808222Y-128839736D01*
X121490264Y-128521778D01*
X121074831Y-128349700D01*
X120625169Y-128349700D01*
X120209736Y-128521778D01*
X119891778Y-128839736D01*
X119719700Y-129255169D01*
X116577317Y-129255169D01*
X116728222Y-129104264D01*
X116900300Y-128688831D01*
X116900300Y-128239169D01*
X116889836Y-128213907D01*
X117077431Y-128026312D01*
X117235000Y-127645906D01*
X117235000Y-127234158D01*
X117181501Y-127105000D01*
X118931417Y-127105000D01*
X119147146Y-127249146D01*
X119590000Y-127337235D01*
X120032854Y-127249146D01*
X120408288Y-126998288D01*
X120659146Y-126622854D01*
X120747235Y-126180000D01*
X120659146Y-125737146D01*
X120471608Y-125456477D01*
X120261613Y-125246482D01*
X120198289Y-125151711D01*
X119822855Y-124900854D01*
X119491783Y-124835000D01*
X119380000Y-124812765D01*
X119268217Y-124835000D01*
X111748217Y-124835000D01*
X111417145Y-124900854D01*
X111095275Y-125115921D01*
X111145000Y-124995874D01*
X111145000Y-124584126D01*
X110987431Y-124203720D01*
X110696280Y-123912569D01*
X110315874Y-123755000D01*
X109904126Y-123755000D01*
X109609152Y-123877182D01*
X107520189Y-123877182D01*
X107158056Y-123727182D01*
X106746308Y-123727182D01*
X106365902Y-123884751D01*
X106074751Y-124175902D01*
X105917182Y-124556308D01*
X101180683Y-124556308D01*
X102462489Y-123274503D01*
X102824620Y-123124504D01*
X103115771Y-122833353D01*
X103273340Y-122452947D01*
X103273340Y-122041199D01*
X103115771Y-121660793D01*
X102824620Y-121369642D01*
X102444214Y-121212073D01*
X102032466Y-121212073D01*
X101652060Y-121369642D01*
X101360909Y-121660793D01*
X101210910Y-122022924D01*
X100775000Y-122458834D01*
X100775000Y-120998217D01*
X100709146Y-120667145D01*
X100458289Y-120291711D01*
X100082854Y-120040854D01*
X99640000Y-119952765D01*
X99197145Y-120040854D01*
X99046426Y-120141561D01*
X99046426Y-118679331D01*
X99200895Y-118306409D01*
X99200895Y-117894661D01*
X99043326Y-117514255D01*
X98752175Y-117223104D01*
X98371769Y-117065535D01*
X97960021Y-117065535D01*
X97579615Y-117223104D01*
X97288464Y-117514255D01*
X97255486Y-117593871D01*
X97028349Y-117366734D01*
X96647943Y-117209165D01*
X96236195Y-117209165D01*
X95855789Y-117366734D01*
X95564638Y-117657885D01*
X95407069Y-118038291D01*
X95407069Y-118450039D01*
X95564638Y-118830445D01*
X95855789Y-119121596D01*
X96217922Y-119271596D01*
X96282935Y-119336609D01*
X96282934Y-122191993D01*
X96132934Y-122554126D01*
X96132934Y-122965874D01*
X96290503Y-123346280D01*
X96581654Y-123637431D01*
X96962060Y-123795000D01*
X97263219Y-123795000D01*
X95493221Y-125564999D01*
X92761241Y-125564999D01*
X93192854Y-125479146D01*
X93568289Y-125228289D01*
X93819146Y-124852855D01*
X93885000Y-124521783D01*
X93885000Y-116212328D01*
X93927235Y-116000001D01*
X93839145Y-115557146D01*
X93588288Y-115181712D01*
X93212854Y-114930855D01*
X92769999Y-114842765D01*
X92327146Y-114930855D01*
X92046477Y-115118392D01*
X92026480Y-115138389D01*
X91931712Y-115201711D01*
X91805000Y-115391348D01*
X91805000Y-115148007D01*
X91955000Y-114785874D01*
X91955000Y-114374126D01*
X91797431Y-113993720D01*
X91506280Y-113702569D01*
X91125874Y-113545000D01*
X90714126Y-113545000D01*
X90333720Y-113702569D01*
X90042569Y-113993720D01*
X89885000Y-114374126D01*
X68498702Y-114374126D01*
X68552624Y-114320204D01*
X68765000Y-113807483D01*
X68765000Y-113252517D01*
X68552624Y-112739796D01*
X68160204Y-112347376D01*
X67949260Y-112260000D01*
X68160204Y-112172624D01*
X68552624Y-111780204D01*
X68765000Y-111267483D01*
X68765000Y-110712517D01*
X68552624Y-110199796D01*
X68196951Y-109844123D01*
X68377765Y-109808157D01*
X68587809Y-109667809D01*
X68728157Y-109457765D01*
X68777440Y-109210000D01*
X68777440Y-108697377D01*
X70113834Y-108697377D01*
X70113834Y-109546733D01*
X70438868Y-110331435D01*
X71039454Y-110932021D01*
X71824156Y-111257055D01*
X72673512Y-111257055D01*
X73458214Y-110932021D01*
X74058800Y-110331435D01*
X74383834Y-109546733D01*
X74383834Y-108697377D01*
X145112414Y-108697377D01*
X145112414Y-109546733D01*
X145437448Y-110331435D01*
X146038034Y-110932021D01*
X146822736Y-111257055D01*
X147672092Y-111257055D01*
X148456794Y-110932021D01*
X149057380Y-110331435D01*
X149382414Y-109546733D01*
X149382414Y-108697377D01*
X149057380Y-107912675D01*
X148456794Y-107312089D01*
X147672092Y-106987055D01*
X146822736Y-106987055D01*
X146038034Y-107312089D01*
X145437448Y-107912675D01*
X145112414Y-108697377D01*
X74383834Y-108697377D01*
X74058800Y-107912675D01*
X73458214Y-107312089D01*
X72673512Y-106987055D01*
X71824156Y-106987055D01*
X71039454Y-107312089D01*
X70438868Y-107912675D01*
X70113834Y-108697377D01*
X68777440Y-108697377D01*
X68777440Y-107690000D01*
X68728157Y-107442235D01*
X68587809Y-107232191D01*
X68377765Y-107091843D01*
X68130000Y-107042560D01*
X66610000Y-107042560D01*
X66362235Y-107091843D01*
X66152191Y-107232191D01*
X66011843Y-107442235D01*
X65962560Y-107690000D01*
X65962560Y-108879732D01*
X65620204Y-108537376D01*
X65107483Y-108325000D01*
X64552517Y-108325000D01*
X64039796Y-108537376D01*
X63647376Y-108929796D01*
X63435000Y-109442517D01*
X50127000Y-109442517D01*
X50127000Y-106090458D01*
X56220000Y-106090458D01*
X56220000Y-106989542D01*
X56564065Y-107820187D01*
X57199813Y-108455935D01*
X58030458Y-108800000D01*
X58929542Y-108800000D01*
X59760187Y-108455935D01*
X60395935Y-107820187D01*
X60740000Y-106989542D01*
X60740000Y-106090458D01*
X60395935Y-105259813D01*
X59760187Y-104624065D01*
X58929542Y-104280000D01*
X58030458Y-104280000D01*
X57199813Y-104624065D01*
X56564065Y-105259813D01*
X56220000Y-106090458D01*
X50127000Y-106090458D01*
X50127000Y-93705431D01*
X57615000Y-93705431D01*
X57615000Y-94594569D01*
X57955259Y-95416026D01*
X58583974Y-96044741D01*
X59405431Y-96385000D01*
X60294569Y-96385000D01*
X61116026Y-96044741D01*
X61744741Y-95416026D01*
X62085000Y-94594569D01*
X62085000Y-93705431D01*
X61987482Y-93470000D01*
X66212560Y-93470000D01*
X66212560Y-94970000D01*
X66261843Y-95217765D01*
X66402191Y-95427809D01*
X66612235Y-95568157D01*
X66860000Y-95617440D01*
X68360000Y-95617440D01*
X68607765Y-95568157D01*
X68817809Y-95427809D01*
X68840000Y-95394598D01*
X68862191Y-95427809D01*
X69072235Y-95568157D01*
X69320000Y-95617440D01*
X70820000Y-95617440D01*
X71067765Y-95568157D01*
X71277809Y-95427809D01*
X71340000Y-95334734D01*
X71402191Y-95427809D01*
X71612235Y-95568157D01*
X71860000Y-95617440D01*
X73360000Y-95617440D01*
X73607765Y-95568157D01*
X73817809Y-95427809D01*
X73874676Y-95342702D01*
X74040302Y-95508327D01*
X74273691Y-95605000D01*
X74864250Y-95605000D01*
X75023000Y-95446250D01*
X75023000Y-94347000D01*
X75277000Y-94347000D01*
X75277000Y-95446250D01*
X75435750Y-95605000D01*
X76026309Y-95605000D01*
X76259698Y-95508327D01*
X76438327Y-95329699D01*
X76535000Y-95096310D01*
X76535000Y-94869506D01*
X83785000Y-94869506D01*
X83785000Y-95420494D01*
X83995853Y-95929540D01*
X84385460Y-96319147D01*
X84894506Y-96530000D01*
X85445494Y-96530000D01*
X85954540Y-96319147D01*
X86344147Y-95929540D01*
X86440000Y-95698130D01*
X86535853Y-95929540D01*
X86925460Y-96319147D01*
X87434506Y-96530000D01*
X87985494Y-96530000D01*
X88494540Y-96319147D01*
X88884147Y-95929540D01*
X88980000Y-95698130D01*
X89075853Y-95929540D01*
X89465460Y-96319147D01*
X89974506Y-96530000D01*
X90525494Y-96530000D01*
X91034540Y-96319147D01*
X91424147Y-95929540D01*
X91520000Y-95698130D01*
X91615853Y-95929540D01*
X92005460Y-96319147D01*
X92514506Y-96530000D01*
X93065494Y-96530000D01*
X93574540Y-96319147D01*
X93964147Y-95929540D01*
X94060000Y-95698130D01*
X94155853Y-95929540D01*
X94545460Y-96319147D01*
X95054506Y-96530000D01*
X95605494Y-96530000D01*
X96114540Y-96319147D01*
X96504147Y-95929540D01*
X96715000Y-95420494D01*
X96715000Y-94869506D01*
X96504147Y-94360460D01*
X96114540Y-93970853D01*
X95605494Y-93760000D01*
X95054506Y-93760000D01*
X94545460Y-93970853D01*
X94155853Y-94360460D01*
X94060000Y-94591870D01*
X93964147Y-94360460D01*
X93574540Y-93970853D01*
X93065494Y-93760000D01*
X92514506Y-93760000D01*
X92005460Y-93970853D01*
X91615853Y-94360460D01*
X91520000Y-94591870D01*
X91424147Y-94360460D01*
X91034540Y-93970853D01*
X90525494Y-93760000D01*
X89974506Y-93760000D01*
X89465460Y-93970853D01*
X89075853Y-94360460D01*
X88980000Y-94591870D01*
X88884147Y-94360460D01*
X88494540Y-93970853D01*
X87985494Y-93760000D01*
X87434506Y-93760000D01*
X86925460Y-93970853D01*
X86535853Y-94360460D01*
X86440000Y-94591870D01*
X86344147Y-94360460D01*
X85954540Y-93970853D01*
X85445494Y-93760000D01*
X84894506Y-93760000D01*
X84385460Y-93970853D01*
X83995853Y-94360460D01*
X83785000Y-94869506D01*
X76535000Y-94869506D01*
X76535000Y-94505750D01*
X76376250Y-94347000D01*
X75277000Y-94347000D01*
X75023000Y-94347000D01*
X75003000Y-94347000D01*
X75003000Y-94093000D01*
X75023000Y-94093000D01*
X75023000Y-92993750D01*
X75277000Y-92993750D01*
X75277000Y-94093000D01*
X76376250Y-94093000D01*
X76535000Y-93934250D01*
X76535000Y-93705431D01*
X137915000Y-93705431D01*
X137915000Y-94594569D01*
X138255259Y-95416026D01*
X138883974Y-96044741D01*
X139705431Y-96385000D01*
X140594569Y-96385000D01*
X141416026Y-96044741D01*
X142044741Y-95416026D01*
X142385000Y-94594569D01*
X142385000Y-93705431D01*
X142044741Y-92883974D01*
X141416026Y-92255259D01*
X140594569Y-91915000D01*
X139705431Y-91915000D01*
X138883974Y-92255259D01*
X138255259Y-92883974D01*
X137915000Y-93705431D01*
X76535000Y-93705431D01*
X76535000Y-93343690D01*
X76438327Y-93110301D01*
X76259698Y-92931673D01*
X76026309Y-92835000D01*
X75435750Y-92835000D01*
X75277000Y-92993750D01*
X75023000Y-92993750D01*
X74864250Y-92835000D01*
X74273691Y-92835000D01*
X74040302Y-92931673D01*
X73874676Y-93097298D01*
X73817809Y-93012191D01*
X73607765Y-92871843D01*
X73360000Y-92822560D01*
X71860000Y-92822560D01*
X71612235Y-92871843D01*
X71402191Y-93012191D01*
X71340000Y-93105266D01*
X71277809Y-93012191D01*
X71067765Y-92871843D01*
X70820000Y-92822560D01*
X69320000Y-92822560D01*
X69072235Y-92871843D01*
X68862191Y-93012191D01*
X68840000Y-93045402D01*
X68817809Y-93012191D01*
X68607765Y-92871843D01*
X68360000Y-92822560D01*
X66860000Y-92822560D01*
X66612235Y-92871843D01*
X66402191Y-93012191D01*
X66261843Y-93222235D01*
X66212560Y-93470000D01*
X61987482Y-93470000D01*
X61744741Y-92883974D01*
X61116026Y-92255259D01*
X60294569Y-91915000D01*
X59405431Y-91915000D01*
X58583974Y-92255259D01*
X57955259Y-92883974D01*
X57615000Y-93705431D01*
X50127000Y-93705431D01*
X50127000Y-89240754D01*
X108400000Y-89240754D01*
X108400000Y-89919245D01*
X108467305Y-90257608D01*
X108723687Y-90641313D01*
X109107391Y-90897695D01*
X109560000Y-90987725D01*
X110012608Y-90897695D01*
X110195000Y-90775825D01*
X110377391Y-90897695D01*
X110830000Y-90987725D01*
X111282608Y-90897695D01*
X111283984Y-90896776D01*
X111448691Y-90965000D01*
X111814250Y-90965000D01*
X111973000Y-90806250D01*
X111973000Y-90004710D01*
X111990000Y-89919246D01*
X111990000Y-89707000D01*
X112227000Y-89707000D01*
X112227000Y-90806250D01*
X112385750Y-90965000D01*
X112751309Y-90965000D01*
X112984698Y-90868327D01*
X113163327Y-90689699D01*
X113260000Y-90456310D01*
X113260000Y-89865750D01*
X113101250Y-89707000D01*
X112227000Y-89707000D01*
X111990000Y-89707000D01*
X111990000Y-89240755D01*
X111973000Y-89155291D01*
X111973000Y-88353750D01*
X112227000Y-88353750D01*
X112227000Y-89453000D01*
X113101250Y-89453000D01*
X113260000Y-89294250D01*
X113260000Y-88703690D01*
X113163327Y-88470301D01*
X112984698Y-88291673D01*
X112751309Y-88195000D01*
X112385750Y-88195000D01*
X112227000Y-88353750D01*
X111973000Y-88353750D01*
X111814250Y-88195000D01*
X111448691Y-88195000D01*
X111283984Y-88263224D01*
X111282609Y-88262305D01*
X110830000Y-88172275D01*
X110377392Y-88262305D01*
X110195001Y-88384175D01*
X110012609Y-88262305D01*
X109560000Y-88172275D01*
X109107392Y-88262305D01*
X108723688Y-88518687D01*
X108467305Y-88902391D01*
X108400000Y-89240754D01*
X50127000Y-89240754D01*
X50127000Y-87923528D01*
X125826250Y-87923528D01*
X125826250Y-88573972D01*
X126075164Y-89174903D01*
X126535097Y-89634836D01*
X127136028Y-89883750D01*
X127786472Y-89883750D01*
X128387403Y-89634836D01*
X128847336Y-89174903D01*
X129068900Y-88640000D01*
X129172560Y-88640000D01*
X129172560Y-90640000D01*
X129221843Y-90887765D01*
X129362191Y-91097809D01*
X129572235Y-91238157D01*
X129820000Y-91287440D01*
X131820000Y-91287440D01*
X132067765Y-91238157D01*
X132277809Y-91097809D01*
X132418157Y-90887765D01*
X132467440Y-90640000D01*
X132467440Y-88640000D01*
X132418157Y-88392235D01*
X132277809Y-88182191D01*
X132067765Y-88041843D01*
X131820000Y-87992560D01*
X129820000Y-87992560D01*
X129572235Y-88041843D01*
X129362191Y-88182191D01*
X129221843Y-88392235D01*
X129172560Y-88640000D01*
X129068900Y-88640000D01*
X129096250Y-88573972D01*
X129096250Y-87923528D01*
X132543750Y-87923528D01*
X132543750Y-88573972D01*
X132792664Y-89174903D01*
X133252597Y-89634836D01*
X133853528Y-89883750D01*
X134503972Y-89883750D01*
X135104903Y-89634836D01*
X135564836Y-89174903D01*
X135813750Y-88573972D01*
X135813750Y-87923528D01*
X135564836Y-87322597D01*
X135104903Y-86862664D01*
X134503972Y-86613750D01*
X133853528Y-86613750D01*
X133252597Y-86862664D01*
X132792664Y-87322597D01*
X132543750Y-87923528D01*
X129096250Y-87923528D01*
X128847336Y-87322597D01*
X128387403Y-86862664D01*
X127786472Y-86613750D01*
X127136028Y-86613750D01*
X126535097Y-86862664D01*
X126075164Y-87322597D01*
X125826250Y-87923528D01*
X50127000Y-87923528D01*
X50127000Y-81206028D01*
X125826250Y-81206028D01*
X125826250Y-81856472D01*
X126075164Y-82457403D01*
X126535097Y-82917336D01*
X127136028Y-83166250D01*
X127786472Y-83166250D01*
X128387403Y-82917336D01*
X128847336Y-82457403D01*
X129096250Y-81856472D01*
X129096250Y-81206028D01*
X128847336Y-80605097D01*
X128387403Y-80145164D01*
X127786472Y-79896250D01*
X127136028Y-79896250D01*
X126535097Y-80145164D01*
X126075164Y-80605097D01*
X125826250Y-81206028D01*
X50127000Y-81206028D01*
X50127000Y-77083528D01*
X108346250Y-77083528D01*
X108346250Y-77733972D01*
X108595164Y-78334903D01*
X109055097Y-78794836D01*
X109656028Y-79043750D01*
X110306472Y-79043750D01*
X110907403Y-78794836D01*
X111367336Y-78334903D01*
X111588900Y-77800000D01*
X111692560Y-77800000D01*
X111692560Y-79800000D01*
X111741843Y-80047765D01*
X111882191Y-80257809D01*
X112092235Y-80398157D01*
X112340000Y-80447440D01*
X114340000Y-80447440D01*
X114587765Y-80398157D01*
X114797809Y-80257809D01*
X114938157Y-80047765D01*
X114984500Y-79814778D01*
X129185000Y-79814778D01*
X129185000Y-80465222D01*
X129433914Y-81066153D01*
X129893847Y-81526086D01*
X130494778Y-81775000D01*
X131145222Y-81775000D01*
X131746153Y-81526086D01*
X132066211Y-81206028D01*
X132543750Y-81206028D01*
X132543750Y-81856472D01*
X132792664Y-82457403D01*
X133252597Y-82917336D01*
X133853528Y-83166250D01*
X134503972Y-83166250D01*
X135104903Y-82917336D01*
X135564836Y-82457403D01*
X135813750Y-81856472D01*
X135813750Y-81206028D01*
X135564836Y-80605097D01*
X135104903Y-80145164D01*
X134503972Y-79896250D01*
X133853528Y-79896250D01*
X133252597Y-80145164D01*
X132792664Y-80605097D01*
X132543750Y-81206028D01*
X132066211Y-81206028D01*
X132206086Y-81066153D01*
X132455000Y-80465222D01*
X132455000Y-79814778D01*
X132206086Y-79213847D01*
X131746153Y-78753914D01*
X131145222Y-78505000D01*
X130494778Y-78505000D01*
X129893847Y-78753914D01*
X129433914Y-79213847D01*
X129185000Y-79814778D01*
X114984500Y-79814778D01*
X114987440Y-79800000D01*
X114987440Y-77800000D01*
X114938157Y-77552235D01*
X114797809Y-77342191D01*
X114587765Y-77201843D01*
X114340000Y-77152560D01*
X112340000Y-77152560D01*
X112092235Y-77201843D01*
X111882191Y-77342191D01*
X111741843Y-77552235D01*
X111692560Y-77800000D01*
X111588900Y-77800000D01*
X111616250Y-77733972D01*
X111616250Y-77083528D01*
X115063750Y-77083528D01*
X115063750Y-77733972D01*
X115312664Y-78334903D01*
X115772597Y-78794836D01*
X116373528Y-79043750D01*
X117023972Y-79043750D01*
X117624903Y-78794836D01*
X118084836Y-78334903D01*
X118333750Y-77733972D01*
X118333750Y-77083528D01*
X118084836Y-76482597D01*
X117624903Y-76022664D01*
X117023972Y-75773750D01*
X116373528Y-75773750D01*
X115772597Y-76022664D01*
X115312664Y-76482597D01*
X115063750Y-77083528D01*
X111616250Y-77083528D01*
X111367336Y-76482597D01*
X110907403Y-76022664D01*
X110306472Y-75773750D01*
X109656028Y-75773750D01*
X109055097Y-76022664D01*
X108595164Y-76482597D01*
X108346250Y-77083528D01*
X50127000Y-77083528D01*
X50127000Y-70366028D01*
X108346250Y-70366028D01*
X108346250Y-71016472D01*
X108595164Y-71617403D01*
X109055097Y-72077336D01*
X109656028Y-72326250D01*
X110306472Y-72326250D01*
X110907403Y-72077336D01*
X111367336Y-71617403D01*
X111616250Y-71016472D01*
X111616250Y-70366028D01*
X111367336Y-69765097D01*
X110907403Y-69305164D01*
X110306472Y-69056250D01*
X109656028Y-69056250D01*
X109055097Y-69305164D01*
X108595164Y-69765097D01*
X108346250Y-70366028D01*
X50127000Y-70366028D01*
X50127000Y-68974778D01*
X111705000Y-68974778D01*
X111705000Y-69625222D01*
X111953914Y-70226153D01*
X112413847Y-70686086D01*
X113014778Y-70935000D01*
X113665222Y-70935000D01*
X114266153Y-70686086D01*
X114586211Y-70366028D01*
X115063750Y-70366028D01*
X115063750Y-71016472D01*
X115312664Y-71617403D01*
X115772597Y-72077336D01*
X116373528Y-72326250D01*
X117023972Y-72326250D01*
X117624903Y-72077336D01*
X118084836Y-71617403D01*
X118333750Y-71016472D01*
X118333750Y-70366028D01*
X118084836Y-69765097D01*
X117624903Y-69305164D01*
X117023972Y-69056250D01*
X116373528Y-69056250D01*
X115772597Y-69305164D01*
X115312664Y-69765097D01*
X115063750Y-70366028D01*
X114586211Y-70366028D01*
X114726086Y-70226153D01*
X114975000Y-69625222D01*
X114975000Y-68974778D01*
X114726086Y-68373847D01*
X114266153Y-67913914D01*
X113665222Y-67665000D01*
X113014778Y-67665000D01*
X112413847Y-67913914D01*
X111953914Y-68373847D01*
X111705000Y-68974778D01*
X50127000Y-68974778D01*
X50127000Y-66055431D01*
X57615000Y-66055431D01*
X57615000Y-66944569D01*
X57955259Y-67766026D01*
X58583974Y-68394741D01*
X59405431Y-68735000D01*
X60294569Y-68735000D01*
X61116026Y-68394741D01*
X61744741Y-67766026D01*
X62085000Y-66944569D01*
X62085000Y-66055431D01*
X61780170Y-65319506D01*
X83785000Y-65319506D01*
X83785000Y-65870494D01*
X83995853Y-66379540D01*
X84385460Y-66769147D01*
X84894506Y-66980000D01*
X85445494Y-66980000D01*
X85954540Y-66769147D01*
X86157170Y-66566517D01*
X86918088Y-66566517D01*
X86986077Y-66807460D01*
X87505171Y-66992201D01*
X88055448Y-66964230D01*
X88433923Y-66807460D01*
X88501912Y-66566517D01*
X87710000Y-65774605D01*
X86918088Y-66566517D01*
X86157170Y-66566517D01*
X86344147Y-66379540D01*
X86433397Y-66164070D01*
X86497540Y-66318923D01*
X86738483Y-66386912D01*
X87530395Y-65595000D01*
X87889605Y-65595000D01*
X88681517Y-66386912D01*
X88922460Y-66318923D01*
X88981745Y-66152342D01*
X89075853Y-66379540D01*
X89465460Y-66769147D01*
X89974506Y-66980000D01*
X90525494Y-66980000D01*
X91034540Y-66769147D01*
X91424147Y-66379540D01*
X91520000Y-66148130D01*
X91615853Y-66379540D01*
X92005460Y-66769147D01*
X92514506Y-66980000D01*
X93065494Y-66980000D01*
X93574540Y-66769147D01*
X93964147Y-66379540D01*
X94098396Y-66055431D01*
X137915000Y-66055431D01*
X137915000Y-66944569D01*
X138255259Y-67766026D01*
X138883974Y-68394741D01*
X139705431Y-68735000D01*
X140594569Y-68735000D01*
X141416026Y-68394741D01*
X142044741Y-67766026D01*
X142385000Y-66944569D01*
X142385000Y-66055431D01*
X142044741Y-65233974D01*
X141416026Y-64605259D01*
X140594569Y-64265000D01*
X139705431Y-64265000D01*
X138883974Y-64605259D01*
X138255259Y-65233974D01*
X137915000Y-66055431D01*
X94098396Y-66055431D01*
X94175000Y-65870494D01*
X94175000Y-65319506D01*
X93964147Y-64810460D01*
X93574540Y-64420853D01*
X93065494Y-64210000D01*
X92514506Y-64210000D01*
X92005460Y-64420853D01*
X91615853Y-64810460D01*
X91520000Y-65041870D01*
X91424147Y-64810460D01*
X91034540Y-64420853D01*
X90525494Y-64210000D01*
X89974506Y-64210000D01*
X89465460Y-64420853D01*
X89075853Y-64810460D01*
X88986603Y-65025930D01*
X88922460Y-64871077D01*
X88681517Y-64803088D01*
X87889605Y-65595000D01*
X87530395Y-65595000D01*
X86738483Y-64803088D01*
X86497540Y-64871077D01*
X86438255Y-65037658D01*
X86344147Y-64810460D01*
X86157170Y-64623483D01*
X86918088Y-64623483D01*
X87710000Y-65415395D01*
X88501912Y-64623483D01*
X88433923Y-64382540D01*
X87914829Y-64197799D01*
X87364552Y-64225770D01*
X86986077Y-64382540D01*
X86918088Y-64623483D01*
X86157170Y-64623483D01*
X85954540Y-64420853D01*
X85445494Y-64210000D01*
X84894506Y-64210000D01*
X84385460Y-64420853D01*
X83995853Y-64810460D01*
X83785000Y-65319506D01*
X61780170Y-65319506D01*
X61744741Y-65233974D01*
X61116026Y-64605259D01*
X60294569Y-64265000D01*
X59405431Y-64265000D01*
X58583974Y-64605259D01*
X57955259Y-65233974D01*
X57615000Y-66055431D01*
X50127000Y-66055431D01*
X50127000Y-52905431D01*
X51115000Y-52905431D01*
X51115000Y-53794569D01*
X51455259Y-54616026D01*
X52083974Y-55244741D01*
X52905431Y-55585000D01*
X53794569Y-55585000D01*
X54616026Y-55244741D01*
X55244741Y-54616026D01*
X55585000Y-53794569D01*
X55585000Y-52905431D01*
X144415000Y-52905431D01*
X144415000Y-53794569D01*
X144755259Y-54616026D01*
X145383974Y-55244741D01*
X146205431Y-55585000D01*
X147094569Y-55585000D01*
X147916026Y-55244741D01*
X148544741Y-54616026D01*
X148885000Y-53794569D01*
X148885000Y-52905431D01*
X148544741Y-52083974D01*
X147916026Y-51455259D01*
X147094569Y-51115000D01*
X146205431Y-51115000D01*
X145383974Y-51455259D01*
X144755259Y-52083974D01*
X144415000Y-52905431D01*
X55585000Y-52905431D01*
X55244741Y-52083974D01*
X54616026Y-51455259D01*
X53794569Y-51115000D01*
X52905431Y-51115000D01*
X52083974Y-51455259D01*
X51455259Y-52083974D01*
X51115000Y-52905431D01*
X50127000Y-52905431D01*
X50127000Y-50207000D01*
X149813000Y-50207000D01*
X149813000Y-149822924D01*
X149813000Y-149822924D01*
G37*
X149813000Y-149822924D02*
X50127000Y-149763076D01*
X50127000Y-146205431D01*
X51115000Y-146205431D01*
X51115000Y-147094569D01*
X51455259Y-147916026D01*
X52083974Y-148544741D01*
X52905431Y-148885000D01*
X53794569Y-148885000D01*
X54616026Y-148544741D01*
X55244741Y-147916026D01*
X55284706Y-147819542D01*
X82266000Y-147819542D01*
X82266000Y-148310458D01*
X82453866Y-148764005D01*
X82800995Y-149111134D01*
X83254542Y-149299000D01*
X83745458Y-149299000D01*
X84199005Y-149111134D01*
X84546134Y-148764005D01*
X84734000Y-148310458D01*
X84734000Y-147819542D01*
X84546134Y-147365995D01*
X84199005Y-147018866D01*
X83745458Y-146831000D01*
X83254542Y-146831000D01*
X82800995Y-147018866D01*
X82453866Y-147365995D01*
X82266000Y-147819542D01*
X55284706Y-147819542D01*
X55585000Y-147094569D01*
X55585000Y-146205431D01*
X55244741Y-145383974D01*
X54786767Y-144926000D01*
X79713560Y-144926000D01*
X79713560Y-146124000D01*
X79762843Y-146371765D01*
X79903191Y-146581809D01*
X80113235Y-146722157D01*
X80361000Y-146771440D01*
X81559000Y-146771440D01*
X81806765Y-146722157D01*
X82016809Y-146581809D01*
X82157157Y-146371765D01*
X82206440Y-146124000D01*
X82206440Y-145279542D01*
X84806000Y-145279542D01*
X84806000Y-145770458D01*
X84993866Y-146224005D01*
X85340995Y-146571134D01*
X85794542Y-146759000D01*
X86285458Y-146759000D01*
X86739005Y-146571134D01*
X87086134Y-146224005D01*
X87093827Y-146205431D01*
X144415000Y-146205431D01*
X144415000Y-147094569D01*
X144755259Y-147916026D01*
X145383974Y-148544741D01*
X146205431Y-148885000D01*
X147094569Y-148885000D01*
X147916026Y-148544741D01*
X148544741Y-147916026D01*
X148885000Y-147094569D01*
X148885000Y-146205431D01*
X148544741Y-145383974D01*
X147916026Y-144755259D01*
X147094569Y-144415000D01*
X146205431Y-144415000D01*
X145383974Y-144755259D01*
X144755259Y-145383974D01*
X144415000Y-146205431D01*
X87093827Y-146205431D01*
X87274000Y-145770458D01*
X87274000Y-145279542D01*
X87086134Y-144825995D01*
X86739005Y-144478866D01*
X86285458Y-144291000D01*
X85794542Y-144291000D01*
X85340995Y-144478866D01*
X84993866Y-144825995D01*
X84806000Y-145279542D01*
X82206440Y-145279542D01*
X82206440Y-144926000D01*
X82157157Y-144678235D01*
X82016809Y-144468191D01*
X81806765Y-144327843D01*
X81559000Y-144278560D01*
X80361000Y-144278560D01*
X80113235Y-144327843D01*
X79903191Y-144468191D01*
X79762843Y-144678235D01*
X79713560Y-144926000D01*
X54786767Y-144926000D01*
X54616026Y-144755259D01*
X53794569Y-144415000D01*
X52905431Y-144415000D01*
X52083974Y-144755259D01*
X51455259Y-145383974D01*
X51115000Y-146205431D01*
X50127000Y-146205431D01*
X50127000Y-139698077D01*
X70113834Y-139698077D01*
X70113834Y-140547433D01*
X70438868Y-141332135D01*
X71039454Y-141932721D01*
X71824156Y-142257755D01*
X72673512Y-142257755D01*
X73458214Y-141932721D01*
X74058800Y-141332135D01*
X74383834Y-140547433D01*
X74383834Y-140408505D01*
X76212934Y-140408505D01*
X76212934Y-141549065D01*
X76309607Y-141782454D01*
X76488236Y-141961082D01*
X76721625Y-142057755D01*
X77462184Y-142057755D01*
X77620934Y-141899005D01*
X77620934Y-140249755D01*
X76371684Y-140249755D01*
X76212934Y-140408505D01*
X74383834Y-140408505D01*
X74383834Y-139698077D01*
X74058800Y-138913375D01*
X73841870Y-138696445D01*
X76212934Y-138696445D01*
X76212934Y-139837005D01*
X76371684Y-139995755D01*
X77620934Y-139995755D01*
X77620934Y-139975755D01*
X77874934Y-139975755D01*
X77874934Y-139995755D01*
X77894934Y-139995755D01*
X77894934Y-140249755D01*
X77874934Y-140249755D01*
X77874934Y-141899005D01*
X78033684Y-142057755D01*
X78774243Y-142057755D01*
X79007632Y-141961082D01*
X79186261Y-141782454D01*
X79234823Y-141665216D01*
X79689008Y-141968693D01*
X80287934Y-142087827D01*
X80886861Y-141968693D01*
X81394607Y-141629428D01*
X81557934Y-141384991D01*
X81721262Y-141629428D01*
X82229008Y-141968693D01*
X82827934Y-142087827D01*
X83426861Y-141968693D01*
X83934607Y-141629428D01*
X84097934Y-141384991D01*
X84261262Y-141629428D01*
X84769008Y-141968693D01*
X85367934Y-142087827D01*
X85966861Y-141968693D01*
X86474607Y-141629428D01*
X86649637Y-141367478D01*
X86912328Y-141697967D01*
X87437848Y-141989511D01*
X87543194Y-142013791D01*
X87780934Y-141893133D01*
X87780934Y-140249755D01*
X87760934Y-140249755D01*
X87760934Y-139995755D01*
X87780934Y-139995755D01*
X87780934Y-138352377D01*
X88034934Y-138352377D01*
X88034934Y-139995755D01*
X88054934Y-139995755D01*
X88054934Y-140249755D01*
X88034934Y-140249755D01*
X88034934Y-141893133D01*
X88272674Y-142013791D01*
X88378020Y-141989511D01*
X88903540Y-141697967D01*
X89166232Y-141367477D01*
X89341262Y-141629428D01*
X89849008Y-141968693D01*
X90447934Y-142087827D01*
X91046861Y-141968693D01*
X91554607Y-141629428D01*
X91717934Y-141384991D01*
X91881262Y-141629428D01*
X92389008Y-141968693D01*
X92987934Y-142087827D01*
X93586861Y-141968693D01*
X94094607Y-141629428D01*
X94257934Y-141384991D01*
X94421262Y-141629428D01*
X94929008Y-141968693D01*
X95527934Y-142087827D01*
X96126861Y-141968693D01*
X96634607Y-141629428D01*
X96797934Y-141384991D01*
X96961262Y-141629428D01*
X97469008Y-141968693D01*
X98067934Y-142087827D01*
X98666861Y-141968693D01*
X99174607Y-141629428D01*
X99337934Y-141384991D01*
X99501262Y-141629428D01*
X100009008Y-141968693D01*
X100607934Y-142087827D01*
X101206861Y-141968693D01*
X101714607Y-141629428D01*
X101877934Y-141384991D01*
X102041262Y-141629428D01*
X102549008Y-141968693D01*
X103147934Y-142087827D01*
X103746861Y-141968693D01*
X104254607Y-141629428D01*
X104417934Y-141384991D01*
X104581262Y-141629428D01*
X105089008Y-141968693D01*
X105687934Y-142087827D01*
X106286861Y-141968693D01*
X106794607Y-141629428D01*
X106957934Y-141384991D01*
X107121262Y-141629428D01*
X107629008Y-141968693D01*
X108227934Y-142087827D01*
X108826861Y-141968693D01*
X109334607Y-141629428D01*
X109497934Y-141384991D01*
X109661262Y-141629428D01*
X110169008Y-141968693D01*
X110767934Y-142087827D01*
X111366861Y-141968693D01*
X111874607Y-141629428D01*
X112037934Y-141384991D01*
X112201262Y-141629428D01*
X112709008Y-141968693D01*
X113307934Y-142087827D01*
X113906861Y-141968693D01*
X114414607Y-141629428D01*
X114589637Y-141367478D01*
X114852328Y-141697967D01*
X115377848Y-141989511D01*
X115483194Y-142013791D01*
X115720934Y-141893133D01*
X115720934Y-140249755D01*
X115974934Y-140249755D01*
X115974934Y-141893133D01*
X116212674Y-142013791D01*
X116318020Y-141989511D01*
X116843540Y-141697967D01*
X117217488Y-141227507D01*
X117382934Y-140649755D01*
X117382934Y-140249755D01*
X115974934Y-140249755D01*
X115720934Y-140249755D01*
X115700934Y-140249755D01*
X115700934Y-139995755D01*
X115720934Y-139995755D01*
X115720934Y-138352377D01*
X115974934Y-138352377D01*
X115974934Y-139995755D01*
X117382934Y-139995755D01*
X117382934Y-139698077D01*
X145112934Y-139698077D01*
X145112934Y-140547433D01*
X145437968Y-141332135D01*
X146038554Y-141932721D01*
X146823256Y-142257755D01*
X147672612Y-142257755D01*
X148457314Y-141932721D01*
X149057900Y-141332135D01*
X149382934Y-140547433D01*
X149382934Y-139698077D01*
X149057900Y-138913375D01*
X148457314Y-138312789D01*
X147672612Y-137987755D01*
X146823256Y-137987755D01*
X146038554Y-138312789D01*
X145437968Y-138913375D01*
X145112934Y-139698077D01*
X117382934Y-139698077D01*
X117382934Y-139595755D01*
X117217488Y-139018003D01*
X116843540Y-138547543D01*
X116318020Y-138255999D01*
X116212674Y-138231719D01*
X115974934Y-138352377D01*
X115720934Y-138352377D01*
X115483194Y-138231719D01*
X115377848Y-138255999D01*
X114852328Y-138547543D01*
X114589637Y-138878032D01*
X114414607Y-138616082D01*
X113906860Y-138276817D01*
X113307934Y-138157683D01*
X112709007Y-138276817D01*
X112201261Y-138616082D01*
X112037934Y-138860518D01*
X111874607Y-138616082D01*
X111366860Y-138276817D01*
X110767934Y-138157683D01*
X110169007Y-138276817D01*
X109661261Y-138616082D01*
X109497934Y-138860518D01*
X109334607Y-138616082D01*
X108826860Y-138276817D01*
X108227934Y-138157683D01*
X107629007Y-138276817D01*
X107121261Y-138616082D01*
X106957934Y-138860518D01*
X106794607Y-138616082D01*
X106286860Y-138276817D01*
X105687934Y-138157683D01*
X105089007Y-138276817D01*
X104581261Y-138616082D01*
X104417934Y-138860518D01*
X104254607Y-138616082D01*
X103746860Y-138276817D01*
X103147934Y-138157683D01*
X102549007Y-138276817D01*
X102041261Y-138616082D01*
X101877934Y-138860518D01*
X101714607Y-138616082D01*
X101206860Y-138276817D01*
X100607934Y-138157683D01*
X100009007Y-138276817D01*
X99501261Y-138616082D01*
X99337934Y-138860518D01*
X99174607Y-138616082D01*
X98666860Y-138276817D01*
X98067934Y-138157683D01*
X97469007Y-138276817D01*
X96961261Y-138616082D01*
X96797934Y-138860518D01*
X96634607Y-138616082D01*
X96126860Y-138276817D01*
X95527934Y-138157683D01*
X94929007Y-138276817D01*
X94421261Y-138616082D01*
X94257934Y-138860518D01*
X94094607Y-138616082D01*
X93586860Y-138276817D01*
X92987934Y-138157683D01*
X92389007Y-138276817D01*
X91881261Y-138616082D01*
X91717934Y-138860518D01*
X91554607Y-138616082D01*
X91046860Y-138276817D01*
X90447934Y-138157683D01*
X89849007Y-138276817D01*
X89341261Y-138616082D01*
X89166232Y-138878033D01*
X88903540Y-138547543D01*
X88378020Y-138255999D01*
X88272674Y-138231719D01*
X88034934Y-138352377D01*
X87780934Y-138352377D01*
X87543194Y-138231719D01*
X87437848Y-138255999D01*
X86912328Y-138547543D01*
X86649637Y-138878032D01*
X86474607Y-138616082D01*
X85966860Y-138276817D01*
X85367934Y-138157683D01*
X84769007Y-138276817D01*
X84261261Y-138616082D01*
X84097934Y-138860518D01*
X83934607Y-138616082D01*
X83426860Y-138276817D01*
X82827934Y-138157683D01*
X82521423Y-138218652D01*
X82535000Y-138185874D01*
X82535000Y-137774126D01*
X82377431Y-137393720D01*
X82086280Y-137102569D01*
X81705874Y-136945000D01*
X81294126Y-136945000D01*
X80931993Y-137095000D01*
X78978007Y-137095000D01*
X78615874Y-136945000D01*
X78204126Y-136945000D01*
X77823720Y-137102569D01*
X77532569Y-137393720D01*
X77375000Y-137774126D01*
X77375000Y-138185874D01*
X77375779Y-138187755D01*
X76721625Y-138187755D01*
X76488236Y-138284428D01*
X76309607Y-138463056D01*
X76212934Y-138696445D01*
X73841870Y-138696445D01*
X73458214Y-138312789D01*
X72673512Y-137987755D01*
X71824156Y-137987755D01*
X71039454Y-138312789D01*
X70438868Y-138913375D01*
X70113834Y-139698077D01*
X50127000Y-139698077D01*
X50127000Y-135005000D01*
X59452560Y-135005000D01*
X59452560Y-136755000D01*
X59568449Y-137337613D01*
X59898472Y-137831528D01*
X60392387Y-138161551D01*
X60975000Y-138277440D01*
X62725000Y-138277440D01*
X63307613Y-138161551D01*
X63801528Y-137831528D01*
X64131551Y-137337613D01*
X64247440Y-136755000D01*
X64247440Y-136287577D01*
X96361548Y-136287577D01*
X96361548Y-136699325D01*
X96519117Y-137079731D01*
X96810268Y-137370882D01*
X97190674Y-137528451D01*
X97602422Y-137528451D01*
X97923369Y-137395511D01*
X97971537Y-137405092D01*
X98058698Y-137387755D01*
X107760773Y-137387755D01*
X107847934Y-137405092D01*
X107935095Y-137387755D01*
X107935099Y-137387755D01*
X108193244Y-137336407D01*
X108485983Y-137140804D01*
X108535359Y-137066908D01*
X108782082Y-136820186D01*
X109144214Y-136670186D01*
X109435365Y-136379035D01*
X109592934Y-135998629D01*
X109592934Y-135586881D01*
X109435365Y-135206475D01*
X109144214Y-134915324D01*
X108763808Y-134757755D01*
X108352060Y-134757755D01*
X107971654Y-134915324D01*
X107680503Y-135206475D01*
X107530503Y-135568607D01*
X107481356Y-135617755D01*
X98096173Y-135617755D01*
X98049398Y-135608451D01*
X98049394Y-135608451D01*
X97962233Y-135591114D01*
X97935525Y-135596426D01*
X97602422Y-135458451D01*
X97190674Y-135458451D01*
X96810268Y-135616020D01*
X96519117Y-135907171D01*
X96361548Y-136287577D01*
X64247440Y-136287577D01*
X64247440Y-135005000D01*
X64131551Y-134422387D01*
X63801528Y-133928472D01*
X63307613Y-133598449D01*
X63201994Y-133577440D01*
X66600000Y-133577440D01*
X66847765Y-133528157D01*
X67057809Y-133387809D01*
X67198157Y-133177765D01*
X67247440Y-132930000D01*
X67247440Y-131264126D01*
X95505000Y-131264126D01*
X95505000Y-131675874D01*
X95662569Y-132056280D01*
X95953720Y-132347431D01*
X96334126Y-132505000D01*
X96745874Y-132505000D01*
X97108007Y-132355000D01*
X97792839Y-132355000D01*
X97880000Y-132372337D01*
X97967161Y-132355000D01*
X97967165Y-132355000D01*
X98108931Y-132326801D01*
X98052790Y-132462338D01*
X98052790Y-132874086D01*
X98210359Y-133254492D01*
X98501510Y-133545643D01*
X98881916Y-133703212D01*
X99293664Y-133703212D01*
X99655797Y-133553212D01*
X102426875Y-133553212D01*
X102536411Y-133575000D01*
X102536415Y-133575000D01*
X102623576Y-133592337D01*
X102710737Y-133575000D01*
X103781993Y-133575000D01*
X104144126Y-133725000D01*
X104555874Y-133725000D01*
X104936280Y-133567431D01*
X105227431Y-133276280D01*
X105385000Y-132895874D01*
X105385000Y-132484126D01*
X105227431Y-132103720D01*
X104936280Y-131812569D01*
X104842615Y-131773772D01*
X104845000Y-131761783D01*
X104845000Y-126138217D01*
X104779146Y-125807145D01*
X104528289Y-125431711D01*
X104152854Y-125180854D01*
X103710000Y-125092765D01*
X103267145Y-125180854D01*
X102891711Y-125431711D01*
X102640854Y-125807146D01*
X102575000Y-126138218D01*
X102575000Y-126703903D01*
X102575001Y-131761783D01*
X102576803Y-131770845D01*
X102514627Y-131783212D01*
X99655797Y-131783212D01*
X99293664Y-131633212D01*
X99101612Y-131633212D01*
X99236280Y-131577431D01*
X99527431Y-131286280D01*
X99685000Y-130905874D01*
X99685000Y-130494126D01*
X99527431Y-130113720D01*
X99236280Y-129822569D01*
X98855874Y-129665000D01*
X98444126Y-129665000D01*
X98063720Y-129822569D01*
X97772569Y-130113720D01*
X97622569Y-130475852D01*
X97513422Y-130585000D01*
X97108007Y-130585000D01*
X96745874Y-130435000D01*
X96334126Y-130435000D01*
X95953720Y-130592569D01*
X95662569Y-130883720D01*
X95505000Y-131264126D01*
X67247440Y-131264126D01*
X67247440Y-129430000D01*
X67198157Y-129182235D01*
X67057809Y-128972191D01*
X66847765Y-128831843D01*
X66600000Y-128782560D01*
X63100000Y-128782560D01*
X62852235Y-128831843D01*
X62642191Y-128972191D01*
X62501843Y-129182235D01*
X62452560Y-129430000D01*
X62452560Y-132930000D01*
X62501843Y-133177765D01*
X62642191Y-133387809D01*
X62809001Y-133499269D01*
X62725000Y-133482560D01*
X60975000Y-133482560D01*
X60392387Y-133598449D01*
X59898472Y-133928472D01*
X59568449Y-134422387D01*
X59452560Y-135005000D01*
X50127000Y-135005000D01*
X50127000Y-131465750D01*
X56715000Y-131465750D01*
X56715000Y-133056310D01*
X56811673Y-133289699D01*
X56990302Y-133468327D01*
X57223691Y-133565000D01*
X58564250Y-133565000D01*
X58723000Y-133406250D01*
X58723000Y-131307000D01*
X58977000Y-131307000D01*
X58977000Y-133406250D01*
X59135750Y-133565000D01*
X60476309Y-133565000D01*
X60709698Y-133468327D01*
X60888327Y-133289699D01*
X60985000Y-133056310D01*
X60985000Y-131465750D01*
X60826250Y-131307000D01*
X58977000Y-131307000D01*
X58723000Y-131307000D01*
X56873750Y-131307000D01*
X56715000Y-131465750D01*
X50127000Y-131465750D01*
X50127000Y-129303690D01*
X56715000Y-129303690D01*
X56715000Y-130894250D01*
X56873750Y-131053000D01*
X58723000Y-131053000D01*
X58723000Y-128953750D01*
X58977000Y-128953750D01*
X58977000Y-131053000D01*
X60826250Y-131053000D01*
X60985000Y-130894250D01*
X60985000Y-129303690D01*
X60888327Y-129070301D01*
X60709698Y-128891673D01*
X60476309Y-128795000D01*
X59135750Y-128795000D01*
X58977000Y-128953750D01*
X58723000Y-128953750D01*
X58564250Y-128795000D01*
X57223691Y-128795000D01*
X56990302Y-128891673D01*
X56811673Y-129070301D01*
X56715000Y-129303690D01*
X50127000Y-129303690D01*
X50127000Y-123290000D01*
X51655908Y-123290000D01*
X51771161Y-123869418D01*
X52099375Y-124360625D01*
X52590582Y-124688839D01*
X53023744Y-124775000D01*
X53316256Y-124775000D01*
X53749418Y-124688839D01*
X54240625Y-124360625D01*
X54440000Y-124062239D01*
X54639375Y-124360625D01*
X55130582Y-124688839D01*
X55563744Y-124775000D01*
X55856256Y-124775000D01*
X56289418Y-124688839D01*
X56780625Y-124360625D01*
X56980000Y-124062239D01*
X57179375Y-124360625D01*
X57670582Y-124688839D01*
X58103744Y-124775000D01*
X58396256Y-124775000D01*
X58829418Y-124688839D01*
X59320625Y-124360625D01*
X59520000Y-124062239D01*
X59719375Y-124360625D01*
X60210582Y-124688839D01*
X60643744Y-124775000D01*
X60936256Y-124775000D01*
X61369418Y-124688839D01*
X61860625Y-124360625D01*
X62060000Y-124062239D01*
X62259375Y-124360625D01*
X62750582Y-124688839D01*
X63183744Y-124775000D01*
X63476256Y-124775000D01*
X63909418Y-124688839D01*
X64400625Y-124360625D01*
X64415096Y-124338967D01*
X64481673Y-124499698D01*
X64660301Y-124678327D01*
X64893690Y-124775000D01*
X65584250Y-124775000D01*
X65743000Y-124616250D01*
X65743000Y-123417000D01*
X65997000Y-123417000D01*
X65997000Y-124616250D01*
X66155750Y-124775000D01*
X66846310Y-124775000D01*
X67079699Y-124678327D01*
X67258327Y-124499698D01*
X67355000Y-124266309D01*
X67355000Y-123575750D01*
X67196250Y-123417000D01*
X65997000Y-123417000D01*
X65743000Y-123417000D01*
X65723000Y-123417000D01*
X65723000Y-123163000D01*
X65743000Y-123163000D01*
X65743000Y-121963750D01*
X65997000Y-121963750D01*
X65997000Y-123163000D01*
X67196250Y-123163000D01*
X67355000Y-123004250D01*
X67355000Y-122313691D01*
X67258327Y-122080302D01*
X67079699Y-121901673D01*
X66846310Y-121805000D01*
X66155750Y-121805000D01*
X65997000Y-121963750D01*
X65743000Y-121963750D01*
X65584250Y-121805000D01*
X64893690Y-121805000D01*
X64660301Y-121901673D01*
X64481673Y-122080302D01*
X64415096Y-122241033D01*
X64400625Y-122219375D01*
X63909418Y-121891161D01*
X63476256Y-121805000D01*
X63183744Y-121805000D01*
X62750582Y-121891161D01*
X62259375Y-122219375D01*
X62060000Y-122517761D01*
X61860625Y-122219375D01*
X61369418Y-121891161D01*
X60936256Y-121805000D01*
X60643744Y-121805000D01*
X60210582Y-121891161D01*
X59719375Y-122219375D01*
X59520000Y-122517761D01*
X59320625Y-122219375D01*
X58829418Y-121891161D01*
X58396256Y-121805000D01*
X58103744Y-121805000D01*
X57670582Y-121891161D01*
X57179375Y-122219375D01*
X56980000Y-122517761D01*
X56780625Y-122219375D01*
X56289418Y-121891161D01*
X55856256Y-121805000D01*
X55563744Y-121805000D01*
X55130582Y-121891161D01*
X54639375Y-122219375D01*
X54440000Y-122517761D01*
X54240625Y-122219375D01*
X53749418Y-121891161D01*
X53316256Y-121805000D01*
X53023744Y-121805000D01*
X52590582Y-121891161D01*
X52099375Y-122219375D01*
X51771161Y-122710582D01*
X51655908Y-123290000D01*
X50127000Y-123290000D01*
X50127000Y-116250458D01*
X56220000Y-116250458D01*
X56220000Y-117149542D01*
X56564065Y-117980187D01*
X57199813Y-118615935D01*
X58030458Y-118960000D01*
X58929542Y-118960000D01*
X59760187Y-118615935D01*
X60395935Y-117980187D01*
X60740000Y-117149542D01*
X60740000Y-116250458D01*
X60544618Y-115778764D01*
X64030841Y-115778764D01*
X64100059Y-116020742D01*
X64622780Y-116207155D01*
X65177049Y-116179341D01*
X65559941Y-116020742D01*
X65629159Y-115778764D01*
X64830000Y-114979605D01*
X64030841Y-115778764D01*
X60544618Y-115778764D01*
X60395935Y-115419813D01*
X59760187Y-114784065D01*
X59298385Y-114592780D01*
X63422845Y-114592780D01*
X63450659Y-115147049D01*
X63609258Y-115529941D01*
X63851236Y-115599159D01*
X64650395Y-114800000D01*
X65009605Y-114800000D01*
X65808764Y-115599159D01*
X66050742Y-115529941D01*
X66237155Y-115007220D01*
X66209341Y-114452951D01*
X66050742Y-114070059D01*
X65808764Y-114000841D01*
X65009605Y-114800000D01*
X64650395Y-114800000D01*
X63851236Y-114000841D01*
X63609258Y-114070059D01*
X63422845Y-114592780D01*
X59298385Y-114592780D01*
X58929542Y-114440000D01*
X58030458Y-114440000D01*
X57199813Y-114784065D01*
X56564065Y-115419813D01*
X56220000Y-116250458D01*
X50127000Y-116250458D01*
X50127000Y-113238764D01*
X64030841Y-113238764D01*
X64100059Y-113480742D01*
X64227863Y-113526320D01*
X64100059Y-113579258D01*
X64030841Y-113821236D01*
X64830000Y-114620395D01*
X65629159Y-113821236D01*
X65559941Y-113579258D01*
X65432137Y-113533680D01*
X65559941Y-113480742D01*
X65629159Y-113238764D01*
X64830000Y-112439605D01*
X64030841Y-113238764D01*
X50127000Y-113238764D01*
X50127000Y-112052780D01*
X63422845Y-112052780D01*
X63450659Y-112607049D01*
X63609258Y-112989941D01*
X63851236Y-113059159D01*
X64650395Y-112260000D01*
X65009605Y-112260000D01*
X65808764Y-113059159D01*
X66050742Y-112989941D01*
X66237155Y-112467220D01*
X66209341Y-111912951D01*
X66050742Y-111530059D01*
X65808764Y-111460841D01*
X65009605Y-112260000D01*
X64650395Y-112260000D01*
X63851236Y-111460841D01*
X63609258Y-111530059D01*
X63422845Y-112052780D01*
X50127000Y-112052780D01*
X50127000Y-109442517D01*
X63435000Y-109442517D01*
X63435000Y-109997483D01*
X63647376Y-110510204D01*
X64039796Y-110902624D01*
X64234859Y-110983422D01*
X64100059Y-111039258D01*
X64030841Y-111281236D01*
X64830000Y-112080395D01*
X65629159Y-111281236D01*
X65559941Y-111039258D01*
X65415069Y-110987594D01*
X65620204Y-110902624D01*
X66012624Y-110510204D01*
X66225000Y-109997483D01*
X66225000Y-109716459D01*
X66362235Y-109808157D01*
X66543049Y-109844123D01*
X66187376Y-110199796D01*
X65975000Y-110712517D01*
X65975000Y-111267483D01*
X66187376Y-111780204D01*
X66579796Y-112172624D01*
X66790740Y-112260000D01*
X66579796Y-112347376D01*
X66187376Y-112739796D01*
X65975000Y-113252517D01*
X65975000Y-113807483D01*
X66187376Y-114320204D01*
X66579796Y-114712624D01*
X67092517Y-114925000D01*
X67647483Y-114925000D01*
X68160204Y-114712624D01*
X68498702Y-114374126D01*
X89885000Y-114374126D01*
X89885000Y-114785874D01*
X90035001Y-115148009D01*
X90035000Y-121921993D01*
X89885000Y-122284126D01*
X89885000Y-122695874D01*
X90042569Y-123076280D01*
X90333720Y-123367431D01*
X90714126Y-123525000D01*
X91125874Y-123525000D01*
X91506280Y-123367431D01*
X91615000Y-123258711D01*
X91615000Y-124521782D01*
X91680854Y-124852854D01*
X91931711Y-125228289D01*
X92307145Y-125479146D01*
X92738759Y-125564999D01*
X90938218Y-125564999D01*
X90607146Y-125630853D01*
X90231712Y-125881710D01*
X89980855Y-126257144D01*
X89892766Y-126699999D01*
X89980855Y-127142854D01*
X90231712Y-127518288D01*
X90607146Y-127769145D01*
X90938218Y-127834999D01*
X93115000Y-127834999D01*
X93115000Y-128005874D01*
X93272569Y-128386280D01*
X93563720Y-128677431D01*
X93944126Y-128835000D01*
X94355874Y-128835000D01*
X94718007Y-128685000D01*
X96598252Y-128685000D01*
X96685413Y-128702337D01*
X96772574Y-128685000D01*
X96772578Y-128685000D01*
X97030723Y-128633652D01*
X97323462Y-128438049D01*
X97372838Y-128364153D01*
X101180683Y-124556308D01*
X105917182Y-124556308D01*
X105917182Y-124968056D01*
X106074751Y-125348462D01*
X106365902Y-125639613D01*
X106746308Y-125797182D01*
X107158056Y-125797182D01*
X107520189Y-125647182D01*
X109503471Y-125647182D01*
X109523720Y-125667431D01*
X109904126Y-125825000D01*
X110315874Y-125825000D01*
X110696280Y-125667431D01*
X110779504Y-125584207D01*
X110702765Y-125970000D01*
X110790854Y-126412855D01*
X111041711Y-126788289D01*
X111417145Y-127039146D01*
X111748217Y-127105000D01*
X112241031Y-127105000D01*
X112241031Y-127371905D01*
X112345119Y-127623196D01*
X112242566Y-127725749D01*
X112084997Y-128106155D01*
X112084997Y-128517903D01*
X112242566Y-128898309D01*
X112533717Y-129189460D01*
X112895850Y-129339460D01*
X113176062Y-129619673D01*
X113176062Y-129886936D01*
X113333631Y-130267342D01*
X113624782Y-130558493D01*
X114005188Y-130716062D01*
X114416936Y-130716062D01*
X114639700Y-130623790D01*
X114639700Y-130720831D01*
X114811778Y-131136264D01*
X115129736Y-131454222D01*
X115545169Y-131626300D01*
X115994831Y-131626300D01*
X116410264Y-131454222D01*
X116728222Y-131136264D01*
X116900300Y-130720831D01*
X116900300Y-130271169D01*
X116728222Y-129855736D01*
X116410264Y-129537778D01*
X116270776Y-129480000D01*
X116410264Y-129422222D01*
X116577317Y-129255169D01*
X119719700Y-129255169D01*
X119719700Y-129704831D01*
X119891778Y-130120264D01*
X120209736Y-130438222D01*
X120625169Y-130610300D01*
X121074831Y-130610300D01*
X121490264Y-130438222D01*
X121808222Y-130120264D01*
X121980300Y-129704831D01*
X121980300Y-129255169D01*
X121808222Y-128839736D01*
X121490264Y-128521778D01*
X121074831Y-128349700D01*
X120625169Y-128349700D01*
X120209736Y-128521778D01*
X119891778Y-128839736D01*
X119719700Y-129255169D01*
X116577317Y-129255169D01*
X116728222Y-129104264D01*
X116900300Y-128688831D01*
X116900300Y-128239169D01*
X116889836Y-128213907D01*
X117077431Y-128026312D01*
X117235000Y-127645906D01*
X117235000Y-127234158D01*
X117181501Y-127105000D01*
X118931417Y-127105000D01*
X119147146Y-127249146D01*
X119590000Y-127337235D01*
X120032854Y-127249146D01*
X120408288Y-126998288D01*
X120659146Y-126622854D01*
X120747235Y-126180000D01*
X120659146Y-125737146D01*
X120471608Y-125456477D01*
X120261613Y-125246482D01*
X120198289Y-125151711D01*
X119822855Y-124900854D01*
X119491783Y-124835000D01*
X119380000Y-124812765D01*
X119268217Y-124835000D01*
X111748217Y-124835000D01*
X111417145Y-124900854D01*
X111095275Y-125115921D01*
X111145000Y-124995874D01*
X111145000Y-124584126D01*
X110987431Y-124203720D01*
X110696280Y-123912569D01*
X110315874Y-123755000D01*
X109904126Y-123755000D01*
X109609152Y-123877182D01*
X107520189Y-123877182D01*
X107158056Y-123727182D01*
X106746308Y-123727182D01*
X106365902Y-123884751D01*
X106074751Y-124175902D01*
X105917182Y-124556308D01*
X101180683Y-124556308D01*
X102462489Y-123274503D01*
X102824620Y-123124504D01*
X103115771Y-122833353D01*
X103273340Y-122452947D01*
X103273340Y-122041199D01*
X103115771Y-121660793D01*
X102824620Y-121369642D01*
X102444214Y-121212073D01*
X102032466Y-121212073D01*
X101652060Y-121369642D01*
X101360909Y-121660793D01*
X101210910Y-122022924D01*
X100775000Y-122458834D01*
X100775000Y-120998217D01*
X100709146Y-120667145D01*
X100458289Y-120291711D01*
X100082854Y-120040854D01*
X99640000Y-119952765D01*
X99197145Y-120040854D01*
X99046426Y-120141561D01*
X99046426Y-118679331D01*
X99200895Y-118306409D01*
X99200895Y-117894661D01*
X99043326Y-117514255D01*
X98752175Y-117223104D01*
X98371769Y-117065535D01*
X97960021Y-117065535D01*
X97579615Y-117223104D01*
X97288464Y-117514255D01*
X97255486Y-117593871D01*
X97028349Y-117366734D01*
X96647943Y-117209165D01*
X96236195Y-117209165D01*
X95855789Y-117366734D01*
X95564638Y-117657885D01*
X95407069Y-118038291D01*
X95407069Y-118450039D01*
X95564638Y-118830445D01*
X95855789Y-119121596D01*
X96217922Y-119271596D01*
X96282935Y-119336609D01*
X96282934Y-122191993D01*
X96132934Y-122554126D01*
X96132934Y-122965874D01*
X96290503Y-123346280D01*
X96581654Y-123637431D01*
X96962060Y-123795000D01*
X97263219Y-123795000D01*
X95493221Y-125564999D01*
X92761241Y-125564999D01*
X93192854Y-125479146D01*
X93568289Y-125228289D01*
X93819146Y-124852855D01*
X93885000Y-124521783D01*
X93885000Y-116212328D01*
X93927235Y-116000001D01*
X93839145Y-115557146D01*
X93588288Y-115181712D01*
X93212854Y-114930855D01*
X92769999Y-114842765D01*
X92327146Y-114930855D01*
X92046477Y-115118392D01*
X92026480Y-115138389D01*
X91931712Y-115201711D01*
X91805000Y-115391348D01*
X91805000Y-115148007D01*
X91955000Y-114785874D01*
X91955000Y-114374126D01*
X91797431Y-113993720D01*
X91506280Y-113702569D01*
X91125874Y-113545000D01*
X90714126Y-113545000D01*
X90333720Y-113702569D01*
X90042569Y-113993720D01*
X89885000Y-114374126D01*
X68498702Y-114374126D01*
X68552624Y-114320204D01*
X68765000Y-113807483D01*
X68765000Y-113252517D01*
X68552624Y-112739796D01*
X68160204Y-112347376D01*
X67949260Y-112260000D01*
X68160204Y-112172624D01*
X68552624Y-111780204D01*
X68765000Y-111267483D01*
X68765000Y-110712517D01*
X68552624Y-110199796D01*
X68196951Y-109844123D01*
X68377765Y-109808157D01*
X68587809Y-109667809D01*
X68728157Y-109457765D01*
X68777440Y-109210000D01*
X68777440Y-108697377D01*
X70113834Y-108697377D01*
X70113834Y-109546733D01*
X70438868Y-110331435D01*
X71039454Y-110932021D01*
X71824156Y-111257055D01*
X72673512Y-111257055D01*
X73458214Y-110932021D01*
X74058800Y-110331435D01*
X74383834Y-109546733D01*
X74383834Y-108697377D01*
X145112414Y-108697377D01*
X145112414Y-109546733D01*
X145437448Y-110331435D01*
X146038034Y-110932021D01*
X146822736Y-111257055D01*
X147672092Y-111257055D01*
X148456794Y-110932021D01*
X149057380Y-110331435D01*
X149382414Y-109546733D01*
X149382414Y-108697377D01*
X149057380Y-107912675D01*
X148456794Y-107312089D01*
X147672092Y-106987055D01*
X146822736Y-106987055D01*
X146038034Y-107312089D01*
X145437448Y-107912675D01*
X145112414Y-108697377D01*
X74383834Y-108697377D01*
X74058800Y-107912675D01*
X73458214Y-107312089D01*
X72673512Y-106987055D01*
X71824156Y-106987055D01*
X71039454Y-107312089D01*
X70438868Y-107912675D01*
X70113834Y-108697377D01*
X68777440Y-108697377D01*
X68777440Y-107690000D01*
X68728157Y-107442235D01*
X68587809Y-107232191D01*
X68377765Y-107091843D01*
X68130000Y-107042560D01*
X66610000Y-107042560D01*
X66362235Y-107091843D01*
X66152191Y-107232191D01*
X66011843Y-107442235D01*
X65962560Y-107690000D01*
X65962560Y-108879732D01*
X65620204Y-108537376D01*
X65107483Y-108325000D01*
X64552517Y-108325000D01*
X64039796Y-108537376D01*
X63647376Y-108929796D01*
X63435000Y-109442517D01*
X50127000Y-109442517D01*
X50127000Y-106090458D01*
X56220000Y-106090458D01*
X56220000Y-106989542D01*
X56564065Y-107820187D01*
X57199813Y-108455935D01*
X58030458Y-108800000D01*
X58929542Y-108800000D01*
X59760187Y-108455935D01*
X60395935Y-107820187D01*
X60740000Y-106989542D01*
X60740000Y-106090458D01*
X60395935Y-105259813D01*
X59760187Y-104624065D01*
X58929542Y-104280000D01*
X58030458Y-104280000D01*
X57199813Y-104624065D01*
X56564065Y-105259813D01*
X56220000Y-106090458D01*
X50127000Y-106090458D01*
X50127000Y-93705431D01*
X57615000Y-93705431D01*
X57615000Y-94594569D01*
X57955259Y-95416026D01*
X58583974Y-96044741D01*
X59405431Y-96385000D01*
X60294569Y-96385000D01*
X61116026Y-96044741D01*
X61744741Y-95416026D01*
X62085000Y-94594569D01*
X62085000Y-93705431D01*
X61987482Y-93470000D01*
X66212560Y-93470000D01*
X66212560Y-94970000D01*
X66261843Y-95217765D01*
X66402191Y-95427809D01*
X66612235Y-95568157D01*
X66860000Y-95617440D01*
X68360000Y-95617440D01*
X68607765Y-95568157D01*
X68817809Y-95427809D01*
X68840000Y-95394598D01*
X68862191Y-95427809D01*
X69072235Y-95568157D01*
X69320000Y-95617440D01*
X70820000Y-95617440D01*
X71067765Y-95568157D01*
X71277809Y-95427809D01*
X71340000Y-95334734D01*
X71402191Y-95427809D01*
X71612235Y-95568157D01*
X71860000Y-95617440D01*
X73360000Y-95617440D01*
X73607765Y-95568157D01*
X73817809Y-95427809D01*
X73874676Y-95342702D01*
X74040302Y-95508327D01*
X74273691Y-95605000D01*
X74864250Y-95605000D01*
X75023000Y-95446250D01*
X75023000Y-94347000D01*
X75277000Y-94347000D01*
X75277000Y-95446250D01*
X75435750Y-95605000D01*
X76026309Y-95605000D01*
X76259698Y-95508327D01*
X76438327Y-95329699D01*
X76535000Y-95096310D01*
X76535000Y-94869506D01*
X83785000Y-94869506D01*
X83785000Y-95420494D01*
X83995853Y-95929540D01*
X84385460Y-96319147D01*
X84894506Y-96530000D01*
X85445494Y-96530000D01*
X85954540Y-96319147D01*
X86344147Y-95929540D01*
X86440000Y-95698130D01*
X86535853Y-95929540D01*
X86925460Y-96319147D01*
X87434506Y-96530000D01*
X87985494Y-96530000D01*
X88494540Y-96319147D01*
X88884147Y-95929540D01*
X88980000Y-95698130D01*
X89075853Y-95929540D01*
X89465460Y-96319147D01*
X89974506Y-96530000D01*
X90525494Y-96530000D01*
X91034540Y-96319147D01*
X91424147Y-95929540D01*
X91520000Y-95698130D01*
X91615853Y-95929540D01*
X92005460Y-96319147D01*
X92514506Y-96530000D01*
X93065494Y-96530000D01*
X93574540Y-96319147D01*
X93964147Y-95929540D01*
X94060000Y-95698130D01*
X94155853Y-95929540D01*
X94545460Y-96319147D01*
X95054506Y-96530000D01*
X95605494Y-96530000D01*
X96114540Y-96319147D01*
X96504147Y-95929540D01*
X96715000Y-95420494D01*
X96715000Y-94869506D01*
X96504147Y-94360460D01*
X96114540Y-93970853D01*
X95605494Y-93760000D01*
X95054506Y-93760000D01*
X94545460Y-93970853D01*
X94155853Y-94360460D01*
X94060000Y-94591870D01*
X93964147Y-94360460D01*
X93574540Y-93970853D01*
X93065494Y-93760000D01*
X92514506Y-93760000D01*
X92005460Y-93970853D01*
X91615853Y-94360460D01*
X91520000Y-94591870D01*
X91424147Y-94360460D01*
X91034540Y-93970853D01*
X90525494Y-93760000D01*
X89974506Y-93760000D01*
X89465460Y-93970853D01*
X89075853Y-94360460D01*
X88980000Y-94591870D01*
X88884147Y-94360460D01*
X88494540Y-93970853D01*
X87985494Y-93760000D01*
X87434506Y-93760000D01*
X86925460Y-93970853D01*
X86535853Y-94360460D01*
X86440000Y-94591870D01*
X86344147Y-94360460D01*
X85954540Y-93970853D01*
X85445494Y-93760000D01*
X84894506Y-93760000D01*
X84385460Y-93970853D01*
X83995853Y-94360460D01*
X83785000Y-94869506D01*
X76535000Y-94869506D01*
X76535000Y-94505750D01*
X76376250Y-94347000D01*
X75277000Y-94347000D01*
X75023000Y-94347000D01*
X75003000Y-94347000D01*
X75003000Y-94093000D01*
X75023000Y-94093000D01*
X75023000Y-92993750D01*
X75277000Y-92993750D01*
X75277000Y-94093000D01*
X76376250Y-94093000D01*
X76535000Y-93934250D01*
X76535000Y-93705431D01*
X137915000Y-93705431D01*
X137915000Y-94594569D01*
X138255259Y-95416026D01*
X138883974Y-96044741D01*
X139705431Y-96385000D01*
X140594569Y-96385000D01*
X141416026Y-96044741D01*
X142044741Y-95416026D01*
X142385000Y-94594569D01*
X142385000Y-93705431D01*
X142044741Y-92883974D01*
X141416026Y-92255259D01*
X140594569Y-91915000D01*
X139705431Y-91915000D01*
X138883974Y-92255259D01*
X138255259Y-92883974D01*
X137915000Y-93705431D01*
X76535000Y-93705431D01*
X76535000Y-93343690D01*
X76438327Y-93110301D01*
X76259698Y-92931673D01*
X76026309Y-92835000D01*
X75435750Y-92835000D01*
X75277000Y-92993750D01*
X75023000Y-92993750D01*
X74864250Y-92835000D01*
X74273691Y-92835000D01*
X74040302Y-92931673D01*
X73874676Y-93097298D01*
X73817809Y-93012191D01*
X73607765Y-92871843D01*
X73360000Y-92822560D01*
X71860000Y-92822560D01*
X71612235Y-92871843D01*
X71402191Y-93012191D01*
X71340000Y-93105266D01*
X71277809Y-93012191D01*
X71067765Y-92871843D01*
X70820000Y-92822560D01*
X69320000Y-92822560D01*
X69072235Y-92871843D01*
X68862191Y-93012191D01*
X68840000Y-93045402D01*
X68817809Y-93012191D01*
X68607765Y-92871843D01*
X68360000Y-92822560D01*
X66860000Y-92822560D01*
X66612235Y-92871843D01*
X66402191Y-93012191D01*
X66261843Y-93222235D01*
X66212560Y-93470000D01*
X61987482Y-93470000D01*
X61744741Y-92883974D01*
X61116026Y-92255259D01*
X60294569Y-91915000D01*
X59405431Y-91915000D01*
X58583974Y-92255259D01*
X57955259Y-92883974D01*
X57615000Y-93705431D01*
X50127000Y-93705431D01*
X50127000Y-89240754D01*
X108400000Y-89240754D01*
X108400000Y-89919245D01*
X108467305Y-90257608D01*
X108723687Y-90641313D01*
X109107391Y-90897695D01*
X109560000Y-90987725D01*
X110012608Y-90897695D01*
X110195000Y-90775825D01*
X110377391Y-90897695D01*
X110830000Y-90987725D01*
X111282608Y-90897695D01*
X111283984Y-90896776D01*
X111448691Y-90965000D01*
X111814250Y-90965000D01*
X111973000Y-90806250D01*
X111973000Y-90004710D01*
X111990000Y-89919246D01*
X111990000Y-89707000D01*
X112227000Y-89707000D01*
X112227000Y-90806250D01*
X112385750Y-90965000D01*
X112751309Y-90965000D01*
X112984698Y-90868327D01*
X113163327Y-90689699D01*
X113260000Y-90456310D01*
X113260000Y-89865750D01*
X113101250Y-89707000D01*
X112227000Y-89707000D01*
X111990000Y-89707000D01*
X111990000Y-89240755D01*
X111973000Y-89155291D01*
X111973000Y-88353750D01*
X112227000Y-88353750D01*
X112227000Y-89453000D01*
X113101250Y-89453000D01*
X113260000Y-89294250D01*
X113260000Y-88703690D01*
X113163327Y-88470301D01*
X112984698Y-88291673D01*
X112751309Y-88195000D01*
X112385750Y-88195000D01*
X112227000Y-88353750D01*
X111973000Y-88353750D01*
X111814250Y-88195000D01*
X111448691Y-88195000D01*
X111283984Y-88263224D01*
X111282609Y-88262305D01*
X110830000Y-88172275D01*
X110377392Y-88262305D01*
X110195001Y-88384175D01*
X110012609Y-88262305D01*
X109560000Y-88172275D01*
X109107392Y-88262305D01*
X108723688Y-88518687D01*
X108467305Y-88902391D01*
X108400000Y-89240754D01*
X50127000Y-89240754D01*
X50127000Y-87923528D01*
X125826250Y-87923528D01*
X125826250Y-88573972D01*
X126075164Y-89174903D01*
X126535097Y-89634836D01*
X127136028Y-89883750D01*
X127786472Y-89883750D01*
X128387403Y-89634836D01*
X128847336Y-89174903D01*
X129068900Y-88640000D01*
X129172560Y-88640000D01*
X129172560Y-90640000D01*
X129221843Y-90887765D01*
X129362191Y-91097809D01*
X129572235Y-91238157D01*
X129820000Y-91287440D01*
X131820000Y-91287440D01*
X132067765Y-91238157D01*
X132277809Y-91097809D01*
X132418157Y-90887765D01*
X132467440Y-90640000D01*
X132467440Y-88640000D01*
X132418157Y-88392235D01*
X132277809Y-88182191D01*
X132067765Y-88041843D01*
X131820000Y-87992560D01*
X129820000Y-87992560D01*
X129572235Y-88041843D01*
X129362191Y-88182191D01*
X129221843Y-88392235D01*
X129172560Y-88640000D01*
X129068900Y-88640000D01*
X129096250Y-88573972D01*
X129096250Y-87923528D01*
X132543750Y-87923528D01*
X132543750Y-88573972D01*
X132792664Y-89174903D01*
X133252597Y-89634836D01*
X133853528Y-89883750D01*
X134503972Y-89883750D01*
X135104903Y-89634836D01*
X135564836Y-89174903D01*
X135813750Y-88573972D01*
X135813750Y-87923528D01*
X135564836Y-87322597D01*
X135104903Y-86862664D01*
X134503972Y-86613750D01*
X133853528Y-86613750D01*
X133252597Y-86862664D01*
X132792664Y-87322597D01*
X132543750Y-87923528D01*
X129096250Y-87923528D01*
X128847336Y-87322597D01*
X128387403Y-86862664D01*
X127786472Y-86613750D01*
X127136028Y-86613750D01*
X126535097Y-86862664D01*
X126075164Y-87322597D01*
X125826250Y-87923528D01*
X50127000Y-87923528D01*
X50127000Y-81206028D01*
X125826250Y-81206028D01*
X125826250Y-81856472D01*
X126075164Y-82457403D01*
X126535097Y-82917336D01*
X127136028Y-83166250D01*
X127786472Y-83166250D01*
X128387403Y-82917336D01*
X128847336Y-82457403D01*
X129096250Y-81856472D01*
X129096250Y-81206028D01*
X128847336Y-80605097D01*
X128387403Y-80145164D01*
X127786472Y-79896250D01*
X127136028Y-79896250D01*
X126535097Y-80145164D01*
X126075164Y-80605097D01*
X125826250Y-81206028D01*
X50127000Y-81206028D01*
X50127000Y-77083528D01*
X108346250Y-77083528D01*
X108346250Y-77733972D01*
X108595164Y-78334903D01*
X109055097Y-78794836D01*
X109656028Y-79043750D01*
X110306472Y-79043750D01*
X110907403Y-78794836D01*
X111367336Y-78334903D01*
X111588900Y-77800000D01*
X111692560Y-77800000D01*
X111692560Y-79800000D01*
X111741843Y-80047765D01*
X111882191Y-80257809D01*
X112092235Y-80398157D01*
X112340000Y-80447440D01*
X114340000Y-80447440D01*
X114587765Y-80398157D01*
X114797809Y-80257809D01*
X114938157Y-80047765D01*
X114984500Y-79814778D01*
X129185000Y-79814778D01*
X129185000Y-80465222D01*
X129433914Y-81066153D01*
X129893847Y-81526086D01*
X130494778Y-81775000D01*
X131145222Y-81775000D01*
X131746153Y-81526086D01*
X132066211Y-81206028D01*
X132543750Y-81206028D01*
X132543750Y-81856472D01*
X132792664Y-82457403D01*
X133252597Y-82917336D01*
X133853528Y-83166250D01*
X134503972Y-83166250D01*
X135104903Y-82917336D01*
X135564836Y-82457403D01*
X135813750Y-81856472D01*
X135813750Y-81206028D01*
X135564836Y-80605097D01*
X135104903Y-80145164D01*
X134503972Y-79896250D01*
X133853528Y-79896250D01*
X133252597Y-80145164D01*
X132792664Y-80605097D01*
X132543750Y-81206028D01*
X132066211Y-81206028D01*
X132206086Y-81066153D01*
X132455000Y-80465222D01*
X132455000Y-79814778D01*
X132206086Y-79213847D01*
X131746153Y-78753914D01*
X131145222Y-78505000D01*
X130494778Y-78505000D01*
X129893847Y-78753914D01*
X129433914Y-79213847D01*
X129185000Y-79814778D01*
X114984500Y-79814778D01*
X114987440Y-79800000D01*
X114987440Y-77800000D01*
X114938157Y-77552235D01*
X114797809Y-77342191D01*
X114587765Y-77201843D01*
X114340000Y-77152560D01*
X112340000Y-77152560D01*
X112092235Y-77201843D01*
X111882191Y-77342191D01*
X111741843Y-77552235D01*
X111692560Y-77800000D01*
X111588900Y-77800000D01*
X111616250Y-77733972D01*
X111616250Y-77083528D01*
X115063750Y-77083528D01*
X115063750Y-77733972D01*
X115312664Y-78334903D01*
X115772597Y-78794836D01*
X116373528Y-79043750D01*
X117023972Y-79043750D01*
X117624903Y-78794836D01*
X118084836Y-78334903D01*
X118333750Y-77733972D01*
X118333750Y-77083528D01*
X118084836Y-76482597D01*
X117624903Y-76022664D01*
X117023972Y-75773750D01*
X116373528Y-75773750D01*
X115772597Y-76022664D01*
X115312664Y-76482597D01*
X115063750Y-77083528D01*
X111616250Y-77083528D01*
X111367336Y-76482597D01*
X110907403Y-76022664D01*
X110306472Y-75773750D01*
X109656028Y-75773750D01*
X109055097Y-76022664D01*
X108595164Y-76482597D01*
X108346250Y-77083528D01*
X50127000Y-77083528D01*
X50127000Y-70366028D01*
X108346250Y-70366028D01*
X108346250Y-71016472D01*
X108595164Y-71617403D01*
X109055097Y-72077336D01*
X109656028Y-72326250D01*
X110306472Y-72326250D01*
X110907403Y-72077336D01*
X111367336Y-71617403D01*
X111616250Y-71016472D01*
X111616250Y-70366028D01*
X111367336Y-69765097D01*
X110907403Y-69305164D01*
X110306472Y-69056250D01*
X109656028Y-69056250D01*
X109055097Y-69305164D01*
X108595164Y-69765097D01*
X108346250Y-70366028D01*
X50127000Y-70366028D01*
X50127000Y-68974778D01*
X111705000Y-68974778D01*
X111705000Y-69625222D01*
X111953914Y-70226153D01*
X112413847Y-70686086D01*
X113014778Y-70935000D01*
X113665222Y-70935000D01*
X114266153Y-70686086D01*
X114586211Y-70366028D01*
X115063750Y-70366028D01*
X115063750Y-71016472D01*
X115312664Y-71617403D01*
X115772597Y-72077336D01*
X116373528Y-72326250D01*
X117023972Y-72326250D01*
X117624903Y-72077336D01*
X118084836Y-71617403D01*
X118333750Y-71016472D01*
X118333750Y-70366028D01*
X118084836Y-69765097D01*
X117624903Y-69305164D01*
X117023972Y-69056250D01*
X116373528Y-69056250D01*
X115772597Y-69305164D01*
X115312664Y-69765097D01*
X115063750Y-70366028D01*
X114586211Y-70366028D01*
X114726086Y-70226153D01*
X114975000Y-69625222D01*
X114975000Y-68974778D01*
X114726086Y-68373847D01*
X114266153Y-67913914D01*
X113665222Y-67665000D01*
X113014778Y-67665000D01*
X112413847Y-67913914D01*
X111953914Y-68373847D01*
X111705000Y-68974778D01*
X50127000Y-68974778D01*
X50127000Y-66055431D01*
X57615000Y-66055431D01*
X57615000Y-66944569D01*
X57955259Y-67766026D01*
X58583974Y-68394741D01*
X59405431Y-68735000D01*
X60294569Y-68735000D01*
X61116026Y-68394741D01*
X61744741Y-67766026D01*
X62085000Y-66944569D01*
X62085000Y-66055431D01*
X61780170Y-65319506D01*
X83785000Y-65319506D01*
X83785000Y-65870494D01*
X83995853Y-66379540D01*
X84385460Y-66769147D01*
X84894506Y-66980000D01*
X85445494Y-66980000D01*
X85954540Y-66769147D01*
X86157170Y-66566517D01*
X86918088Y-66566517D01*
X86986077Y-66807460D01*
X87505171Y-66992201D01*
X88055448Y-66964230D01*
X88433923Y-66807460D01*
X88501912Y-66566517D01*
X87710000Y-65774605D01*
X86918088Y-66566517D01*
X86157170Y-66566517D01*
X86344147Y-66379540D01*
X86433397Y-66164070D01*
X86497540Y-66318923D01*
X86738483Y-66386912D01*
X87530395Y-65595000D01*
X87889605Y-65595000D01*
X88681517Y-66386912D01*
X88922460Y-66318923D01*
X88981745Y-66152342D01*
X89075853Y-66379540D01*
X89465460Y-66769147D01*
X89974506Y-66980000D01*
X90525494Y-66980000D01*
X91034540Y-66769147D01*
X91424147Y-66379540D01*
X91520000Y-66148130D01*
X91615853Y-66379540D01*
X92005460Y-66769147D01*
X92514506Y-66980000D01*
X93065494Y-66980000D01*
X93574540Y-66769147D01*
X93964147Y-66379540D01*
X94098396Y-66055431D01*
X137915000Y-66055431D01*
X137915000Y-66944569D01*
X138255259Y-67766026D01*
X138883974Y-68394741D01*
X139705431Y-68735000D01*
X140594569Y-68735000D01*
X141416026Y-68394741D01*
X142044741Y-67766026D01*
X142385000Y-66944569D01*
X142385000Y-66055431D01*
X142044741Y-65233974D01*
X141416026Y-64605259D01*
X140594569Y-64265000D01*
X139705431Y-64265000D01*
X138883974Y-64605259D01*
X138255259Y-65233974D01*
X137915000Y-66055431D01*
X94098396Y-66055431D01*
X94175000Y-65870494D01*
X94175000Y-65319506D01*
X93964147Y-64810460D01*
X93574540Y-64420853D01*
X93065494Y-64210000D01*
X92514506Y-64210000D01*
X92005460Y-64420853D01*
X91615853Y-64810460D01*
X91520000Y-65041870D01*
X91424147Y-64810460D01*
X91034540Y-64420853D01*
X90525494Y-64210000D01*
X89974506Y-64210000D01*
X89465460Y-64420853D01*
X89075853Y-64810460D01*
X88986603Y-65025930D01*
X88922460Y-64871077D01*
X88681517Y-64803088D01*
X87889605Y-65595000D01*
X87530395Y-65595000D01*
X86738483Y-64803088D01*
X86497540Y-64871077D01*
X86438255Y-65037658D01*
X86344147Y-64810460D01*
X86157170Y-64623483D01*
X86918088Y-64623483D01*
X87710000Y-65415395D01*
X88501912Y-64623483D01*
X88433923Y-64382540D01*
X87914829Y-64197799D01*
X87364552Y-64225770D01*
X86986077Y-64382540D01*
X86918088Y-64623483D01*
X86157170Y-64623483D01*
X85954540Y-64420853D01*
X85445494Y-64210000D01*
X84894506Y-64210000D01*
X84385460Y-64420853D01*
X83995853Y-64810460D01*
X83785000Y-65319506D01*
X61780170Y-65319506D01*
X61744741Y-65233974D01*
X61116026Y-64605259D01*
X60294569Y-64265000D01*
X59405431Y-64265000D01*
X58583974Y-64605259D01*
X57955259Y-65233974D01*
X57615000Y-66055431D01*
X50127000Y-66055431D01*
X50127000Y-52905431D01*
X51115000Y-52905431D01*
X51115000Y-53794569D01*
X51455259Y-54616026D01*
X52083974Y-55244741D01*
X52905431Y-55585000D01*
X53794569Y-55585000D01*
X54616026Y-55244741D01*
X55244741Y-54616026D01*
X55585000Y-53794569D01*
X55585000Y-52905431D01*
X144415000Y-52905431D01*
X144415000Y-53794569D01*
X144755259Y-54616026D01*
X145383974Y-55244741D01*
X146205431Y-55585000D01*
X147094569Y-55585000D01*
X147916026Y-55244741D01*
X148544741Y-54616026D01*
X148885000Y-53794569D01*
X148885000Y-52905431D01*
X148544741Y-52083974D01*
X147916026Y-51455259D01*
X147094569Y-51115000D01*
X146205431Y-51115000D01*
X145383974Y-51455259D01*
X144755259Y-52083974D01*
X144415000Y-52905431D01*
X55585000Y-52905431D01*
X55244741Y-52083974D01*
X54616026Y-51455259D01*
X53794569Y-51115000D01*
X52905431Y-51115000D01*
X52083974Y-51455259D01*
X51455259Y-52083974D01*
X51115000Y-52905431D01*
X50127000Y-52905431D01*
X50127000Y-50207000D01*
X149813000Y-50207000D01*
X149813000Y-149822924D01*
G04 #@! TD*
M02*
