G04 #@! TF.GenerationSoftware,KiCad,Pcbnew,5.0.2-5.fc29*
G04 #@! TF.CreationDate,2019-03-26T06:15:52+01:00*
G04 #@! TF.ProjectId,gas-sensor,6761732d-7365-46e7-936f-722e6b696361,rev?*
G04 #@! TF.SameCoordinates,Original*
G04 #@! TF.FileFunction,Soldermask,Top*
G04 #@! TF.FilePolarity,Negative*
%FSLAX46Y46*%
G04 Gerber Fmt 4.6, Leading zero omitted, Abs format (unit mm)*
G04 Created by KiCad (PCBNEW 5.0.2-5.fc29) date Tue 26 Mar 2019 06:15:52 AM CET*
%MOMM*%
%LPD*%
G01*
G04 APERTURE LIST*
%ADD10C,0.100000*%
G04 APERTURE END LIST*
D10*
G36*
X83647738Y-147431653D02*
X83689598Y-147439979D01*
X83724245Y-147454330D01*
X83807890Y-147488977D01*
X83914354Y-147560114D01*
X84004886Y-147650646D01*
X84076023Y-147757110D01*
X84125021Y-147875403D01*
X84150000Y-148000979D01*
X84150000Y-148129021D01*
X84125021Y-148254597D01*
X84076023Y-148372890D01*
X84004886Y-148479354D01*
X83914354Y-148569886D01*
X83807890Y-148641023D01*
X83724245Y-148675670D01*
X83689598Y-148690021D01*
X83647738Y-148698347D01*
X83564021Y-148715000D01*
X83435979Y-148715000D01*
X83352262Y-148698347D01*
X83310402Y-148690021D01*
X83275755Y-148675670D01*
X83192110Y-148641023D01*
X83085646Y-148569886D01*
X82995114Y-148479354D01*
X82923977Y-148372890D01*
X82874979Y-148254597D01*
X82850000Y-148129021D01*
X82850000Y-148000979D01*
X82874979Y-147875403D01*
X82923977Y-147757110D01*
X82995114Y-147650646D01*
X83085646Y-147560114D01*
X83192110Y-147488977D01*
X83275755Y-147454330D01*
X83310402Y-147439979D01*
X83352262Y-147431653D01*
X83435979Y-147415000D01*
X83564021Y-147415000D01*
X83647738Y-147431653D01*
X83647738Y-147431653D01*
G37*
G36*
X147025256Y-145041298D02*
X147131579Y-145062447D01*
X147432042Y-145186903D01*
X147654286Y-145335402D01*
X147702454Y-145367587D01*
X147932413Y-145597546D01*
X147932415Y-145597549D01*
X148113097Y-145867958D01*
X148237553Y-146168421D01*
X148301000Y-146487391D01*
X148301000Y-146812609D01*
X148237553Y-147131579D01*
X148113097Y-147432042D01*
X148075054Y-147488977D01*
X147932413Y-147702454D01*
X147702454Y-147932413D01*
X147702451Y-147932415D01*
X147432042Y-148113097D01*
X147131579Y-148237553D01*
X147045893Y-148254597D01*
X146812611Y-148301000D01*
X146487389Y-148301000D01*
X146254107Y-148254597D01*
X146168421Y-148237553D01*
X145867958Y-148113097D01*
X145597549Y-147932415D01*
X145597546Y-147932413D01*
X145367587Y-147702454D01*
X145224946Y-147488977D01*
X145186903Y-147432042D01*
X145062447Y-147131579D01*
X144999000Y-146812609D01*
X144999000Y-146487391D01*
X145062447Y-146168421D01*
X145186903Y-145867958D01*
X145367585Y-145597549D01*
X145367587Y-145597546D01*
X145597546Y-145367587D01*
X145645714Y-145335402D01*
X145867958Y-145186903D01*
X146168421Y-145062447D01*
X146274744Y-145041298D01*
X146487389Y-144999000D01*
X146812611Y-144999000D01*
X147025256Y-145041298D01*
X147025256Y-145041298D01*
G37*
G36*
X53725256Y-145041298D02*
X53831579Y-145062447D01*
X54132042Y-145186903D01*
X54354286Y-145335402D01*
X54402454Y-145367587D01*
X54632413Y-145597546D01*
X54632415Y-145597549D01*
X54813097Y-145867958D01*
X54937553Y-146168421D01*
X55001000Y-146487391D01*
X55001000Y-146812609D01*
X54937553Y-147131579D01*
X54813097Y-147432042D01*
X54775054Y-147488977D01*
X54632413Y-147702454D01*
X54402454Y-147932413D01*
X54402451Y-147932415D01*
X54132042Y-148113097D01*
X53831579Y-148237553D01*
X53745893Y-148254597D01*
X53512611Y-148301000D01*
X53187389Y-148301000D01*
X52954107Y-148254597D01*
X52868421Y-148237553D01*
X52567958Y-148113097D01*
X52297549Y-147932415D01*
X52297546Y-147932413D01*
X52067587Y-147702454D01*
X51924946Y-147488977D01*
X51886903Y-147432042D01*
X51762447Y-147131579D01*
X51699000Y-146812609D01*
X51699000Y-146487391D01*
X51762447Y-146168421D01*
X51886903Y-145867958D01*
X52067585Y-145597549D01*
X52067587Y-145597546D01*
X52297546Y-145367587D01*
X52345714Y-145335402D01*
X52567958Y-145186903D01*
X52868421Y-145062447D01*
X52974744Y-145041298D01*
X53187389Y-144999000D01*
X53512611Y-144999000D01*
X53725256Y-145041298D01*
X53725256Y-145041298D01*
G37*
G36*
X123581000Y-146361000D02*
X122579000Y-146361000D01*
X122579000Y-145059000D01*
X123581000Y-145059000D01*
X123581000Y-146361000D01*
X123581000Y-146361000D01*
G37*
G36*
X120281000Y-146361000D02*
X119279000Y-146361000D01*
X119279000Y-145059000D01*
X120281000Y-145059000D01*
X120281000Y-146361000D01*
X120281000Y-146361000D01*
G37*
G36*
X81610000Y-146175000D02*
X80310000Y-146175000D01*
X80310000Y-144875000D01*
X81610000Y-144875000D01*
X81610000Y-146175000D01*
X81610000Y-146175000D01*
G37*
G36*
X86187738Y-144891653D02*
X86229598Y-144899979D01*
X86264245Y-144914330D01*
X86347890Y-144948977D01*
X86454354Y-145020114D01*
X86544886Y-145110646D01*
X86616023Y-145217110D01*
X86650670Y-145300755D01*
X86665021Y-145335402D01*
X86671423Y-145367587D01*
X86690000Y-145460979D01*
X86690000Y-145589021D01*
X86665021Y-145714597D01*
X86616023Y-145832890D01*
X86544886Y-145939354D01*
X86454354Y-146029886D01*
X86347890Y-146101023D01*
X86264245Y-146135670D01*
X86229598Y-146150021D01*
X86187738Y-146158347D01*
X86104021Y-146175000D01*
X85975979Y-146175000D01*
X85892262Y-146158347D01*
X85850402Y-146150021D01*
X85815755Y-146135670D01*
X85732110Y-146101023D01*
X85625646Y-146029886D01*
X85535114Y-145939354D01*
X85463977Y-145832890D01*
X85414979Y-145714597D01*
X85390000Y-145589021D01*
X85390000Y-145460979D01*
X85408577Y-145367587D01*
X85414979Y-145335402D01*
X85429330Y-145300755D01*
X85463977Y-145217110D01*
X85535114Y-145110646D01*
X85625646Y-145020114D01*
X85732110Y-144948977D01*
X85815755Y-144914330D01*
X85850402Y-144899979D01*
X85892262Y-144891653D01*
X85975979Y-144875000D01*
X86104021Y-144875000D01*
X86187738Y-144891653D01*
X86187738Y-144891653D01*
G37*
G36*
X131205516Y-143001325D02*
X131243203Y-143012758D01*
X131277942Y-143031326D01*
X131308387Y-143056312D01*
X131333373Y-143086757D01*
X131351941Y-143121496D01*
X131363374Y-143159183D01*
X131367839Y-143204521D01*
X131367839Y-144291199D01*
X131363374Y-144336537D01*
X131351941Y-144374224D01*
X131333373Y-144408963D01*
X131308387Y-144439408D01*
X131277942Y-144464394D01*
X131243203Y-144482962D01*
X131205516Y-144494395D01*
X131160178Y-144498860D01*
X130323500Y-144498860D01*
X130278162Y-144494395D01*
X130240475Y-144482962D01*
X130205736Y-144464394D01*
X130175291Y-144439408D01*
X130150305Y-144408963D01*
X130131737Y-144374224D01*
X130120304Y-144336537D01*
X130115839Y-144291199D01*
X130115839Y-143204521D01*
X130120304Y-143159183D01*
X130131737Y-143121496D01*
X130150305Y-143086757D01*
X130175291Y-143056312D01*
X130205736Y-143031326D01*
X130240475Y-143012758D01*
X130278162Y-143001325D01*
X130323500Y-142996860D01*
X131160178Y-142996860D01*
X131205516Y-143001325D01*
X131205516Y-143001325D01*
G37*
G36*
X129155516Y-143001325D02*
X129193203Y-143012758D01*
X129227942Y-143031326D01*
X129258387Y-143056312D01*
X129283373Y-143086757D01*
X129301941Y-143121496D01*
X129313374Y-143159183D01*
X129317839Y-143204521D01*
X129317839Y-144291199D01*
X129313374Y-144336537D01*
X129301941Y-144374224D01*
X129283373Y-144408963D01*
X129258387Y-144439408D01*
X129227942Y-144464394D01*
X129193203Y-144482962D01*
X129155516Y-144494395D01*
X129110178Y-144498860D01*
X128273500Y-144498860D01*
X128228162Y-144494395D01*
X128190475Y-144482962D01*
X128155736Y-144464394D01*
X128125291Y-144439408D01*
X128100305Y-144408963D01*
X128081737Y-144374224D01*
X128070304Y-144336537D01*
X128065839Y-144291199D01*
X128065839Y-143204521D01*
X128070304Y-143159183D01*
X128081737Y-143121496D01*
X128100305Y-143086757D01*
X128125291Y-143056312D01*
X128155736Y-143031326D01*
X128190475Y-143012758D01*
X128228162Y-143001325D01*
X128273500Y-142996860D01*
X129110178Y-142996860D01*
X129155516Y-143001325D01*
X129155516Y-143001325D01*
G37*
G36*
X72601361Y-138611491D02*
X72701244Y-138631359D01*
X72983508Y-138748276D01*
X73237539Y-138918014D01*
X73453575Y-139134050D01*
X73623313Y-139388081D01*
X73740230Y-139670345D01*
X73799834Y-139969995D01*
X73799834Y-140275515D01*
X73740230Y-140575165D01*
X73623313Y-140857429D01*
X73453575Y-141111460D01*
X73237539Y-141327496D01*
X72983508Y-141497234D01*
X72701244Y-141614151D01*
X72601361Y-141634019D01*
X72401596Y-141673755D01*
X72096072Y-141673755D01*
X71896307Y-141634019D01*
X71796424Y-141614151D01*
X71514160Y-141497234D01*
X71260129Y-141327496D01*
X71044093Y-141111460D01*
X70874355Y-140857429D01*
X70757438Y-140575165D01*
X70697834Y-140275515D01*
X70697834Y-139969995D01*
X70757438Y-139670345D01*
X70874355Y-139388081D01*
X71044093Y-139134050D01*
X71260129Y-138918014D01*
X71514160Y-138748276D01*
X71796424Y-138631359D01*
X71896307Y-138611491D01*
X72096072Y-138571755D01*
X72401596Y-138571755D01*
X72601361Y-138611491D01*
X72601361Y-138611491D01*
G37*
G36*
X147600461Y-138611491D02*
X147700344Y-138631359D01*
X147982608Y-138748276D01*
X148236639Y-138918014D01*
X148452675Y-139134050D01*
X148622413Y-139388081D01*
X148739330Y-139670345D01*
X148798934Y-139969995D01*
X148798934Y-140275515D01*
X148739330Y-140575165D01*
X148622413Y-140857429D01*
X148452675Y-141111460D01*
X148236639Y-141327496D01*
X147982608Y-141497234D01*
X147700344Y-141614151D01*
X147600461Y-141634019D01*
X147400696Y-141673755D01*
X147095172Y-141673755D01*
X146895407Y-141634019D01*
X146795524Y-141614151D01*
X146513260Y-141497234D01*
X146259229Y-141327496D01*
X146043193Y-141111460D01*
X145873455Y-140857429D01*
X145756538Y-140575165D01*
X145696934Y-140275515D01*
X145696934Y-139969995D01*
X145756538Y-139670345D01*
X145873455Y-139388081D01*
X146043193Y-139134050D01*
X146259229Y-138918014D01*
X146513260Y-138748276D01*
X146795524Y-138631359D01*
X146895407Y-138611491D01*
X147095172Y-138571755D01*
X147400696Y-138571755D01*
X147600461Y-138611491D01*
X147600461Y-138611491D01*
G37*
G36*
X105874358Y-138785515D02*
X105874361Y-138785516D01*
X105874362Y-138785516D01*
X106053626Y-138839895D01*
X106053628Y-138839896D01*
X106053631Y-138839897D01*
X106218838Y-138928201D01*
X106363646Y-139047043D01*
X106482486Y-139191850D01*
X106570792Y-139357058D01*
X106570794Y-139357062D01*
X106613906Y-139499183D01*
X106625174Y-139536330D01*
X106638934Y-139676037D01*
X106638934Y-140569472D01*
X106625174Y-140709181D01*
X106570794Y-140888449D01*
X106482486Y-141053660D01*
X106363646Y-141198467D01*
X106218839Y-141317307D01*
X106218837Y-141317308D01*
X106053627Y-141405615D01*
X105874363Y-141459994D01*
X105874362Y-141459994D01*
X105874359Y-141459995D01*
X105687934Y-141478356D01*
X105501510Y-141459995D01*
X105501507Y-141459994D01*
X105501506Y-141459994D01*
X105322242Y-141405615D01*
X105157032Y-141317308D01*
X105157030Y-141317307D01*
X105012223Y-141198467D01*
X104893383Y-141053660D01*
X104805074Y-140888446D01*
X104750694Y-140709185D01*
X104736934Y-140569473D01*
X104736934Y-139676038D01*
X104750694Y-139536331D01*
X104750695Y-139536327D01*
X104805074Y-139357063D01*
X104805075Y-139357061D01*
X104805076Y-139357058D01*
X104893380Y-139191851D01*
X105012222Y-139047043D01*
X105157029Y-138928203D01*
X105322239Y-138839896D01*
X105322241Y-138839895D01*
X105501505Y-138785516D01*
X105501506Y-138785516D01*
X105501509Y-138785515D01*
X105687934Y-138767154D01*
X105874358Y-138785515D01*
X105874358Y-138785515D01*
G37*
G36*
X83014358Y-138785515D02*
X83014361Y-138785516D01*
X83014362Y-138785516D01*
X83193626Y-138839895D01*
X83193628Y-138839896D01*
X83193631Y-138839897D01*
X83358838Y-138928201D01*
X83503646Y-139047043D01*
X83622486Y-139191850D01*
X83710792Y-139357058D01*
X83710794Y-139357062D01*
X83753906Y-139499183D01*
X83765174Y-139536330D01*
X83778934Y-139676037D01*
X83778934Y-140569472D01*
X83765174Y-140709181D01*
X83710794Y-140888449D01*
X83622486Y-141053660D01*
X83503646Y-141198467D01*
X83358839Y-141317307D01*
X83358837Y-141317308D01*
X83193627Y-141405615D01*
X83014363Y-141459994D01*
X83014362Y-141459994D01*
X83014359Y-141459995D01*
X82827934Y-141478356D01*
X82641510Y-141459995D01*
X82641507Y-141459994D01*
X82641506Y-141459994D01*
X82462242Y-141405615D01*
X82297032Y-141317308D01*
X82297030Y-141317307D01*
X82152223Y-141198467D01*
X82033383Y-141053660D01*
X81945074Y-140888446D01*
X81890694Y-140709185D01*
X81876934Y-140569473D01*
X81876934Y-139676038D01*
X81890694Y-139536331D01*
X81890695Y-139536327D01*
X81945074Y-139357063D01*
X81945075Y-139357061D01*
X81945076Y-139357058D01*
X82033380Y-139191851D01*
X82152222Y-139047043D01*
X82297029Y-138928203D01*
X82462239Y-138839896D01*
X82462241Y-138839895D01*
X82641505Y-138785516D01*
X82641506Y-138785516D01*
X82641509Y-138785515D01*
X82827934Y-138767154D01*
X83014358Y-138785515D01*
X83014358Y-138785515D01*
G37*
G36*
X88094358Y-138785515D02*
X88094361Y-138785516D01*
X88094362Y-138785516D01*
X88273626Y-138839895D01*
X88273628Y-138839896D01*
X88273631Y-138839897D01*
X88438838Y-138928201D01*
X88583646Y-139047043D01*
X88702486Y-139191850D01*
X88790792Y-139357058D01*
X88790794Y-139357062D01*
X88833906Y-139499183D01*
X88845174Y-139536330D01*
X88858934Y-139676037D01*
X88858934Y-140569472D01*
X88845174Y-140709181D01*
X88790794Y-140888449D01*
X88702486Y-141053660D01*
X88583646Y-141198467D01*
X88438839Y-141317307D01*
X88438837Y-141317308D01*
X88273627Y-141405615D01*
X88094363Y-141459994D01*
X88094362Y-141459994D01*
X88094359Y-141459995D01*
X87907934Y-141478356D01*
X87721510Y-141459995D01*
X87721507Y-141459994D01*
X87721506Y-141459994D01*
X87542242Y-141405615D01*
X87377032Y-141317308D01*
X87377030Y-141317307D01*
X87232223Y-141198467D01*
X87113383Y-141053660D01*
X87025074Y-140888446D01*
X86970694Y-140709185D01*
X86956934Y-140569473D01*
X86956934Y-139676038D01*
X86970694Y-139536331D01*
X86970695Y-139536327D01*
X87025074Y-139357063D01*
X87025075Y-139357061D01*
X87025076Y-139357058D01*
X87113380Y-139191851D01*
X87232222Y-139047043D01*
X87377029Y-138928203D01*
X87542239Y-138839896D01*
X87542241Y-138839895D01*
X87721505Y-138785516D01*
X87721506Y-138785516D01*
X87721509Y-138785515D01*
X87907934Y-138767154D01*
X88094358Y-138785515D01*
X88094358Y-138785515D01*
G37*
G36*
X90634358Y-138785515D02*
X90634361Y-138785516D01*
X90634362Y-138785516D01*
X90813626Y-138839895D01*
X90813628Y-138839896D01*
X90813631Y-138839897D01*
X90978838Y-138928201D01*
X91123646Y-139047043D01*
X91242486Y-139191850D01*
X91330792Y-139357058D01*
X91330794Y-139357062D01*
X91373906Y-139499183D01*
X91385174Y-139536330D01*
X91398934Y-139676037D01*
X91398934Y-140569472D01*
X91385174Y-140709181D01*
X91330794Y-140888449D01*
X91242486Y-141053660D01*
X91123646Y-141198467D01*
X90978839Y-141317307D01*
X90978837Y-141317308D01*
X90813627Y-141405615D01*
X90634363Y-141459994D01*
X90634362Y-141459994D01*
X90634359Y-141459995D01*
X90447934Y-141478356D01*
X90261510Y-141459995D01*
X90261507Y-141459994D01*
X90261506Y-141459994D01*
X90082242Y-141405615D01*
X89917032Y-141317308D01*
X89917030Y-141317307D01*
X89772223Y-141198467D01*
X89653383Y-141053660D01*
X89565074Y-140888446D01*
X89510694Y-140709185D01*
X89496934Y-140569473D01*
X89496934Y-139676038D01*
X89510694Y-139536331D01*
X89510695Y-139536327D01*
X89565074Y-139357063D01*
X89565075Y-139357061D01*
X89565076Y-139357058D01*
X89653380Y-139191851D01*
X89772222Y-139047043D01*
X89917029Y-138928203D01*
X90082239Y-138839896D01*
X90082241Y-138839895D01*
X90261505Y-138785516D01*
X90261506Y-138785516D01*
X90261509Y-138785515D01*
X90447934Y-138767154D01*
X90634358Y-138785515D01*
X90634358Y-138785515D01*
G37*
G36*
X93174358Y-138785515D02*
X93174361Y-138785516D01*
X93174362Y-138785516D01*
X93353626Y-138839895D01*
X93353628Y-138839896D01*
X93353631Y-138839897D01*
X93518838Y-138928201D01*
X93663646Y-139047043D01*
X93782486Y-139191850D01*
X93870792Y-139357058D01*
X93870794Y-139357062D01*
X93913906Y-139499183D01*
X93925174Y-139536330D01*
X93938934Y-139676037D01*
X93938934Y-140569472D01*
X93925174Y-140709181D01*
X93870794Y-140888449D01*
X93782486Y-141053660D01*
X93663646Y-141198467D01*
X93518839Y-141317307D01*
X93518837Y-141317308D01*
X93353627Y-141405615D01*
X93174363Y-141459994D01*
X93174362Y-141459994D01*
X93174359Y-141459995D01*
X92987934Y-141478356D01*
X92801510Y-141459995D01*
X92801507Y-141459994D01*
X92801506Y-141459994D01*
X92622242Y-141405615D01*
X92457032Y-141317308D01*
X92457030Y-141317307D01*
X92312223Y-141198467D01*
X92193383Y-141053660D01*
X92105074Y-140888446D01*
X92050694Y-140709185D01*
X92036934Y-140569473D01*
X92036934Y-139676038D01*
X92050694Y-139536331D01*
X92050695Y-139536327D01*
X92105074Y-139357063D01*
X92105075Y-139357061D01*
X92105076Y-139357058D01*
X92193380Y-139191851D01*
X92312222Y-139047043D01*
X92457029Y-138928203D01*
X92622239Y-138839896D01*
X92622241Y-138839895D01*
X92801505Y-138785516D01*
X92801506Y-138785516D01*
X92801509Y-138785515D01*
X92987934Y-138767154D01*
X93174358Y-138785515D01*
X93174358Y-138785515D01*
G37*
G36*
X95714358Y-138785515D02*
X95714361Y-138785516D01*
X95714362Y-138785516D01*
X95893626Y-138839895D01*
X95893628Y-138839896D01*
X95893631Y-138839897D01*
X96058838Y-138928201D01*
X96203646Y-139047043D01*
X96322486Y-139191850D01*
X96410792Y-139357058D01*
X96410794Y-139357062D01*
X96453906Y-139499183D01*
X96465174Y-139536330D01*
X96478934Y-139676037D01*
X96478934Y-140569472D01*
X96465174Y-140709181D01*
X96410794Y-140888449D01*
X96322486Y-141053660D01*
X96203646Y-141198467D01*
X96058839Y-141317307D01*
X96058837Y-141317308D01*
X95893627Y-141405615D01*
X95714363Y-141459994D01*
X95714362Y-141459994D01*
X95714359Y-141459995D01*
X95527934Y-141478356D01*
X95341510Y-141459995D01*
X95341507Y-141459994D01*
X95341506Y-141459994D01*
X95162242Y-141405615D01*
X94997032Y-141317308D01*
X94997030Y-141317307D01*
X94852223Y-141198467D01*
X94733383Y-141053660D01*
X94645074Y-140888446D01*
X94590694Y-140709185D01*
X94576934Y-140569473D01*
X94576934Y-139676038D01*
X94590694Y-139536331D01*
X94590695Y-139536327D01*
X94645074Y-139357063D01*
X94645075Y-139357061D01*
X94645076Y-139357058D01*
X94733380Y-139191851D01*
X94852222Y-139047043D01*
X94997029Y-138928203D01*
X95162239Y-138839896D01*
X95162241Y-138839895D01*
X95341505Y-138785516D01*
X95341506Y-138785516D01*
X95341509Y-138785515D01*
X95527934Y-138767154D01*
X95714358Y-138785515D01*
X95714358Y-138785515D01*
G37*
G36*
X98254358Y-138785515D02*
X98254361Y-138785516D01*
X98254362Y-138785516D01*
X98433626Y-138839895D01*
X98433628Y-138839896D01*
X98433631Y-138839897D01*
X98598838Y-138928201D01*
X98743646Y-139047043D01*
X98862486Y-139191850D01*
X98950792Y-139357058D01*
X98950794Y-139357062D01*
X98993906Y-139499183D01*
X99005174Y-139536330D01*
X99018934Y-139676037D01*
X99018934Y-140569472D01*
X99005174Y-140709181D01*
X98950794Y-140888449D01*
X98862486Y-141053660D01*
X98743646Y-141198467D01*
X98598839Y-141317307D01*
X98598837Y-141317308D01*
X98433627Y-141405615D01*
X98254363Y-141459994D01*
X98254362Y-141459994D01*
X98254359Y-141459995D01*
X98067934Y-141478356D01*
X97881510Y-141459995D01*
X97881507Y-141459994D01*
X97881506Y-141459994D01*
X97702242Y-141405615D01*
X97537032Y-141317308D01*
X97537030Y-141317307D01*
X97392223Y-141198467D01*
X97273383Y-141053660D01*
X97185074Y-140888446D01*
X97130694Y-140709185D01*
X97116934Y-140569473D01*
X97116934Y-139676038D01*
X97130694Y-139536331D01*
X97130695Y-139536327D01*
X97185074Y-139357063D01*
X97185075Y-139357061D01*
X97185076Y-139357058D01*
X97273380Y-139191851D01*
X97392222Y-139047043D01*
X97537029Y-138928203D01*
X97702239Y-138839896D01*
X97702241Y-138839895D01*
X97881505Y-138785516D01*
X97881506Y-138785516D01*
X97881509Y-138785515D01*
X98067934Y-138767154D01*
X98254358Y-138785515D01*
X98254358Y-138785515D01*
G37*
G36*
X100794358Y-138785515D02*
X100794361Y-138785516D01*
X100794362Y-138785516D01*
X100973626Y-138839895D01*
X100973628Y-138839896D01*
X100973631Y-138839897D01*
X101138838Y-138928201D01*
X101283646Y-139047043D01*
X101402486Y-139191850D01*
X101490792Y-139357058D01*
X101490794Y-139357062D01*
X101533906Y-139499183D01*
X101545174Y-139536330D01*
X101558934Y-139676037D01*
X101558934Y-140569472D01*
X101545174Y-140709181D01*
X101490794Y-140888449D01*
X101402486Y-141053660D01*
X101283646Y-141198467D01*
X101138839Y-141317307D01*
X101138837Y-141317308D01*
X100973627Y-141405615D01*
X100794363Y-141459994D01*
X100794362Y-141459994D01*
X100794359Y-141459995D01*
X100607934Y-141478356D01*
X100421510Y-141459995D01*
X100421507Y-141459994D01*
X100421506Y-141459994D01*
X100242242Y-141405615D01*
X100077032Y-141317308D01*
X100077030Y-141317307D01*
X99932223Y-141198467D01*
X99813383Y-141053660D01*
X99725074Y-140888446D01*
X99670694Y-140709185D01*
X99656934Y-140569473D01*
X99656934Y-139676038D01*
X99670694Y-139536331D01*
X99670695Y-139536327D01*
X99725074Y-139357063D01*
X99725075Y-139357061D01*
X99725076Y-139357058D01*
X99813380Y-139191851D01*
X99932222Y-139047043D01*
X100077029Y-138928203D01*
X100242239Y-138839896D01*
X100242241Y-138839895D01*
X100421505Y-138785516D01*
X100421506Y-138785516D01*
X100421509Y-138785515D01*
X100607934Y-138767154D01*
X100794358Y-138785515D01*
X100794358Y-138785515D01*
G37*
G36*
X103334358Y-138785515D02*
X103334361Y-138785516D01*
X103334362Y-138785516D01*
X103513626Y-138839895D01*
X103513628Y-138839896D01*
X103513631Y-138839897D01*
X103678838Y-138928201D01*
X103823646Y-139047043D01*
X103942486Y-139191850D01*
X104030792Y-139357058D01*
X104030794Y-139357062D01*
X104073906Y-139499183D01*
X104085174Y-139536330D01*
X104098934Y-139676037D01*
X104098934Y-140569472D01*
X104085174Y-140709181D01*
X104030794Y-140888449D01*
X103942486Y-141053660D01*
X103823646Y-141198467D01*
X103678839Y-141317307D01*
X103678837Y-141317308D01*
X103513627Y-141405615D01*
X103334363Y-141459994D01*
X103334362Y-141459994D01*
X103334359Y-141459995D01*
X103147934Y-141478356D01*
X102961510Y-141459995D01*
X102961507Y-141459994D01*
X102961506Y-141459994D01*
X102782242Y-141405615D01*
X102617032Y-141317308D01*
X102617030Y-141317307D01*
X102472223Y-141198467D01*
X102353383Y-141053660D01*
X102265074Y-140888446D01*
X102210694Y-140709185D01*
X102196934Y-140569473D01*
X102196934Y-139676038D01*
X102210694Y-139536331D01*
X102210695Y-139536327D01*
X102265074Y-139357063D01*
X102265075Y-139357061D01*
X102265076Y-139357058D01*
X102353380Y-139191851D01*
X102472222Y-139047043D01*
X102617029Y-138928203D01*
X102782239Y-138839896D01*
X102782241Y-138839895D01*
X102961505Y-138785516D01*
X102961506Y-138785516D01*
X102961509Y-138785515D01*
X103147934Y-138767154D01*
X103334358Y-138785515D01*
X103334358Y-138785515D01*
G37*
G36*
X108414358Y-138785515D02*
X108414361Y-138785516D01*
X108414362Y-138785516D01*
X108593626Y-138839895D01*
X108593628Y-138839896D01*
X108593631Y-138839897D01*
X108758838Y-138928201D01*
X108903646Y-139047043D01*
X109022486Y-139191850D01*
X109110792Y-139357058D01*
X109110794Y-139357062D01*
X109153906Y-139499183D01*
X109165174Y-139536330D01*
X109178934Y-139676037D01*
X109178934Y-140569472D01*
X109165174Y-140709181D01*
X109110794Y-140888449D01*
X109022486Y-141053660D01*
X108903646Y-141198467D01*
X108758839Y-141317307D01*
X108758837Y-141317308D01*
X108593627Y-141405615D01*
X108414363Y-141459994D01*
X108414362Y-141459994D01*
X108414359Y-141459995D01*
X108227934Y-141478356D01*
X108041510Y-141459995D01*
X108041507Y-141459994D01*
X108041506Y-141459994D01*
X107862242Y-141405615D01*
X107697032Y-141317308D01*
X107697030Y-141317307D01*
X107552223Y-141198467D01*
X107433383Y-141053660D01*
X107345074Y-140888446D01*
X107290694Y-140709185D01*
X107276934Y-140569473D01*
X107276934Y-139676038D01*
X107290694Y-139536331D01*
X107290695Y-139536327D01*
X107345074Y-139357063D01*
X107345075Y-139357061D01*
X107345076Y-139357058D01*
X107433380Y-139191851D01*
X107552222Y-139047043D01*
X107697029Y-138928203D01*
X107862239Y-138839896D01*
X107862241Y-138839895D01*
X108041505Y-138785516D01*
X108041506Y-138785516D01*
X108041509Y-138785515D01*
X108227934Y-138767154D01*
X108414358Y-138785515D01*
X108414358Y-138785515D01*
G37*
G36*
X110954358Y-138785515D02*
X110954361Y-138785516D01*
X110954362Y-138785516D01*
X111133626Y-138839895D01*
X111133628Y-138839896D01*
X111133631Y-138839897D01*
X111298838Y-138928201D01*
X111443646Y-139047043D01*
X111562486Y-139191850D01*
X111650792Y-139357058D01*
X111650794Y-139357062D01*
X111693906Y-139499183D01*
X111705174Y-139536330D01*
X111718934Y-139676037D01*
X111718934Y-140569472D01*
X111705174Y-140709181D01*
X111650794Y-140888449D01*
X111562486Y-141053660D01*
X111443646Y-141198467D01*
X111298839Y-141317307D01*
X111298837Y-141317308D01*
X111133627Y-141405615D01*
X110954363Y-141459994D01*
X110954362Y-141459994D01*
X110954359Y-141459995D01*
X110767934Y-141478356D01*
X110581510Y-141459995D01*
X110581507Y-141459994D01*
X110581506Y-141459994D01*
X110402242Y-141405615D01*
X110237032Y-141317308D01*
X110237030Y-141317307D01*
X110092223Y-141198467D01*
X109973383Y-141053660D01*
X109885074Y-140888446D01*
X109830694Y-140709185D01*
X109816934Y-140569473D01*
X109816934Y-139676038D01*
X109830694Y-139536331D01*
X109830695Y-139536327D01*
X109885074Y-139357063D01*
X109885075Y-139357061D01*
X109885076Y-139357058D01*
X109973380Y-139191851D01*
X110092222Y-139047043D01*
X110237029Y-138928203D01*
X110402239Y-138839896D01*
X110402241Y-138839895D01*
X110581505Y-138785516D01*
X110581506Y-138785516D01*
X110581509Y-138785515D01*
X110767934Y-138767154D01*
X110954358Y-138785515D01*
X110954358Y-138785515D01*
G37*
G36*
X113494358Y-138785515D02*
X113494361Y-138785516D01*
X113494362Y-138785516D01*
X113673626Y-138839895D01*
X113673628Y-138839896D01*
X113673631Y-138839897D01*
X113838838Y-138928201D01*
X113983646Y-139047043D01*
X114102486Y-139191850D01*
X114190792Y-139357058D01*
X114190794Y-139357062D01*
X114233906Y-139499183D01*
X114245174Y-139536330D01*
X114258934Y-139676037D01*
X114258934Y-140569472D01*
X114245174Y-140709181D01*
X114190794Y-140888449D01*
X114102486Y-141053660D01*
X113983646Y-141198467D01*
X113838839Y-141317307D01*
X113838837Y-141317308D01*
X113673627Y-141405615D01*
X113494363Y-141459994D01*
X113494362Y-141459994D01*
X113494359Y-141459995D01*
X113307934Y-141478356D01*
X113121510Y-141459995D01*
X113121507Y-141459994D01*
X113121506Y-141459994D01*
X112942242Y-141405615D01*
X112777032Y-141317308D01*
X112777030Y-141317307D01*
X112632223Y-141198467D01*
X112513383Y-141053660D01*
X112425074Y-140888446D01*
X112370694Y-140709185D01*
X112356934Y-140569473D01*
X112356934Y-139676038D01*
X112370694Y-139536331D01*
X112370695Y-139536327D01*
X112425074Y-139357063D01*
X112425075Y-139357061D01*
X112425076Y-139357058D01*
X112513380Y-139191851D01*
X112632222Y-139047043D01*
X112777029Y-138928203D01*
X112942239Y-138839896D01*
X112942241Y-138839895D01*
X113121505Y-138785516D01*
X113121506Y-138785516D01*
X113121509Y-138785515D01*
X113307934Y-138767154D01*
X113494358Y-138785515D01*
X113494358Y-138785515D01*
G37*
G36*
X116034358Y-138785515D02*
X116034361Y-138785516D01*
X116034362Y-138785516D01*
X116213626Y-138839895D01*
X116213628Y-138839896D01*
X116213631Y-138839897D01*
X116378838Y-138928201D01*
X116523646Y-139047043D01*
X116642486Y-139191850D01*
X116730792Y-139357058D01*
X116730794Y-139357062D01*
X116773906Y-139499183D01*
X116785174Y-139536330D01*
X116798934Y-139676037D01*
X116798934Y-140569472D01*
X116785174Y-140709181D01*
X116730794Y-140888449D01*
X116642486Y-141053660D01*
X116523646Y-141198467D01*
X116378839Y-141317307D01*
X116378837Y-141317308D01*
X116213627Y-141405615D01*
X116034363Y-141459994D01*
X116034362Y-141459994D01*
X116034359Y-141459995D01*
X115847934Y-141478356D01*
X115661510Y-141459995D01*
X115661507Y-141459994D01*
X115661506Y-141459994D01*
X115482242Y-141405615D01*
X115317032Y-141317308D01*
X115317030Y-141317307D01*
X115172223Y-141198467D01*
X115053383Y-141053660D01*
X114965074Y-140888446D01*
X114910694Y-140709185D01*
X114896934Y-140569473D01*
X114896934Y-139676038D01*
X114910694Y-139536331D01*
X114910695Y-139536327D01*
X114965074Y-139357063D01*
X114965075Y-139357061D01*
X114965076Y-139357058D01*
X115053380Y-139191851D01*
X115172222Y-139047043D01*
X115317029Y-138928203D01*
X115482239Y-138839896D01*
X115482241Y-138839895D01*
X115661505Y-138785516D01*
X115661506Y-138785516D01*
X115661509Y-138785515D01*
X115847934Y-138767154D01*
X116034358Y-138785515D01*
X116034358Y-138785515D01*
G37*
G36*
X80474358Y-138785515D02*
X80474361Y-138785516D01*
X80474362Y-138785516D01*
X80653626Y-138839895D01*
X80653628Y-138839896D01*
X80653631Y-138839897D01*
X80818838Y-138928201D01*
X80963646Y-139047043D01*
X81082486Y-139191850D01*
X81170792Y-139357058D01*
X81170794Y-139357062D01*
X81213906Y-139499183D01*
X81225174Y-139536330D01*
X81238934Y-139676037D01*
X81238934Y-140569472D01*
X81225174Y-140709181D01*
X81170794Y-140888449D01*
X81082486Y-141053660D01*
X80963646Y-141198467D01*
X80818839Y-141317307D01*
X80818837Y-141317308D01*
X80653627Y-141405615D01*
X80474363Y-141459994D01*
X80474362Y-141459994D01*
X80474359Y-141459995D01*
X80287934Y-141478356D01*
X80101510Y-141459995D01*
X80101507Y-141459994D01*
X80101506Y-141459994D01*
X79922242Y-141405615D01*
X79757032Y-141317308D01*
X79757030Y-141317307D01*
X79612223Y-141198467D01*
X79493383Y-141053660D01*
X79405074Y-140888446D01*
X79350694Y-140709185D01*
X79336934Y-140569473D01*
X79336934Y-139676038D01*
X79350694Y-139536331D01*
X79350695Y-139536327D01*
X79405074Y-139357063D01*
X79405075Y-139357061D01*
X79405076Y-139357058D01*
X79493380Y-139191851D01*
X79612222Y-139047043D01*
X79757029Y-138928203D01*
X79922239Y-138839896D01*
X79922241Y-138839895D01*
X80101505Y-138785516D01*
X80101506Y-138785516D01*
X80101509Y-138785515D01*
X80287934Y-138767154D01*
X80474358Y-138785515D01*
X80474358Y-138785515D01*
G37*
G36*
X85554358Y-138785515D02*
X85554361Y-138785516D01*
X85554362Y-138785516D01*
X85733626Y-138839895D01*
X85733628Y-138839896D01*
X85733631Y-138839897D01*
X85898838Y-138928201D01*
X86043646Y-139047043D01*
X86162486Y-139191850D01*
X86250792Y-139357058D01*
X86250794Y-139357062D01*
X86293906Y-139499183D01*
X86305174Y-139536330D01*
X86318934Y-139676037D01*
X86318934Y-140569472D01*
X86305174Y-140709181D01*
X86250794Y-140888449D01*
X86162486Y-141053660D01*
X86043646Y-141198467D01*
X85898839Y-141317307D01*
X85898837Y-141317308D01*
X85733627Y-141405615D01*
X85554363Y-141459994D01*
X85554362Y-141459994D01*
X85554359Y-141459995D01*
X85367934Y-141478356D01*
X85181510Y-141459995D01*
X85181507Y-141459994D01*
X85181506Y-141459994D01*
X85002242Y-141405615D01*
X84837032Y-141317308D01*
X84837030Y-141317307D01*
X84692223Y-141198467D01*
X84573383Y-141053660D01*
X84485074Y-140888446D01*
X84430694Y-140709185D01*
X84416934Y-140569473D01*
X84416934Y-139676038D01*
X84430694Y-139536331D01*
X84430695Y-139536327D01*
X84485074Y-139357063D01*
X84485075Y-139357061D01*
X84485076Y-139357058D01*
X84573380Y-139191851D01*
X84692222Y-139047043D01*
X84837029Y-138928203D01*
X85002239Y-138839896D01*
X85002241Y-138839895D01*
X85181505Y-138785516D01*
X85181506Y-138785516D01*
X85181509Y-138785515D01*
X85367934Y-138767154D01*
X85554358Y-138785515D01*
X85554358Y-138785515D01*
G37*
G36*
X78698934Y-141473755D02*
X76796934Y-141473755D01*
X76796934Y-138771755D01*
X78698934Y-138771755D01*
X78698934Y-141473755D01*
X78698934Y-141473755D01*
G37*
G36*
X131200516Y-139341325D02*
X131238203Y-139352758D01*
X131272942Y-139371326D01*
X131303387Y-139396312D01*
X131328373Y-139426757D01*
X131346941Y-139461496D01*
X131358374Y-139499183D01*
X131362839Y-139544521D01*
X131362839Y-140631199D01*
X131358374Y-140676537D01*
X131346941Y-140714224D01*
X131328373Y-140748963D01*
X131303387Y-140779408D01*
X131272942Y-140804394D01*
X131238203Y-140822962D01*
X131200516Y-140834395D01*
X131155178Y-140838860D01*
X130318500Y-140838860D01*
X130273162Y-140834395D01*
X130235475Y-140822962D01*
X130200736Y-140804394D01*
X130170291Y-140779408D01*
X130145305Y-140748963D01*
X130126737Y-140714224D01*
X130115304Y-140676537D01*
X130110839Y-140631199D01*
X130110839Y-139544521D01*
X130115304Y-139499183D01*
X130126737Y-139461496D01*
X130145305Y-139426757D01*
X130170291Y-139396312D01*
X130200736Y-139371326D01*
X130235475Y-139352758D01*
X130273162Y-139341325D01*
X130318500Y-139336860D01*
X131155178Y-139336860D01*
X131200516Y-139341325D01*
X131200516Y-139341325D01*
G37*
G36*
X129150516Y-139341325D02*
X129188203Y-139352758D01*
X129222942Y-139371326D01*
X129253387Y-139396312D01*
X129278373Y-139426757D01*
X129296941Y-139461496D01*
X129308374Y-139499183D01*
X129312839Y-139544521D01*
X129312839Y-140631199D01*
X129308374Y-140676537D01*
X129296941Y-140714224D01*
X129278373Y-140748963D01*
X129253387Y-140779408D01*
X129222942Y-140804394D01*
X129188203Y-140822962D01*
X129150516Y-140834395D01*
X129105178Y-140838860D01*
X128268500Y-140838860D01*
X128223162Y-140834395D01*
X128185475Y-140822962D01*
X128150736Y-140804394D01*
X128120291Y-140779408D01*
X128095305Y-140748963D01*
X128076737Y-140714224D01*
X128065304Y-140676537D01*
X128060839Y-140631199D01*
X128060839Y-139544521D01*
X128065304Y-139499183D01*
X128076737Y-139461496D01*
X128095305Y-139426757D01*
X128120291Y-139396312D01*
X128150736Y-139371326D01*
X128185475Y-139352758D01*
X128223162Y-139341325D01*
X128268500Y-139336860D01*
X129105178Y-139336860D01*
X129150516Y-139341325D01*
X129150516Y-139341325D01*
G37*
G36*
X62976366Y-134095695D02*
X63133458Y-134143348D01*
X63278230Y-134220731D01*
X63405128Y-134324872D01*
X63509269Y-134451770D01*
X63586652Y-134596542D01*
X63634305Y-134753634D01*
X63651000Y-134923140D01*
X63651000Y-136836860D01*
X63634305Y-137006366D01*
X63586652Y-137163458D01*
X63509269Y-137308230D01*
X63405128Y-137435128D01*
X63278230Y-137539269D01*
X63133458Y-137616652D01*
X62976366Y-137664305D01*
X62806860Y-137681000D01*
X60893140Y-137681000D01*
X60723634Y-137664305D01*
X60566542Y-137616652D01*
X60421770Y-137539269D01*
X60294872Y-137435128D01*
X60190731Y-137308230D01*
X60113348Y-137163458D01*
X60065695Y-137006366D01*
X60049000Y-136836860D01*
X60049000Y-134923140D01*
X60065695Y-134753634D01*
X60113348Y-134596542D01*
X60190731Y-134451770D01*
X60294872Y-134324872D01*
X60421770Y-134220731D01*
X60566542Y-134143348D01*
X60723634Y-134095695D01*
X60893140Y-134079000D01*
X62806860Y-134079000D01*
X62976366Y-134095695D01*
X62976366Y-134095695D01*
G37*
G36*
X85672257Y-136665602D02*
X83170257Y-136665602D01*
X83170257Y-133063602D01*
X85672257Y-133063602D01*
X85672257Y-136665602D01*
X85672257Y-136665602D01*
G37*
G36*
X111586611Y-134996220D02*
X111624298Y-135007653D01*
X111659037Y-135026221D01*
X111689482Y-135051207D01*
X111714468Y-135081652D01*
X111733036Y-135116391D01*
X111744469Y-135154078D01*
X111748934Y-135199416D01*
X111748934Y-136286094D01*
X111744469Y-136331432D01*
X111733036Y-136369119D01*
X111714468Y-136403858D01*
X111689482Y-136434303D01*
X111659037Y-136459289D01*
X111624298Y-136477857D01*
X111586611Y-136489290D01*
X111541273Y-136493755D01*
X110704595Y-136493755D01*
X110659257Y-136489290D01*
X110621570Y-136477857D01*
X110586831Y-136459289D01*
X110556386Y-136434303D01*
X110531400Y-136403858D01*
X110512832Y-136369119D01*
X110501399Y-136331432D01*
X110496934Y-136286094D01*
X110496934Y-135199416D01*
X110501399Y-135154078D01*
X110512832Y-135116391D01*
X110531400Y-135081652D01*
X110556386Y-135051207D01*
X110586831Y-135026221D01*
X110621570Y-135007653D01*
X110659257Y-134996220D01*
X110704595Y-134991755D01*
X111541273Y-134991755D01*
X111586611Y-134996220D01*
X111586611Y-134996220D01*
G37*
G36*
X113636611Y-134996220D02*
X113674298Y-135007653D01*
X113709037Y-135026221D01*
X113739482Y-135051207D01*
X113764468Y-135081652D01*
X113783036Y-135116391D01*
X113794469Y-135154078D01*
X113798934Y-135199416D01*
X113798934Y-136286094D01*
X113794469Y-136331432D01*
X113783036Y-136369119D01*
X113764468Y-136403858D01*
X113739482Y-136434303D01*
X113709037Y-136459289D01*
X113674298Y-136477857D01*
X113636611Y-136489290D01*
X113591273Y-136493755D01*
X112754595Y-136493755D01*
X112709257Y-136489290D01*
X112671570Y-136477857D01*
X112636831Y-136459289D01*
X112606386Y-136434303D01*
X112581400Y-136403858D01*
X112562832Y-136369119D01*
X112551399Y-136331432D01*
X112546934Y-136286094D01*
X112546934Y-135199416D01*
X112551399Y-135154078D01*
X112562832Y-135116391D01*
X112581400Y-135081652D01*
X112606386Y-135051207D01*
X112636831Y-135026221D01*
X112671570Y-135007653D01*
X112709257Y-134996220D01*
X112754595Y-134991755D01*
X113591273Y-134991755D01*
X113636611Y-134996220D01*
X113636611Y-134996220D01*
G37*
G36*
X79824934Y-134008067D02*
X79862621Y-134019500D01*
X79897360Y-134038068D01*
X79927805Y-134063054D01*
X79952791Y-134093499D01*
X79971359Y-134128238D01*
X79982792Y-134165925D01*
X79987257Y-134211263D01*
X79987257Y-135297941D01*
X79982792Y-135343279D01*
X79971359Y-135380966D01*
X79952791Y-135415705D01*
X79927805Y-135446150D01*
X79897360Y-135471136D01*
X79862621Y-135489704D01*
X79824934Y-135501137D01*
X79779596Y-135505602D01*
X78942918Y-135505602D01*
X78897580Y-135501137D01*
X78859893Y-135489704D01*
X78825154Y-135471136D01*
X78794709Y-135446150D01*
X78769723Y-135415705D01*
X78751155Y-135380966D01*
X78739722Y-135343279D01*
X78735257Y-135297941D01*
X78735257Y-134211263D01*
X78739722Y-134165925D01*
X78751155Y-134128238D01*
X78769723Y-134093499D01*
X78794709Y-134063054D01*
X78825154Y-134038068D01*
X78859893Y-134019500D01*
X78897580Y-134008067D01*
X78942918Y-134003602D01*
X79779596Y-134003602D01*
X79824934Y-134008067D01*
X79824934Y-134008067D01*
G37*
G36*
X81874934Y-134008067D02*
X81912621Y-134019500D01*
X81947360Y-134038068D01*
X81977805Y-134063054D01*
X82002791Y-134093499D01*
X82021359Y-134128238D01*
X82032792Y-134165925D01*
X82037257Y-134211263D01*
X82037257Y-135297941D01*
X82032792Y-135343279D01*
X82021359Y-135380966D01*
X82002791Y-135415705D01*
X81977805Y-135446150D01*
X81947360Y-135471136D01*
X81912621Y-135489704D01*
X81874934Y-135501137D01*
X81829596Y-135505602D01*
X80992918Y-135505602D01*
X80947580Y-135501137D01*
X80909893Y-135489704D01*
X80875154Y-135471136D01*
X80844709Y-135446150D01*
X80819723Y-135415705D01*
X80801155Y-135380966D01*
X80789722Y-135343279D01*
X80785257Y-135297941D01*
X80785257Y-134211263D01*
X80789722Y-134165925D01*
X80801155Y-134128238D01*
X80819723Y-134093499D01*
X80844709Y-134063054D01*
X80875154Y-134038068D01*
X80909893Y-134019500D01*
X80947580Y-134008067D01*
X80992918Y-134003602D01*
X81829596Y-134003602D01*
X81874934Y-134008067D01*
X81874934Y-134008067D01*
G37*
G36*
X99843934Y-135363755D02*
X93591934Y-135363755D01*
X93591934Y-133661755D01*
X99843934Y-133661755D01*
X99843934Y-135363755D01*
X99843934Y-135363755D01*
G37*
G36*
X93318934Y-133388755D02*
X91616934Y-133388755D01*
X91616934Y-127136755D01*
X93318934Y-127136755D01*
X93318934Y-133388755D01*
X93318934Y-133388755D01*
G37*
G36*
X101818934Y-133388755D02*
X100116934Y-133388755D01*
X100116934Y-127136755D01*
X101818934Y-127136755D01*
X101818934Y-133388755D01*
X101818934Y-133388755D01*
G37*
G36*
X88489934Y-131803067D02*
X88527621Y-131814500D01*
X88562360Y-131833068D01*
X88592805Y-131858054D01*
X88617791Y-131888499D01*
X88636359Y-131923238D01*
X88647792Y-131960925D01*
X88652257Y-132006263D01*
X88652257Y-132842941D01*
X88647792Y-132888279D01*
X88636359Y-132925966D01*
X88617791Y-132960705D01*
X88592805Y-132991150D01*
X88562360Y-133016136D01*
X88527621Y-133034704D01*
X88489934Y-133046137D01*
X88444596Y-133050602D01*
X87357918Y-133050602D01*
X87312580Y-133046137D01*
X87274893Y-133034704D01*
X87240154Y-133016136D01*
X87209709Y-132991150D01*
X87184723Y-132960705D01*
X87166155Y-132925966D01*
X87154722Y-132888279D01*
X87150257Y-132842941D01*
X87150257Y-132006263D01*
X87154722Y-131960925D01*
X87166155Y-131923238D01*
X87184723Y-131888499D01*
X87209709Y-131858054D01*
X87240154Y-131833068D01*
X87274893Y-131814500D01*
X87312580Y-131803067D01*
X87357918Y-131798602D01*
X88444596Y-131798602D01*
X88489934Y-131803067D01*
X88489934Y-131803067D01*
G37*
G36*
X59826978Y-129393293D02*
X59960627Y-129433835D01*
X60083782Y-129499662D01*
X60191739Y-129588261D01*
X60280338Y-129696218D01*
X60346165Y-129819373D01*
X60386707Y-129953022D01*
X60401000Y-130098140D01*
X60401000Y-132261860D01*
X60386707Y-132406978D01*
X60346165Y-132540627D01*
X60280338Y-132663782D01*
X60191739Y-132771739D01*
X60083782Y-132860338D01*
X59960627Y-132926165D01*
X59826978Y-132966707D01*
X59681860Y-132981000D01*
X58018140Y-132981000D01*
X57873022Y-132966707D01*
X57739373Y-132926165D01*
X57616218Y-132860338D01*
X57508261Y-132771739D01*
X57419662Y-132663782D01*
X57353835Y-132540627D01*
X57313293Y-132406978D01*
X57299000Y-132261860D01*
X57299000Y-130098140D01*
X57313293Y-129953022D01*
X57353835Y-129819373D01*
X57419662Y-129696218D01*
X57508261Y-129588261D01*
X57616218Y-129499662D01*
X57739373Y-129433835D01*
X57873022Y-129393293D01*
X58018140Y-129379000D01*
X59681860Y-129379000D01*
X59826978Y-129393293D01*
X59826978Y-129393293D01*
G37*
G36*
X66651000Y-132981000D02*
X63049000Y-132981000D01*
X63049000Y-129379000D01*
X66651000Y-129379000D01*
X66651000Y-132981000D01*
X66651000Y-132981000D01*
G37*
G36*
X85672257Y-131465602D02*
X83170257Y-131465602D01*
X83170257Y-127863602D01*
X85672257Y-127863602D01*
X85672257Y-131465602D01*
X85672257Y-131465602D01*
G37*
G36*
X129209674Y-131431878D02*
X128207674Y-131431878D01*
X128207674Y-130129878D01*
X129209674Y-130129878D01*
X129209674Y-131431878D01*
X129209674Y-131431878D01*
G37*
G36*
X125909674Y-131431878D02*
X124907674Y-131431878D01*
X124907674Y-130129878D01*
X125909674Y-130129878D01*
X125909674Y-131431878D01*
X125909674Y-131431878D01*
G37*
G36*
X115929350Y-129970694D02*
X116028770Y-130011875D01*
X116118249Y-130071663D01*
X116194337Y-130147751D01*
X116254125Y-130237230D01*
X116295306Y-130336650D01*
X116316300Y-130442194D01*
X116316300Y-130549806D01*
X116295306Y-130655350D01*
X116254125Y-130754770D01*
X116194337Y-130844249D01*
X116118249Y-130920337D01*
X116028770Y-130980125D01*
X115929350Y-131021306D01*
X115823806Y-131042300D01*
X115716194Y-131042300D01*
X115610650Y-131021306D01*
X115511230Y-130980125D01*
X115421751Y-130920337D01*
X115345663Y-130844249D01*
X115285875Y-130754770D01*
X115244694Y-130655350D01*
X115223700Y-130549806D01*
X115223700Y-130442194D01*
X115244694Y-130336650D01*
X115285875Y-130237230D01*
X115345663Y-130147751D01*
X115421751Y-130071663D01*
X115511230Y-130011875D01*
X115610650Y-129970694D01*
X115716194Y-129949700D01*
X115823806Y-129949700D01*
X115929350Y-129970694D01*
X115929350Y-129970694D01*
G37*
G36*
X88489934Y-129753067D02*
X88527621Y-129764500D01*
X88562360Y-129783068D01*
X88592805Y-129808054D01*
X88617791Y-129838499D01*
X88636359Y-129873238D01*
X88647792Y-129910925D01*
X88652257Y-129956263D01*
X88652257Y-130792941D01*
X88647792Y-130838279D01*
X88636359Y-130875966D01*
X88617791Y-130910705D01*
X88592805Y-130941150D01*
X88562360Y-130966136D01*
X88527621Y-130984704D01*
X88489934Y-130996137D01*
X88444596Y-131000602D01*
X87357918Y-131000602D01*
X87312580Y-130996137D01*
X87274893Y-130984704D01*
X87240154Y-130966136D01*
X87209709Y-130941150D01*
X87184723Y-130910705D01*
X87166155Y-130875966D01*
X87154722Y-130838279D01*
X87150257Y-130792941D01*
X87150257Y-129956263D01*
X87154722Y-129910925D01*
X87166155Y-129873238D01*
X87184723Y-129838499D01*
X87209709Y-129808054D01*
X87240154Y-129783068D01*
X87274893Y-129764500D01*
X87312580Y-129753067D01*
X87357918Y-129748602D01*
X88444596Y-129748602D01*
X88489934Y-129753067D01*
X88489934Y-129753067D01*
G37*
G36*
X107958677Y-129483465D02*
X107996364Y-129494898D01*
X108031103Y-129513466D01*
X108061548Y-129538452D01*
X108086534Y-129568897D01*
X108105102Y-129603636D01*
X108116535Y-129641323D01*
X108121000Y-129686661D01*
X108121000Y-130523339D01*
X108116535Y-130568677D01*
X108105102Y-130606364D01*
X108086534Y-130641103D01*
X108061548Y-130671548D01*
X108031103Y-130696534D01*
X107996364Y-130715102D01*
X107958677Y-130726535D01*
X107913339Y-130731000D01*
X106826661Y-130731000D01*
X106781323Y-130726535D01*
X106743636Y-130715102D01*
X106708897Y-130696534D01*
X106678452Y-130671548D01*
X106653466Y-130641103D01*
X106634898Y-130606364D01*
X106623465Y-130568677D01*
X106619000Y-130523339D01*
X106619000Y-129686661D01*
X106623465Y-129641323D01*
X106634898Y-129603636D01*
X106653466Y-129568897D01*
X106678452Y-129538452D01*
X106708897Y-129513466D01*
X106743636Y-129494898D01*
X106781323Y-129483465D01*
X106826661Y-129479000D01*
X107913339Y-129479000D01*
X107958677Y-129483465D01*
X107958677Y-129483465D01*
G37*
G36*
X118439714Y-129687389D02*
X118520644Y-129720911D01*
X118593483Y-129769581D01*
X118655419Y-129831517D01*
X118704089Y-129904356D01*
X118737611Y-129985286D01*
X118754700Y-130071199D01*
X118754700Y-130158801D01*
X118737611Y-130244714D01*
X118704089Y-130325644D01*
X118655419Y-130398483D01*
X118593483Y-130460419D01*
X118520644Y-130509089D01*
X118439714Y-130542611D01*
X118353801Y-130559700D01*
X118266199Y-130559700D01*
X118180286Y-130542611D01*
X118099356Y-130509089D01*
X118026517Y-130460419D01*
X117964581Y-130398483D01*
X117915911Y-130325644D01*
X117882389Y-130244714D01*
X117865300Y-130158801D01*
X117865300Y-130071199D01*
X117882389Y-129985286D01*
X117915911Y-129904356D01*
X117964581Y-129831517D01*
X118026517Y-129769581D01*
X118099356Y-129720911D01*
X118180286Y-129687389D01*
X118266199Y-129670300D01*
X118353801Y-129670300D01*
X118439714Y-129687389D01*
X118439714Y-129687389D01*
G37*
G36*
X119709714Y-129687389D02*
X119790644Y-129720911D01*
X119863483Y-129769581D01*
X119925419Y-129831517D01*
X119974089Y-129904356D01*
X120007611Y-129985286D01*
X120024700Y-130071199D01*
X120024700Y-130158801D01*
X120007611Y-130244714D01*
X119974089Y-130325644D01*
X119925419Y-130398483D01*
X119863483Y-130460419D01*
X119790644Y-130509089D01*
X119709714Y-130542611D01*
X119623801Y-130559700D01*
X119536199Y-130559700D01*
X119450286Y-130542611D01*
X119369356Y-130509089D01*
X119296517Y-130460419D01*
X119234581Y-130398483D01*
X119185911Y-130325644D01*
X119152389Y-130244714D01*
X119135300Y-130158801D01*
X119135300Y-130071199D01*
X119152389Y-129985286D01*
X119185911Y-129904356D01*
X119234581Y-129831517D01*
X119296517Y-129769581D01*
X119369356Y-129720911D01*
X119450286Y-129687389D01*
X119536199Y-129670300D01*
X119623801Y-129670300D01*
X119709714Y-129687389D01*
X119709714Y-129687389D01*
G37*
G36*
X117169714Y-129687389D02*
X117250644Y-129720911D01*
X117323483Y-129769581D01*
X117385419Y-129831517D01*
X117434089Y-129904356D01*
X117467611Y-129985286D01*
X117484700Y-130071199D01*
X117484700Y-130158801D01*
X117467611Y-130244714D01*
X117434089Y-130325644D01*
X117385419Y-130398483D01*
X117323483Y-130460419D01*
X117250644Y-130509089D01*
X117169714Y-130542611D01*
X117083801Y-130559700D01*
X116996199Y-130559700D01*
X116910286Y-130542611D01*
X116829356Y-130509089D01*
X116756517Y-130460419D01*
X116694581Y-130398483D01*
X116645911Y-130325644D01*
X116612389Y-130244714D01*
X116595300Y-130158801D01*
X116595300Y-130071199D01*
X116612389Y-129985286D01*
X116645911Y-129904356D01*
X116694581Y-129831517D01*
X116756517Y-129769581D01*
X116829356Y-129720911D01*
X116910286Y-129687389D01*
X116996199Y-129670300D01*
X117083801Y-129670300D01*
X117169714Y-129687389D01*
X117169714Y-129687389D01*
G37*
G36*
X81929934Y-128958067D02*
X81967621Y-128969500D01*
X82002360Y-128988068D01*
X82032805Y-129013054D01*
X82057791Y-129043499D01*
X82076359Y-129078238D01*
X82087792Y-129115925D01*
X82092257Y-129161263D01*
X82092257Y-130247941D01*
X82087792Y-130293279D01*
X82076359Y-130330966D01*
X82057791Y-130365705D01*
X82032805Y-130396150D01*
X82002360Y-130421136D01*
X81967621Y-130439704D01*
X81929934Y-130451137D01*
X81884596Y-130455602D01*
X81047918Y-130455602D01*
X81002580Y-130451137D01*
X80964893Y-130439704D01*
X80930154Y-130421136D01*
X80899709Y-130396150D01*
X80874723Y-130365705D01*
X80856155Y-130330966D01*
X80844722Y-130293279D01*
X80840257Y-130247941D01*
X80840257Y-129161263D01*
X80844722Y-129115925D01*
X80856155Y-129078238D01*
X80874723Y-129043499D01*
X80899709Y-129013054D01*
X80930154Y-128988068D01*
X80964893Y-128969500D01*
X81002580Y-128958067D01*
X81047918Y-128953602D01*
X81884596Y-128953602D01*
X81929934Y-128958067D01*
X81929934Y-128958067D01*
G37*
G36*
X79879934Y-128958067D02*
X79917621Y-128969500D01*
X79952360Y-128988068D01*
X79982805Y-129013054D01*
X80007791Y-129043499D01*
X80026359Y-129078238D01*
X80037792Y-129115925D01*
X80042257Y-129161263D01*
X80042257Y-130247941D01*
X80037792Y-130293279D01*
X80026359Y-130330966D01*
X80007791Y-130365705D01*
X79982805Y-130396150D01*
X79952360Y-130421136D01*
X79917621Y-130439704D01*
X79879934Y-130451137D01*
X79834596Y-130455602D01*
X78997918Y-130455602D01*
X78952580Y-130451137D01*
X78914893Y-130439704D01*
X78880154Y-130421136D01*
X78849709Y-130396150D01*
X78824723Y-130365705D01*
X78806155Y-130330966D01*
X78794722Y-130293279D01*
X78790257Y-130247941D01*
X78790257Y-129161263D01*
X78794722Y-129115925D01*
X78806155Y-129078238D01*
X78824723Y-129043499D01*
X78849709Y-129013054D01*
X78880154Y-128988068D01*
X78914893Y-128969500D01*
X78952580Y-128958067D01*
X78997918Y-128953602D01*
X79834596Y-128953602D01*
X79879934Y-128958067D01*
X79879934Y-128958067D01*
G37*
G36*
X121009350Y-128954694D02*
X121108770Y-128995875D01*
X121198249Y-129055663D01*
X121274337Y-129131751D01*
X121334125Y-129221230D01*
X121375306Y-129320650D01*
X121396300Y-129426194D01*
X121396300Y-129533806D01*
X121375306Y-129639350D01*
X121334125Y-129738770D01*
X121274337Y-129828249D01*
X121198249Y-129904337D01*
X121108770Y-129964125D01*
X121009350Y-130005306D01*
X120903806Y-130026300D01*
X120796194Y-130026300D01*
X120690650Y-130005306D01*
X120591230Y-129964125D01*
X120501751Y-129904337D01*
X120425663Y-129828249D01*
X120365875Y-129738770D01*
X120324694Y-129639350D01*
X120303700Y-129533806D01*
X120303700Y-129426194D01*
X120324694Y-129320650D01*
X120365875Y-129221230D01*
X120425663Y-129131751D01*
X120501751Y-129055663D01*
X120591230Y-128995875D01*
X120690650Y-128954694D01*
X120796194Y-128933700D01*
X120903806Y-128933700D01*
X121009350Y-128954694D01*
X121009350Y-128954694D01*
G37*
G36*
X117169714Y-128417389D02*
X117250644Y-128450911D01*
X117323483Y-128499581D01*
X117385419Y-128561517D01*
X117434089Y-128634356D01*
X117467611Y-128715286D01*
X117484700Y-128801199D01*
X117484700Y-128888801D01*
X117467611Y-128974714D01*
X117434089Y-129055644D01*
X117385419Y-129128483D01*
X117323483Y-129190419D01*
X117250644Y-129239089D01*
X117169714Y-129272611D01*
X117083801Y-129289700D01*
X116996199Y-129289700D01*
X116910286Y-129272611D01*
X116829356Y-129239089D01*
X116756517Y-129190419D01*
X116694581Y-129128483D01*
X116645911Y-129055644D01*
X116612389Y-128974714D01*
X116595300Y-128888801D01*
X116595300Y-128801199D01*
X116612389Y-128715286D01*
X116645911Y-128634356D01*
X116694581Y-128561517D01*
X116756517Y-128499581D01*
X116829356Y-128450911D01*
X116910286Y-128417389D01*
X116996199Y-128400300D01*
X117083801Y-128400300D01*
X117169714Y-128417389D01*
X117169714Y-128417389D01*
G37*
G36*
X118439714Y-128417389D02*
X118520644Y-128450911D01*
X118593483Y-128499581D01*
X118655419Y-128561517D01*
X118704089Y-128634356D01*
X118737611Y-128715286D01*
X118754700Y-128801199D01*
X118754700Y-128888801D01*
X118737611Y-128974714D01*
X118704089Y-129055644D01*
X118655419Y-129128483D01*
X118593483Y-129190419D01*
X118520644Y-129239089D01*
X118439714Y-129272611D01*
X118353801Y-129289700D01*
X118266199Y-129289700D01*
X118180286Y-129272611D01*
X118099356Y-129239089D01*
X118026517Y-129190419D01*
X117964581Y-129128483D01*
X117915911Y-129055644D01*
X117882389Y-128974714D01*
X117865300Y-128888801D01*
X117865300Y-128801199D01*
X117882389Y-128715286D01*
X117915911Y-128634356D01*
X117964581Y-128561517D01*
X118026517Y-128499581D01*
X118099356Y-128450911D01*
X118180286Y-128417389D01*
X118266199Y-128400300D01*
X118353801Y-128400300D01*
X118439714Y-128417389D01*
X118439714Y-128417389D01*
G37*
G36*
X119709714Y-128417389D02*
X119790644Y-128450911D01*
X119863483Y-128499581D01*
X119925419Y-128561517D01*
X119974089Y-128634356D01*
X120007611Y-128715286D01*
X120024700Y-128801199D01*
X120024700Y-128888801D01*
X120007611Y-128974714D01*
X119974089Y-129055644D01*
X119925419Y-129128483D01*
X119863483Y-129190419D01*
X119790644Y-129239089D01*
X119709714Y-129272611D01*
X119623801Y-129289700D01*
X119536199Y-129289700D01*
X119450286Y-129272611D01*
X119369356Y-129239089D01*
X119296517Y-129190419D01*
X119234581Y-129128483D01*
X119185911Y-129055644D01*
X119152389Y-128974714D01*
X119135300Y-128888801D01*
X119135300Y-128801199D01*
X119152389Y-128715286D01*
X119185911Y-128634356D01*
X119234581Y-128561517D01*
X119296517Y-128499581D01*
X119369356Y-128450911D01*
X119450286Y-128417389D01*
X119536199Y-128400300D01*
X119623801Y-128400300D01*
X119709714Y-128417389D01*
X119709714Y-128417389D01*
G37*
G36*
X115929350Y-127938694D02*
X116028770Y-127979875D01*
X116118249Y-128039663D01*
X116194337Y-128115751D01*
X116254125Y-128205230D01*
X116295306Y-128304650D01*
X116316300Y-128410194D01*
X116316300Y-128517806D01*
X116295306Y-128623350D01*
X116254125Y-128722770D01*
X116194337Y-128812249D01*
X116118249Y-128888337D01*
X116028770Y-128948125D01*
X115929350Y-128989306D01*
X115823806Y-129010300D01*
X115716194Y-129010300D01*
X115610650Y-128989306D01*
X115511230Y-128948125D01*
X115421751Y-128888337D01*
X115345663Y-128812249D01*
X115285875Y-128722770D01*
X115244694Y-128623350D01*
X115223700Y-128517806D01*
X115223700Y-128410194D01*
X115244694Y-128304650D01*
X115285875Y-128205230D01*
X115345663Y-128115751D01*
X115421751Y-128039663D01*
X115511230Y-127979875D01*
X115610650Y-127938694D01*
X115716194Y-127917700D01*
X115823806Y-127917700D01*
X115929350Y-127938694D01*
X115929350Y-127938694D01*
G37*
G36*
X107958677Y-127433465D02*
X107996364Y-127444898D01*
X108031103Y-127463466D01*
X108061548Y-127488452D01*
X108086534Y-127518897D01*
X108105102Y-127553636D01*
X108116535Y-127591323D01*
X108121000Y-127636661D01*
X108121000Y-128473339D01*
X108116535Y-128518677D01*
X108105102Y-128556364D01*
X108086534Y-128591103D01*
X108061548Y-128621548D01*
X108031103Y-128646534D01*
X107996364Y-128665102D01*
X107958677Y-128676535D01*
X107913339Y-128681000D01*
X106826661Y-128681000D01*
X106781323Y-128676535D01*
X106743636Y-128665102D01*
X106708897Y-128646534D01*
X106678452Y-128621548D01*
X106653466Y-128591103D01*
X106634898Y-128556364D01*
X106623465Y-128518677D01*
X106619000Y-128473339D01*
X106619000Y-127636661D01*
X106623465Y-127591323D01*
X106634898Y-127553636D01*
X106653466Y-127518897D01*
X106678452Y-127488452D01*
X106708897Y-127463466D01*
X106743636Y-127444898D01*
X106781323Y-127433465D01*
X106826661Y-127429000D01*
X107913339Y-127429000D01*
X107958677Y-127433465D01*
X107958677Y-127433465D01*
G37*
G36*
X73371000Y-127681000D02*
X72369000Y-127681000D01*
X72369000Y-126379000D01*
X73371000Y-126379000D01*
X73371000Y-127681000D01*
X73371000Y-127681000D01*
G37*
G36*
X76671000Y-127681000D02*
X75669000Y-127681000D01*
X75669000Y-126379000D01*
X76671000Y-126379000D01*
X76671000Y-127681000D01*
X76671000Y-127681000D01*
G37*
G36*
X99843934Y-126863755D02*
X93591934Y-126863755D01*
X93591934Y-125161755D01*
X99843934Y-125161755D01*
X99843934Y-126863755D01*
X99843934Y-126863755D01*
G37*
G36*
X58360443Y-122395519D02*
X58426627Y-122402037D01*
X58539853Y-122436384D01*
X58596467Y-122453557D01*
X58735087Y-122527652D01*
X58752991Y-122537222D01*
X58779134Y-122558677D01*
X58890186Y-122649814D01*
X58973448Y-122751271D01*
X59002778Y-122787009D01*
X59002779Y-122787011D01*
X59086443Y-122943533D01*
X59086443Y-122943534D01*
X59137963Y-123113373D01*
X59155359Y-123290000D01*
X59137963Y-123466627D01*
X59103616Y-123579853D01*
X59086443Y-123636467D01*
X59012348Y-123775087D01*
X59002778Y-123792991D01*
X58973448Y-123828729D01*
X58890186Y-123930186D01*
X58788729Y-124013448D01*
X58752991Y-124042778D01*
X58752989Y-124042779D01*
X58596467Y-124126443D01*
X58539853Y-124143616D01*
X58426627Y-124177963D01*
X58360442Y-124184482D01*
X58294260Y-124191000D01*
X58205740Y-124191000D01*
X58139558Y-124184482D01*
X58073373Y-124177963D01*
X57960147Y-124143616D01*
X57903533Y-124126443D01*
X57747011Y-124042779D01*
X57747009Y-124042778D01*
X57711271Y-124013448D01*
X57609814Y-123930186D01*
X57526552Y-123828729D01*
X57497222Y-123792991D01*
X57487652Y-123775087D01*
X57413557Y-123636467D01*
X57396384Y-123579853D01*
X57362037Y-123466627D01*
X57344641Y-123290000D01*
X57362037Y-123113373D01*
X57413557Y-122943534D01*
X57413557Y-122943533D01*
X57497221Y-122787011D01*
X57497222Y-122787009D01*
X57526552Y-122751271D01*
X57609814Y-122649814D01*
X57720866Y-122558677D01*
X57747009Y-122537222D01*
X57764913Y-122527652D01*
X57903533Y-122453557D01*
X57960147Y-122436384D01*
X58073373Y-122402037D01*
X58139557Y-122395519D01*
X58205740Y-122389000D01*
X58294260Y-122389000D01*
X58360443Y-122395519D01*
X58360443Y-122395519D01*
G37*
G36*
X60900443Y-122395519D02*
X60966627Y-122402037D01*
X61079853Y-122436384D01*
X61136467Y-122453557D01*
X61275087Y-122527652D01*
X61292991Y-122537222D01*
X61319134Y-122558677D01*
X61430186Y-122649814D01*
X61513448Y-122751271D01*
X61542778Y-122787009D01*
X61542779Y-122787011D01*
X61626443Y-122943533D01*
X61626443Y-122943534D01*
X61677963Y-123113373D01*
X61695359Y-123290000D01*
X61677963Y-123466627D01*
X61643616Y-123579853D01*
X61626443Y-123636467D01*
X61552348Y-123775087D01*
X61542778Y-123792991D01*
X61513448Y-123828729D01*
X61430186Y-123930186D01*
X61328729Y-124013448D01*
X61292991Y-124042778D01*
X61292989Y-124042779D01*
X61136467Y-124126443D01*
X61079853Y-124143616D01*
X60966627Y-124177963D01*
X60900442Y-124184482D01*
X60834260Y-124191000D01*
X60745740Y-124191000D01*
X60679558Y-124184482D01*
X60613373Y-124177963D01*
X60500147Y-124143616D01*
X60443533Y-124126443D01*
X60287011Y-124042779D01*
X60287009Y-124042778D01*
X60251271Y-124013448D01*
X60149814Y-123930186D01*
X60066552Y-123828729D01*
X60037222Y-123792991D01*
X60027652Y-123775087D01*
X59953557Y-123636467D01*
X59936384Y-123579853D01*
X59902037Y-123466627D01*
X59884641Y-123290000D01*
X59902037Y-123113373D01*
X59953557Y-122943534D01*
X59953557Y-122943533D01*
X60037221Y-122787011D01*
X60037222Y-122787009D01*
X60066552Y-122751271D01*
X60149814Y-122649814D01*
X60260866Y-122558677D01*
X60287009Y-122537222D01*
X60304913Y-122527652D01*
X60443533Y-122453557D01*
X60500147Y-122436384D01*
X60613373Y-122402037D01*
X60679557Y-122395519D01*
X60745740Y-122389000D01*
X60834260Y-122389000D01*
X60900443Y-122395519D01*
X60900443Y-122395519D01*
G37*
G36*
X55820443Y-122395519D02*
X55886627Y-122402037D01*
X55999853Y-122436384D01*
X56056467Y-122453557D01*
X56195087Y-122527652D01*
X56212991Y-122537222D01*
X56239134Y-122558677D01*
X56350186Y-122649814D01*
X56433448Y-122751271D01*
X56462778Y-122787009D01*
X56462779Y-122787011D01*
X56546443Y-122943533D01*
X56546443Y-122943534D01*
X56597963Y-123113373D01*
X56615359Y-123290000D01*
X56597963Y-123466627D01*
X56563616Y-123579853D01*
X56546443Y-123636467D01*
X56472348Y-123775087D01*
X56462778Y-123792991D01*
X56433448Y-123828729D01*
X56350186Y-123930186D01*
X56248729Y-124013448D01*
X56212991Y-124042778D01*
X56212989Y-124042779D01*
X56056467Y-124126443D01*
X55999853Y-124143616D01*
X55886627Y-124177963D01*
X55820442Y-124184482D01*
X55754260Y-124191000D01*
X55665740Y-124191000D01*
X55599558Y-124184482D01*
X55533373Y-124177963D01*
X55420147Y-124143616D01*
X55363533Y-124126443D01*
X55207011Y-124042779D01*
X55207009Y-124042778D01*
X55171271Y-124013448D01*
X55069814Y-123930186D01*
X54986552Y-123828729D01*
X54957222Y-123792991D01*
X54947652Y-123775087D01*
X54873557Y-123636467D01*
X54856384Y-123579853D01*
X54822037Y-123466627D01*
X54804641Y-123290000D01*
X54822037Y-123113373D01*
X54873557Y-122943534D01*
X54873557Y-122943533D01*
X54957221Y-122787011D01*
X54957222Y-122787009D01*
X54986552Y-122751271D01*
X55069814Y-122649814D01*
X55180866Y-122558677D01*
X55207009Y-122537222D01*
X55224913Y-122527652D01*
X55363533Y-122453557D01*
X55420147Y-122436384D01*
X55533373Y-122402037D01*
X55599557Y-122395519D01*
X55665740Y-122389000D01*
X55754260Y-122389000D01*
X55820443Y-122395519D01*
X55820443Y-122395519D01*
G37*
G36*
X63440443Y-122395519D02*
X63506627Y-122402037D01*
X63619853Y-122436384D01*
X63676467Y-122453557D01*
X63815087Y-122527652D01*
X63832991Y-122537222D01*
X63859134Y-122558677D01*
X63970186Y-122649814D01*
X64053448Y-122751271D01*
X64082778Y-122787009D01*
X64082779Y-122787011D01*
X64166443Y-122943533D01*
X64166443Y-122943534D01*
X64217963Y-123113373D01*
X64235359Y-123290000D01*
X64217963Y-123466627D01*
X64183616Y-123579853D01*
X64166443Y-123636467D01*
X64092348Y-123775087D01*
X64082778Y-123792991D01*
X64053448Y-123828729D01*
X63970186Y-123930186D01*
X63868729Y-124013448D01*
X63832991Y-124042778D01*
X63832989Y-124042779D01*
X63676467Y-124126443D01*
X63619853Y-124143616D01*
X63506627Y-124177963D01*
X63440442Y-124184482D01*
X63374260Y-124191000D01*
X63285740Y-124191000D01*
X63219558Y-124184482D01*
X63153373Y-124177963D01*
X63040147Y-124143616D01*
X62983533Y-124126443D01*
X62827011Y-124042779D01*
X62827009Y-124042778D01*
X62791271Y-124013448D01*
X62689814Y-123930186D01*
X62606552Y-123828729D01*
X62577222Y-123792991D01*
X62567652Y-123775087D01*
X62493557Y-123636467D01*
X62476384Y-123579853D01*
X62442037Y-123466627D01*
X62424641Y-123290000D01*
X62442037Y-123113373D01*
X62493557Y-122943534D01*
X62493557Y-122943533D01*
X62577221Y-122787011D01*
X62577222Y-122787009D01*
X62606552Y-122751271D01*
X62689814Y-122649814D01*
X62800866Y-122558677D01*
X62827009Y-122537222D01*
X62844913Y-122527652D01*
X62983533Y-122453557D01*
X63040147Y-122436384D01*
X63153373Y-122402037D01*
X63219557Y-122395519D01*
X63285740Y-122389000D01*
X63374260Y-122389000D01*
X63440443Y-122395519D01*
X63440443Y-122395519D01*
G37*
G36*
X53280443Y-122395519D02*
X53346627Y-122402037D01*
X53459853Y-122436384D01*
X53516467Y-122453557D01*
X53655087Y-122527652D01*
X53672991Y-122537222D01*
X53699134Y-122558677D01*
X53810186Y-122649814D01*
X53893448Y-122751271D01*
X53922778Y-122787009D01*
X53922779Y-122787011D01*
X54006443Y-122943533D01*
X54006443Y-122943534D01*
X54057963Y-123113373D01*
X54075359Y-123290000D01*
X54057963Y-123466627D01*
X54023616Y-123579853D01*
X54006443Y-123636467D01*
X53932348Y-123775087D01*
X53922778Y-123792991D01*
X53893448Y-123828729D01*
X53810186Y-123930186D01*
X53708729Y-124013448D01*
X53672991Y-124042778D01*
X53672989Y-124042779D01*
X53516467Y-124126443D01*
X53459853Y-124143616D01*
X53346627Y-124177963D01*
X53280442Y-124184482D01*
X53214260Y-124191000D01*
X53125740Y-124191000D01*
X53059558Y-124184482D01*
X52993373Y-124177963D01*
X52880147Y-124143616D01*
X52823533Y-124126443D01*
X52667011Y-124042779D01*
X52667009Y-124042778D01*
X52631271Y-124013448D01*
X52529814Y-123930186D01*
X52446552Y-123828729D01*
X52417222Y-123792991D01*
X52407652Y-123775087D01*
X52333557Y-123636467D01*
X52316384Y-123579853D01*
X52282037Y-123466627D01*
X52264641Y-123290000D01*
X52282037Y-123113373D01*
X52333557Y-122943534D01*
X52333557Y-122943533D01*
X52417221Y-122787011D01*
X52417222Y-122787009D01*
X52446552Y-122751271D01*
X52529814Y-122649814D01*
X52640866Y-122558677D01*
X52667009Y-122537222D01*
X52684913Y-122527652D01*
X52823533Y-122453557D01*
X52880147Y-122436384D01*
X52993373Y-122402037D01*
X53059557Y-122395519D01*
X53125740Y-122389000D01*
X53214260Y-122389000D01*
X53280443Y-122395519D01*
X53280443Y-122395519D01*
G37*
G36*
X66771000Y-124191000D02*
X64969000Y-124191000D01*
X64969000Y-122389000D01*
X66771000Y-122389000D01*
X66771000Y-124191000D01*
X66771000Y-124191000D01*
G37*
G36*
X108018677Y-121223465D02*
X108056364Y-121234898D01*
X108091103Y-121253466D01*
X108121548Y-121278452D01*
X108146534Y-121308897D01*
X108165102Y-121343636D01*
X108176535Y-121381323D01*
X108181000Y-121426661D01*
X108181000Y-122513339D01*
X108176535Y-122558677D01*
X108165102Y-122596364D01*
X108146534Y-122631103D01*
X108121548Y-122661548D01*
X108091103Y-122686534D01*
X108056364Y-122705102D01*
X108018677Y-122716535D01*
X107973339Y-122721000D01*
X107136661Y-122721000D01*
X107091323Y-122716535D01*
X107053636Y-122705102D01*
X107018897Y-122686534D01*
X106988452Y-122661548D01*
X106963466Y-122631103D01*
X106944898Y-122596364D01*
X106933465Y-122558677D01*
X106929000Y-122513339D01*
X106929000Y-121426661D01*
X106933465Y-121381323D01*
X106944898Y-121343636D01*
X106963466Y-121308897D01*
X106988452Y-121278452D01*
X107018897Y-121253466D01*
X107053636Y-121234898D01*
X107091323Y-121223465D01*
X107136661Y-121219000D01*
X107973339Y-121219000D01*
X108018677Y-121223465D01*
X108018677Y-121223465D01*
G37*
G36*
X105968677Y-121223465D02*
X106006364Y-121234898D01*
X106041103Y-121253466D01*
X106071548Y-121278452D01*
X106096534Y-121308897D01*
X106115102Y-121343636D01*
X106126535Y-121381323D01*
X106131000Y-121426661D01*
X106131000Y-122513339D01*
X106126535Y-122558677D01*
X106115102Y-122596364D01*
X106096534Y-122631103D01*
X106071548Y-122661548D01*
X106041103Y-122686534D01*
X106006364Y-122705102D01*
X105968677Y-122716535D01*
X105923339Y-122721000D01*
X105086661Y-122721000D01*
X105041323Y-122716535D01*
X105003636Y-122705102D01*
X104968897Y-122686534D01*
X104938452Y-122661548D01*
X104913466Y-122631103D01*
X104894898Y-122596364D01*
X104883465Y-122558677D01*
X104879000Y-122513339D01*
X104879000Y-121426661D01*
X104883465Y-121381323D01*
X104894898Y-121343636D01*
X104913466Y-121308897D01*
X104938452Y-121278452D01*
X104968897Y-121253466D01*
X105003636Y-121234898D01*
X105041323Y-121223465D01*
X105086661Y-121219000D01*
X105923339Y-121219000D01*
X105968677Y-121223465D01*
X105968677Y-121223465D01*
G37*
G36*
X98474286Y-120791746D02*
X98511973Y-120803179D01*
X98546712Y-120821747D01*
X98577157Y-120846733D01*
X98602143Y-120877178D01*
X98620711Y-120911917D01*
X98632144Y-120949604D01*
X98636609Y-120994942D01*
X98636609Y-121831620D01*
X98632144Y-121876958D01*
X98620711Y-121914645D01*
X98602143Y-121949384D01*
X98577157Y-121979829D01*
X98546712Y-122004815D01*
X98511973Y-122023383D01*
X98474286Y-122034816D01*
X98428948Y-122039281D01*
X97342270Y-122039281D01*
X97296932Y-122034816D01*
X97259245Y-122023383D01*
X97224506Y-122004815D01*
X97194061Y-121979829D01*
X97169075Y-121949384D01*
X97150507Y-121914645D01*
X97139074Y-121876958D01*
X97134609Y-121831620D01*
X97134609Y-120994942D01*
X97139074Y-120949604D01*
X97150507Y-120911917D01*
X97169075Y-120877178D01*
X97194061Y-120846733D01*
X97224506Y-120821747D01*
X97259245Y-120803179D01*
X97296932Y-120791746D01*
X97342270Y-120787281D01*
X98428948Y-120787281D01*
X98474286Y-120791746D01*
X98474286Y-120791746D01*
G37*
G36*
X96234286Y-120781746D02*
X96271973Y-120793179D01*
X96306712Y-120811747D01*
X96337157Y-120836733D01*
X96362143Y-120867178D01*
X96380711Y-120901917D01*
X96392144Y-120939604D01*
X96396609Y-120984942D01*
X96396609Y-121821620D01*
X96392144Y-121866958D01*
X96380711Y-121904645D01*
X96362143Y-121939384D01*
X96337157Y-121969829D01*
X96306712Y-121994815D01*
X96271973Y-122013383D01*
X96234286Y-122024816D01*
X96188948Y-122029281D01*
X95102270Y-122029281D01*
X95056932Y-122024816D01*
X95019245Y-122013383D01*
X94984506Y-121994815D01*
X94954061Y-121969829D01*
X94929075Y-121939384D01*
X94910507Y-121904645D01*
X94899074Y-121866958D01*
X94894609Y-121821620D01*
X94894609Y-120984942D01*
X94899074Y-120939604D01*
X94910507Y-120901917D01*
X94929075Y-120867178D01*
X94954061Y-120836733D01*
X94984506Y-120811747D01*
X95019245Y-120793179D01*
X95056932Y-120781746D01*
X95102270Y-120777281D01*
X96188948Y-120777281D01*
X96234286Y-120781746D01*
X96234286Y-120781746D01*
G37*
G36*
X128081000Y-121971000D02*
X125979000Y-121971000D01*
X125979000Y-120369000D01*
X128081000Y-120369000D01*
X128081000Y-121971000D01*
X128081000Y-121971000D01*
G37*
G36*
X121781000Y-120821000D02*
X119679000Y-120821000D01*
X119679000Y-116919000D01*
X121781000Y-116919000D01*
X121781000Y-120821000D01*
X121781000Y-120821000D01*
G37*
G36*
X98474286Y-118741746D02*
X98511973Y-118753179D01*
X98546712Y-118771747D01*
X98577157Y-118796733D01*
X98602143Y-118827178D01*
X98620711Y-118861917D01*
X98632144Y-118899604D01*
X98636609Y-118944942D01*
X98636609Y-119781620D01*
X98632144Y-119826958D01*
X98620711Y-119864645D01*
X98602143Y-119899384D01*
X98577157Y-119929829D01*
X98546712Y-119954815D01*
X98511973Y-119973383D01*
X98474286Y-119984816D01*
X98428948Y-119989281D01*
X97342270Y-119989281D01*
X97296932Y-119984816D01*
X97259245Y-119973383D01*
X97224506Y-119954815D01*
X97194061Y-119929829D01*
X97169075Y-119899384D01*
X97150507Y-119864645D01*
X97139074Y-119826958D01*
X97134609Y-119781620D01*
X97134609Y-118944942D01*
X97139074Y-118899604D01*
X97150507Y-118861917D01*
X97169075Y-118827178D01*
X97194061Y-118796733D01*
X97224506Y-118771747D01*
X97259245Y-118753179D01*
X97296932Y-118741746D01*
X97342270Y-118737281D01*
X98428948Y-118737281D01*
X98474286Y-118741746D01*
X98474286Y-118741746D01*
G37*
G36*
X96234286Y-118731746D02*
X96271973Y-118743179D01*
X96306712Y-118761747D01*
X96337157Y-118786733D01*
X96362143Y-118817178D01*
X96380711Y-118851917D01*
X96392144Y-118889604D01*
X96396609Y-118934942D01*
X96396609Y-119771620D01*
X96392144Y-119816958D01*
X96380711Y-119854645D01*
X96362143Y-119889384D01*
X96337157Y-119919829D01*
X96306712Y-119944815D01*
X96271973Y-119963383D01*
X96234286Y-119974816D01*
X96188948Y-119979281D01*
X95102270Y-119979281D01*
X95056932Y-119974816D01*
X95019245Y-119963383D01*
X94984506Y-119944815D01*
X94954061Y-119919829D01*
X94929075Y-119889384D01*
X94910507Y-119854645D01*
X94899074Y-119816958D01*
X94894609Y-119771620D01*
X94894609Y-118934942D01*
X94899074Y-118889604D01*
X94910507Y-118851917D01*
X94929075Y-118817178D01*
X94954061Y-118786733D01*
X94984506Y-118761747D01*
X95019245Y-118743179D01*
X95056932Y-118731746D01*
X95102270Y-118727281D01*
X96188948Y-118727281D01*
X96234286Y-118731746D01*
X96234286Y-118731746D01*
G37*
G36*
X118293677Y-118443465D02*
X118331364Y-118454898D01*
X118366103Y-118473466D01*
X118396548Y-118498452D01*
X118421534Y-118528897D01*
X118440102Y-118563636D01*
X118451535Y-118601323D01*
X118456000Y-118646661D01*
X118456000Y-119733339D01*
X118451535Y-119778677D01*
X118440102Y-119816364D01*
X118421534Y-119851103D01*
X118396548Y-119881548D01*
X118366103Y-119906534D01*
X118331364Y-119925102D01*
X118293677Y-119936535D01*
X118248339Y-119941000D01*
X117411661Y-119941000D01*
X117366323Y-119936535D01*
X117328636Y-119925102D01*
X117293897Y-119906534D01*
X117263452Y-119881548D01*
X117238466Y-119851103D01*
X117219898Y-119816364D01*
X117208465Y-119778677D01*
X117204000Y-119733339D01*
X117204000Y-118646661D01*
X117208465Y-118601323D01*
X117219898Y-118563636D01*
X117238466Y-118528897D01*
X117263452Y-118498452D01*
X117293897Y-118473466D01*
X117328636Y-118454898D01*
X117366323Y-118443465D01*
X117411661Y-118439000D01*
X118248339Y-118439000D01*
X118293677Y-118443465D01*
X118293677Y-118443465D01*
G37*
G36*
X116243677Y-118443465D02*
X116281364Y-118454898D01*
X116316103Y-118473466D01*
X116346548Y-118498452D01*
X116371534Y-118528897D01*
X116390102Y-118563636D01*
X116401535Y-118601323D01*
X116406000Y-118646661D01*
X116406000Y-119733339D01*
X116401535Y-119778677D01*
X116390102Y-119816364D01*
X116371534Y-119851103D01*
X116346548Y-119881548D01*
X116316103Y-119906534D01*
X116281364Y-119925102D01*
X116243677Y-119936535D01*
X116198339Y-119941000D01*
X115361661Y-119941000D01*
X115316323Y-119936535D01*
X115278636Y-119925102D01*
X115243897Y-119906534D01*
X115213452Y-119881548D01*
X115188466Y-119851103D01*
X115169898Y-119816364D01*
X115158465Y-119778677D01*
X115154000Y-119733339D01*
X115154000Y-118646661D01*
X115158465Y-118601323D01*
X115169898Y-118563636D01*
X115188466Y-118528897D01*
X115213452Y-118498452D01*
X115243897Y-118473466D01*
X115278636Y-118454898D01*
X115316323Y-118443465D01*
X115361661Y-118439000D01*
X116198339Y-118439000D01*
X116243677Y-118443465D01*
X116243677Y-118443465D01*
G37*
G36*
X128081000Y-119671000D02*
X125979000Y-119671000D01*
X125979000Y-118069000D01*
X128081000Y-118069000D01*
X128081000Y-119671000D01*
X128081000Y-119671000D01*
G37*
G36*
X58968871Y-115088408D02*
X59273883Y-115214748D01*
X59426891Y-115316985D01*
X59548390Y-115398168D01*
X59781832Y-115631610D01*
X59781834Y-115631613D01*
X59965252Y-115906117D01*
X60091592Y-116211129D01*
X60156000Y-116534928D01*
X60156000Y-116865072D01*
X60091592Y-117188871D01*
X59965252Y-117493883D01*
X59783070Y-117766538D01*
X59781832Y-117768390D01*
X59548390Y-118001832D01*
X59548387Y-118001834D01*
X59273883Y-118185252D01*
X58968871Y-118311592D01*
X58645072Y-118376000D01*
X58314928Y-118376000D01*
X57991129Y-118311592D01*
X57686117Y-118185252D01*
X57411613Y-118001834D01*
X57411610Y-118001832D01*
X57178168Y-117768390D01*
X57176930Y-117766538D01*
X56994748Y-117493883D01*
X56868408Y-117188871D01*
X56804000Y-116865072D01*
X56804000Y-116534928D01*
X56868408Y-116211129D01*
X56994748Y-115906117D01*
X57178166Y-115631613D01*
X57178168Y-115631610D01*
X57411610Y-115398168D01*
X57533109Y-115316985D01*
X57686117Y-115214748D01*
X57991129Y-115088408D01*
X58314928Y-115024000D01*
X58645072Y-115024000D01*
X58968871Y-115088408D01*
X58968871Y-115088408D01*
G37*
G36*
X128081000Y-117371000D02*
X125979000Y-117371000D01*
X125979000Y-115769000D01*
X128081000Y-115769000D01*
X128081000Y-117371000D01*
X128081000Y-117371000D01*
G37*
G36*
X65066560Y-114020166D02*
X65214153Y-114081301D01*
X65331848Y-114159943D01*
X65346985Y-114170057D01*
X65459943Y-114283015D01*
X65459945Y-114283018D01*
X65498688Y-114341000D01*
X65548700Y-114415849D01*
X65609834Y-114563440D01*
X65641000Y-114720122D01*
X65641000Y-114879878D01*
X65609834Y-115036560D01*
X65548700Y-115184151D01*
X65459943Y-115316985D01*
X65346985Y-115429943D01*
X65346982Y-115429945D01*
X65214153Y-115518699D01*
X65214152Y-115518700D01*
X65214151Y-115518700D01*
X65066560Y-115579834D01*
X64909878Y-115611000D01*
X64750122Y-115611000D01*
X64593440Y-115579834D01*
X64445849Y-115518700D01*
X64445848Y-115518700D01*
X64445847Y-115518699D01*
X64313018Y-115429945D01*
X64313015Y-115429943D01*
X64200057Y-115316985D01*
X64111300Y-115184151D01*
X64050166Y-115036560D01*
X64019000Y-114879878D01*
X64019000Y-114720122D01*
X64050166Y-114563440D01*
X64111300Y-114415849D01*
X64161313Y-114341000D01*
X64200055Y-114283018D01*
X64200057Y-114283015D01*
X64313015Y-114170057D01*
X64328152Y-114159943D01*
X64445847Y-114081301D01*
X64593440Y-114020166D01*
X64750122Y-113989000D01*
X64909878Y-113989000D01*
X65066560Y-114020166D01*
X65066560Y-114020166D01*
G37*
G36*
X111521000Y-115411000D02*
X109419000Y-115411000D01*
X109419000Y-113809000D01*
X111521000Y-113809000D01*
X111521000Y-115411000D01*
X111521000Y-115411000D01*
G37*
G36*
X67606560Y-112750166D02*
X67754153Y-112811301D01*
X67871848Y-112889943D01*
X67886985Y-112900057D01*
X67999943Y-113013015D01*
X67999945Y-113013018D01*
X68088699Y-113145847D01*
X68149834Y-113293440D01*
X68181000Y-113450123D01*
X68181000Y-113609877D01*
X68149834Y-113766560D01*
X68088699Y-113914153D01*
X68017863Y-114020166D01*
X67999943Y-114046985D01*
X67886985Y-114159943D01*
X67886982Y-114159945D01*
X67754153Y-114248699D01*
X67754152Y-114248700D01*
X67754151Y-114248700D01*
X67606560Y-114309834D01*
X67449878Y-114341000D01*
X67290122Y-114341000D01*
X67133440Y-114309834D01*
X66985849Y-114248700D01*
X66985848Y-114248700D01*
X66985847Y-114248699D01*
X66853018Y-114159945D01*
X66853015Y-114159943D01*
X66740057Y-114046985D01*
X66722137Y-114020166D01*
X66651301Y-113914153D01*
X66590166Y-113766560D01*
X66559000Y-113609877D01*
X66559000Y-113450123D01*
X66590166Y-113293440D01*
X66651301Y-113145847D01*
X66740055Y-113013018D01*
X66740057Y-113013015D01*
X66853015Y-112900057D01*
X66868152Y-112889943D01*
X66985847Y-112811301D01*
X67133440Y-112750166D01*
X67290122Y-112719000D01*
X67449878Y-112719000D01*
X67606560Y-112750166D01*
X67606560Y-112750166D01*
G37*
G36*
X105221000Y-114261000D02*
X103119000Y-114261000D01*
X103119000Y-110359000D01*
X105221000Y-110359000D01*
X105221000Y-114261000D01*
X105221000Y-114261000D01*
G37*
G36*
X111521000Y-113111000D02*
X109419000Y-113111000D01*
X109419000Y-111509000D01*
X111521000Y-111509000D01*
X111521000Y-113111000D01*
X111521000Y-113111000D01*
G37*
G36*
X65066560Y-111480166D02*
X65136172Y-111509000D01*
X65214153Y-111541301D01*
X65331848Y-111619943D01*
X65346985Y-111630057D01*
X65459943Y-111743015D01*
X65459945Y-111743018D01*
X65548699Y-111875847D01*
X65609834Y-112023440D01*
X65641000Y-112180123D01*
X65641000Y-112339877D01*
X65609834Y-112496560D01*
X65548699Y-112644153D01*
X65477863Y-112750166D01*
X65459943Y-112776985D01*
X65346985Y-112889943D01*
X65346982Y-112889945D01*
X65214153Y-112978699D01*
X65214152Y-112978700D01*
X65214151Y-112978700D01*
X65066560Y-113039834D01*
X64909878Y-113071000D01*
X64750122Y-113071000D01*
X64593440Y-113039834D01*
X64445849Y-112978700D01*
X64445848Y-112978700D01*
X64445847Y-112978699D01*
X64313018Y-112889945D01*
X64313015Y-112889943D01*
X64200057Y-112776985D01*
X64182137Y-112750166D01*
X64111301Y-112644153D01*
X64050166Y-112496560D01*
X64019000Y-112339877D01*
X64019000Y-112180123D01*
X64050166Y-112023440D01*
X64111301Y-111875847D01*
X64200055Y-111743018D01*
X64200057Y-111743015D01*
X64313015Y-111630057D01*
X64328152Y-111619943D01*
X64445847Y-111541301D01*
X64523829Y-111509000D01*
X64593440Y-111480166D01*
X64750122Y-111449000D01*
X64909878Y-111449000D01*
X65066560Y-111480166D01*
X65066560Y-111480166D01*
G37*
G36*
X67606560Y-110210166D02*
X67754153Y-110271301D01*
X67871848Y-110349943D01*
X67886985Y-110360057D01*
X67999943Y-110473015D01*
X67999945Y-110473018D01*
X68038688Y-110531000D01*
X68088700Y-110605849D01*
X68149834Y-110753440D01*
X68181000Y-110910123D01*
X68181000Y-111069877D01*
X68149834Y-111226560D01*
X68088699Y-111374153D01*
X68017863Y-111480166D01*
X67999943Y-111506985D01*
X67886985Y-111619943D01*
X67886982Y-111619945D01*
X67754153Y-111708699D01*
X67754152Y-111708700D01*
X67754151Y-111708700D01*
X67606560Y-111769834D01*
X67449878Y-111801000D01*
X67290122Y-111801000D01*
X67133440Y-111769834D01*
X66985849Y-111708700D01*
X66985848Y-111708700D01*
X66985847Y-111708699D01*
X66853018Y-111619945D01*
X66853015Y-111619943D01*
X66740057Y-111506985D01*
X66722137Y-111480166D01*
X66651301Y-111374153D01*
X66590166Y-111226560D01*
X66559000Y-111069877D01*
X66559000Y-110910123D01*
X66590166Y-110753440D01*
X66651300Y-110605849D01*
X66701313Y-110531000D01*
X66740055Y-110473018D01*
X66740057Y-110473015D01*
X66853015Y-110360057D01*
X66868152Y-110349943D01*
X66985847Y-110271301D01*
X67133440Y-110210166D01*
X67290122Y-110179000D01*
X67449878Y-110179000D01*
X67606560Y-110210166D01*
X67606560Y-110210166D01*
G37*
G36*
X111521000Y-110811000D02*
X109419000Y-110811000D01*
X109419000Y-109209000D01*
X111521000Y-109209000D01*
X111521000Y-110811000D01*
X111521000Y-110811000D01*
G37*
G36*
X72589275Y-107608387D02*
X72701244Y-107630659D01*
X72983508Y-107747576D01*
X73237539Y-107917314D01*
X73453575Y-108133350D01*
X73623313Y-108387381D01*
X73740230Y-108669645D01*
X73799834Y-108969295D01*
X73799834Y-109274815D01*
X73740230Y-109574465D01*
X73623313Y-109856729D01*
X73453575Y-110110760D01*
X73237539Y-110326796D01*
X72983508Y-110496534D01*
X72701244Y-110613451D01*
X72601361Y-110633319D01*
X72401596Y-110673055D01*
X72096072Y-110673055D01*
X71896307Y-110633319D01*
X71796424Y-110613451D01*
X71514160Y-110496534D01*
X71260129Y-110326796D01*
X71044093Y-110110760D01*
X70874355Y-109856729D01*
X70757438Y-109574465D01*
X70697834Y-109274815D01*
X70697834Y-108969295D01*
X70757438Y-108669645D01*
X70874355Y-108387381D01*
X71044093Y-108133350D01*
X71260129Y-107917314D01*
X71514160Y-107747576D01*
X71796424Y-107630659D01*
X71908393Y-107608387D01*
X72096072Y-107571055D01*
X72401596Y-107571055D01*
X72589275Y-107608387D01*
X72589275Y-107608387D01*
G37*
G36*
X147587855Y-107608387D02*
X147699824Y-107630659D01*
X147982088Y-107747576D01*
X148236119Y-107917314D01*
X148452155Y-108133350D01*
X148621893Y-108387381D01*
X148738810Y-108669645D01*
X148798414Y-108969295D01*
X148798414Y-109274815D01*
X148738810Y-109574465D01*
X148621893Y-109856729D01*
X148452155Y-110110760D01*
X148236119Y-110326796D01*
X147982088Y-110496534D01*
X147699824Y-110613451D01*
X147599941Y-110633319D01*
X147400176Y-110673055D01*
X147094652Y-110673055D01*
X146894887Y-110633319D01*
X146795004Y-110613451D01*
X146512740Y-110496534D01*
X146258709Y-110326796D01*
X146042673Y-110110760D01*
X145872935Y-109856729D01*
X145756018Y-109574465D01*
X145696414Y-109274815D01*
X145696414Y-108969295D01*
X145756018Y-108669645D01*
X145872935Y-108387381D01*
X146042673Y-108133350D01*
X146258709Y-107917314D01*
X146512740Y-107747576D01*
X146795004Y-107630659D01*
X146906973Y-107608387D01*
X147094652Y-107571055D01*
X147400176Y-107571055D01*
X147587855Y-107608387D01*
X147587855Y-107608387D01*
G37*
G36*
X65066560Y-108940166D02*
X65214153Y-109001301D01*
X65345213Y-109088873D01*
X65346985Y-109090057D01*
X65459943Y-109203015D01*
X65459945Y-109203018D01*
X65548699Y-109335847D01*
X65609834Y-109483440D01*
X65641000Y-109640123D01*
X65641000Y-109799877D01*
X65609834Y-109956560D01*
X65548699Y-110104153D01*
X65477863Y-110210166D01*
X65459943Y-110236985D01*
X65346985Y-110349943D01*
X65346982Y-110349945D01*
X65214153Y-110438699D01*
X65214152Y-110438700D01*
X65214151Y-110438700D01*
X65066560Y-110499834D01*
X64909878Y-110531000D01*
X64750122Y-110531000D01*
X64593440Y-110499834D01*
X64445849Y-110438700D01*
X64445848Y-110438700D01*
X64445847Y-110438699D01*
X64313018Y-110349945D01*
X64313015Y-110349943D01*
X64200057Y-110236985D01*
X64182137Y-110210166D01*
X64111301Y-110104153D01*
X64050166Y-109956560D01*
X64019000Y-109799877D01*
X64019000Y-109640123D01*
X64050166Y-109483440D01*
X64111301Y-109335847D01*
X64200055Y-109203018D01*
X64200057Y-109203015D01*
X64313015Y-109090057D01*
X64314787Y-109088873D01*
X64445847Y-109001301D01*
X64593440Y-108940166D01*
X64750122Y-108909000D01*
X64909878Y-108909000D01*
X65066560Y-108940166D01*
X65066560Y-108940166D01*
G37*
G36*
X68181000Y-109261000D02*
X66559000Y-109261000D01*
X66559000Y-107639000D01*
X68181000Y-107639000D01*
X68181000Y-109261000D01*
X68181000Y-109261000D01*
G37*
G36*
X58968871Y-104928408D02*
X59273883Y-105054748D01*
X59546538Y-105236930D01*
X59548390Y-105238168D01*
X59781832Y-105471610D01*
X59781834Y-105471613D01*
X59965252Y-105746117D01*
X60091592Y-106051129D01*
X60156000Y-106374928D01*
X60156000Y-106705072D01*
X60091592Y-107028871D01*
X59965252Y-107333883D01*
X59806778Y-107571055D01*
X59781832Y-107608390D01*
X59548390Y-107841832D01*
X59548387Y-107841834D01*
X59273883Y-108025252D01*
X59012916Y-108133348D01*
X58968871Y-108151592D01*
X58645072Y-108216000D01*
X58314928Y-108216000D01*
X57991129Y-108151592D01*
X57947084Y-108133348D01*
X57686117Y-108025252D01*
X57411613Y-107841834D01*
X57411610Y-107841832D01*
X57178168Y-107608390D01*
X57153222Y-107571055D01*
X56994748Y-107333883D01*
X56868408Y-107028871D01*
X56804000Y-106705072D01*
X56804000Y-106374928D01*
X56868408Y-106051129D01*
X56994748Y-105746117D01*
X57178166Y-105471613D01*
X57178168Y-105471610D01*
X57411610Y-105238168D01*
X57413462Y-105236930D01*
X57686117Y-105054748D01*
X57991129Y-104928408D01*
X58314928Y-104864000D01*
X58645072Y-104864000D01*
X58968871Y-104928408D01*
X58968871Y-104928408D01*
G37*
G36*
X107313677Y-104103465D02*
X107351364Y-104114898D01*
X107386103Y-104133466D01*
X107416548Y-104158452D01*
X107441534Y-104188897D01*
X107460102Y-104223636D01*
X107471535Y-104261323D01*
X107476000Y-104306661D01*
X107476000Y-105393339D01*
X107471535Y-105438677D01*
X107460102Y-105476364D01*
X107441534Y-105511103D01*
X107416548Y-105541548D01*
X107386103Y-105566534D01*
X107351364Y-105585102D01*
X107313677Y-105596535D01*
X107268339Y-105601000D01*
X106431661Y-105601000D01*
X106386323Y-105596535D01*
X106348636Y-105585102D01*
X106313897Y-105566534D01*
X106283452Y-105541548D01*
X106258466Y-105511103D01*
X106239898Y-105476364D01*
X106228465Y-105438677D01*
X106224000Y-105393339D01*
X106224000Y-104306661D01*
X106228465Y-104261323D01*
X106239898Y-104223636D01*
X106258466Y-104188897D01*
X106283452Y-104158452D01*
X106313897Y-104133466D01*
X106348636Y-104114898D01*
X106386323Y-104103465D01*
X106431661Y-104099000D01*
X107268339Y-104099000D01*
X107313677Y-104103465D01*
X107313677Y-104103465D01*
G37*
G36*
X105263677Y-104103465D02*
X105301364Y-104114898D01*
X105336103Y-104133466D01*
X105366548Y-104158452D01*
X105391534Y-104188897D01*
X105410102Y-104223636D01*
X105421535Y-104261323D01*
X105426000Y-104306661D01*
X105426000Y-105393339D01*
X105421535Y-105438677D01*
X105410102Y-105476364D01*
X105391534Y-105511103D01*
X105366548Y-105541548D01*
X105336103Y-105566534D01*
X105301364Y-105585102D01*
X105263677Y-105596535D01*
X105218339Y-105601000D01*
X104381661Y-105601000D01*
X104336323Y-105596535D01*
X104298636Y-105585102D01*
X104263897Y-105566534D01*
X104233452Y-105541548D01*
X104208466Y-105511103D01*
X104189898Y-105476364D01*
X104178465Y-105438677D01*
X104174000Y-105393339D01*
X104174000Y-104306661D01*
X104178465Y-104261323D01*
X104189898Y-104223636D01*
X104208466Y-104188897D01*
X104233452Y-104158452D01*
X104263897Y-104133466D01*
X104298636Y-104114898D01*
X104336323Y-104103465D01*
X104381661Y-104099000D01*
X105218339Y-104099000D01*
X105263677Y-104103465D01*
X105263677Y-104103465D01*
G37*
G36*
X95563643Y-94374781D02*
X95709415Y-94435162D01*
X95840611Y-94522824D01*
X95952176Y-94634389D01*
X96039838Y-94765585D01*
X96100219Y-94911357D01*
X96131000Y-95066107D01*
X96131000Y-95223893D01*
X96100219Y-95378643D01*
X96039838Y-95524415D01*
X95952176Y-95655611D01*
X95840611Y-95767176D01*
X95709415Y-95854838D01*
X95563643Y-95915219D01*
X95408893Y-95946000D01*
X95251107Y-95946000D01*
X95096357Y-95915219D01*
X94950585Y-95854838D01*
X94819389Y-95767176D01*
X94707824Y-95655611D01*
X94620162Y-95524415D01*
X94559781Y-95378643D01*
X94529000Y-95223893D01*
X94529000Y-95066107D01*
X94559781Y-94911357D01*
X94620162Y-94765585D01*
X94707824Y-94634389D01*
X94819389Y-94522824D01*
X94950585Y-94435162D01*
X95096357Y-94374781D01*
X95251107Y-94344000D01*
X95408893Y-94344000D01*
X95563643Y-94374781D01*
X95563643Y-94374781D01*
G37*
G36*
X93023643Y-94374781D02*
X93169415Y-94435162D01*
X93300611Y-94522824D01*
X93412176Y-94634389D01*
X93499838Y-94765585D01*
X93560219Y-94911357D01*
X93591000Y-95066107D01*
X93591000Y-95223893D01*
X93560219Y-95378643D01*
X93499838Y-95524415D01*
X93412176Y-95655611D01*
X93300611Y-95767176D01*
X93169415Y-95854838D01*
X93023643Y-95915219D01*
X92868893Y-95946000D01*
X92711107Y-95946000D01*
X92556357Y-95915219D01*
X92410585Y-95854838D01*
X92279389Y-95767176D01*
X92167824Y-95655611D01*
X92080162Y-95524415D01*
X92019781Y-95378643D01*
X91989000Y-95223893D01*
X91989000Y-95066107D01*
X92019781Y-94911357D01*
X92080162Y-94765585D01*
X92167824Y-94634389D01*
X92279389Y-94522824D01*
X92410585Y-94435162D01*
X92556357Y-94374781D01*
X92711107Y-94344000D01*
X92868893Y-94344000D01*
X93023643Y-94374781D01*
X93023643Y-94374781D01*
G37*
G36*
X90483643Y-94374781D02*
X90629415Y-94435162D01*
X90760611Y-94522824D01*
X90872176Y-94634389D01*
X90959838Y-94765585D01*
X91020219Y-94911357D01*
X91051000Y-95066107D01*
X91051000Y-95223893D01*
X91020219Y-95378643D01*
X90959838Y-95524415D01*
X90872176Y-95655611D01*
X90760611Y-95767176D01*
X90629415Y-95854838D01*
X90483643Y-95915219D01*
X90328893Y-95946000D01*
X90171107Y-95946000D01*
X90016357Y-95915219D01*
X89870585Y-95854838D01*
X89739389Y-95767176D01*
X89627824Y-95655611D01*
X89540162Y-95524415D01*
X89479781Y-95378643D01*
X89449000Y-95223893D01*
X89449000Y-95066107D01*
X89479781Y-94911357D01*
X89540162Y-94765585D01*
X89627824Y-94634389D01*
X89739389Y-94522824D01*
X89870585Y-94435162D01*
X90016357Y-94374781D01*
X90171107Y-94344000D01*
X90328893Y-94344000D01*
X90483643Y-94374781D01*
X90483643Y-94374781D01*
G37*
G36*
X87943643Y-94374781D02*
X88089415Y-94435162D01*
X88220611Y-94522824D01*
X88332176Y-94634389D01*
X88419838Y-94765585D01*
X88480219Y-94911357D01*
X88511000Y-95066107D01*
X88511000Y-95223893D01*
X88480219Y-95378643D01*
X88419838Y-95524415D01*
X88332176Y-95655611D01*
X88220611Y-95767176D01*
X88089415Y-95854838D01*
X87943643Y-95915219D01*
X87788893Y-95946000D01*
X87631107Y-95946000D01*
X87476357Y-95915219D01*
X87330585Y-95854838D01*
X87199389Y-95767176D01*
X87087824Y-95655611D01*
X87000162Y-95524415D01*
X86939781Y-95378643D01*
X86909000Y-95223893D01*
X86909000Y-95066107D01*
X86939781Y-94911357D01*
X87000162Y-94765585D01*
X87087824Y-94634389D01*
X87199389Y-94522824D01*
X87330585Y-94435162D01*
X87476357Y-94374781D01*
X87631107Y-94344000D01*
X87788893Y-94344000D01*
X87943643Y-94374781D01*
X87943643Y-94374781D01*
G37*
G36*
X85403643Y-94374781D02*
X85549415Y-94435162D01*
X85680611Y-94522824D01*
X85792176Y-94634389D01*
X85879838Y-94765585D01*
X85940219Y-94911357D01*
X85971000Y-95066107D01*
X85971000Y-95223893D01*
X85940219Y-95378643D01*
X85879838Y-95524415D01*
X85792176Y-95655611D01*
X85680611Y-95767176D01*
X85549415Y-95854838D01*
X85403643Y-95915219D01*
X85248893Y-95946000D01*
X85091107Y-95946000D01*
X84936357Y-95915219D01*
X84790585Y-95854838D01*
X84659389Y-95767176D01*
X84547824Y-95655611D01*
X84460162Y-95524415D01*
X84399781Y-95378643D01*
X84369000Y-95223893D01*
X84369000Y-95066107D01*
X84399781Y-94911357D01*
X84460162Y-94765585D01*
X84547824Y-94634389D01*
X84659389Y-94522824D01*
X84790585Y-94435162D01*
X84936357Y-94374781D01*
X85091107Y-94344000D01*
X85248893Y-94344000D01*
X85403643Y-94374781D01*
X85403643Y-94374781D01*
G37*
G36*
X140525256Y-92541298D02*
X140631579Y-92562447D01*
X140932042Y-92686903D01*
X141198852Y-92865180D01*
X141202454Y-92867587D01*
X141432413Y-93097546D01*
X141613098Y-93367960D01*
X141737553Y-93668422D01*
X141801000Y-93987389D01*
X141801000Y-94312611D01*
X141788633Y-94374782D01*
X141737553Y-94631579D01*
X141682046Y-94765584D01*
X141613098Y-94932040D01*
X141432413Y-95202454D01*
X141202454Y-95432413D01*
X141202451Y-95432415D01*
X140932042Y-95613097D01*
X140631579Y-95737553D01*
X140525256Y-95758702D01*
X140312611Y-95801000D01*
X139987389Y-95801000D01*
X139774744Y-95758702D01*
X139668421Y-95737553D01*
X139367958Y-95613097D01*
X139097549Y-95432415D01*
X139097546Y-95432413D01*
X138867587Y-95202454D01*
X138686902Y-94932040D01*
X138617954Y-94765584D01*
X138562447Y-94631579D01*
X138511367Y-94374782D01*
X138499000Y-94312611D01*
X138499000Y-93987389D01*
X138562447Y-93668422D01*
X138686902Y-93367960D01*
X138867587Y-93097546D01*
X139097546Y-92867587D01*
X139101148Y-92865180D01*
X139367958Y-92686903D01*
X139668421Y-92562447D01*
X139774744Y-92541298D01*
X139987389Y-92499000D01*
X140312611Y-92499000D01*
X140525256Y-92541298D01*
X140525256Y-92541298D01*
G37*
G36*
X60225256Y-92541298D02*
X60331579Y-92562447D01*
X60632042Y-92686903D01*
X60898852Y-92865180D01*
X60902454Y-92867587D01*
X61132413Y-93097546D01*
X61313098Y-93367960D01*
X61437553Y-93668422D01*
X61501000Y-93987389D01*
X61501000Y-94312611D01*
X61488633Y-94374782D01*
X61437553Y-94631579D01*
X61382046Y-94765584D01*
X61313098Y-94932040D01*
X61132413Y-95202454D01*
X60902454Y-95432413D01*
X60902451Y-95432415D01*
X60632042Y-95613097D01*
X60331579Y-95737553D01*
X60225256Y-95758702D01*
X60012611Y-95801000D01*
X59687389Y-95801000D01*
X59474744Y-95758702D01*
X59368421Y-95737553D01*
X59067958Y-95613097D01*
X58797549Y-95432415D01*
X58797546Y-95432413D01*
X58567587Y-95202454D01*
X58386902Y-94932040D01*
X58317954Y-94765584D01*
X58262447Y-94631579D01*
X58211367Y-94374782D01*
X58199000Y-94312611D01*
X58199000Y-93987389D01*
X58262447Y-93668422D01*
X58386902Y-93367960D01*
X58567587Y-93097546D01*
X58797546Y-92867587D01*
X58801148Y-92865180D01*
X59067958Y-92686903D01*
X59368421Y-92562447D01*
X59474744Y-92541298D01*
X59687389Y-92499000D01*
X60012611Y-92499000D01*
X60225256Y-92541298D01*
X60225256Y-92541298D01*
G37*
G36*
X75951000Y-95021000D02*
X74349000Y-95021000D01*
X74349000Y-93419000D01*
X75951000Y-93419000D01*
X75951000Y-95021000D01*
X75951000Y-95021000D01*
G37*
G36*
X73411000Y-95021000D02*
X71809000Y-95021000D01*
X71809000Y-93419000D01*
X73411000Y-93419000D01*
X73411000Y-95021000D01*
X73411000Y-95021000D01*
G37*
G36*
X70871000Y-95021000D02*
X69269000Y-95021000D01*
X69269000Y-93419000D01*
X70871000Y-93419000D01*
X70871000Y-95021000D01*
X70871000Y-95021000D01*
G37*
G36*
X68411000Y-95021000D02*
X66809000Y-95021000D01*
X66809000Y-93419000D01*
X68411000Y-93419000D01*
X68411000Y-95021000D01*
X68411000Y-95021000D01*
G37*
G36*
X131871000Y-90691000D02*
X129769000Y-90691000D01*
X129769000Y-88589000D01*
X131871000Y-88589000D01*
X131871000Y-90691000D01*
X131871000Y-90691000D01*
G37*
G36*
X110942916Y-88787334D02*
X111051492Y-88820271D01*
X111151557Y-88873756D01*
X111239264Y-88945736D01*
X111302374Y-89022635D01*
X111319701Y-89039962D01*
X111340076Y-89053576D01*
X111362715Y-89062954D01*
X111386748Y-89067734D01*
X111411252Y-89067734D01*
X111435286Y-89062953D01*
X111457925Y-89053576D01*
X111478299Y-89039962D01*
X111495626Y-89022635D01*
X111509240Y-89002260D01*
X111518618Y-88979621D01*
X111524000Y-88943336D01*
X111524000Y-88779000D01*
X112676000Y-88779000D01*
X112676000Y-90381000D01*
X111524000Y-90381000D01*
X111524000Y-90216663D01*
X111521598Y-90192277D01*
X111514485Y-90168828D01*
X111502934Y-90147217D01*
X111487388Y-90128275D01*
X111468446Y-90112729D01*
X111446835Y-90101178D01*
X111423386Y-90094065D01*
X111399000Y-90091663D01*
X111374614Y-90094065D01*
X111351165Y-90101178D01*
X111329554Y-90112729D01*
X111302377Y-90137361D01*
X111239264Y-90214264D01*
X111151556Y-90286244D01*
X111051491Y-90339729D01*
X110942915Y-90372666D01*
X110830000Y-90383787D01*
X110717084Y-90372666D01*
X110608508Y-90339729D01*
X110508443Y-90286244D01*
X110420736Y-90214264D01*
X110348756Y-90126556D01*
X110305240Y-90045142D01*
X110291627Y-90024767D01*
X110274299Y-90007440D01*
X110253925Y-89993826D01*
X110231286Y-89984449D01*
X110207253Y-89979668D01*
X110182748Y-89979668D01*
X110158715Y-89984448D01*
X110136076Y-89993826D01*
X110115701Y-90007439D01*
X110098374Y-90024767D01*
X110084767Y-90045131D01*
X110041244Y-90126557D01*
X109969264Y-90214264D01*
X109881556Y-90286244D01*
X109781491Y-90339729D01*
X109672915Y-90372666D01*
X109560000Y-90383787D01*
X109447084Y-90372666D01*
X109338508Y-90339729D01*
X109238443Y-90286244D01*
X109150736Y-90214264D01*
X109078756Y-90126556D01*
X109025271Y-90026491D01*
X108992334Y-89917915D01*
X108984000Y-89833297D01*
X108984000Y-89326702D01*
X108992334Y-89242084D01*
X109025271Y-89133508D01*
X109062983Y-89062954D01*
X109078755Y-89033446D01*
X109104349Y-89002260D01*
X109150737Y-88945736D01*
X109238444Y-88873756D01*
X109338509Y-88820271D01*
X109447085Y-88787334D01*
X109560000Y-88776213D01*
X109672916Y-88787334D01*
X109781492Y-88820271D01*
X109881557Y-88873756D01*
X109969264Y-88945736D01*
X110041244Y-89033443D01*
X110084760Y-89114857D01*
X110098373Y-89135232D01*
X110115701Y-89152559D01*
X110136075Y-89166173D01*
X110158714Y-89175550D01*
X110182747Y-89180331D01*
X110207252Y-89180331D01*
X110231285Y-89175551D01*
X110253924Y-89166173D01*
X110274299Y-89152560D01*
X110291626Y-89135232D01*
X110305240Y-89114857D01*
X110348755Y-89033446D01*
X110374349Y-89002260D01*
X110420737Y-88945736D01*
X110508444Y-88873756D01*
X110608509Y-88820271D01*
X110717085Y-88787334D01*
X110830000Y-88776213D01*
X110942916Y-88787334D01*
X110942916Y-88787334D01*
G37*
G36*
X134485315Y-87238139D02*
X134676584Y-87317365D01*
X134848726Y-87432387D01*
X134995113Y-87578774D01*
X135110135Y-87750916D01*
X135189361Y-87942185D01*
X135229750Y-88145234D01*
X135229750Y-88352266D01*
X135189361Y-88555315D01*
X135110135Y-88746584D01*
X134995113Y-88918726D01*
X134848726Y-89065113D01*
X134676584Y-89180135D01*
X134485315Y-89259361D01*
X134282266Y-89299750D01*
X134075234Y-89299750D01*
X133872185Y-89259361D01*
X133680916Y-89180135D01*
X133508774Y-89065113D01*
X133362387Y-88918726D01*
X133247365Y-88746584D01*
X133168139Y-88555315D01*
X133127750Y-88352266D01*
X133127750Y-88145234D01*
X133168139Y-87942185D01*
X133247365Y-87750916D01*
X133362387Y-87578774D01*
X133508774Y-87432387D01*
X133680916Y-87317365D01*
X133872185Y-87238139D01*
X134075234Y-87197750D01*
X134282266Y-87197750D01*
X134485315Y-87238139D01*
X134485315Y-87238139D01*
G37*
G36*
X127767815Y-87238139D02*
X127959084Y-87317365D01*
X128131226Y-87432387D01*
X128277613Y-87578774D01*
X128392635Y-87750916D01*
X128471861Y-87942185D01*
X128512250Y-88145234D01*
X128512250Y-88352266D01*
X128471861Y-88555315D01*
X128392635Y-88746584D01*
X128277613Y-88918726D01*
X128131226Y-89065113D01*
X127959084Y-89180135D01*
X127767815Y-89259361D01*
X127564766Y-89299750D01*
X127357734Y-89299750D01*
X127154685Y-89259361D01*
X126963416Y-89180135D01*
X126791274Y-89065113D01*
X126644887Y-88918726D01*
X126529865Y-88746584D01*
X126450639Y-88555315D01*
X126410250Y-88352266D01*
X126410250Y-88145234D01*
X126450639Y-87942185D01*
X126529865Y-87750916D01*
X126644887Y-87578774D01*
X126791274Y-87432387D01*
X126963416Y-87317365D01*
X127154685Y-87238139D01*
X127357734Y-87197750D01*
X127564766Y-87197750D01*
X127767815Y-87238139D01*
X127767815Y-87238139D01*
G37*
G36*
X134485315Y-80520639D02*
X134676584Y-80599865D01*
X134848726Y-80714887D01*
X134995113Y-80861274D01*
X135110135Y-81033416D01*
X135189361Y-81224685D01*
X135229750Y-81427734D01*
X135229750Y-81634766D01*
X135189361Y-81837815D01*
X135110135Y-82029084D01*
X134995113Y-82201226D01*
X134848726Y-82347613D01*
X134676584Y-82462635D01*
X134485315Y-82541861D01*
X134282266Y-82582250D01*
X134075234Y-82582250D01*
X133872185Y-82541861D01*
X133680916Y-82462635D01*
X133508774Y-82347613D01*
X133362387Y-82201226D01*
X133247365Y-82029084D01*
X133168139Y-81837815D01*
X133127750Y-81634766D01*
X133127750Y-81427734D01*
X133168139Y-81224685D01*
X133247365Y-81033416D01*
X133362387Y-80861274D01*
X133508774Y-80714887D01*
X133680916Y-80599865D01*
X133872185Y-80520639D01*
X134075234Y-80480250D01*
X134282266Y-80480250D01*
X134485315Y-80520639D01*
X134485315Y-80520639D01*
G37*
G36*
X127767815Y-80520639D02*
X127959084Y-80599865D01*
X128131226Y-80714887D01*
X128277613Y-80861274D01*
X128392635Y-81033416D01*
X128471861Y-81224685D01*
X128512250Y-81427734D01*
X128512250Y-81634766D01*
X128471861Y-81837815D01*
X128392635Y-82029084D01*
X128277613Y-82201226D01*
X128131226Y-82347613D01*
X127959084Y-82462635D01*
X127767815Y-82541861D01*
X127564766Y-82582250D01*
X127357734Y-82582250D01*
X127154685Y-82541861D01*
X126963416Y-82462635D01*
X126791274Y-82347613D01*
X126644887Y-82201226D01*
X126529865Y-82029084D01*
X126450639Y-81837815D01*
X126410250Y-81634766D01*
X126410250Y-81427734D01*
X126450639Y-81224685D01*
X126529865Y-81033416D01*
X126644887Y-80861274D01*
X126791274Y-80714887D01*
X126963416Y-80599865D01*
X127154685Y-80520639D01*
X127357734Y-80480250D01*
X127564766Y-80480250D01*
X127767815Y-80520639D01*
X127767815Y-80520639D01*
G37*
G36*
X131126565Y-79129389D02*
X131317834Y-79208615D01*
X131489976Y-79323637D01*
X131636363Y-79470024D01*
X131751385Y-79642166D01*
X131830611Y-79833435D01*
X131871000Y-80036484D01*
X131871000Y-80243516D01*
X131830611Y-80446565D01*
X131751385Y-80637834D01*
X131636363Y-80809976D01*
X131489976Y-80956363D01*
X131317834Y-81071385D01*
X131126565Y-81150611D01*
X130923516Y-81191000D01*
X130716484Y-81191000D01*
X130513435Y-81150611D01*
X130322166Y-81071385D01*
X130150024Y-80956363D01*
X130003637Y-80809976D01*
X129888615Y-80637834D01*
X129809389Y-80446565D01*
X129769000Y-80243516D01*
X129769000Y-80036484D01*
X129809389Y-79833435D01*
X129888615Y-79642166D01*
X130003637Y-79470024D01*
X130150024Y-79323637D01*
X130322166Y-79208615D01*
X130513435Y-79129389D01*
X130716484Y-79089000D01*
X130923516Y-79089000D01*
X131126565Y-79129389D01*
X131126565Y-79129389D01*
G37*
G36*
X114391000Y-79851000D02*
X112289000Y-79851000D01*
X112289000Y-77749000D01*
X114391000Y-77749000D01*
X114391000Y-79851000D01*
X114391000Y-79851000D01*
G37*
G36*
X117005315Y-76398139D02*
X117196584Y-76477365D01*
X117368726Y-76592387D01*
X117515113Y-76738774D01*
X117630135Y-76910916D01*
X117709361Y-77102185D01*
X117749750Y-77305234D01*
X117749750Y-77512266D01*
X117709361Y-77715315D01*
X117630135Y-77906584D01*
X117515113Y-78078726D01*
X117368726Y-78225113D01*
X117196584Y-78340135D01*
X117005315Y-78419361D01*
X116802266Y-78459750D01*
X116595234Y-78459750D01*
X116392185Y-78419361D01*
X116200916Y-78340135D01*
X116028774Y-78225113D01*
X115882387Y-78078726D01*
X115767365Y-77906584D01*
X115688139Y-77715315D01*
X115647750Y-77512266D01*
X115647750Y-77305234D01*
X115688139Y-77102185D01*
X115767365Y-76910916D01*
X115882387Y-76738774D01*
X116028774Y-76592387D01*
X116200916Y-76477365D01*
X116392185Y-76398139D01*
X116595234Y-76357750D01*
X116802266Y-76357750D01*
X117005315Y-76398139D01*
X117005315Y-76398139D01*
G37*
G36*
X110287815Y-76398139D02*
X110479084Y-76477365D01*
X110651226Y-76592387D01*
X110797613Y-76738774D01*
X110912635Y-76910916D01*
X110991861Y-77102185D01*
X111032250Y-77305234D01*
X111032250Y-77512266D01*
X110991861Y-77715315D01*
X110912635Y-77906584D01*
X110797613Y-78078726D01*
X110651226Y-78225113D01*
X110479084Y-78340135D01*
X110287815Y-78419361D01*
X110084766Y-78459750D01*
X109877734Y-78459750D01*
X109674685Y-78419361D01*
X109483416Y-78340135D01*
X109311274Y-78225113D01*
X109164887Y-78078726D01*
X109049865Y-77906584D01*
X108970639Y-77715315D01*
X108930250Y-77512266D01*
X108930250Y-77305234D01*
X108970639Y-77102185D01*
X109049865Y-76910916D01*
X109164887Y-76738774D01*
X109311274Y-76592387D01*
X109483416Y-76477365D01*
X109674685Y-76398139D01*
X109877734Y-76357750D01*
X110084766Y-76357750D01*
X110287815Y-76398139D01*
X110287815Y-76398139D01*
G37*
G36*
X110287815Y-69680639D02*
X110479084Y-69759865D01*
X110651226Y-69874887D01*
X110797613Y-70021274D01*
X110912635Y-70193416D01*
X110991861Y-70384685D01*
X111032250Y-70587734D01*
X111032250Y-70794766D01*
X110991861Y-70997815D01*
X110912635Y-71189084D01*
X110797613Y-71361226D01*
X110651226Y-71507613D01*
X110479084Y-71622635D01*
X110287815Y-71701861D01*
X110084766Y-71742250D01*
X109877734Y-71742250D01*
X109674685Y-71701861D01*
X109483416Y-71622635D01*
X109311274Y-71507613D01*
X109164887Y-71361226D01*
X109049865Y-71189084D01*
X108970639Y-70997815D01*
X108930250Y-70794766D01*
X108930250Y-70587734D01*
X108970639Y-70384685D01*
X109049865Y-70193416D01*
X109164887Y-70021274D01*
X109311274Y-69874887D01*
X109483416Y-69759865D01*
X109674685Y-69680639D01*
X109877734Y-69640250D01*
X110084766Y-69640250D01*
X110287815Y-69680639D01*
X110287815Y-69680639D01*
G37*
G36*
X117005315Y-69680639D02*
X117196584Y-69759865D01*
X117368726Y-69874887D01*
X117515113Y-70021274D01*
X117630135Y-70193416D01*
X117709361Y-70384685D01*
X117749750Y-70587734D01*
X117749750Y-70794766D01*
X117709361Y-70997815D01*
X117630135Y-71189084D01*
X117515113Y-71361226D01*
X117368726Y-71507613D01*
X117196584Y-71622635D01*
X117005315Y-71701861D01*
X116802266Y-71742250D01*
X116595234Y-71742250D01*
X116392185Y-71701861D01*
X116200916Y-71622635D01*
X116028774Y-71507613D01*
X115882387Y-71361226D01*
X115767365Y-71189084D01*
X115688139Y-70997815D01*
X115647750Y-70794766D01*
X115647750Y-70587734D01*
X115688139Y-70384685D01*
X115767365Y-70193416D01*
X115882387Y-70021274D01*
X116028774Y-69874887D01*
X116200916Y-69759865D01*
X116392185Y-69680639D01*
X116595234Y-69640250D01*
X116802266Y-69640250D01*
X117005315Y-69680639D01*
X117005315Y-69680639D01*
G37*
G36*
X113646565Y-68289389D02*
X113837834Y-68368615D01*
X114009976Y-68483637D01*
X114156363Y-68630024D01*
X114271385Y-68802166D01*
X114350611Y-68993435D01*
X114391000Y-69196484D01*
X114391000Y-69403516D01*
X114350611Y-69606565D01*
X114271385Y-69797834D01*
X114156363Y-69969976D01*
X114009976Y-70116363D01*
X113837834Y-70231385D01*
X113646565Y-70310611D01*
X113443516Y-70351000D01*
X113236484Y-70351000D01*
X113033435Y-70310611D01*
X112842166Y-70231385D01*
X112670024Y-70116363D01*
X112523637Y-69969976D01*
X112408615Y-69797834D01*
X112329389Y-69606565D01*
X112289000Y-69403516D01*
X112289000Y-69196484D01*
X112329389Y-68993435D01*
X112408615Y-68802166D01*
X112523637Y-68630024D01*
X112670024Y-68483637D01*
X112842166Y-68368615D01*
X113033435Y-68289389D01*
X113236484Y-68249000D01*
X113443516Y-68249000D01*
X113646565Y-68289389D01*
X113646565Y-68289389D01*
G37*
G36*
X60194408Y-64885162D02*
X60331579Y-64912447D01*
X60632042Y-65036903D01*
X60703114Y-65084392D01*
X60902454Y-65217587D01*
X61132413Y-65447546D01*
X61132415Y-65447549D01*
X61313097Y-65717958D01*
X61419326Y-65974416D01*
X61437553Y-66018422D01*
X61501000Y-66337389D01*
X61501000Y-66662611D01*
X61437553Y-66981578D01*
X61313098Y-67282040D01*
X61132413Y-67552454D01*
X60902454Y-67782413D01*
X60902451Y-67782415D01*
X60632042Y-67963097D01*
X60331579Y-68087553D01*
X60225256Y-68108702D01*
X60012611Y-68151000D01*
X59687389Y-68151000D01*
X59474744Y-68108702D01*
X59368421Y-68087553D01*
X59067958Y-67963097D01*
X58797549Y-67782415D01*
X58797546Y-67782413D01*
X58567587Y-67552454D01*
X58386902Y-67282040D01*
X58262447Y-66981578D01*
X58199000Y-66662611D01*
X58199000Y-66337389D01*
X58262447Y-66018422D01*
X58280675Y-65974416D01*
X58386903Y-65717958D01*
X58567585Y-65447549D01*
X58567587Y-65447546D01*
X58797546Y-65217587D01*
X58996886Y-65084392D01*
X59067958Y-65036903D01*
X59368421Y-64912447D01*
X59505592Y-64885162D01*
X59687389Y-64849000D01*
X60012611Y-64849000D01*
X60194408Y-64885162D01*
X60194408Y-64885162D01*
G37*
G36*
X140494408Y-64885162D02*
X140631579Y-64912447D01*
X140932042Y-65036903D01*
X141003114Y-65084392D01*
X141202454Y-65217587D01*
X141432413Y-65447546D01*
X141432415Y-65447549D01*
X141613097Y-65717958D01*
X141719326Y-65974416D01*
X141737553Y-66018422D01*
X141801000Y-66337389D01*
X141801000Y-66662611D01*
X141737553Y-66981578D01*
X141613098Y-67282040D01*
X141432413Y-67552454D01*
X141202454Y-67782413D01*
X141202451Y-67782415D01*
X140932042Y-67963097D01*
X140631579Y-68087553D01*
X140525256Y-68108702D01*
X140312611Y-68151000D01*
X139987389Y-68151000D01*
X139774744Y-68108702D01*
X139668421Y-68087553D01*
X139367958Y-67963097D01*
X139097549Y-67782415D01*
X139097546Y-67782413D01*
X138867587Y-67552454D01*
X138686902Y-67282040D01*
X138562447Y-66981578D01*
X138499000Y-66662611D01*
X138499000Y-66337389D01*
X138562447Y-66018422D01*
X138580675Y-65974416D01*
X138686903Y-65717958D01*
X138867585Y-65447549D01*
X138867587Y-65447546D01*
X139097546Y-65217587D01*
X139296886Y-65084392D01*
X139367958Y-65036903D01*
X139668421Y-64912447D01*
X139805592Y-64885162D01*
X139987389Y-64849000D01*
X140312611Y-64849000D01*
X140494408Y-64885162D01*
X140494408Y-64885162D01*
G37*
G36*
X85403643Y-64824781D02*
X85549415Y-64885162D01*
X85680611Y-64972824D01*
X85792176Y-65084389D01*
X85879838Y-65215585D01*
X85940219Y-65361357D01*
X85971000Y-65516107D01*
X85971000Y-65673893D01*
X85940219Y-65828643D01*
X85879838Y-65974415D01*
X85792176Y-66105611D01*
X85680611Y-66217176D01*
X85549415Y-66304838D01*
X85403643Y-66365219D01*
X85248893Y-66396000D01*
X85091107Y-66396000D01*
X84936357Y-66365219D01*
X84790585Y-66304838D01*
X84659389Y-66217176D01*
X84547824Y-66105611D01*
X84460162Y-65974415D01*
X84399781Y-65828643D01*
X84369000Y-65673893D01*
X84369000Y-65516107D01*
X84399781Y-65361357D01*
X84460162Y-65215585D01*
X84547824Y-65084389D01*
X84659389Y-64972824D01*
X84790585Y-64885162D01*
X84936357Y-64824781D01*
X85091107Y-64794000D01*
X85248893Y-64794000D01*
X85403643Y-64824781D01*
X85403643Y-64824781D01*
G37*
G36*
X87943643Y-64824781D02*
X88089415Y-64885162D01*
X88220611Y-64972824D01*
X88332176Y-65084389D01*
X88419838Y-65215585D01*
X88480219Y-65361357D01*
X88511000Y-65516107D01*
X88511000Y-65673893D01*
X88480219Y-65828643D01*
X88419838Y-65974415D01*
X88332176Y-66105611D01*
X88220611Y-66217176D01*
X88089415Y-66304838D01*
X87943643Y-66365219D01*
X87788893Y-66396000D01*
X87631107Y-66396000D01*
X87476357Y-66365219D01*
X87330585Y-66304838D01*
X87199389Y-66217176D01*
X87087824Y-66105611D01*
X87000162Y-65974415D01*
X86939781Y-65828643D01*
X86909000Y-65673893D01*
X86909000Y-65516107D01*
X86939781Y-65361357D01*
X87000162Y-65215585D01*
X87087824Y-65084389D01*
X87199389Y-64972824D01*
X87330585Y-64885162D01*
X87476357Y-64824781D01*
X87631107Y-64794000D01*
X87788893Y-64794000D01*
X87943643Y-64824781D01*
X87943643Y-64824781D01*
G37*
G36*
X90483643Y-64824781D02*
X90629415Y-64885162D01*
X90760611Y-64972824D01*
X90872176Y-65084389D01*
X90959838Y-65215585D01*
X91020219Y-65361357D01*
X91051000Y-65516107D01*
X91051000Y-65673893D01*
X91020219Y-65828643D01*
X90959838Y-65974415D01*
X90872176Y-66105611D01*
X90760611Y-66217176D01*
X90629415Y-66304838D01*
X90483643Y-66365219D01*
X90328893Y-66396000D01*
X90171107Y-66396000D01*
X90016357Y-66365219D01*
X89870585Y-66304838D01*
X89739389Y-66217176D01*
X89627824Y-66105611D01*
X89540162Y-65974415D01*
X89479781Y-65828643D01*
X89449000Y-65673893D01*
X89449000Y-65516107D01*
X89479781Y-65361357D01*
X89540162Y-65215585D01*
X89627824Y-65084389D01*
X89739389Y-64972824D01*
X89870585Y-64885162D01*
X90016357Y-64824781D01*
X90171107Y-64794000D01*
X90328893Y-64794000D01*
X90483643Y-64824781D01*
X90483643Y-64824781D01*
G37*
G36*
X93023643Y-64824781D02*
X93169415Y-64885162D01*
X93300611Y-64972824D01*
X93412176Y-65084389D01*
X93499838Y-65215585D01*
X93560219Y-65361357D01*
X93591000Y-65516107D01*
X93591000Y-65673893D01*
X93560219Y-65828643D01*
X93499838Y-65974415D01*
X93412176Y-66105611D01*
X93300611Y-66217176D01*
X93169415Y-66304838D01*
X93023643Y-66365219D01*
X92868893Y-66396000D01*
X92711107Y-66396000D01*
X92556357Y-66365219D01*
X92410585Y-66304838D01*
X92279389Y-66217176D01*
X92167824Y-66105611D01*
X92080162Y-65974415D01*
X92019781Y-65828643D01*
X91989000Y-65673893D01*
X91989000Y-65516107D01*
X92019781Y-65361357D01*
X92080162Y-65215585D01*
X92167824Y-65084389D01*
X92279389Y-64972824D01*
X92410585Y-64885162D01*
X92556357Y-64824781D01*
X92711107Y-64794000D01*
X92868893Y-64794000D01*
X93023643Y-64824781D01*
X93023643Y-64824781D01*
G37*
G36*
X147025256Y-51741298D02*
X147131579Y-51762447D01*
X147432042Y-51886903D01*
X147698852Y-52065180D01*
X147702454Y-52067587D01*
X147932413Y-52297546D01*
X148113098Y-52567960D01*
X148237553Y-52868422D01*
X148301000Y-53187389D01*
X148301000Y-53512611D01*
X148237553Y-53831578D01*
X148113098Y-54132040D01*
X147932413Y-54402454D01*
X147702454Y-54632413D01*
X147702451Y-54632415D01*
X147432042Y-54813097D01*
X147131579Y-54937553D01*
X147025256Y-54958702D01*
X146812611Y-55001000D01*
X146487389Y-55001000D01*
X146274744Y-54958702D01*
X146168421Y-54937553D01*
X145867958Y-54813097D01*
X145597549Y-54632415D01*
X145597546Y-54632413D01*
X145367587Y-54402454D01*
X145186902Y-54132040D01*
X145062447Y-53831578D01*
X144999000Y-53512611D01*
X144999000Y-53187389D01*
X145062447Y-52868422D01*
X145186902Y-52567960D01*
X145367587Y-52297546D01*
X145597546Y-52067587D01*
X145601148Y-52065180D01*
X145867958Y-51886903D01*
X146168421Y-51762447D01*
X146274744Y-51741298D01*
X146487389Y-51699000D01*
X146812611Y-51699000D01*
X147025256Y-51741298D01*
X147025256Y-51741298D01*
G37*
G36*
X53725256Y-51741298D02*
X53831579Y-51762447D01*
X54132042Y-51886903D01*
X54398852Y-52065180D01*
X54402454Y-52067587D01*
X54632413Y-52297546D01*
X54813098Y-52567960D01*
X54937553Y-52868422D01*
X55001000Y-53187389D01*
X55001000Y-53512611D01*
X54937553Y-53831578D01*
X54813098Y-54132040D01*
X54632413Y-54402454D01*
X54402454Y-54632413D01*
X54402451Y-54632415D01*
X54132042Y-54813097D01*
X53831579Y-54937553D01*
X53725256Y-54958702D01*
X53512611Y-55001000D01*
X53187389Y-55001000D01*
X52974744Y-54958702D01*
X52868421Y-54937553D01*
X52567958Y-54813097D01*
X52297549Y-54632415D01*
X52297546Y-54632413D01*
X52067587Y-54402454D01*
X51886902Y-54132040D01*
X51762447Y-53831578D01*
X51699000Y-53512611D01*
X51699000Y-53187389D01*
X51762447Y-52868422D01*
X51886902Y-52567960D01*
X52067587Y-52297546D01*
X52297546Y-52067587D01*
X52301148Y-52065180D01*
X52567958Y-51886903D01*
X52868421Y-51762447D01*
X52974744Y-51741298D01*
X53187389Y-51699000D01*
X53512611Y-51699000D01*
X53725256Y-51741298D01*
X53725256Y-51741298D01*
G37*
M02*
