M48
;DRILL file {KiCad (5.0.2-4-g3082e92af)} date 2019 March 14, Thursday 11:46:02
;FORMAT={-:-/ absolute / inch / decimal}
FMAT,2
INCH,TZ
T1C0.0157
T2C0.0197
T3C0.0295
T4C0.0299
T5C0.0394
T6C0.0472
T7C0.0984
%
G90
G05
T1
X3.087Y-5.4323
X3.1594Y-5.2343
X3.2087Y-5.4323
X3.2291Y-4.5516
X3.2291Y-4.8488
X3.5795Y-4.511
X3.5795Y-4.8224
X3.5846Y-4.9882
X3.6516Y-4.898
X3.6524Y-4.5669
X3.7067Y-5.0315
X3.7173Y-5.0886
X3.7969Y-4.6553
X3.8008Y-5.176
X3.8255Y-4.8331
X3.8345Y-5.3738
X3.8646Y-4.8376
X3.8648Y-4.6496
X3.8839Y-5.1457
X3.9011Y-5.2232
X3.9012Y-5.1039
X3.9228Y-4.7681
X4.0251Y-4.8129
X4.1071Y-4.8504
X4.1083Y-5.224
X4.2739Y-5.3462
X4.285Y-4.9843
X4.4039Y-4.9594
X4.4535Y-5.0517
X4.4597Y-5.0065
X4.4965Y-5.1056
X4.5748Y-5.0173
X4.602Y-5.2028
X4.6091Y-4.7606
X4.7083Y-4.9677
X5.2006Y-5.5161
T2
X2.578Y-3.7142
X2.6764Y-3.7142
X2.7748Y-3.7142
X2.8732Y-3.7142
T3
X4.3134Y-3.5268
X4.3634Y-3.5268
X4.4134Y-3.5268
T4
X2.5524Y-4.3197
X2.5524Y-4.4197
X2.5524Y-4.5197
X2.6524Y-4.2697
X2.6524Y-4.3697
X2.6524Y-4.4697
T5
X5.0756Y-3.2193
X5.0756Y-3.4838
X5.2079Y-3.1646
X5.2079Y-3.5386
X5.3401Y-3.2193
X5.3401Y-3.4838
X4.33Y-2.7831
X4.33Y-3.0476
X4.4622Y-2.7283
X4.4622Y-3.1024
X4.5944Y-2.7831
X4.5944Y-3.0476
X2.0933Y-4.8539
X2.1933Y-4.8539
X2.2933Y-4.8539
X2.3933Y-4.8539
X2.4933Y-4.8539
X2.5933Y-4.8539
X3.3531Y-2.5825
X3.3531Y-3.7459
X3.4531Y-2.5825
X3.4531Y-3.7459
X3.5531Y-2.5825
X3.5531Y-3.7459
X3.6531Y-2.5825
X3.6531Y-3.7459
X3.7531Y-3.7459
T6
X3.0609Y-5.5166
X3.1609Y-5.5166
X3.2609Y-5.5166
X3.3609Y-5.5166
X3.4609Y-5.5166
X3.5609Y-5.5166
X3.6609Y-5.5166
X3.7609Y-5.5166
X3.8609Y-5.5166
X3.9609Y-5.5166
X4.0609Y-5.5166
X4.1609Y-5.5166
X4.2609Y-5.5166
X4.3609Y-5.5166
X4.4609Y-5.5166
X4.5609Y-5.5166
T7
X2.8444Y-4.2961
X2.8444Y-5.5166
X5.7971Y-4.2961
X5.7972Y-5.5166
T5
X2.2902Y-5.2445G85X2.2902Y-5.3232
G05
X2.3689Y-5.4689G85X2.4476Y-5.4689
G05
X2.5264Y-5.2445G85X2.5264Y-5.3232
G05
T0
M30
