G04 #@! TF.GenerationSoftware,KiCad,Pcbnew,(5.0.2-4-g3082e92af)*
G04 #@! TF.CreationDate,2019-03-14T11:46:11+01:00*
G04 #@! TF.ProjectId,gas-sensor,6761732d-7365-46e7-936f-722e6b696361,rev?*
G04 #@! TF.SameCoordinates,Original*
G04 #@! TF.FileFunction,Copper,L1,Top*
G04 #@! TF.FilePolarity,Positive*
%FSLAX46Y46*%
G04 Gerber Fmt 4.6, Leading zero omitted, Abs format (unit mm)*
G04 Created by KiCad (PCBNEW (5.0.2-4-g3082e92af)) date 2019 March 14, Thursday 11:46:11*
%MOMM*%
%LPD*%
G01*
G04 APERTURE LIST*
G04 #@! TA.AperFunction,ComponentPad*
%ADD10C,1.500000*%
G04 #@! TD*
G04 #@! TA.AperFunction,ComponentPad*
%ADD11R,1.050000X1.500000*%
G04 #@! TD*
G04 #@! TA.AperFunction,ComponentPad*
%ADD12O,1.050000X1.500000*%
G04 #@! TD*
G04 #@! TA.AperFunction,ComponentPad*
%ADD13R,1.000000X1.000000*%
G04 #@! TD*
G04 #@! TA.AperFunction,Conductor*
%ADD14C,0.100000*%
G04 #@! TD*
G04 #@! TA.AperFunction,SMDPad,CuDef*
%ADD15C,1.150000*%
G04 #@! TD*
G04 #@! TA.AperFunction,SMDPad,CuDef*
%ADD16R,0.900000X1.200000*%
G04 #@! TD*
G04 #@! TA.AperFunction,ComponentPad*
%ADD17C,3.000000*%
G04 #@! TD*
G04 #@! TA.AperFunction,ComponentPad*
%ADD18O,1.800000X2.600000*%
G04 #@! TD*
G04 #@! TA.AperFunction,ComponentPad*
%ADD19R,1.800000X2.600000*%
G04 #@! TD*
G04 #@! TA.AperFunction,SMDPad,CuDef*
%ADD20R,2.000000X1.500000*%
G04 #@! TD*
G04 #@! TA.AperFunction,SMDPad,CuDef*
%ADD21R,2.000000X3.800000*%
G04 #@! TD*
G04 #@! TA.AperFunction,SMDPad,CuDef*
%ADD22R,2.400000X3.500000*%
G04 #@! TD*
G04 #@! TA.AperFunction,ComponentPad*
%ADD23O,1.700000X1.700000*%
G04 #@! TD*
G04 #@! TA.AperFunction,ComponentPad*
%ADD24R,1.700000X1.700000*%
G04 #@! TD*
G04 #@! TA.AperFunction,ComponentPad*
%ADD25R,1.520000X1.520000*%
G04 #@! TD*
G04 #@! TA.AperFunction,ComponentPad*
%ADD26C,1.520000*%
G04 #@! TD*
G04 #@! TA.AperFunction,ComponentPad*
%ADD27C,3.500000*%
G04 #@! TD*
G04 #@! TA.AperFunction,ComponentPad*
%ADD28R,3.500000X3.500000*%
G04 #@! TD*
G04 #@! TA.AperFunction,SMDPad,CuDef*
%ADD29R,0.550000X1.600000*%
G04 #@! TD*
G04 #@! TA.AperFunction,SMDPad,CuDef*
%ADD30R,1.600000X0.550000*%
G04 #@! TD*
G04 #@! TA.AperFunction,ComponentPad*
%ADD31C,2.000000*%
G04 #@! TD*
G04 #@! TA.AperFunction,ComponentPad*
%ADD32R,2.000000X2.000000*%
G04 #@! TD*
G04 #@! TA.AperFunction,ConnectorPad*
%ADD33C,0.787400*%
G04 #@! TD*
G04 #@! TA.AperFunction,ViaPad*
%ADD34C,0.800000*%
G04 #@! TD*
G04 #@! TA.AperFunction,Conductor*
%ADD35C,0.500000*%
G04 #@! TD*
G04 #@! TA.AperFunction,Conductor*
%ADD36C,1.000000*%
G04 #@! TD*
G04 #@! TA.AperFunction,Conductor*
%ADD37C,0.254000*%
G04 #@! TD*
G04 APERTURE END LIST*
D10*
G04 #@! TO.P,GS3,9*
G04 #@! TO.N,/PWM_MH-Z19*
X92790000Y-65595000D03*
G04 #@! TO.P,GS3,8*
G04 #@! TO.N,Net-(GS3-Pad8)*
X90250000Y-65595000D03*
G04 #@! TO.P,GS3,7*
G04 #@! TO.N,GND*
X87710000Y-65595000D03*
G04 #@! TO.P,GS3,1*
G04 #@! TO.N,/Sensor3*
X85170000Y-95145000D03*
G04 #@! TO.P,GS3,2*
G04 #@! TO.N,/RX_MH-Z19*
X87710000Y-95145000D03*
G04 #@! TO.P,GS3,3*
G04 #@! TO.N,/TX_MH-Z19*
X90250000Y-95145000D03*
G04 #@! TO.P,GS3,4*
G04 #@! TO.N,Net-(GS3-Pad4)*
X92790000Y-95145000D03*
G04 #@! TO.P,GS3,5*
G04 #@! TO.N,Net-(GS3-Pad5)*
X95330000Y-95145000D03*
G04 #@! TO.P,GS3,6*
G04 #@! TO.N,VCC*
X85170000Y-65595000D03*
G04 #@! TD*
D11*
G04 #@! TO.P,U1,1*
G04 #@! TO.N,GND*
X112100000Y-89580000D03*
D12*
G04 #@! TO.P,U1,3*
G04 #@! TO.N,+5V*
X109560000Y-89580000D03*
G04 #@! TO.P,U1,2*
G04 #@! TO.N,/TEMP*
X110830000Y-89580000D03*
G04 #@! TD*
D13*
G04 #@! TO.P,U3,4*
G04 #@! TO.N,GND*
X72980000Y-94340000D03*
G04 #@! TO.P,U3,3*
G04 #@! TO.N,Net-(U3-Pad3)*
X70480000Y-94340000D03*
G04 #@! TO.P,U3,2*
G04 #@! TO.N,/HUM*
X67980000Y-94340000D03*
G04 #@! TO.P,U3,1*
G04 #@! TO.N,+5V*
X65480000Y-94340000D03*
G04 #@! TD*
D14*
G04 #@! TO.N,GND*
G04 #@! TO.C,C2*
G36*
X79710762Y-134055806D02*
X79735030Y-134059406D01*
X79758829Y-134065367D01*
X79781928Y-134073632D01*
X79804107Y-134084122D01*
X79825150Y-134096734D01*
X79844856Y-134111349D01*
X79863034Y-134127825D01*
X79879510Y-134146003D01*
X79894125Y-134165709D01*
X79906737Y-134186752D01*
X79917227Y-134208931D01*
X79925492Y-134232030D01*
X79931453Y-134255829D01*
X79935053Y-134280097D01*
X79936257Y-134304601D01*
X79936257Y-135204603D01*
X79935053Y-135229107D01*
X79931453Y-135253375D01*
X79925492Y-135277174D01*
X79917227Y-135300273D01*
X79906737Y-135322452D01*
X79894125Y-135343495D01*
X79879510Y-135363201D01*
X79863034Y-135381379D01*
X79844856Y-135397855D01*
X79825150Y-135412470D01*
X79804107Y-135425082D01*
X79781928Y-135435572D01*
X79758829Y-135443837D01*
X79735030Y-135449798D01*
X79710762Y-135453398D01*
X79686258Y-135454602D01*
X79036256Y-135454602D01*
X79011752Y-135453398D01*
X78987484Y-135449798D01*
X78963685Y-135443837D01*
X78940586Y-135435572D01*
X78918407Y-135425082D01*
X78897364Y-135412470D01*
X78877658Y-135397855D01*
X78859480Y-135381379D01*
X78843004Y-135363201D01*
X78828389Y-135343495D01*
X78815777Y-135322452D01*
X78805287Y-135300273D01*
X78797022Y-135277174D01*
X78791061Y-135253375D01*
X78787461Y-135229107D01*
X78786257Y-135204603D01*
X78786257Y-134304601D01*
X78787461Y-134280097D01*
X78791061Y-134255829D01*
X78797022Y-134232030D01*
X78805287Y-134208931D01*
X78815777Y-134186752D01*
X78828389Y-134165709D01*
X78843004Y-134146003D01*
X78859480Y-134127825D01*
X78877658Y-134111349D01*
X78897364Y-134096734D01*
X78918407Y-134084122D01*
X78940586Y-134073632D01*
X78963685Y-134065367D01*
X78987484Y-134059406D01*
X79011752Y-134055806D01*
X79036256Y-134054602D01*
X79686258Y-134054602D01*
X79710762Y-134055806D01*
X79710762Y-134055806D01*
G37*
D15*
G04 #@! TD*
G04 #@! TO.P,C2,2*
G04 #@! TO.N,GND*
X79361257Y-134754602D03*
D14*
G04 #@! TO.N,/XTAL2*
G04 #@! TO.C,C2*
G36*
X81760762Y-134055806D02*
X81785030Y-134059406D01*
X81808829Y-134065367D01*
X81831928Y-134073632D01*
X81854107Y-134084122D01*
X81875150Y-134096734D01*
X81894856Y-134111349D01*
X81913034Y-134127825D01*
X81929510Y-134146003D01*
X81944125Y-134165709D01*
X81956737Y-134186752D01*
X81967227Y-134208931D01*
X81975492Y-134232030D01*
X81981453Y-134255829D01*
X81985053Y-134280097D01*
X81986257Y-134304601D01*
X81986257Y-135204603D01*
X81985053Y-135229107D01*
X81981453Y-135253375D01*
X81975492Y-135277174D01*
X81967227Y-135300273D01*
X81956737Y-135322452D01*
X81944125Y-135343495D01*
X81929510Y-135363201D01*
X81913034Y-135381379D01*
X81894856Y-135397855D01*
X81875150Y-135412470D01*
X81854107Y-135425082D01*
X81831928Y-135435572D01*
X81808829Y-135443837D01*
X81785030Y-135449798D01*
X81760762Y-135453398D01*
X81736258Y-135454602D01*
X81086256Y-135454602D01*
X81061752Y-135453398D01*
X81037484Y-135449798D01*
X81013685Y-135443837D01*
X80990586Y-135435572D01*
X80968407Y-135425082D01*
X80947364Y-135412470D01*
X80927658Y-135397855D01*
X80909480Y-135381379D01*
X80893004Y-135363201D01*
X80878389Y-135343495D01*
X80865777Y-135322452D01*
X80855287Y-135300273D01*
X80847022Y-135277174D01*
X80841061Y-135253375D01*
X80837461Y-135229107D01*
X80836257Y-135204603D01*
X80836257Y-134304601D01*
X80837461Y-134280097D01*
X80841061Y-134255829D01*
X80847022Y-134232030D01*
X80855287Y-134208931D01*
X80865777Y-134186752D01*
X80878389Y-134165709D01*
X80893004Y-134146003D01*
X80909480Y-134127825D01*
X80927658Y-134111349D01*
X80947364Y-134096734D01*
X80968407Y-134084122D01*
X80990586Y-134073632D01*
X81013685Y-134065367D01*
X81037484Y-134059406D01*
X81061752Y-134055806D01*
X81086256Y-134054602D01*
X81736258Y-134054602D01*
X81760762Y-134055806D01*
X81760762Y-134055806D01*
G37*
D15*
G04 #@! TD*
G04 #@! TO.P,C2,1*
G04 #@! TO.N,/XTAL2*
X81411257Y-134754602D03*
D14*
G04 #@! TO.N,GND*
G04 #@! TO.C,C3*
G36*
X131086344Y-139389064D02*
X131110612Y-139392664D01*
X131134411Y-139398625D01*
X131157510Y-139406890D01*
X131179689Y-139417380D01*
X131200732Y-139429992D01*
X131220438Y-139444607D01*
X131238616Y-139461083D01*
X131255092Y-139479261D01*
X131269707Y-139498967D01*
X131282319Y-139520010D01*
X131292809Y-139542189D01*
X131301074Y-139565288D01*
X131307035Y-139589087D01*
X131310635Y-139613355D01*
X131311839Y-139637859D01*
X131311839Y-140537861D01*
X131310635Y-140562365D01*
X131307035Y-140586633D01*
X131301074Y-140610432D01*
X131292809Y-140633531D01*
X131282319Y-140655710D01*
X131269707Y-140676753D01*
X131255092Y-140696459D01*
X131238616Y-140714637D01*
X131220438Y-140731113D01*
X131200732Y-140745728D01*
X131179689Y-140758340D01*
X131157510Y-140768830D01*
X131134411Y-140777095D01*
X131110612Y-140783056D01*
X131086344Y-140786656D01*
X131061840Y-140787860D01*
X130411838Y-140787860D01*
X130387334Y-140786656D01*
X130363066Y-140783056D01*
X130339267Y-140777095D01*
X130316168Y-140768830D01*
X130293989Y-140758340D01*
X130272946Y-140745728D01*
X130253240Y-140731113D01*
X130235062Y-140714637D01*
X130218586Y-140696459D01*
X130203971Y-140676753D01*
X130191359Y-140655710D01*
X130180869Y-140633531D01*
X130172604Y-140610432D01*
X130166643Y-140586633D01*
X130163043Y-140562365D01*
X130161839Y-140537861D01*
X130161839Y-139637859D01*
X130163043Y-139613355D01*
X130166643Y-139589087D01*
X130172604Y-139565288D01*
X130180869Y-139542189D01*
X130191359Y-139520010D01*
X130203971Y-139498967D01*
X130218586Y-139479261D01*
X130235062Y-139461083D01*
X130253240Y-139444607D01*
X130272946Y-139429992D01*
X130293989Y-139417380D01*
X130316168Y-139406890D01*
X130339267Y-139398625D01*
X130363066Y-139392664D01*
X130387334Y-139389064D01*
X130411838Y-139387860D01*
X131061840Y-139387860D01*
X131086344Y-139389064D01*
X131086344Y-139389064D01*
G37*
D15*
G04 #@! TD*
G04 #@! TO.P,C3,2*
G04 #@! TO.N,GND*
X130736839Y-140087860D03*
D14*
G04 #@! TO.N,VCC*
G04 #@! TO.C,C3*
G36*
X129036344Y-139389064D02*
X129060612Y-139392664D01*
X129084411Y-139398625D01*
X129107510Y-139406890D01*
X129129689Y-139417380D01*
X129150732Y-139429992D01*
X129170438Y-139444607D01*
X129188616Y-139461083D01*
X129205092Y-139479261D01*
X129219707Y-139498967D01*
X129232319Y-139520010D01*
X129242809Y-139542189D01*
X129251074Y-139565288D01*
X129257035Y-139589087D01*
X129260635Y-139613355D01*
X129261839Y-139637859D01*
X129261839Y-140537861D01*
X129260635Y-140562365D01*
X129257035Y-140586633D01*
X129251074Y-140610432D01*
X129242809Y-140633531D01*
X129232319Y-140655710D01*
X129219707Y-140676753D01*
X129205092Y-140696459D01*
X129188616Y-140714637D01*
X129170438Y-140731113D01*
X129150732Y-140745728D01*
X129129689Y-140758340D01*
X129107510Y-140768830D01*
X129084411Y-140777095D01*
X129060612Y-140783056D01*
X129036344Y-140786656D01*
X129011840Y-140787860D01*
X128361838Y-140787860D01*
X128337334Y-140786656D01*
X128313066Y-140783056D01*
X128289267Y-140777095D01*
X128266168Y-140768830D01*
X128243989Y-140758340D01*
X128222946Y-140745728D01*
X128203240Y-140731113D01*
X128185062Y-140714637D01*
X128168586Y-140696459D01*
X128153971Y-140676753D01*
X128141359Y-140655710D01*
X128130869Y-140633531D01*
X128122604Y-140610432D01*
X128116643Y-140586633D01*
X128113043Y-140562365D01*
X128111839Y-140537861D01*
X128111839Y-139637859D01*
X128113043Y-139613355D01*
X128116643Y-139589087D01*
X128122604Y-139565288D01*
X128130869Y-139542189D01*
X128141359Y-139520010D01*
X128153971Y-139498967D01*
X128168586Y-139479261D01*
X128185062Y-139461083D01*
X128203240Y-139444607D01*
X128222946Y-139429992D01*
X128243989Y-139417380D01*
X128266168Y-139406890D01*
X128289267Y-139398625D01*
X128313066Y-139392664D01*
X128337334Y-139389064D01*
X128361838Y-139387860D01*
X129011840Y-139387860D01*
X129036344Y-139389064D01*
X129036344Y-139389064D01*
G37*
D15*
G04 #@! TD*
G04 #@! TO.P,C3,1*
G04 #@! TO.N,VCC*
X128686839Y-140087860D03*
D14*
G04 #@! TO.N,GND*
G04 #@! TO.C,C4*
G36*
X131091344Y-143049064D02*
X131115612Y-143052664D01*
X131139411Y-143058625D01*
X131162510Y-143066890D01*
X131184689Y-143077380D01*
X131205732Y-143089992D01*
X131225438Y-143104607D01*
X131243616Y-143121083D01*
X131260092Y-143139261D01*
X131274707Y-143158967D01*
X131287319Y-143180010D01*
X131297809Y-143202189D01*
X131306074Y-143225288D01*
X131312035Y-143249087D01*
X131315635Y-143273355D01*
X131316839Y-143297859D01*
X131316839Y-144197861D01*
X131315635Y-144222365D01*
X131312035Y-144246633D01*
X131306074Y-144270432D01*
X131297809Y-144293531D01*
X131287319Y-144315710D01*
X131274707Y-144336753D01*
X131260092Y-144356459D01*
X131243616Y-144374637D01*
X131225438Y-144391113D01*
X131205732Y-144405728D01*
X131184689Y-144418340D01*
X131162510Y-144428830D01*
X131139411Y-144437095D01*
X131115612Y-144443056D01*
X131091344Y-144446656D01*
X131066840Y-144447860D01*
X130416838Y-144447860D01*
X130392334Y-144446656D01*
X130368066Y-144443056D01*
X130344267Y-144437095D01*
X130321168Y-144428830D01*
X130298989Y-144418340D01*
X130277946Y-144405728D01*
X130258240Y-144391113D01*
X130240062Y-144374637D01*
X130223586Y-144356459D01*
X130208971Y-144336753D01*
X130196359Y-144315710D01*
X130185869Y-144293531D01*
X130177604Y-144270432D01*
X130171643Y-144246633D01*
X130168043Y-144222365D01*
X130166839Y-144197861D01*
X130166839Y-143297859D01*
X130168043Y-143273355D01*
X130171643Y-143249087D01*
X130177604Y-143225288D01*
X130185869Y-143202189D01*
X130196359Y-143180010D01*
X130208971Y-143158967D01*
X130223586Y-143139261D01*
X130240062Y-143121083D01*
X130258240Y-143104607D01*
X130277946Y-143089992D01*
X130298989Y-143077380D01*
X130321168Y-143066890D01*
X130344267Y-143058625D01*
X130368066Y-143052664D01*
X130392334Y-143049064D01*
X130416838Y-143047860D01*
X131066840Y-143047860D01*
X131091344Y-143049064D01*
X131091344Y-143049064D01*
G37*
D15*
G04 #@! TD*
G04 #@! TO.P,C4,2*
G04 #@! TO.N,GND*
X130741839Y-143747860D03*
D14*
G04 #@! TO.N,VCC*
G04 #@! TO.C,C4*
G36*
X129041344Y-143049064D02*
X129065612Y-143052664D01*
X129089411Y-143058625D01*
X129112510Y-143066890D01*
X129134689Y-143077380D01*
X129155732Y-143089992D01*
X129175438Y-143104607D01*
X129193616Y-143121083D01*
X129210092Y-143139261D01*
X129224707Y-143158967D01*
X129237319Y-143180010D01*
X129247809Y-143202189D01*
X129256074Y-143225288D01*
X129262035Y-143249087D01*
X129265635Y-143273355D01*
X129266839Y-143297859D01*
X129266839Y-144197861D01*
X129265635Y-144222365D01*
X129262035Y-144246633D01*
X129256074Y-144270432D01*
X129247809Y-144293531D01*
X129237319Y-144315710D01*
X129224707Y-144336753D01*
X129210092Y-144356459D01*
X129193616Y-144374637D01*
X129175438Y-144391113D01*
X129155732Y-144405728D01*
X129134689Y-144418340D01*
X129112510Y-144428830D01*
X129089411Y-144437095D01*
X129065612Y-144443056D01*
X129041344Y-144446656D01*
X129016840Y-144447860D01*
X128366838Y-144447860D01*
X128342334Y-144446656D01*
X128318066Y-144443056D01*
X128294267Y-144437095D01*
X128271168Y-144428830D01*
X128248989Y-144418340D01*
X128227946Y-144405728D01*
X128208240Y-144391113D01*
X128190062Y-144374637D01*
X128173586Y-144356459D01*
X128158971Y-144336753D01*
X128146359Y-144315710D01*
X128135869Y-144293531D01*
X128127604Y-144270432D01*
X128121643Y-144246633D01*
X128118043Y-144222365D01*
X128116839Y-144197861D01*
X128116839Y-143297859D01*
X128118043Y-143273355D01*
X128121643Y-143249087D01*
X128127604Y-143225288D01*
X128135869Y-143202189D01*
X128146359Y-143180010D01*
X128158971Y-143158967D01*
X128173586Y-143139261D01*
X128190062Y-143121083D01*
X128208240Y-143104607D01*
X128227946Y-143089992D01*
X128248989Y-143077380D01*
X128271168Y-143066890D01*
X128294267Y-143058625D01*
X128318066Y-143052664D01*
X128342334Y-143049064D01*
X128366838Y-143047860D01*
X129016840Y-143047860D01*
X129041344Y-143049064D01*
X129041344Y-143049064D01*
G37*
D15*
G04 #@! TD*
G04 #@! TO.P,C4,1*
G04 #@! TO.N,VCC*
X128691839Y-143747860D03*
D14*
G04 #@! TO.N,/RESET*
G04 #@! TO.C,C6*
G36*
X96120114Y-120829485D02*
X96144382Y-120833085D01*
X96168181Y-120839046D01*
X96191280Y-120847311D01*
X96213459Y-120857801D01*
X96234502Y-120870413D01*
X96254208Y-120885028D01*
X96272386Y-120901504D01*
X96288862Y-120919682D01*
X96303477Y-120939388D01*
X96316089Y-120960431D01*
X96326579Y-120982610D01*
X96334844Y-121005709D01*
X96340805Y-121029508D01*
X96344405Y-121053776D01*
X96345609Y-121078280D01*
X96345609Y-121728282D01*
X96344405Y-121752786D01*
X96340805Y-121777054D01*
X96334844Y-121800853D01*
X96326579Y-121823952D01*
X96316089Y-121846131D01*
X96303477Y-121867174D01*
X96288862Y-121886880D01*
X96272386Y-121905058D01*
X96254208Y-121921534D01*
X96234502Y-121936149D01*
X96213459Y-121948761D01*
X96191280Y-121959251D01*
X96168181Y-121967516D01*
X96144382Y-121973477D01*
X96120114Y-121977077D01*
X96095610Y-121978281D01*
X95195608Y-121978281D01*
X95171104Y-121977077D01*
X95146836Y-121973477D01*
X95123037Y-121967516D01*
X95099938Y-121959251D01*
X95077759Y-121948761D01*
X95056716Y-121936149D01*
X95037010Y-121921534D01*
X95018832Y-121905058D01*
X95002356Y-121886880D01*
X94987741Y-121867174D01*
X94975129Y-121846131D01*
X94964639Y-121823952D01*
X94956374Y-121800853D01*
X94950413Y-121777054D01*
X94946813Y-121752786D01*
X94945609Y-121728282D01*
X94945609Y-121078280D01*
X94946813Y-121053776D01*
X94950413Y-121029508D01*
X94956374Y-121005709D01*
X94964639Y-120982610D01*
X94975129Y-120960431D01*
X94987741Y-120939388D01*
X95002356Y-120919682D01*
X95018832Y-120901504D01*
X95037010Y-120885028D01*
X95056716Y-120870413D01*
X95077759Y-120857801D01*
X95099938Y-120847311D01*
X95123037Y-120839046D01*
X95146836Y-120833085D01*
X95171104Y-120829485D01*
X95195608Y-120828281D01*
X96095610Y-120828281D01*
X96120114Y-120829485D01*
X96120114Y-120829485D01*
G37*
D15*
G04 #@! TD*
G04 #@! TO.P,C6,2*
G04 #@! TO.N,/RESET*
X95645609Y-121403281D03*
D14*
G04 #@! TO.N,/DTR*
G04 #@! TO.C,C6*
G36*
X96120114Y-118779485D02*
X96144382Y-118783085D01*
X96168181Y-118789046D01*
X96191280Y-118797311D01*
X96213459Y-118807801D01*
X96234502Y-118820413D01*
X96254208Y-118835028D01*
X96272386Y-118851504D01*
X96288862Y-118869682D01*
X96303477Y-118889388D01*
X96316089Y-118910431D01*
X96326579Y-118932610D01*
X96334844Y-118955709D01*
X96340805Y-118979508D01*
X96344405Y-119003776D01*
X96345609Y-119028280D01*
X96345609Y-119678282D01*
X96344405Y-119702786D01*
X96340805Y-119727054D01*
X96334844Y-119750853D01*
X96326579Y-119773952D01*
X96316089Y-119796131D01*
X96303477Y-119817174D01*
X96288862Y-119836880D01*
X96272386Y-119855058D01*
X96254208Y-119871534D01*
X96234502Y-119886149D01*
X96213459Y-119898761D01*
X96191280Y-119909251D01*
X96168181Y-119917516D01*
X96144382Y-119923477D01*
X96120114Y-119927077D01*
X96095610Y-119928281D01*
X95195608Y-119928281D01*
X95171104Y-119927077D01*
X95146836Y-119923477D01*
X95123037Y-119917516D01*
X95099938Y-119909251D01*
X95077759Y-119898761D01*
X95056716Y-119886149D01*
X95037010Y-119871534D01*
X95018832Y-119855058D01*
X95002356Y-119836880D01*
X94987741Y-119817174D01*
X94975129Y-119796131D01*
X94964639Y-119773952D01*
X94956374Y-119750853D01*
X94950413Y-119727054D01*
X94946813Y-119702786D01*
X94945609Y-119678282D01*
X94945609Y-119028280D01*
X94946813Y-119003776D01*
X94950413Y-118979508D01*
X94956374Y-118955709D01*
X94964639Y-118932610D01*
X94975129Y-118910431D01*
X94987741Y-118889388D01*
X95002356Y-118869682D01*
X95018832Y-118851504D01*
X95037010Y-118835028D01*
X95056716Y-118820413D01*
X95077759Y-118807801D01*
X95099938Y-118797311D01*
X95123037Y-118789046D01*
X95146836Y-118783085D01*
X95171104Y-118779485D01*
X95195608Y-118778281D01*
X96095610Y-118778281D01*
X96120114Y-118779485D01*
X96120114Y-118779485D01*
G37*
D15*
G04 #@! TD*
G04 #@! TO.P,C6,1*
G04 #@! TO.N,/DTR*
X95645609Y-119353281D03*
D16*
G04 #@! TO.P,D1,2*
G04 #@! TO.N,/VCC-FTDI*
X72870000Y-127030000D03*
G04 #@! TO.P,D1,1*
G04 #@! TO.N,VCC*
X76170000Y-127030000D03*
G04 #@! TD*
G04 #@! TO.P,D2,2*
G04 #@! TO.N,+5V*
X119780000Y-145710000D03*
G04 #@! TO.P,D2,1*
G04 #@! TO.N,VCC*
X123080000Y-145710000D03*
G04 #@! TD*
G04 #@! TO.P,D3,2*
G04 #@! TO.N,/VCC-ICSP*
X125408674Y-130780878D03*
G04 #@! TO.P,D3,1*
G04 #@! TO.N,VCC*
X128708674Y-130780878D03*
G04 #@! TD*
D17*
G04 #@! TO.P,DS1,*
G04 #@! TO.N,*
X147247934Y-140122755D03*
X147247414Y-109122055D03*
X72248834Y-109122055D03*
X72248834Y-140122755D03*
D18*
G04 #@! TO.P,DS1,16*
G04 #@! TO.N,GND*
X115847934Y-140122755D03*
G04 #@! TO.P,DS1,15*
G04 #@! TO.N,Net-(DS1-Pad15)*
X113307934Y-140122755D03*
G04 #@! TO.P,DS1,14*
G04 #@! TO.N,/LCD4_SCK*
X110767934Y-140122755D03*
G04 #@! TO.P,DS1,13*
G04 #@! TO.N,/LCD3_MISO*
X108227934Y-140122755D03*
G04 #@! TO.P,DS1,12*
G04 #@! TO.N,/LCD2_MOSI*
X105687934Y-140122755D03*
G04 #@! TO.P,DS1,11*
G04 #@! TO.N,/LCD1*
X103147934Y-140122755D03*
G04 #@! TO.P,DS1,10*
G04 #@! TO.N,Net-(DS1-Pad10)*
X100607934Y-140122755D03*
G04 #@! TO.P,DS1,9*
G04 #@! TO.N,Net-(DS1-Pad9)*
X98067934Y-140122755D03*
G04 #@! TO.P,DS1,8*
G04 #@! TO.N,Net-(DS1-Pad8)*
X95527934Y-140122755D03*
G04 #@! TO.P,DS1,7*
G04 #@! TO.N,Net-(DS1-Pad7)*
X92987934Y-140122755D03*
G04 #@! TO.P,DS1,6*
G04 #@! TO.N,/LCD_E*
X90447934Y-140122755D03*
G04 #@! TO.P,DS1,5*
G04 #@! TO.N,/LCD_RW*
X87907934Y-140122755D03*
G04 #@! TO.P,DS1,4*
G04 #@! TO.N,/LCD_RS*
X85367934Y-140122755D03*
G04 #@! TO.P,DS1,3*
G04 #@! TO.N,VCC*
X82827934Y-140122755D03*
G04 #@! TO.P,DS1,2*
X80287934Y-140122755D03*
D19*
G04 #@! TO.P,DS1,1*
G04 #@! TO.N,GND*
X77747934Y-140122755D03*
G04 #@! TD*
D14*
G04 #@! TO.N,/XTAL2*
G04 #@! TO.C,R1*
G36*
X88375762Y-131850806D02*
X88400030Y-131854406D01*
X88423829Y-131860367D01*
X88446928Y-131868632D01*
X88469107Y-131879122D01*
X88490150Y-131891734D01*
X88509856Y-131906349D01*
X88528034Y-131922825D01*
X88544510Y-131941003D01*
X88559125Y-131960709D01*
X88571737Y-131981752D01*
X88582227Y-132003931D01*
X88590492Y-132027030D01*
X88596453Y-132050829D01*
X88600053Y-132075097D01*
X88601257Y-132099601D01*
X88601257Y-132749603D01*
X88600053Y-132774107D01*
X88596453Y-132798375D01*
X88590492Y-132822174D01*
X88582227Y-132845273D01*
X88571737Y-132867452D01*
X88559125Y-132888495D01*
X88544510Y-132908201D01*
X88528034Y-132926379D01*
X88509856Y-132942855D01*
X88490150Y-132957470D01*
X88469107Y-132970082D01*
X88446928Y-132980572D01*
X88423829Y-132988837D01*
X88400030Y-132994798D01*
X88375762Y-132998398D01*
X88351258Y-132999602D01*
X87451256Y-132999602D01*
X87426752Y-132998398D01*
X87402484Y-132994798D01*
X87378685Y-132988837D01*
X87355586Y-132980572D01*
X87333407Y-132970082D01*
X87312364Y-132957470D01*
X87292658Y-132942855D01*
X87274480Y-132926379D01*
X87258004Y-132908201D01*
X87243389Y-132888495D01*
X87230777Y-132867452D01*
X87220287Y-132845273D01*
X87212022Y-132822174D01*
X87206061Y-132798375D01*
X87202461Y-132774107D01*
X87201257Y-132749603D01*
X87201257Y-132099601D01*
X87202461Y-132075097D01*
X87206061Y-132050829D01*
X87212022Y-132027030D01*
X87220287Y-132003931D01*
X87230777Y-131981752D01*
X87243389Y-131960709D01*
X87258004Y-131941003D01*
X87274480Y-131922825D01*
X87292658Y-131906349D01*
X87312364Y-131891734D01*
X87333407Y-131879122D01*
X87355586Y-131868632D01*
X87378685Y-131860367D01*
X87402484Y-131854406D01*
X87426752Y-131850806D01*
X87451256Y-131849602D01*
X88351258Y-131849602D01*
X88375762Y-131850806D01*
X88375762Y-131850806D01*
G37*
D15*
G04 #@! TD*
G04 #@! TO.P,R1,2*
G04 #@! TO.N,/XTAL2*
X87901257Y-132424602D03*
D14*
G04 #@! TO.N,/XTAL1*
G04 #@! TO.C,R1*
G36*
X88375762Y-129800806D02*
X88400030Y-129804406D01*
X88423829Y-129810367D01*
X88446928Y-129818632D01*
X88469107Y-129829122D01*
X88490150Y-129841734D01*
X88509856Y-129856349D01*
X88528034Y-129872825D01*
X88544510Y-129891003D01*
X88559125Y-129910709D01*
X88571737Y-129931752D01*
X88582227Y-129953931D01*
X88590492Y-129977030D01*
X88596453Y-130000829D01*
X88600053Y-130025097D01*
X88601257Y-130049601D01*
X88601257Y-130699603D01*
X88600053Y-130724107D01*
X88596453Y-130748375D01*
X88590492Y-130772174D01*
X88582227Y-130795273D01*
X88571737Y-130817452D01*
X88559125Y-130838495D01*
X88544510Y-130858201D01*
X88528034Y-130876379D01*
X88509856Y-130892855D01*
X88490150Y-130907470D01*
X88469107Y-130920082D01*
X88446928Y-130930572D01*
X88423829Y-130938837D01*
X88400030Y-130944798D01*
X88375762Y-130948398D01*
X88351258Y-130949602D01*
X87451256Y-130949602D01*
X87426752Y-130948398D01*
X87402484Y-130944798D01*
X87378685Y-130938837D01*
X87355586Y-130930572D01*
X87333407Y-130920082D01*
X87312364Y-130907470D01*
X87292658Y-130892855D01*
X87274480Y-130876379D01*
X87258004Y-130858201D01*
X87243389Y-130838495D01*
X87230777Y-130817452D01*
X87220287Y-130795273D01*
X87212022Y-130772174D01*
X87206061Y-130748375D01*
X87202461Y-130724107D01*
X87201257Y-130699603D01*
X87201257Y-130049601D01*
X87202461Y-130025097D01*
X87206061Y-130000829D01*
X87212022Y-129977030D01*
X87220287Y-129953931D01*
X87230777Y-129931752D01*
X87243389Y-129910709D01*
X87258004Y-129891003D01*
X87274480Y-129872825D01*
X87292658Y-129856349D01*
X87312364Y-129841734D01*
X87333407Y-129829122D01*
X87355586Y-129818632D01*
X87378685Y-129810367D01*
X87402484Y-129804406D01*
X87426752Y-129800806D01*
X87451256Y-129799602D01*
X88351258Y-129799602D01*
X88375762Y-129800806D01*
X88375762Y-129800806D01*
G37*
D15*
G04 #@! TD*
G04 #@! TO.P,R1,1*
G04 #@! TO.N,/XTAL1*
X87901257Y-130374602D03*
D14*
G04 #@! TO.N,Net-(DS1-Pad15)*
G04 #@! TO.C,R2*
G36*
X113522439Y-135043959D02*
X113546707Y-135047559D01*
X113570506Y-135053520D01*
X113593605Y-135061785D01*
X113615784Y-135072275D01*
X113636827Y-135084887D01*
X113656533Y-135099502D01*
X113674711Y-135115978D01*
X113691187Y-135134156D01*
X113705802Y-135153862D01*
X113718414Y-135174905D01*
X113728904Y-135197084D01*
X113737169Y-135220183D01*
X113743130Y-135243982D01*
X113746730Y-135268250D01*
X113747934Y-135292754D01*
X113747934Y-136192756D01*
X113746730Y-136217260D01*
X113743130Y-136241528D01*
X113737169Y-136265327D01*
X113728904Y-136288426D01*
X113718414Y-136310605D01*
X113705802Y-136331648D01*
X113691187Y-136351354D01*
X113674711Y-136369532D01*
X113656533Y-136386008D01*
X113636827Y-136400623D01*
X113615784Y-136413235D01*
X113593605Y-136423725D01*
X113570506Y-136431990D01*
X113546707Y-136437951D01*
X113522439Y-136441551D01*
X113497935Y-136442755D01*
X112847933Y-136442755D01*
X112823429Y-136441551D01*
X112799161Y-136437951D01*
X112775362Y-136431990D01*
X112752263Y-136423725D01*
X112730084Y-136413235D01*
X112709041Y-136400623D01*
X112689335Y-136386008D01*
X112671157Y-136369532D01*
X112654681Y-136351354D01*
X112640066Y-136331648D01*
X112627454Y-136310605D01*
X112616964Y-136288426D01*
X112608699Y-136265327D01*
X112602738Y-136241528D01*
X112599138Y-136217260D01*
X112597934Y-136192756D01*
X112597934Y-135292754D01*
X112599138Y-135268250D01*
X112602738Y-135243982D01*
X112608699Y-135220183D01*
X112616964Y-135197084D01*
X112627454Y-135174905D01*
X112640066Y-135153862D01*
X112654681Y-135134156D01*
X112671157Y-135115978D01*
X112689335Y-135099502D01*
X112709041Y-135084887D01*
X112730084Y-135072275D01*
X112752263Y-135061785D01*
X112775362Y-135053520D01*
X112799161Y-135047559D01*
X112823429Y-135043959D01*
X112847933Y-135042755D01*
X113497935Y-135042755D01*
X113522439Y-135043959D01*
X113522439Y-135043959D01*
G37*
D15*
G04 #@! TD*
G04 #@! TO.P,R2,2*
G04 #@! TO.N,Net-(DS1-Pad15)*
X113172934Y-135742755D03*
D14*
G04 #@! TO.N,/LCD_LED*
G04 #@! TO.C,R2*
G36*
X111472439Y-135043959D02*
X111496707Y-135047559D01*
X111520506Y-135053520D01*
X111543605Y-135061785D01*
X111565784Y-135072275D01*
X111586827Y-135084887D01*
X111606533Y-135099502D01*
X111624711Y-135115978D01*
X111641187Y-135134156D01*
X111655802Y-135153862D01*
X111668414Y-135174905D01*
X111678904Y-135197084D01*
X111687169Y-135220183D01*
X111693130Y-135243982D01*
X111696730Y-135268250D01*
X111697934Y-135292754D01*
X111697934Y-136192756D01*
X111696730Y-136217260D01*
X111693130Y-136241528D01*
X111687169Y-136265327D01*
X111678904Y-136288426D01*
X111668414Y-136310605D01*
X111655802Y-136331648D01*
X111641187Y-136351354D01*
X111624711Y-136369532D01*
X111606533Y-136386008D01*
X111586827Y-136400623D01*
X111565784Y-136413235D01*
X111543605Y-136423725D01*
X111520506Y-136431990D01*
X111496707Y-136437951D01*
X111472439Y-136441551D01*
X111447935Y-136442755D01*
X110797933Y-136442755D01*
X110773429Y-136441551D01*
X110749161Y-136437951D01*
X110725362Y-136431990D01*
X110702263Y-136423725D01*
X110680084Y-136413235D01*
X110659041Y-136400623D01*
X110639335Y-136386008D01*
X110621157Y-136369532D01*
X110604681Y-136351354D01*
X110590066Y-136331648D01*
X110577454Y-136310605D01*
X110566964Y-136288426D01*
X110558699Y-136265327D01*
X110552738Y-136241528D01*
X110549138Y-136217260D01*
X110547934Y-136192756D01*
X110547934Y-135292754D01*
X110549138Y-135268250D01*
X110552738Y-135243982D01*
X110558699Y-135220183D01*
X110566964Y-135197084D01*
X110577454Y-135174905D01*
X110590066Y-135153862D01*
X110604681Y-135134156D01*
X110621157Y-135115978D01*
X110639335Y-135099502D01*
X110659041Y-135084887D01*
X110680084Y-135072275D01*
X110702263Y-135061785D01*
X110725362Y-135053520D01*
X110749161Y-135047559D01*
X110773429Y-135043959D01*
X110797933Y-135042755D01*
X111447935Y-135042755D01*
X111472439Y-135043959D01*
X111472439Y-135043959D01*
G37*
D15*
G04 #@! TD*
G04 #@! TO.P,R2,1*
G04 #@! TO.N,/LCD_LED*
X111122934Y-135742755D03*
D14*
G04 #@! TO.N,/RESET*
G04 #@! TO.C,R3*
G36*
X98360114Y-120839485D02*
X98384382Y-120843085D01*
X98408181Y-120849046D01*
X98431280Y-120857311D01*
X98453459Y-120867801D01*
X98474502Y-120880413D01*
X98494208Y-120895028D01*
X98512386Y-120911504D01*
X98528862Y-120929682D01*
X98543477Y-120949388D01*
X98556089Y-120970431D01*
X98566579Y-120992610D01*
X98574844Y-121015709D01*
X98580805Y-121039508D01*
X98584405Y-121063776D01*
X98585609Y-121088280D01*
X98585609Y-121738282D01*
X98584405Y-121762786D01*
X98580805Y-121787054D01*
X98574844Y-121810853D01*
X98566579Y-121833952D01*
X98556089Y-121856131D01*
X98543477Y-121877174D01*
X98528862Y-121896880D01*
X98512386Y-121915058D01*
X98494208Y-121931534D01*
X98474502Y-121946149D01*
X98453459Y-121958761D01*
X98431280Y-121969251D01*
X98408181Y-121977516D01*
X98384382Y-121983477D01*
X98360114Y-121987077D01*
X98335610Y-121988281D01*
X97435608Y-121988281D01*
X97411104Y-121987077D01*
X97386836Y-121983477D01*
X97363037Y-121977516D01*
X97339938Y-121969251D01*
X97317759Y-121958761D01*
X97296716Y-121946149D01*
X97277010Y-121931534D01*
X97258832Y-121915058D01*
X97242356Y-121896880D01*
X97227741Y-121877174D01*
X97215129Y-121856131D01*
X97204639Y-121833952D01*
X97196374Y-121810853D01*
X97190413Y-121787054D01*
X97186813Y-121762786D01*
X97185609Y-121738282D01*
X97185609Y-121088280D01*
X97186813Y-121063776D01*
X97190413Y-121039508D01*
X97196374Y-121015709D01*
X97204639Y-120992610D01*
X97215129Y-120970431D01*
X97227741Y-120949388D01*
X97242356Y-120929682D01*
X97258832Y-120911504D01*
X97277010Y-120895028D01*
X97296716Y-120880413D01*
X97317759Y-120867801D01*
X97339938Y-120857311D01*
X97363037Y-120849046D01*
X97386836Y-120843085D01*
X97411104Y-120839485D01*
X97435608Y-120838281D01*
X98335610Y-120838281D01*
X98360114Y-120839485D01*
X98360114Y-120839485D01*
G37*
D15*
G04 #@! TD*
G04 #@! TO.P,R3,2*
G04 #@! TO.N,/RESET*
X97885609Y-121413281D03*
D14*
G04 #@! TO.N,VCC*
G04 #@! TO.C,R3*
G36*
X98360114Y-118789485D02*
X98384382Y-118793085D01*
X98408181Y-118799046D01*
X98431280Y-118807311D01*
X98453459Y-118817801D01*
X98474502Y-118830413D01*
X98494208Y-118845028D01*
X98512386Y-118861504D01*
X98528862Y-118879682D01*
X98543477Y-118899388D01*
X98556089Y-118920431D01*
X98566579Y-118942610D01*
X98574844Y-118965709D01*
X98580805Y-118989508D01*
X98584405Y-119013776D01*
X98585609Y-119038280D01*
X98585609Y-119688282D01*
X98584405Y-119712786D01*
X98580805Y-119737054D01*
X98574844Y-119760853D01*
X98566579Y-119783952D01*
X98556089Y-119806131D01*
X98543477Y-119827174D01*
X98528862Y-119846880D01*
X98512386Y-119865058D01*
X98494208Y-119881534D01*
X98474502Y-119896149D01*
X98453459Y-119908761D01*
X98431280Y-119919251D01*
X98408181Y-119927516D01*
X98384382Y-119933477D01*
X98360114Y-119937077D01*
X98335610Y-119938281D01*
X97435608Y-119938281D01*
X97411104Y-119937077D01*
X97386836Y-119933477D01*
X97363037Y-119927516D01*
X97339938Y-119919251D01*
X97317759Y-119908761D01*
X97296716Y-119896149D01*
X97277010Y-119881534D01*
X97258832Y-119865058D01*
X97242356Y-119846880D01*
X97227741Y-119827174D01*
X97215129Y-119806131D01*
X97204639Y-119783952D01*
X97196374Y-119760853D01*
X97190413Y-119737054D01*
X97186813Y-119712786D01*
X97185609Y-119688282D01*
X97185609Y-119038280D01*
X97186813Y-119013776D01*
X97190413Y-118989508D01*
X97196374Y-118965709D01*
X97204639Y-118942610D01*
X97215129Y-118920431D01*
X97227741Y-118899388D01*
X97242356Y-118879682D01*
X97258832Y-118861504D01*
X97277010Y-118845028D01*
X97296716Y-118830413D01*
X97317759Y-118817801D01*
X97339938Y-118807311D01*
X97363037Y-118799046D01*
X97386836Y-118793085D01*
X97411104Y-118789485D01*
X97435608Y-118788281D01*
X98335610Y-118788281D01*
X98360114Y-118789485D01*
X98360114Y-118789485D01*
G37*
D15*
G04 #@! TD*
G04 #@! TO.P,R3,1*
G04 #@! TO.N,VCC*
X97885609Y-119363281D03*
D14*
G04 #@! TO.N,GND*
G04 #@! TO.C,R4*
G36*
X118179505Y-118491204D02*
X118203773Y-118494804D01*
X118227572Y-118500765D01*
X118250671Y-118509030D01*
X118272850Y-118519520D01*
X118293893Y-118532132D01*
X118313599Y-118546747D01*
X118331777Y-118563223D01*
X118348253Y-118581401D01*
X118362868Y-118601107D01*
X118375480Y-118622150D01*
X118385970Y-118644329D01*
X118394235Y-118667428D01*
X118400196Y-118691227D01*
X118403796Y-118715495D01*
X118405000Y-118739999D01*
X118405000Y-119640001D01*
X118403796Y-119664505D01*
X118400196Y-119688773D01*
X118394235Y-119712572D01*
X118385970Y-119735671D01*
X118375480Y-119757850D01*
X118362868Y-119778893D01*
X118348253Y-119798599D01*
X118331777Y-119816777D01*
X118313599Y-119833253D01*
X118293893Y-119847868D01*
X118272850Y-119860480D01*
X118250671Y-119870970D01*
X118227572Y-119879235D01*
X118203773Y-119885196D01*
X118179505Y-119888796D01*
X118155001Y-119890000D01*
X117504999Y-119890000D01*
X117480495Y-119888796D01*
X117456227Y-119885196D01*
X117432428Y-119879235D01*
X117409329Y-119870970D01*
X117387150Y-119860480D01*
X117366107Y-119847868D01*
X117346401Y-119833253D01*
X117328223Y-119816777D01*
X117311747Y-119798599D01*
X117297132Y-119778893D01*
X117284520Y-119757850D01*
X117274030Y-119735671D01*
X117265765Y-119712572D01*
X117259804Y-119688773D01*
X117256204Y-119664505D01*
X117255000Y-119640001D01*
X117255000Y-118739999D01*
X117256204Y-118715495D01*
X117259804Y-118691227D01*
X117265765Y-118667428D01*
X117274030Y-118644329D01*
X117284520Y-118622150D01*
X117297132Y-118601107D01*
X117311747Y-118581401D01*
X117328223Y-118563223D01*
X117346401Y-118546747D01*
X117366107Y-118532132D01*
X117387150Y-118519520D01*
X117409329Y-118509030D01*
X117432428Y-118500765D01*
X117456227Y-118494804D01*
X117480495Y-118491204D01*
X117504999Y-118490000D01*
X118155001Y-118490000D01*
X118179505Y-118491204D01*
X118179505Y-118491204D01*
G37*
D15*
G04 #@! TD*
G04 #@! TO.P,R4,2*
G04 #@! TO.N,GND*
X117830000Y-119190000D03*
D14*
G04 #@! TO.N,/Sensor1*
G04 #@! TO.C,R4*
G36*
X116129505Y-118491204D02*
X116153773Y-118494804D01*
X116177572Y-118500765D01*
X116200671Y-118509030D01*
X116222850Y-118519520D01*
X116243893Y-118532132D01*
X116263599Y-118546747D01*
X116281777Y-118563223D01*
X116298253Y-118581401D01*
X116312868Y-118601107D01*
X116325480Y-118622150D01*
X116335970Y-118644329D01*
X116344235Y-118667428D01*
X116350196Y-118691227D01*
X116353796Y-118715495D01*
X116355000Y-118739999D01*
X116355000Y-119640001D01*
X116353796Y-119664505D01*
X116350196Y-119688773D01*
X116344235Y-119712572D01*
X116335970Y-119735671D01*
X116325480Y-119757850D01*
X116312868Y-119778893D01*
X116298253Y-119798599D01*
X116281777Y-119816777D01*
X116263599Y-119833253D01*
X116243893Y-119847868D01*
X116222850Y-119860480D01*
X116200671Y-119870970D01*
X116177572Y-119879235D01*
X116153773Y-119885196D01*
X116129505Y-119888796D01*
X116105001Y-119890000D01*
X115454999Y-119890000D01*
X115430495Y-119888796D01*
X115406227Y-119885196D01*
X115382428Y-119879235D01*
X115359329Y-119870970D01*
X115337150Y-119860480D01*
X115316107Y-119847868D01*
X115296401Y-119833253D01*
X115278223Y-119816777D01*
X115261747Y-119798599D01*
X115247132Y-119778893D01*
X115234520Y-119757850D01*
X115224030Y-119735671D01*
X115215765Y-119712572D01*
X115209804Y-119688773D01*
X115206204Y-119664505D01*
X115205000Y-119640001D01*
X115205000Y-118739999D01*
X115206204Y-118715495D01*
X115209804Y-118691227D01*
X115215765Y-118667428D01*
X115224030Y-118644329D01*
X115234520Y-118622150D01*
X115247132Y-118601107D01*
X115261747Y-118581401D01*
X115278223Y-118563223D01*
X115296401Y-118546747D01*
X115316107Y-118532132D01*
X115337150Y-118519520D01*
X115359329Y-118509030D01*
X115382428Y-118500765D01*
X115406227Y-118494804D01*
X115430495Y-118491204D01*
X115454999Y-118490000D01*
X116105001Y-118490000D01*
X116129505Y-118491204D01*
X116129505Y-118491204D01*
G37*
D15*
G04 #@! TD*
G04 #@! TO.P,R4,1*
G04 #@! TO.N,/Sensor1*
X115780000Y-119190000D03*
D20*
G04 #@! TO.P,Q1,1*
G04 #@! TO.N,/Sensor1_ON*
X127030000Y-121170000D03*
G04 #@! TO.P,Q1,3*
G04 #@! TO.N,Net-(GS1-Pad6)*
X127030000Y-116570000D03*
G04 #@! TO.P,Q1,2*
G04 #@! TO.N,GND*
X127030000Y-118870000D03*
D21*
X120730000Y-118870000D03*
G04 #@! TD*
D20*
G04 #@! TO.P,Q2,1*
G04 #@! TO.N,/Sensor2_ON*
X110470000Y-114610000D03*
G04 #@! TO.P,Q2,3*
G04 #@! TO.N,Net-(GS2-Pad6)*
X110470000Y-110010000D03*
G04 #@! TO.P,Q2,2*
G04 #@! TO.N,GND*
X110470000Y-112310000D03*
D21*
X104170000Y-112310000D03*
G04 #@! TD*
D14*
G04 #@! TO.N,GND*
G04 #@! TO.C,C1*
G36*
X79765762Y-129005806D02*
X79790030Y-129009406D01*
X79813829Y-129015367D01*
X79836928Y-129023632D01*
X79859107Y-129034122D01*
X79880150Y-129046734D01*
X79899856Y-129061349D01*
X79918034Y-129077825D01*
X79934510Y-129096003D01*
X79949125Y-129115709D01*
X79961737Y-129136752D01*
X79972227Y-129158931D01*
X79980492Y-129182030D01*
X79986453Y-129205829D01*
X79990053Y-129230097D01*
X79991257Y-129254601D01*
X79991257Y-130154603D01*
X79990053Y-130179107D01*
X79986453Y-130203375D01*
X79980492Y-130227174D01*
X79972227Y-130250273D01*
X79961737Y-130272452D01*
X79949125Y-130293495D01*
X79934510Y-130313201D01*
X79918034Y-130331379D01*
X79899856Y-130347855D01*
X79880150Y-130362470D01*
X79859107Y-130375082D01*
X79836928Y-130385572D01*
X79813829Y-130393837D01*
X79790030Y-130399798D01*
X79765762Y-130403398D01*
X79741258Y-130404602D01*
X79091256Y-130404602D01*
X79066752Y-130403398D01*
X79042484Y-130399798D01*
X79018685Y-130393837D01*
X78995586Y-130385572D01*
X78973407Y-130375082D01*
X78952364Y-130362470D01*
X78932658Y-130347855D01*
X78914480Y-130331379D01*
X78898004Y-130313201D01*
X78883389Y-130293495D01*
X78870777Y-130272452D01*
X78860287Y-130250273D01*
X78852022Y-130227174D01*
X78846061Y-130203375D01*
X78842461Y-130179107D01*
X78841257Y-130154603D01*
X78841257Y-129254601D01*
X78842461Y-129230097D01*
X78846061Y-129205829D01*
X78852022Y-129182030D01*
X78860287Y-129158931D01*
X78870777Y-129136752D01*
X78883389Y-129115709D01*
X78898004Y-129096003D01*
X78914480Y-129077825D01*
X78932658Y-129061349D01*
X78952364Y-129046734D01*
X78973407Y-129034122D01*
X78995586Y-129023632D01*
X79018685Y-129015367D01*
X79042484Y-129009406D01*
X79066752Y-129005806D01*
X79091256Y-129004602D01*
X79741258Y-129004602D01*
X79765762Y-129005806D01*
X79765762Y-129005806D01*
G37*
D15*
G04 #@! TD*
G04 #@! TO.P,C1,2*
G04 #@! TO.N,GND*
X79416257Y-129704602D03*
D14*
G04 #@! TO.N,/XTAL1*
G04 #@! TO.C,C1*
G36*
X81815762Y-129005806D02*
X81840030Y-129009406D01*
X81863829Y-129015367D01*
X81886928Y-129023632D01*
X81909107Y-129034122D01*
X81930150Y-129046734D01*
X81949856Y-129061349D01*
X81968034Y-129077825D01*
X81984510Y-129096003D01*
X81999125Y-129115709D01*
X82011737Y-129136752D01*
X82022227Y-129158931D01*
X82030492Y-129182030D01*
X82036453Y-129205829D01*
X82040053Y-129230097D01*
X82041257Y-129254601D01*
X82041257Y-130154603D01*
X82040053Y-130179107D01*
X82036453Y-130203375D01*
X82030492Y-130227174D01*
X82022227Y-130250273D01*
X82011737Y-130272452D01*
X81999125Y-130293495D01*
X81984510Y-130313201D01*
X81968034Y-130331379D01*
X81949856Y-130347855D01*
X81930150Y-130362470D01*
X81909107Y-130375082D01*
X81886928Y-130385572D01*
X81863829Y-130393837D01*
X81840030Y-130399798D01*
X81815762Y-130403398D01*
X81791258Y-130404602D01*
X81141256Y-130404602D01*
X81116752Y-130403398D01*
X81092484Y-130399798D01*
X81068685Y-130393837D01*
X81045586Y-130385572D01*
X81023407Y-130375082D01*
X81002364Y-130362470D01*
X80982658Y-130347855D01*
X80964480Y-130331379D01*
X80948004Y-130313201D01*
X80933389Y-130293495D01*
X80920777Y-130272452D01*
X80910287Y-130250273D01*
X80902022Y-130227174D01*
X80896061Y-130203375D01*
X80892461Y-130179107D01*
X80891257Y-130154603D01*
X80891257Y-129254601D01*
X80892461Y-129230097D01*
X80896061Y-129205829D01*
X80902022Y-129182030D01*
X80910287Y-129158931D01*
X80920777Y-129136752D01*
X80933389Y-129115709D01*
X80948004Y-129096003D01*
X80964480Y-129077825D01*
X80982658Y-129061349D01*
X81002364Y-129046734D01*
X81023407Y-129034122D01*
X81045586Y-129023632D01*
X81068685Y-129015367D01*
X81092484Y-129009406D01*
X81116752Y-129005806D01*
X81141256Y-129004602D01*
X81791258Y-129004602D01*
X81815762Y-129005806D01*
X81815762Y-129005806D01*
G37*
D15*
G04 #@! TD*
G04 #@! TO.P,C1,1*
G04 #@! TO.N,/XTAL1*
X81466257Y-129704602D03*
D22*
G04 #@! TO.P,Y1,2*
G04 #@! TO.N,/XTAL2*
X84421257Y-134864602D03*
G04 #@! TO.P,Y1,1*
G04 #@! TO.N,/XTAL1*
X84421257Y-129664602D03*
G04 #@! TD*
D14*
G04 #@! TO.N,GND*
G04 #@! TO.C,C5*
G36*
X107844505Y-127481204D02*
X107868773Y-127484804D01*
X107892572Y-127490765D01*
X107915671Y-127499030D01*
X107937850Y-127509520D01*
X107958893Y-127522132D01*
X107978599Y-127536747D01*
X107996777Y-127553223D01*
X108013253Y-127571401D01*
X108027868Y-127591107D01*
X108040480Y-127612150D01*
X108050970Y-127634329D01*
X108059235Y-127657428D01*
X108065196Y-127681227D01*
X108068796Y-127705495D01*
X108070000Y-127729999D01*
X108070000Y-128380001D01*
X108068796Y-128404505D01*
X108065196Y-128428773D01*
X108059235Y-128452572D01*
X108050970Y-128475671D01*
X108040480Y-128497850D01*
X108027868Y-128518893D01*
X108013253Y-128538599D01*
X107996777Y-128556777D01*
X107978599Y-128573253D01*
X107958893Y-128587868D01*
X107937850Y-128600480D01*
X107915671Y-128610970D01*
X107892572Y-128619235D01*
X107868773Y-128625196D01*
X107844505Y-128628796D01*
X107820001Y-128630000D01*
X106919999Y-128630000D01*
X106895495Y-128628796D01*
X106871227Y-128625196D01*
X106847428Y-128619235D01*
X106824329Y-128610970D01*
X106802150Y-128600480D01*
X106781107Y-128587868D01*
X106761401Y-128573253D01*
X106743223Y-128556777D01*
X106726747Y-128538599D01*
X106712132Y-128518893D01*
X106699520Y-128497850D01*
X106689030Y-128475671D01*
X106680765Y-128452572D01*
X106674804Y-128428773D01*
X106671204Y-128404505D01*
X106670000Y-128380001D01*
X106670000Y-127729999D01*
X106671204Y-127705495D01*
X106674804Y-127681227D01*
X106680765Y-127657428D01*
X106689030Y-127634329D01*
X106699520Y-127612150D01*
X106712132Y-127591107D01*
X106726747Y-127571401D01*
X106743223Y-127553223D01*
X106761401Y-127536747D01*
X106781107Y-127522132D01*
X106802150Y-127509520D01*
X106824329Y-127499030D01*
X106847428Y-127490765D01*
X106871227Y-127484804D01*
X106895495Y-127481204D01*
X106919999Y-127480000D01*
X107820001Y-127480000D01*
X107844505Y-127481204D01*
X107844505Y-127481204D01*
G37*
D15*
G04 #@! TD*
G04 #@! TO.P,C5,2*
G04 #@! TO.N,GND*
X107370000Y-128055000D03*
D14*
G04 #@! TO.N,VCC*
G04 #@! TO.C,C5*
G36*
X107844505Y-129531204D02*
X107868773Y-129534804D01*
X107892572Y-129540765D01*
X107915671Y-129549030D01*
X107937850Y-129559520D01*
X107958893Y-129572132D01*
X107978599Y-129586747D01*
X107996777Y-129603223D01*
X108013253Y-129621401D01*
X108027868Y-129641107D01*
X108040480Y-129662150D01*
X108050970Y-129684329D01*
X108059235Y-129707428D01*
X108065196Y-129731227D01*
X108068796Y-129755495D01*
X108070000Y-129779999D01*
X108070000Y-130430001D01*
X108068796Y-130454505D01*
X108065196Y-130478773D01*
X108059235Y-130502572D01*
X108050970Y-130525671D01*
X108040480Y-130547850D01*
X108027868Y-130568893D01*
X108013253Y-130588599D01*
X107996777Y-130606777D01*
X107978599Y-130623253D01*
X107958893Y-130637868D01*
X107937850Y-130650480D01*
X107915671Y-130660970D01*
X107892572Y-130669235D01*
X107868773Y-130675196D01*
X107844505Y-130678796D01*
X107820001Y-130680000D01*
X106919999Y-130680000D01*
X106895495Y-130678796D01*
X106871227Y-130675196D01*
X106847428Y-130669235D01*
X106824329Y-130660970D01*
X106802150Y-130650480D01*
X106781107Y-130637868D01*
X106761401Y-130623253D01*
X106743223Y-130606777D01*
X106726747Y-130588599D01*
X106712132Y-130568893D01*
X106699520Y-130547850D01*
X106689030Y-130525671D01*
X106680765Y-130502572D01*
X106674804Y-130478773D01*
X106671204Y-130454505D01*
X106670000Y-130430001D01*
X106670000Y-129779999D01*
X106671204Y-129755495D01*
X106674804Y-129731227D01*
X106680765Y-129707428D01*
X106689030Y-129684329D01*
X106699520Y-129662150D01*
X106712132Y-129641107D01*
X106726747Y-129621401D01*
X106743223Y-129603223D01*
X106761401Y-129586747D01*
X106781107Y-129572132D01*
X106802150Y-129559520D01*
X106824329Y-129549030D01*
X106847428Y-129540765D01*
X106871227Y-129534804D01*
X106895495Y-129531204D01*
X106919999Y-129530000D01*
X107820001Y-129530000D01*
X107844505Y-129531204D01*
X107844505Y-129531204D01*
G37*
D15*
G04 #@! TD*
G04 #@! TO.P,C5,1*
G04 #@! TO.N,VCC*
X107370000Y-130105000D03*
D23*
G04 #@! TO.P,J1,6*
G04 #@! TO.N,/DTR*
X53170000Y-123290000D03*
G04 #@! TO.P,J1,5*
G04 #@! TO.N,/RX*
X55710000Y-123290000D03*
G04 #@! TO.P,J1,4*
G04 #@! TO.N,/TX*
X58250000Y-123290000D03*
G04 #@! TO.P,J1,3*
G04 #@! TO.N,/VCC-FTDI*
X60790000Y-123290000D03*
G04 #@! TO.P,J1,2*
G04 #@! TO.N,Net-(J1-Pad2)*
X63330000Y-123290000D03*
D24*
G04 #@! TO.P,J1,1*
G04 #@! TO.N,GND*
X65870000Y-123290000D03*
G04 #@! TD*
D25*
G04 #@! TO.P,J2,1*
G04 #@! TO.N,Net-(J2-Pad1)*
X67370000Y-108450000D03*
D26*
G04 #@! TO.P,J2,2*
G04 #@! TO.N,/SCL*
X64830000Y-109720000D03*
G04 #@! TO.P,J2,3*
G04 #@! TO.N,/SDA*
X67370000Y-110990000D03*
G04 #@! TO.P,J2,4*
G04 #@! TO.N,GND*
X64830000Y-112260000D03*
G04 #@! TO.P,J2,5*
G04 #@! TO.N,Net-(J2-Pad5)*
X67370000Y-113530000D03*
G04 #@! TO.P,J2,6*
G04 #@! TO.N,GND*
X64830000Y-114800000D03*
G04 #@! TD*
D14*
G04 #@! TO.N,N/C*
G04 #@! TO.C,J7*
G36*
X62130765Y-137164213D02*
X62215704Y-137176813D01*
X62298999Y-137197677D01*
X62379848Y-137226605D01*
X62457472Y-137263319D01*
X62531124Y-137307464D01*
X62600094Y-137358616D01*
X62663718Y-137416282D01*
X62721384Y-137479906D01*
X62772536Y-137548876D01*
X62816681Y-137622528D01*
X62853395Y-137700152D01*
X62882323Y-137781001D01*
X62903187Y-137864296D01*
X62915787Y-137949235D01*
X62920000Y-138035000D01*
X62920000Y-139785000D01*
X62915787Y-139870765D01*
X62903187Y-139955704D01*
X62882323Y-140038999D01*
X62853395Y-140119848D01*
X62816681Y-140197472D01*
X62772536Y-140271124D01*
X62721384Y-140340094D01*
X62663718Y-140403718D01*
X62600094Y-140461384D01*
X62531124Y-140512536D01*
X62457472Y-140556681D01*
X62379848Y-140593395D01*
X62298999Y-140622323D01*
X62215704Y-140643187D01*
X62130765Y-140655787D01*
X62045000Y-140660000D01*
X60295000Y-140660000D01*
X60209235Y-140655787D01*
X60124296Y-140643187D01*
X60041001Y-140622323D01*
X59960152Y-140593395D01*
X59882528Y-140556681D01*
X59808876Y-140512536D01*
X59739906Y-140461384D01*
X59676282Y-140403718D01*
X59618616Y-140340094D01*
X59567464Y-140271124D01*
X59523319Y-140197472D01*
X59486605Y-140119848D01*
X59457677Y-140038999D01*
X59436813Y-139955704D01*
X59424213Y-139870765D01*
X59420000Y-139785000D01*
X59420000Y-138035000D01*
X59424213Y-137949235D01*
X59436813Y-137864296D01*
X59457677Y-137781001D01*
X59486605Y-137700152D01*
X59523319Y-137622528D01*
X59567464Y-137548876D01*
X59618616Y-137479906D01*
X59676282Y-137416282D01*
X59739906Y-137358616D01*
X59808876Y-137307464D01*
X59882528Y-137263319D01*
X59960152Y-137226605D01*
X60041001Y-137197677D01*
X60124296Y-137176813D01*
X60209235Y-137164213D01*
X60295000Y-137160000D01*
X62045000Y-137160000D01*
X62130765Y-137164213D01*
X62130765Y-137164213D01*
G37*
D27*
G04 #@! TD*
G04 #@! TO.P,J7,3*
G04 #@! TO.N,N/C*
X61170000Y-138910000D03*
D14*
G04 #@! TO.N,GND*
G04 #@! TO.C,J7*
G36*
X58993513Y-132463611D02*
X59066318Y-132474411D01*
X59137714Y-132492295D01*
X59207013Y-132517090D01*
X59273548Y-132548559D01*
X59336678Y-132586398D01*
X59395795Y-132630242D01*
X59450330Y-132679670D01*
X59499758Y-132734205D01*
X59543602Y-132793322D01*
X59581441Y-132856452D01*
X59612910Y-132922987D01*
X59637705Y-132992286D01*
X59655589Y-133063682D01*
X59666389Y-133136487D01*
X59670000Y-133210000D01*
X59670000Y-135210000D01*
X59666389Y-135283513D01*
X59655589Y-135356318D01*
X59637705Y-135427714D01*
X59612910Y-135497013D01*
X59581441Y-135563548D01*
X59543602Y-135626678D01*
X59499758Y-135685795D01*
X59450330Y-135740330D01*
X59395795Y-135789758D01*
X59336678Y-135833602D01*
X59273548Y-135871441D01*
X59207013Y-135902910D01*
X59137714Y-135927705D01*
X59066318Y-135945589D01*
X58993513Y-135956389D01*
X58920000Y-135960000D01*
X57420000Y-135960000D01*
X57346487Y-135956389D01*
X57273682Y-135945589D01*
X57202286Y-135927705D01*
X57132987Y-135902910D01*
X57066452Y-135871441D01*
X57003322Y-135833602D01*
X56944205Y-135789758D01*
X56889670Y-135740330D01*
X56840242Y-135685795D01*
X56796398Y-135626678D01*
X56758559Y-135563548D01*
X56727090Y-135497013D01*
X56702295Y-135427714D01*
X56684411Y-135356318D01*
X56673611Y-135283513D01*
X56670000Y-135210000D01*
X56670000Y-133210000D01*
X56673611Y-133136487D01*
X56684411Y-133063682D01*
X56702295Y-132992286D01*
X56727090Y-132922987D01*
X56758559Y-132856452D01*
X56796398Y-132793322D01*
X56840242Y-132734205D01*
X56889670Y-132679670D01*
X56944205Y-132630242D01*
X57003322Y-132586398D01*
X57066452Y-132548559D01*
X57132987Y-132517090D01*
X57202286Y-132492295D01*
X57273682Y-132474411D01*
X57346487Y-132463611D01*
X57420000Y-132460000D01*
X58920000Y-132460000D01*
X58993513Y-132463611D01*
X58993513Y-132463611D01*
G37*
D17*
G04 #@! TD*
G04 #@! TO.P,J7,2*
G04 #@! TO.N,GND*
X58170000Y-134210000D03*
D28*
G04 #@! TO.P,J7,1*
G04 #@! TO.N,+5V*
X64170000Y-134210000D03*
G04 #@! TD*
D14*
G04 #@! TO.N,GND*
G04 #@! TO.C,R5*
G36*
X105854505Y-121271204D02*
X105878773Y-121274804D01*
X105902572Y-121280765D01*
X105925671Y-121289030D01*
X105947850Y-121299520D01*
X105968893Y-121312132D01*
X105988599Y-121326747D01*
X106006777Y-121343223D01*
X106023253Y-121361401D01*
X106037868Y-121381107D01*
X106050480Y-121402150D01*
X106060970Y-121424329D01*
X106069235Y-121447428D01*
X106075196Y-121471227D01*
X106078796Y-121495495D01*
X106080000Y-121519999D01*
X106080000Y-122420001D01*
X106078796Y-122444505D01*
X106075196Y-122468773D01*
X106069235Y-122492572D01*
X106060970Y-122515671D01*
X106050480Y-122537850D01*
X106037868Y-122558893D01*
X106023253Y-122578599D01*
X106006777Y-122596777D01*
X105988599Y-122613253D01*
X105968893Y-122627868D01*
X105947850Y-122640480D01*
X105925671Y-122650970D01*
X105902572Y-122659235D01*
X105878773Y-122665196D01*
X105854505Y-122668796D01*
X105830001Y-122670000D01*
X105179999Y-122670000D01*
X105155495Y-122668796D01*
X105131227Y-122665196D01*
X105107428Y-122659235D01*
X105084329Y-122650970D01*
X105062150Y-122640480D01*
X105041107Y-122627868D01*
X105021401Y-122613253D01*
X105003223Y-122596777D01*
X104986747Y-122578599D01*
X104972132Y-122558893D01*
X104959520Y-122537850D01*
X104949030Y-122515671D01*
X104940765Y-122492572D01*
X104934804Y-122468773D01*
X104931204Y-122444505D01*
X104930000Y-122420001D01*
X104930000Y-121519999D01*
X104931204Y-121495495D01*
X104934804Y-121471227D01*
X104940765Y-121447428D01*
X104949030Y-121424329D01*
X104959520Y-121402150D01*
X104972132Y-121381107D01*
X104986747Y-121361401D01*
X105003223Y-121343223D01*
X105021401Y-121326747D01*
X105041107Y-121312132D01*
X105062150Y-121299520D01*
X105084329Y-121289030D01*
X105107428Y-121280765D01*
X105131227Y-121274804D01*
X105155495Y-121271204D01*
X105179999Y-121270000D01*
X105830001Y-121270000D01*
X105854505Y-121271204D01*
X105854505Y-121271204D01*
G37*
D15*
G04 #@! TD*
G04 #@! TO.P,R5,2*
G04 #@! TO.N,GND*
X105505000Y-121970000D03*
D14*
G04 #@! TO.N,/Sensor2*
G04 #@! TO.C,R5*
G36*
X107904505Y-121271204D02*
X107928773Y-121274804D01*
X107952572Y-121280765D01*
X107975671Y-121289030D01*
X107997850Y-121299520D01*
X108018893Y-121312132D01*
X108038599Y-121326747D01*
X108056777Y-121343223D01*
X108073253Y-121361401D01*
X108087868Y-121381107D01*
X108100480Y-121402150D01*
X108110970Y-121424329D01*
X108119235Y-121447428D01*
X108125196Y-121471227D01*
X108128796Y-121495495D01*
X108130000Y-121519999D01*
X108130000Y-122420001D01*
X108128796Y-122444505D01*
X108125196Y-122468773D01*
X108119235Y-122492572D01*
X108110970Y-122515671D01*
X108100480Y-122537850D01*
X108087868Y-122558893D01*
X108073253Y-122578599D01*
X108056777Y-122596777D01*
X108038599Y-122613253D01*
X108018893Y-122627868D01*
X107997850Y-122640480D01*
X107975671Y-122650970D01*
X107952572Y-122659235D01*
X107928773Y-122665196D01*
X107904505Y-122668796D01*
X107880001Y-122670000D01*
X107229999Y-122670000D01*
X107205495Y-122668796D01*
X107181227Y-122665196D01*
X107157428Y-122659235D01*
X107134329Y-122650970D01*
X107112150Y-122640480D01*
X107091107Y-122627868D01*
X107071401Y-122613253D01*
X107053223Y-122596777D01*
X107036747Y-122578599D01*
X107022132Y-122558893D01*
X107009520Y-122537850D01*
X106999030Y-122515671D01*
X106990765Y-122492572D01*
X106984804Y-122468773D01*
X106981204Y-122444505D01*
X106980000Y-122420001D01*
X106980000Y-121519999D01*
X106981204Y-121495495D01*
X106984804Y-121471227D01*
X106990765Y-121447428D01*
X106999030Y-121424329D01*
X107009520Y-121402150D01*
X107022132Y-121381107D01*
X107036747Y-121361401D01*
X107053223Y-121343223D01*
X107071401Y-121326747D01*
X107091107Y-121312132D01*
X107112150Y-121299520D01*
X107134329Y-121289030D01*
X107157428Y-121280765D01*
X107181227Y-121274804D01*
X107205495Y-121271204D01*
X107229999Y-121270000D01*
X107880001Y-121270000D01*
X107904505Y-121271204D01*
X107904505Y-121271204D01*
G37*
D15*
G04 #@! TD*
G04 #@! TO.P,R5,1*
G04 #@! TO.N,/Sensor2*
X107555000Y-121970000D03*
D29*
G04 #@! TO.P,U2,32*
G04 #@! TO.N,/Sensor3*
X93917934Y-126012755D03*
G04 #@! TO.P,U2,31*
G04 #@! TO.N,/TX*
X94717934Y-126012755D03*
G04 #@! TO.P,U2,30*
G04 #@! TO.N,/RX*
X95517934Y-126012755D03*
G04 #@! TO.P,U2,29*
G04 #@! TO.N,/RESET*
X96317934Y-126012755D03*
G04 #@! TO.P,U2,28*
G04 #@! TO.N,/SCL*
X97117934Y-126012755D03*
G04 #@! TO.P,U2,27*
G04 #@! TO.N,/SDA*
X97917934Y-126012755D03*
G04 #@! TO.P,U2,26*
G04 #@! TO.N,/RX_MH-Z19*
X98717934Y-126012755D03*
G04 #@! TO.P,U2,25*
G04 #@! TO.N,/TX_MH-Z19*
X99517934Y-126012755D03*
D30*
G04 #@! TO.P,U2,24*
G04 #@! TO.N,/Sensor2_ON*
X100967934Y-127462755D03*
G04 #@! TO.P,U2,23*
G04 #@! TO.N,/Sensor2*
X100967934Y-128262755D03*
G04 #@! TO.P,U2,22*
G04 #@! TO.N,/Sensor1*
X100967934Y-129062755D03*
G04 #@! TO.P,U2,21*
G04 #@! TO.N,GND*
X100967934Y-129862755D03*
G04 #@! TO.P,U2,20*
G04 #@! TO.N,VCC*
X100967934Y-130662755D03*
G04 #@! TO.P,U2,19*
G04 #@! TO.N,/Sensor1_ON*
X100967934Y-131462755D03*
G04 #@! TO.P,U2,18*
G04 #@! TO.N,VCC*
X100967934Y-132262755D03*
G04 #@! TO.P,U2,17*
G04 #@! TO.N,/LCD4_SCK*
X100967934Y-133062755D03*
D29*
G04 #@! TO.P,U2,16*
G04 #@! TO.N,/LCD3_MISO*
X99517934Y-134512755D03*
G04 #@! TO.P,U2,15*
G04 #@! TO.N,/LCD2_MOSI*
X98717934Y-134512755D03*
G04 #@! TO.P,U2,14*
G04 #@! TO.N,/LCD1*
X97917934Y-134512755D03*
G04 #@! TO.P,U2,13*
G04 #@! TO.N,/LCD_LED*
X97117934Y-134512755D03*
G04 #@! TO.P,U2,12*
G04 #@! TO.N,/LCD_E*
X96317934Y-134512755D03*
G04 #@! TO.P,U2,11*
G04 #@! TO.N,/LCD_RW*
X95517934Y-134512755D03*
G04 #@! TO.P,U2,10*
G04 #@! TO.N,/LCD_RS*
X94717934Y-134512755D03*
G04 #@! TO.P,U2,9*
G04 #@! TO.N,/HUM*
X93917934Y-134512755D03*
D30*
G04 #@! TO.P,U2,8*
G04 #@! TO.N,/XTAL2*
X92467934Y-133062755D03*
G04 #@! TO.P,U2,7*
G04 #@! TO.N,/XTAL1*
X92467934Y-132262755D03*
G04 #@! TO.P,U2,6*
G04 #@! TO.N,VCC*
X92467934Y-131462755D03*
G04 #@! TO.P,U2,5*
G04 #@! TO.N,GND*
X92467934Y-130662755D03*
G04 #@! TO.P,U2,4*
G04 #@! TO.N,VCC*
X92467934Y-129862755D03*
G04 #@! TO.P,U2,3*
G04 #@! TO.N,GND*
X92467934Y-129062755D03*
G04 #@! TO.P,U2,2*
G04 #@! TO.N,/TEMP*
X92467934Y-128262755D03*
G04 #@! TO.P,U2,1*
G04 #@! TO.N,/PWM_MH-Z19*
X92467934Y-127462755D03*
G04 #@! TD*
D31*
G04 #@! TO.P,GS1,1*
G04 #@! TO.N,/Sensor1*
X135638750Y-88488750D03*
D32*
G04 #@! TO.P,GS1,6*
G04 #@! TO.N,Net-(GS1-Pad6)*
X132280000Y-89880000D03*
D31*
G04 #@! TO.P,GS1,2*
G04 #@! TO.N,/Sensor1*
X128921250Y-88488750D03*
G04 #@! TO.P,GS1,4*
G04 #@! TO.N,+5V*
X128921250Y-81771250D03*
G04 #@! TO.P,GS1,5*
X132280000Y-80380000D03*
G04 #@! TO.P,GS1,3*
X135638750Y-81771250D03*
G04 #@! TD*
G04 #@! TO.P,GS2,1*
G04 #@! TO.N,/Sensor2*
X116698750Y-77408750D03*
D32*
G04 #@! TO.P,GS2,6*
G04 #@! TO.N,Net-(GS2-Pad6)*
X113340000Y-78800000D03*
D31*
G04 #@! TO.P,GS2,2*
G04 #@! TO.N,/Sensor2*
X109981250Y-77408750D03*
G04 #@! TO.P,GS2,4*
G04 #@! TO.N,+5V*
X109981250Y-70691250D03*
G04 #@! TO.P,GS2,5*
X113340000Y-69300000D03*
G04 #@! TO.P,GS2,3*
X116698750Y-70691250D03*
G04 #@! TD*
D33*
G04 #@! TO.P,SP1,1*
G04 #@! TO.N,/LCD3_MISO*
X119580000Y-128845000D03*
G04 #@! TO.P,SP1,2*
G04 #@! TO.N,/VCC-ICSP*
X119580000Y-130115000D03*
G04 #@! TO.P,SP1,3*
G04 #@! TO.N,/LCD4_SCK*
X118310000Y-128845000D03*
G04 #@! TO.P,SP1,4*
G04 #@! TO.N,/LCD2_MOSI*
X118310000Y-130115000D03*
G04 #@! TO.P,SP1,5*
G04 #@! TO.N,/RESET*
X117040000Y-128845000D03*
G04 #@! TO.P,SP1,6*
G04 #@! TO.N,GND*
X117040000Y-130115000D03*
G04 #@! TD*
D34*
G04 #@! TO.N,GND*
X104320000Y-123200000D03*
X108840000Y-126600000D03*
X80250000Y-132950000D03*
X117070000Y-120920000D03*
X116890000Y-132150000D03*
X132095513Y-140108738D03*
X94420000Y-129250000D03*
X99090000Y-129640000D03*
G04 #@! TO.N,/RESET*
X99087790Y-132668212D03*
X104350000Y-132690000D03*
X113276031Y-127166031D03*
X116200000Y-127440032D03*
G04 #@! TO.N,/SDA*
X98161426Y-122873923D03*
X98165895Y-118100535D03*
G04 #@! TO.N,/SCL*
X97167934Y-122760000D03*
X96442069Y-118244165D03*
G04 #@! TO.N,/Sensor3*
X92750000Y-124410000D03*
X92770000Y-116000000D03*
G04 #@! TO.N,/TEMP*
X94150000Y-127800000D03*
X102238340Y-122247073D03*
G04 #@! TO.N,VCC*
X96540000Y-131470000D03*
X98650000Y-130700000D03*
X111860000Y-125970000D03*
X119590000Y-126180000D03*
X99640000Y-121110000D03*
X91050001Y-126699999D03*
X82020000Y-115610000D03*
X82020000Y-123160000D03*
G04 #@! TO.N,/PWM_MH-Z19*
X90920000Y-122490000D03*
X90920000Y-114580000D03*
G04 #@! TO.N,/HUM*
X81500000Y-137980000D03*
X78410000Y-137980000D03*
G04 #@! TO.N,/LCD_LED*
X108557934Y-135792755D03*
X97396548Y-136493451D03*
G04 #@! TO.N,/LCD3_MISO*
X113119997Y-128312029D03*
X114211062Y-129681062D03*
G04 #@! TD*
D35*
G04 #@! TO.N,GND*
X93552936Y-130662755D02*
X92467934Y-130662755D01*
X93717935Y-130497756D02*
X93552936Y-130662755D01*
X93717935Y-129227754D02*
X93717935Y-130497756D01*
X93552936Y-129062755D02*
X93717935Y-129227754D01*
X92467934Y-129062755D02*
X93552936Y-129062755D01*
X79416257Y-134699602D02*
X79361257Y-134754602D01*
X105562245Y-129862755D02*
X107370000Y-128055000D01*
X100967934Y-129862755D02*
X105562245Y-129862755D01*
D36*
X130741839Y-140092860D02*
X130736839Y-140087860D01*
X130741839Y-143747860D02*
X130741839Y-140092860D01*
D35*
X122230000Y-118870000D02*
X127030000Y-118870000D01*
X120730000Y-118870000D02*
X122230000Y-118870000D01*
X120410000Y-119190000D02*
X120730000Y-118870000D01*
X117830000Y-119190000D02*
X120410000Y-119190000D01*
X105505000Y-122015000D02*
X104320000Y-123200000D01*
X105505000Y-121970000D02*
X105505000Y-122015000D01*
X107385000Y-128055000D02*
X108840000Y-126600000D01*
X107370000Y-128055000D02*
X107385000Y-128055000D01*
X79416257Y-132950000D02*
X80250000Y-132950000D01*
X79416257Y-129704602D02*
X79416257Y-132950000D01*
X79416257Y-132950000D02*
X79416257Y-134699602D01*
X117830000Y-120160000D02*
X117070000Y-120920000D01*
X117830000Y-119190000D02*
X117830000Y-120160000D01*
X110720000Y-112310000D02*
X110470000Y-112310000D01*
X111970000Y-113560000D02*
X110720000Y-112310000D01*
X111970000Y-115505000D02*
X111970000Y-113560000D01*
X105505000Y-121970000D02*
X111970000Y-115505000D01*
X104170000Y-112310000D02*
X110470000Y-112310000D01*
X117040000Y-132000000D02*
X116890000Y-132150000D01*
X117040000Y-130115000D02*
X117040000Y-132000000D01*
X132074635Y-140087860D02*
X132095513Y-140108738D01*
X130736839Y-140087860D02*
X132074635Y-140087860D01*
X94397754Y-129227754D02*
X94420000Y-129250000D01*
X93717935Y-129227754D02*
X94397754Y-129227754D01*
X99312755Y-129862755D02*
X99090000Y-129640000D01*
X100967934Y-129862755D02*
X99312755Y-129862755D01*
G04 #@! TO.N,/DTR*
X57106719Y-119353281D02*
X53170000Y-123290000D01*
X95645609Y-119353281D02*
X57106719Y-119353281D01*
G04 #@! TO.N,/RESET*
X96317934Y-122075606D02*
X95645609Y-121403281D01*
X96317934Y-126012755D02*
X96317934Y-122075606D01*
X97875609Y-121403281D02*
X97885609Y-121413281D01*
X95645609Y-121403281D02*
X97875609Y-121403281D01*
X96317934Y-129898356D02*
X99087790Y-132668212D01*
X96317934Y-126012755D02*
X96317934Y-129898356D01*
X104350000Y-132690000D02*
X107539930Y-132690000D01*
X113063899Y-127166031D02*
X113276031Y-127166031D01*
X107539930Y-132690000D02*
X113063899Y-127166031D01*
X117040000Y-128280032D02*
X116599999Y-127840031D01*
X117040000Y-128845000D02*
X117040000Y-128280032D01*
X116599999Y-127840031D02*
X116200000Y-127440032D01*
G04 #@! TO.N,/XTAL1*
X85131257Y-130374602D02*
X84421257Y-129664602D01*
X87901257Y-130374602D02*
X85131257Y-130374602D01*
X81506257Y-129664602D02*
X81466257Y-129704602D01*
X84421257Y-129664602D02*
X81506257Y-129664602D01*
X89789410Y-132262755D02*
X87901257Y-130374602D01*
X92467934Y-132262755D02*
X89789410Y-132262755D01*
G04 #@! TO.N,/XTAL2*
X86861257Y-132424602D02*
X84421257Y-134864602D01*
X87901257Y-132424602D02*
X86861257Y-132424602D01*
X81521257Y-134864602D02*
X81411257Y-134754602D01*
X84421257Y-134864602D02*
X81521257Y-134864602D01*
X88539410Y-133062755D02*
X87901257Y-132424602D01*
X92467934Y-133062755D02*
X88539410Y-133062755D01*
D36*
G04 #@! TO.N,/VCC-FTDI*
X64530000Y-127030000D02*
X60790000Y-123290000D01*
X72870000Y-127030000D02*
X64530000Y-127030000D01*
G04 #@! TO.N,/VCC-ICSP*
X120245878Y-130780878D02*
X121529322Y-130780878D01*
X121529322Y-130780878D02*
X125408674Y-130780878D01*
X119580000Y-130115000D02*
X120245878Y-130780878D01*
D35*
G04 #@! TO.N,/LCD1*
X99887945Y-136462766D02*
X98567945Y-136462766D01*
X98567945Y-136462766D02*
X97917934Y-135812755D01*
X103147934Y-139722755D02*
X99887945Y-136462766D01*
X97917934Y-135812755D02*
X97917934Y-134512755D01*
X103147934Y-140122755D02*
X103147934Y-139722755D01*
G04 #@! TO.N,/SDA*
X98161426Y-123024510D02*
X98161426Y-122873923D01*
X97917934Y-123268002D02*
X98161426Y-123024510D01*
X97917934Y-126012755D02*
X97917934Y-123268002D01*
X98165895Y-118100535D02*
X98140535Y-118100535D01*
X68129999Y-111749999D02*
X67370000Y-110990000D01*
X97209518Y-117144158D02*
X73524158Y-117144158D01*
X73524158Y-117144158D02*
X68129999Y-111749999D01*
X98165895Y-118100535D02*
X97209518Y-117144158D01*
G04 #@! TO.N,/SCL*
X97117934Y-122810000D02*
X97167934Y-122760000D01*
X97117934Y-126012755D02*
X97117934Y-122810000D01*
X96042070Y-117844166D02*
X96442069Y-118244165D01*
X96042070Y-117844166D02*
X96016236Y-117870000D01*
X65589999Y-110479999D02*
X64830000Y-109720000D01*
X66040001Y-110930001D02*
X65589999Y-110479999D01*
X66040001Y-113990803D02*
X66040001Y-110930001D01*
X69919198Y-117870000D02*
X66040001Y-113990803D01*
X96016236Y-117870000D02*
X69919198Y-117870000D01*
G04 #@! TO.N,/Sensor1*
X102267934Y-129062755D02*
X102590689Y-128740000D01*
X102590689Y-128740000D02*
X103450000Y-128740000D01*
X100967934Y-129062755D02*
X102267934Y-129062755D01*
D36*
X103450000Y-128740000D02*
X104530000Y-128740000D01*
X114080000Y-119190000D02*
X115780000Y-119190000D01*
X104530000Y-128740000D02*
X114080000Y-119190000D01*
X116554990Y-118415010D02*
X116554990Y-118346490D01*
X115780000Y-119190000D02*
X116554990Y-118415010D01*
X134638751Y-87488751D02*
X135638750Y-88488750D01*
X129921249Y-87488751D02*
X134638751Y-87488751D01*
X128921250Y-88488750D02*
X129921249Y-87488751D01*
X116554990Y-100855010D02*
X128921250Y-88488750D01*
X116554990Y-118415010D02*
X116554990Y-100855010D01*
D35*
G04 #@! TO.N,/Sensor3*
X93142934Y-126012755D02*
X92730000Y-125599821D01*
X93917934Y-126012755D02*
X93142934Y-126012755D01*
D36*
X92730000Y-124430000D02*
X92750000Y-124410000D01*
X92730000Y-125599821D02*
X92730000Y-124430000D01*
X85170000Y-106190000D02*
X85170000Y-95145000D01*
X92770000Y-113790000D02*
X85170000Y-106190000D01*
X92770000Y-116000000D02*
X92770000Y-113790000D01*
D35*
G04 #@! TO.N,/TEMP*
X93687245Y-128262755D02*
X94150000Y-127800000D01*
X92467934Y-128262755D02*
X93687245Y-128262755D01*
X102340022Y-122145391D02*
X102238340Y-122247073D01*
X110830000Y-101040000D02*
X110830000Y-89580000D01*
X102388331Y-121884947D02*
X102388331Y-109481669D01*
X102388331Y-109481669D02*
X110830000Y-101040000D01*
X102238340Y-122034938D02*
X102388331Y-121884947D01*
X102238340Y-122247073D02*
X102238340Y-122034938D01*
G04 #@! TO.N,/RX*
X95517934Y-124712755D02*
X95510000Y-124704821D01*
X95517934Y-126012755D02*
X95517934Y-124712755D01*
X95510000Y-124704821D02*
X95510000Y-123770000D01*
X92679989Y-120939989D02*
X95510000Y-123770000D01*
X58060011Y-120939989D02*
X92679989Y-120939989D01*
X55710000Y-123290000D02*
X58060011Y-120939989D01*
G04 #@! TO.N,/TX*
X94717934Y-126012755D02*
X94717934Y-124712755D01*
X59099999Y-122440001D02*
X58250000Y-123290000D01*
X59900001Y-121639999D02*
X59099999Y-122440001D01*
X91328001Y-121639999D02*
X59900001Y-121639999D01*
X94400757Y-124712755D02*
X91328001Y-121639999D01*
X94717934Y-124712755D02*
X94400757Y-124712755D01*
G04 #@! TO.N,/TX_MH-Z19*
X99517934Y-123765382D02*
X99517934Y-126012755D01*
X101640011Y-121643305D02*
X99517934Y-123765382D01*
X101640011Y-106570011D02*
X101640011Y-121643305D01*
X90250000Y-95180000D02*
X101640011Y-106570011D01*
X90250000Y-95145000D02*
X90250000Y-95180000D01*
G04 #@! TO.N,VCC*
X91382932Y-131462755D02*
X92467934Y-131462755D01*
X91217933Y-131297756D02*
X91382932Y-131462755D01*
X91382932Y-129862755D02*
X91217933Y-130027754D01*
X92467934Y-129862755D02*
X91382932Y-129862755D01*
X99882932Y-130662755D02*
X100967934Y-130662755D01*
X99717933Y-130827754D02*
X99882932Y-130662755D01*
X99717933Y-132097756D02*
X99717933Y-130827754D01*
X99882932Y-132262755D02*
X99717933Y-132097756D01*
X100967934Y-132262755D02*
X99882932Y-132262755D01*
D36*
X82827934Y-140122755D02*
X80287934Y-140122755D01*
X87662534Y-127214601D02*
X90967933Y-130520000D01*
X78086247Y-128916092D02*
X79787738Y-127214601D01*
X78086247Y-135621068D02*
X78086247Y-128916092D01*
X80287934Y-137822755D02*
X78086247Y-135621068D01*
X80287934Y-140122755D02*
X80287934Y-137822755D01*
D35*
X91217933Y-130027754D02*
X90967933Y-130520000D01*
X90967933Y-130520000D02*
X91217933Y-131297756D01*
X106812245Y-130662755D02*
X107370000Y-130105000D01*
X100967934Y-130662755D02*
X106812245Y-130662755D01*
D36*
X128708674Y-130780878D02*
X128708674Y-134835878D01*
X128691839Y-140092860D02*
X128686839Y-140087860D01*
D35*
X96532755Y-131462755D02*
X96540000Y-131470000D01*
X92467934Y-131462755D02*
X96532755Y-131462755D01*
X99343439Y-130827754D02*
X99717933Y-130827754D01*
X99215685Y-130700000D02*
X99343439Y-130827754D01*
X98650000Y-130700000D02*
X99215685Y-130700000D01*
D36*
X107725000Y-130105000D02*
X111860000Y-125970000D01*
X107370000Y-130105000D02*
X107725000Y-130105000D01*
X128708674Y-130630878D02*
X128708674Y-130780878D01*
X124257796Y-126180000D02*
X128708674Y-130630878D01*
X119590000Y-126180000D02*
X124257796Y-126180000D01*
X99640000Y-120317672D02*
X99640000Y-121110000D01*
X98685609Y-119363281D02*
X99640000Y-120317672D01*
X97885609Y-119363281D02*
X98685609Y-119363281D01*
X89969714Y-127214601D02*
X87662534Y-127214601D01*
X90484316Y-126699999D02*
X89969714Y-127214601D01*
X91050001Y-126699999D02*
X90484316Y-126699999D01*
X76170000Y-127180000D02*
X76170000Y-127030000D01*
X77906092Y-128916092D02*
X76170000Y-127180000D01*
X78086247Y-128916092D02*
X77906092Y-128916092D01*
X82020000Y-123725685D02*
X82020000Y-127214601D01*
X82020000Y-123160000D02*
X82020000Y-123725685D01*
X82020000Y-127214601D02*
X87662534Y-127214601D01*
X79787738Y-127214601D02*
X82020000Y-127214601D01*
X128686839Y-134857713D02*
X128686839Y-140087860D01*
X128708674Y-134835878D02*
X128686839Y-134857713D01*
X128686839Y-143742860D02*
X128691839Y-143747860D01*
X128686839Y-140087860D02*
X128686839Y-143742860D01*
X125042140Y-143747860D02*
X123080000Y-145710000D01*
X128691839Y-143747860D02*
X125042140Y-143747860D01*
X82010000Y-115600000D02*
X82010000Y-68755000D01*
X82010000Y-68755000D02*
X85170000Y-65595000D01*
X82020000Y-115610000D02*
X82010000Y-115600000D01*
D35*
G04 #@! TO.N,/PWM_MH-Z19*
X92467934Y-126687755D02*
X90920000Y-125139821D01*
X90920000Y-125139821D02*
X90920000Y-122490000D01*
X92467934Y-127462755D02*
X92467934Y-126687755D01*
X83969999Y-107859999D02*
X83969999Y-74415001D01*
X84199999Y-107859999D02*
X83969999Y-107859999D01*
X83969999Y-74415001D02*
X92790000Y-65595000D01*
X90920000Y-114580000D02*
X84199999Y-107859999D01*
G04 #@! TO.N,/RX_MH-Z19*
X98717934Y-126012755D02*
X98717934Y-123575417D01*
X98717934Y-123575417D02*
X100940000Y-121353351D01*
X100940000Y-108375000D02*
X100940000Y-121353351D01*
X87710000Y-95145000D02*
X100940000Y-108375000D01*
G04 #@! TO.N,/HUM*
X88533106Y-134512755D02*
X85065861Y-137980000D01*
X85065861Y-137980000D02*
X81500000Y-137980000D01*
X93917934Y-134512755D02*
X88533106Y-134512755D01*
X78380000Y-138010000D02*
X78410000Y-137980000D01*
X73880000Y-138010000D02*
X78380000Y-138010000D01*
X63579990Y-127709990D02*
X63499990Y-127709990D01*
X73880000Y-138010000D02*
X63579990Y-127709990D01*
X63499990Y-127709990D02*
X61330000Y-125540000D01*
X61330000Y-125540000D02*
X53250000Y-125540000D01*
X67980000Y-95340000D02*
X67980000Y-94340000D01*
X67980000Y-100111002D02*
X67980000Y-95340000D01*
X51869999Y-116221003D02*
X67980000Y-100111002D01*
X51869999Y-124159999D02*
X51869999Y-116221003D01*
X53250000Y-125540000D02*
X51869999Y-124159999D01*
G04 #@! TO.N,Net-(GS1-Pad6)*
X128530000Y-116570000D02*
X127030000Y-116570000D01*
X131890002Y-116570000D02*
X128530000Y-116570000D01*
X132280000Y-116180002D02*
X131890002Y-116570000D01*
X132280000Y-89880000D02*
X132280000Y-116180002D01*
G04 #@! TO.N,/Sensor2*
X102052936Y-128262755D02*
X102940000Y-127375691D01*
X100967934Y-128262755D02*
X102052936Y-128262755D01*
D36*
X106931628Y-122593372D02*
X107555000Y-121970000D01*
X106931628Y-123384063D02*
X106931628Y-122593372D01*
X102940000Y-127375691D02*
X106931628Y-123384063D01*
X115698751Y-76408751D02*
X116698750Y-77408750D01*
X110981249Y-76408751D02*
X115698751Y-76408751D01*
X109981250Y-77408750D02*
X110981249Y-76408751D01*
X112920010Y-116604990D02*
X112920010Y-101849990D01*
X107555000Y-121970000D02*
X112920010Y-116604990D01*
X116698750Y-98071250D02*
X116698750Y-77408750D01*
X112920010Y-101849990D02*
X116698750Y-98071250D01*
D35*
G04 #@! TO.N,/Sensor1_ON*
X127030000Y-121690000D02*
X127030000Y-121170000D01*
X123530000Y-125190000D02*
X127030000Y-121690000D01*
X100967934Y-131462755D02*
X101042933Y-131387756D01*
X102127935Y-131387756D02*
X102152926Y-131362765D01*
X107877201Y-131362765D02*
X114049966Y-125190000D01*
X102152926Y-131362765D02*
X107877201Y-131362765D01*
X114049966Y-125190000D02*
X123530000Y-125190000D01*
X101042933Y-131387756D02*
X102127935Y-131387756D01*
G04 #@! TO.N,/Sensor2_ON*
X103088341Y-121741659D02*
X110220000Y-114610000D01*
X103088341Y-124567348D02*
X103088341Y-121741659D01*
X110220000Y-114610000D02*
X110470000Y-114610000D01*
X100967934Y-126687755D02*
X103088341Y-124567348D01*
X100967934Y-127462755D02*
X100967934Y-126687755D01*
G04 #@! TO.N,/LCD_E*
X96317934Y-136922755D02*
X96317934Y-134512755D01*
X91847934Y-138322755D02*
X94917934Y-138322755D01*
X94917934Y-138322755D02*
X96317934Y-136922755D01*
X90447934Y-139722755D02*
X91847934Y-138322755D01*
X90447934Y-140122755D02*
X90447934Y-139722755D01*
G04 #@! TO.N,/LCD_RW*
X95517934Y-134512755D02*
X95517934Y-136732793D01*
X87907934Y-139722755D02*
X87907934Y-140122755D01*
X90007944Y-137622745D02*
X87907934Y-139722755D01*
X94627982Y-137622745D02*
X90007944Y-137622745D01*
X95517934Y-136732793D02*
X94627982Y-137622745D01*
G04 #@! TO.N,/LCD_RS*
X85367934Y-139722755D02*
X85367934Y-140122755D01*
X88167954Y-136922735D02*
X85367934Y-139722755D01*
X93607954Y-136922735D02*
X88167954Y-136922735D01*
X94717934Y-135812755D02*
X93607954Y-136922735D01*
X94717934Y-134512755D02*
X94717934Y-135812755D01*
G04 #@! TO.N,Net-(DS1-Pad15)*
X113307934Y-135877755D02*
X113172934Y-135742755D01*
X113307934Y-140122755D02*
X113307934Y-135877755D01*
G04 #@! TO.N,/LCD_LED*
X108607934Y-135742755D02*
X108557934Y-135792755D01*
X111122934Y-135742755D02*
X108607934Y-135742755D01*
X97117934Y-135597757D02*
X97117934Y-134512755D01*
X97117934Y-136214837D02*
X97396548Y-136493451D01*
X97117934Y-135597757D02*
X97117934Y-136214837D01*
G04 #@! TO.N,Net-(GS2-Pad6)*
X110470000Y-108760000D02*
X110470000Y-110010000D01*
X110470000Y-102956484D02*
X110470000Y-108760000D01*
X114730000Y-80190000D02*
X114730000Y-98696484D01*
X114730000Y-98696484D02*
X110470000Y-102956484D01*
X113340000Y-78800000D02*
X114730000Y-80190000D01*
G04 #@! TO.N,/LCD2_MOSI*
X105687934Y-139722755D02*
X105687934Y-140122755D01*
X101727935Y-135762756D02*
X105687934Y-139722755D01*
X98882933Y-135762756D02*
X101727935Y-135762756D01*
X98717934Y-135597757D02*
X98882933Y-135762756D01*
X98717934Y-134512755D02*
X98717934Y-135597757D01*
X118180000Y-130245000D02*
X118310000Y-130115000D01*
X107787944Y-142622765D02*
X116917235Y-142622765D01*
X105687934Y-140522755D02*
X107787944Y-142622765D01*
X118180000Y-141360000D02*
X118180000Y-130245000D01*
X116917235Y-142622765D02*
X118180000Y-141360000D01*
X105687934Y-140122755D02*
X105687934Y-140522755D01*
G04 #@! TO.N,/LCD4_SCK*
X110252755Y-140122755D02*
X110767934Y-140122755D01*
X109577944Y-139447944D02*
X110252755Y-140122755D01*
X109577944Y-139163563D02*
X109577944Y-139447944D01*
X108787126Y-138372745D02*
X109577944Y-139163563D01*
X108502745Y-138372745D02*
X108787126Y-138372745D01*
X104107934Y-133977934D02*
X108502745Y-138372745D01*
X103770000Y-133650000D02*
X101555179Y-133650000D01*
X104097934Y-133977934D02*
X103770000Y-133650000D01*
X101555179Y-133650000D02*
X100967934Y-133062755D01*
X104107934Y-133977934D02*
X104097934Y-133977934D01*
X113527999Y-129162031D02*
X112925971Y-129162031D01*
X118310000Y-128845000D02*
X118310000Y-128288225D01*
X106109001Y-135979000D02*
X104107934Y-133977934D01*
X114826044Y-127564020D02*
X114826044Y-127863987D01*
X118310000Y-128288225D02*
X116611797Y-126590022D01*
X114826044Y-127863987D02*
X113527999Y-129162031D01*
X116611797Y-126590022D02*
X115800042Y-126590022D01*
X115800042Y-126590022D02*
X114826044Y-127564020D01*
X112925971Y-129162031D02*
X106109001Y-135979000D01*
G04 #@! TO.N,/LCD3_MISO*
X108227934Y-139722755D02*
X108227934Y-140122755D01*
X103017934Y-134512755D02*
X108227934Y-139722755D01*
X99517934Y-134512755D02*
X103017934Y-134512755D01*
X108227934Y-140122755D02*
X108227934Y-140522755D01*
X116357136Y-141922755D02*
X117197944Y-141081947D01*
X117197944Y-141081947D02*
X117197944Y-134737944D01*
X114211062Y-131751062D02*
X114211062Y-130246747D01*
X117197944Y-134737944D02*
X114211062Y-131751062D01*
X114211062Y-130246747D02*
X114211062Y-129681062D01*
X108227934Y-140522755D02*
X109627934Y-141922755D01*
X109627934Y-141922755D02*
X116357136Y-141922755D01*
X114126033Y-127574033D02*
X113388037Y-128312029D01*
X119580000Y-128288225D02*
X117181786Y-125890011D01*
X119580000Y-128845000D02*
X119580000Y-128288225D01*
X114126033Y-127274067D02*
X114126033Y-127574033D01*
X113388037Y-128312029D02*
X113119997Y-128312029D01*
X117181786Y-125890011D02*
X115510089Y-125890011D01*
X115510089Y-125890011D02*
X114126033Y-127274067D01*
G04 #@! TD*
D37*
G04 #@! TO.N,+5V*
G36*
X149743000Y-149693000D02*
X50147140Y-149693000D01*
X50150985Y-146205431D01*
X51115000Y-146205431D01*
X51115000Y-147094569D01*
X51455259Y-147916026D01*
X52083974Y-148544741D01*
X52905431Y-148885000D01*
X53794569Y-148885000D01*
X54616026Y-148544741D01*
X55244741Y-147916026D01*
X55585000Y-147094569D01*
X55585000Y-146205431D01*
X55498148Y-145995750D01*
X118695000Y-145995750D01*
X118695000Y-146436310D01*
X118791673Y-146669699D01*
X118970302Y-146848327D01*
X119203691Y-146945000D01*
X119494250Y-146945000D01*
X119653000Y-146786250D01*
X119653000Y-145837000D01*
X119907000Y-145837000D01*
X119907000Y-146786250D01*
X120065750Y-146945000D01*
X120356309Y-146945000D01*
X120589698Y-146848327D01*
X120768327Y-146669699D01*
X120865000Y-146436310D01*
X120865000Y-145995750D01*
X120706250Y-145837000D01*
X119907000Y-145837000D01*
X119653000Y-145837000D01*
X118853750Y-145837000D01*
X118695000Y-145995750D01*
X55498148Y-145995750D01*
X55244741Y-145383974D01*
X54844457Y-144983690D01*
X118695000Y-144983690D01*
X118695000Y-145424250D01*
X118853750Y-145583000D01*
X119653000Y-145583000D01*
X119653000Y-144633750D01*
X119907000Y-144633750D01*
X119907000Y-145583000D01*
X120706250Y-145583000D01*
X120865000Y-145424250D01*
X120865000Y-144983690D01*
X120768327Y-144750301D01*
X120589698Y-144571673D01*
X120356309Y-144475000D01*
X120065750Y-144475000D01*
X119907000Y-144633750D01*
X119653000Y-144633750D01*
X119494250Y-144475000D01*
X119203691Y-144475000D01*
X118970302Y-144571673D01*
X118791673Y-144750301D01*
X118695000Y-144983690D01*
X54844457Y-144983690D01*
X54616026Y-144755259D01*
X53794569Y-144415000D01*
X52905431Y-144415000D01*
X52083974Y-144755259D01*
X51455259Y-145383974D01*
X51115000Y-146205431D01*
X50150985Y-146205431D01*
X50159995Y-138035000D01*
X58772560Y-138035000D01*
X58772560Y-139785000D01*
X58888449Y-140367613D01*
X59218472Y-140861528D01*
X59712387Y-141191551D01*
X60295000Y-141307440D01*
X62045000Y-141307440D01*
X62627613Y-141191551D01*
X63121528Y-140861528D01*
X63451551Y-140367613D01*
X63567440Y-139785000D01*
X63567440Y-138035000D01*
X63451551Y-137452387D01*
X63121528Y-136958472D01*
X62627613Y-136628449D01*
X62459454Y-136595000D01*
X63884250Y-136595000D01*
X64043000Y-136436250D01*
X64043000Y-134337000D01*
X64297000Y-134337000D01*
X64297000Y-136436250D01*
X64455750Y-136595000D01*
X66046309Y-136595000D01*
X66279698Y-136498327D01*
X66458327Y-136319699D01*
X66555000Y-136086310D01*
X66555000Y-134495750D01*
X66396250Y-134337000D01*
X64297000Y-134337000D01*
X64043000Y-134337000D01*
X61943750Y-134337000D01*
X61785000Y-134495750D01*
X61785000Y-136086310D01*
X61881673Y-136319699D01*
X62060302Y-136498327D01*
X62140546Y-136531565D01*
X62045000Y-136512560D01*
X60295000Y-136512560D01*
X59712387Y-136628449D01*
X59218472Y-136958472D01*
X58888449Y-137452387D01*
X58772560Y-138035000D01*
X50159995Y-138035000D01*
X50165316Y-133210000D01*
X56022560Y-133210000D01*
X56022560Y-135210000D01*
X56128934Y-135744777D01*
X56431861Y-136198139D01*
X56885223Y-136501066D01*
X57420000Y-136607440D01*
X58920000Y-136607440D01*
X59454777Y-136501066D01*
X59908139Y-136198139D01*
X60211066Y-135744777D01*
X60317440Y-135210000D01*
X60317440Y-133210000D01*
X60211066Y-132675223D01*
X59982861Y-132333690D01*
X61785000Y-132333690D01*
X61785000Y-133924250D01*
X61943750Y-134083000D01*
X64043000Y-134083000D01*
X64043000Y-131983750D01*
X64297000Y-131983750D01*
X64297000Y-134083000D01*
X66396250Y-134083000D01*
X66555000Y-133924250D01*
X66555000Y-132333690D01*
X66458327Y-132100301D01*
X66279698Y-131921673D01*
X66046309Y-131825000D01*
X64455750Y-131825000D01*
X64297000Y-131983750D01*
X64043000Y-131983750D01*
X63884250Y-131825000D01*
X62293691Y-131825000D01*
X62060302Y-131921673D01*
X61881673Y-132100301D01*
X61785000Y-132333690D01*
X59982861Y-132333690D01*
X59908139Y-132221861D01*
X59454777Y-131918934D01*
X58920000Y-131812560D01*
X57420000Y-131812560D01*
X56885223Y-131918934D01*
X56431861Y-132221861D01*
X56128934Y-132675223D01*
X56022560Y-133210000D01*
X50165316Y-133210000D01*
X50184051Y-116221003D01*
X50967662Y-116221003D01*
X50985000Y-116308168D01*
X50984999Y-124072838D01*
X50967662Y-124159999D01*
X50984999Y-124247160D01*
X50984999Y-124247163D01*
X51036347Y-124505308D01*
X51231950Y-124798048D01*
X51305846Y-124847424D01*
X52562577Y-126104156D01*
X52611951Y-126178049D01*
X52685844Y-126227423D01*
X52685845Y-126227424D01*
X52777401Y-126288600D01*
X52904690Y-126373652D01*
X53162835Y-126425000D01*
X53162839Y-126425000D01*
X53249999Y-126442337D01*
X53337159Y-126425000D01*
X60963422Y-126425000D01*
X62812567Y-128274146D01*
X62861941Y-128348039D01*
X62935834Y-128397413D01*
X62935835Y-128397414D01*
X63039015Y-128466357D01*
X63154680Y-128543642D01*
X63163897Y-128545475D01*
X72606176Y-137987755D01*
X71824156Y-137987755D01*
X71039454Y-138312789D01*
X70438868Y-138913375D01*
X70113834Y-139698077D01*
X70113834Y-140547433D01*
X70438868Y-141332135D01*
X71039454Y-141932721D01*
X71824156Y-142257755D01*
X72673512Y-142257755D01*
X73458214Y-141932721D01*
X74058800Y-141332135D01*
X74383834Y-140547433D01*
X74383834Y-139698077D01*
X74058800Y-138913375D01*
X74040425Y-138895000D01*
X76200494Y-138895000D01*
X76200494Y-141422755D01*
X76249777Y-141670520D01*
X76390125Y-141880564D01*
X76600169Y-142020912D01*
X76847934Y-142070195D01*
X78647934Y-142070195D01*
X78895699Y-142020912D01*
X79105743Y-141880564D01*
X79245063Y-141672058D01*
X79689008Y-141968693D01*
X80287934Y-142087827D01*
X80886861Y-141968693D01*
X81394607Y-141629428D01*
X81557934Y-141384991D01*
X81721262Y-141629428D01*
X82229008Y-141968693D01*
X82827934Y-142087827D01*
X83426861Y-141968693D01*
X83934607Y-141629428D01*
X84097934Y-141384991D01*
X84261262Y-141629428D01*
X84769008Y-141968693D01*
X85367934Y-142087827D01*
X85966861Y-141968693D01*
X86474607Y-141629428D01*
X86637934Y-141384991D01*
X86801262Y-141629428D01*
X87309008Y-141968693D01*
X87907934Y-142087827D01*
X88506861Y-141968693D01*
X89014607Y-141629428D01*
X89177934Y-141384991D01*
X89341262Y-141629428D01*
X89849008Y-141968693D01*
X90447934Y-142087827D01*
X91046861Y-141968693D01*
X91554607Y-141629428D01*
X91717934Y-141384991D01*
X91881262Y-141629428D01*
X92389008Y-141968693D01*
X92987934Y-142087827D01*
X93586861Y-141968693D01*
X94094607Y-141629428D01*
X94257934Y-141384991D01*
X94421262Y-141629428D01*
X94929008Y-141968693D01*
X95527934Y-142087827D01*
X96126861Y-141968693D01*
X96634607Y-141629428D01*
X96797934Y-141384991D01*
X96961262Y-141629428D01*
X97469008Y-141968693D01*
X98067934Y-142087827D01*
X98666861Y-141968693D01*
X99174607Y-141629428D01*
X99337934Y-141384991D01*
X99501262Y-141629428D01*
X100009008Y-141968693D01*
X100607934Y-142087827D01*
X101206861Y-141968693D01*
X101714607Y-141629428D01*
X101877934Y-141384991D01*
X102041262Y-141629428D01*
X102549008Y-141968693D01*
X103147934Y-142087827D01*
X103746861Y-141968693D01*
X104254607Y-141629428D01*
X104417934Y-141384991D01*
X104581262Y-141629428D01*
X105089008Y-141968693D01*
X105687934Y-142087827D01*
X105949416Y-142035815D01*
X107100521Y-143186921D01*
X107149895Y-143260814D01*
X107223788Y-143310188D01*
X107223789Y-143310189D01*
X107442634Y-143456417D01*
X107700779Y-143507765D01*
X107700783Y-143507765D01*
X107787944Y-143525102D01*
X107875105Y-143507765D01*
X116830074Y-143507765D01*
X116917235Y-143525102D01*
X117004396Y-143507765D01*
X117004400Y-143507765D01*
X117262545Y-143456417D01*
X117555284Y-143260814D01*
X117604660Y-143186918D01*
X118744156Y-142047423D01*
X118818049Y-141998049D01*
X118896551Y-141880564D01*
X119013651Y-141705311D01*
X119013652Y-141705310D01*
X119065000Y-141447165D01*
X119065000Y-141447161D01*
X119082337Y-141360001D01*
X119065000Y-141272841D01*
X119065000Y-131205131D01*
X119364265Y-131504396D01*
X119427589Y-131599167D01*
X119765572Y-131825000D01*
X119803023Y-131850024D01*
X120245878Y-131938113D01*
X120357661Y-131915878D01*
X124616389Y-131915878D01*
X124710909Y-131979035D01*
X124958674Y-132028318D01*
X125858674Y-132028318D01*
X126106439Y-131979035D01*
X126316483Y-131838687D01*
X126456831Y-131628643D01*
X126506114Y-131380878D01*
X126506114Y-131081489D01*
X126565909Y-130780878D01*
X126506114Y-130480267D01*
X126506114Y-130180878D01*
X126469508Y-129996843D01*
X127573674Y-131101010D01*
X127573675Y-134636153D01*
X127529604Y-134857713D01*
X127551839Y-134969496D01*
X127551840Y-139265797D01*
X127532712Y-139294424D01*
X127464399Y-139637859D01*
X127464399Y-140537861D01*
X127532712Y-140881296D01*
X127551839Y-140909922D01*
X127551840Y-142612860D01*
X125153923Y-142612860D01*
X125042140Y-142590625D01*
X124930357Y-142612860D01*
X124599285Y-142678714D01*
X124223851Y-142929571D01*
X124160529Y-143024339D01*
X122722309Y-144462560D01*
X122630000Y-144462560D01*
X122382235Y-144511843D01*
X122172191Y-144652191D01*
X122031843Y-144862235D01*
X121982560Y-145110000D01*
X121982560Y-145409390D01*
X121922765Y-145710000D01*
X121982560Y-146010610D01*
X121982560Y-146310000D01*
X122031843Y-146557765D01*
X122172191Y-146767809D01*
X122382235Y-146908157D01*
X122630000Y-146957440D01*
X123530000Y-146957440D01*
X123777765Y-146908157D01*
X123987809Y-146767809D01*
X124128157Y-146557765D01*
X124177440Y-146310000D01*
X124177440Y-146217691D01*
X124189700Y-146205431D01*
X144415000Y-146205431D01*
X144415000Y-147094569D01*
X144755259Y-147916026D01*
X145383974Y-148544741D01*
X146205431Y-148885000D01*
X147094569Y-148885000D01*
X147916026Y-148544741D01*
X148544741Y-147916026D01*
X148885000Y-147094569D01*
X148885000Y-146205431D01*
X148544741Y-145383974D01*
X147916026Y-144755259D01*
X147094569Y-144415000D01*
X146205431Y-144415000D01*
X145383974Y-144755259D01*
X144755259Y-145383974D01*
X144415000Y-146205431D01*
X124189700Y-146205431D01*
X125512272Y-144882860D01*
X127807703Y-144882860D01*
X128023403Y-145026987D01*
X128366838Y-145095300D01*
X129016840Y-145095300D01*
X129360275Y-145026987D01*
X129651425Y-144832446D01*
X129716839Y-144734547D01*
X129782253Y-144832446D01*
X130073403Y-145026987D01*
X130416838Y-145095300D01*
X131066840Y-145095300D01*
X131410275Y-145026987D01*
X131701425Y-144832446D01*
X131895966Y-144541296D01*
X131964279Y-144197861D01*
X131964279Y-143297859D01*
X131895966Y-142954424D01*
X131876839Y-142925799D01*
X131876839Y-141138436D01*
X131889639Y-141143738D01*
X132301387Y-141143738D01*
X132681793Y-140986169D01*
X132972944Y-140695018D01*
X133130513Y-140314612D01*
X133130513Y-139902864D01*
X133045688Y-139698077D01*
X145112934Y-139698077D01*
X145112934Y-140547433D01*
X145437968Y-141332135D01*
X146038554Y-141932721D01*
X146823256Y-142257755D01*
X147672612Y-142257755D01*
X148457314Y-141932721D01*
X149057900Y-141332135D01*
X149382934Y-140547433D01*
X149382934Y-139698077D01*
X149057900Y-138913375D01*
X148457314Y-138312789D01*
X147672612Y-137987755D01*
X146823256Y-137987755D01*
X146038554Y-138312789D01*
X145437968Y-138913375D01*
X145112934Y-139698077D01*
X133045688Y-139698077D01*
X132972944Y-139522458D01*
X132681793Y-139231307D01*
X132301387Y-139073738D01*
X131889639Y-139073738D01*
X131775185Y-139121146D01*
X131696425Y-139003274D01*
X131405275Y-138808733D01*
X131061840Y-138740420D01*
X130411838Y-138740420D01*
X130068403Y-138808733D01*
X129821839Y-138973482D01*
X129821839Y-135057433D01*
X129843674Y-134947661D01*
X129865909Y-134835879D01*
X129843674Y-134724097D01*
X129843674Y-130742660D01*
X129865909Y-130630877D01*
X129806114Y-130330267D01*
X129806114Y-130180878D01*
X129756831Y-129933113D01*
X129616483Y-129723069D01*
X129406439Y-129582721D01*
X129230691Y-129547763D01*
X125139409Y-125456482D01*
X125076085Y-125361711D01*
X124796608Y-125174970D01*
X127404139Y-122567440D01*
X128030000Y-122567440D01*
X128277765Y-122518157D01*
X128487809Y-122377809D01*
X128628157Y-122167765D01*
X128677440Y-121920000D01*
X128677440Y-120420000D01*
X128628157Y-120172235D01*
X128526436Y-120020000D01*
X128628157Y-119867765D01*
X128677440Y-119620000D01*
X128677440Y-118120000D01*
X128628157Y-117872235D01*
X128526436Y-117720000D01*
X128628157Y-117567765D01*
X128650587Y-117455000D01*
X131802841Y-117455000D01*
X131890002Y-117472337D01*
X131977163Y-117455000D01*
X131977167Y-117455000D01*
X132235312Y-117403652D01*
X132528051Y-117208049D01*
X132577427Y-117134153D01*
X132844153Y-116867427D01*
X132918049Y-116818051D01*
X133113652Y-116525312D01*
X133165000Y-116267167D01*
X133165000Y-116267163D01*
X133182337Y-116180003D01*
X133165000Y-116092843D01*
X133165000Y-108697377D01*
X145112414Y-108697377D01*
X145112414Y-109546733D01*
X145437448Y-110331435D01*
X146038034Y-110932021D01*
X146822736Y-111257055D01*
X147672092Y-111257055D01*
X148456794Y-110932021D01*
X149057380Y-110331435D01*
X149382414Y-109546733D01*
X149382414Y-108697377D01*
X149057380Y-107912675D01*
X148456794Y-107312089D01*
X147672092Y-106987055D01*
X146822736Y-106987055D01*
X146038034Y-107312089D01*
X145437448Y-107912675D01*
X145112414Y-108697377D01*
X133165000Y-108697377D01*
X133165000Y-100055431D01*
X144415000Y-100055431D01*
X144415000Y-100944569D01*
X144755259Y-101766026D01*
X145383974Y-102394741D01*
X146205431Y-102735000D01*
X147094569Y-102735000D01*
X147916026Y-102394741D01*
X148544741Y-101766026D01*
X148885000Y-100944569D01*
X148885000Y-100055431D01*
X148544741Y-99233974D01*
X147916026Y-98605259D01*
X147094569Y-98265000D01*
X146205431Y-98265000D01*
X145383974Y-98605259D01*
X144755259Y-99233974D01*
X144415000Y-100055431D01*
X133165000Y-100055431D01*
X133165000Y-91527440D01*
X133280000Y-91527440D01*
X133527765Y-91478157D01*
X133737809Y-91337809D01*
X133878157Y-91127765D01*
X133927440Y-90880000D01*
X133927440Y-88880000D01*
X133878157Y-88632235D01*
X133872488Y-88623751D01*
X134003750Y-88623751D01*
X134003750Y-88813972D01*
X134252664Y-89414903D01*
X134712597Y-89874836D01*
X135313528Y-90123750D01*
X135963972Y-90123750D01*
X136564903Y-89874836D01*
X137024836Y-89414903D01*
X137273750Y-88813972D01*
X137273750Y-88163528D01*
X137024836Y-87562597D01*
X136564903Y-87102664D01*
X135963972Y-86853750D01*
X135608881Y-86853750D01*
X135520364Y-86765232D01*
X135457040Y-86670462D01*
X135081606Y-86419605D01*
X134750534Y-86353751D01*
X134638751Y-86331516D01*
X134526968Y-86353751D01*
X130033031Y-86353751D01*
X129921248Y-86331516D01*
X129478394Y-86419605D01*
X129102960Y-86670462D01*
X129039638Y-86765230D01*
X128951118Y-86853750D01*
X128596028Y-86853750D01*
X127995097Y-87102664D01*
X127535164Y-87562597D01*
X127286250Y-88163528D01*
X127286250Y-88518618D01*
X117835683Y-97969186D01*
X117833750Y-97959469D01*
X117833750Y-82923782D01*
X127948323Y-82923782D01*
X128046986Y-83190637D01*
X128656711Y-83417158D01*
X129306710Y-83393106D01*
X129795514Y-83190637D01*
X129894177Y-82923782D01*
X134665823Y-82923782D01*
X134764486Y-83190637D01*
X135374211Y-83417158D01*
X136024210Y-83393106D01*
X136513014Y-83190637D01*
X136611677Y-82923782D01*
X135638750Y-81950855D01*
X134665823Y-82923782D01*
X129894177Y-82923782D01*
X128921250Y-81950855D01*
X127948323Y-82923782D01*
X117833750Y-82923782D01*
X117833750Y-81506711D01*
X127275342Y-81506711D01*
X127299394Y-82156710D01*
X127501863Y-82645514D01*
X127768718Y-82744177D01*
X128741645Y-81771250D01*
X129100855Y-81771250D01*
X130073782Y-82744177D01*
X130340637Y-82645514D01*
X130567158Y-82035789D01*
X130548536Y-81532532D01*
X131307073Y-81532532D01*
X131405736Y-81799387D01*
X132015461Y-82025908D01*
X132665460Y-82001856D01*
X133154264Y-81799387D01*
X133252927Y-81532532D01*
X133227106Y-81506711D01*
X133992842Y-81506711D01*
X134016894Y-82156710D01*
X134219363Y-82645514D01*
X134486218Y-82744177D01*
X135459145Y-81771250D01*
X135818355Y-81771250D01*
X136791282Y-82744177D01*
X137058137Y-82645514D01*
X137284658Y-82035789D01*
X137260606Y-81385790D01*
X137058137Y-80896986D01*
X136791282Y-80798323D01*
X135818355Y-81771250D01*
X135459145Y-81771250D01*
X134486218Y-80798323D01*
X134219363Y-80896986D01*
X133992842Y-81506711D01*
X133227106Y-81506711D01*
X132280000Y-80559605D01*
X131307073Y-81532532D01*
X130548536Y-81532532D01*
X130543106Y-81385790D01*
X130340637Y-80896986D01*
X130073782Y-80798323D01*
X129100855Y-81771250D01*
X128741645Y-81771250D01*
X127768718Y-80798323D01*
X127501863Y-80896986D01*
X127275342Y-81506711D01*
X117833750Y-81506711D01*
X117833750Y-80618718D01*
X127948323Y-80618718D01*
X128921250Y-81591645D01*
X129894177Y-80618718D01*
X129795514Y-80351863D01*
X129185789Y-80125342D01*
X128535790Y-80149394D01*
X128046986Y-80351863D01*
X127948323Y-80618718D01*
X117833750Y-80618718D01*
X117833750Y-80115461D01*
X130634092Y-80115461D01*
X130658144Y-80765460D01*
X130860613Y-81254264D01*
X131127468Y-81352927D01*
X132100395Y-80380000D01*
X132459605Y-80380000D01*
X133432532Y-81352927D01*
X133699387Y-81254264D01*
X133925908Y-80644539D01*
X133924953Y-80618718D01*
X134665823Y-80618718D01*
X135638750Y-81591645D01*
X136611677Y-80618718D01*
X136513014Y-80351863D01*
X135903289Y-80125342D01*
X135253290Y-80149394D01*
X134764486Y-80351863D01*
X134665823Y-80618718D01*
X133924953Y-80618718D01*
X133901856Y-79994540D01*
X133699387Y-79505736D01*
X133432532Y-79407073D01*
X132459605Y-80380000D01*
X132100395Y-80380000D01*
X131127468Y-79407073D01*
X130860613Y-79505736D01*
X130634092Y-80115461D01*
X117833750Y-80115461D01*
X117833750Y-79227468D01*
X131307073Y-79227468D01*
X132280000Y-80200395D01*
X133252927Y-79227468D01*
X133154264Y-78960613D01*
X132544539Y-78734092D01*
X131894540Y-78758144D01*
X131405736Y-78960613D01*
X131307073Y-79227468D01*
X117833750Y-79227468D01*
X117833750Y-78585989D01*
X118084836Y-78334903D01*
X118333750Y-77733972D01*
X118333750Y-77083528D01*
X118084836Y-76482597D01*
X117624903Y-76022664D01*
X117023972Y-75773750D01*
X116668881Y-75773750D01*
X116580364Y-75685232D01*
X116517040Y-75590462D01*
X116141606Y-75339605D01*
X115810534Y-75273751D01*
X115698751Y-75251516D01*
X115586968Y-75273751D01*
X111093031Y-75273751D01*
X110981248Y-75251516D01*
X110650338Y-75317338D01*
X110538394Y-75339605D01*
X110162960Y-75590462D01*
X110099638Y-75685230D01*
X110011118Y-75773750D01*
X109656028Y-75773750D01*
X109055097Y-76022664D01*
X108595164Y-76482597D01*
X108346250Y-77083528D01*
X108346250Y-77733972D01*
X108595164Y-78334903D01*
X109055097Y-78794836D01*
X109656028Y-79043750D01*
X110306472Y-79043750D01*
X110907403Y-78794836D01*
X111367336Y-78334903D01*
X111616250Y-77733972D01*
X111616250Y-77543751D01*
X111747512Y-77543751D01*
X111741843Y-77552235D01*
X111692560Y-77800000D01*
X111692560Y-79800000D01*
X111741843Y-80047765D01*
X111882191Y-80257809D01*
X112092235Y-80398157D01*
X112340000Y-80447440D01*
X113735861Y-80447440D01*
X113845000Y-80556579D01*
X113845001Y-98329904D01*
X111715000Y-100459906D01*
X111715000Y-90977440D01*
X112625000Y-90977440D01*
X112872765Y-90928157D01*
X113082809Y-90787809D01*
X113223157Y-90577765D01*
X113272440Y-90330000D01*
X113272440Y-88830000D01*
X113223157Y-88582235D01*
X113082809Y-88372191D01*
X112872765Y-88231843D01*
X112625000Y-88182560D01*
X111575000Y-88182560D01*
X111327235Y-88231843D01*
X111281867Y-88262157D01*
X110830000Y-88172275D01*
X110377392Y-88262305D01*
X110185004Y-88390854D01*
X109927336Y-88244734D01*
X109865810Y-88236036D01*
X109687000Y-88361837D01*
X109687000Y-89155290D01*
X109670000Y-89240754D01*
X109670000Y-89919245D01*
X109687000Y-90004709D01*
X109687000Y-90798163D01*
X109865810Y-90923964D01*
X109927336Y-90915266D01*
X109945001Y-90905249D01*
X109945000Y-100673421D01*
X102525011Y-108093411D01*
X102525011Y-106657171D01*
X102542348Y-106570010D01*
X102525011Y-106482847D01*
X102525011Y-106482846D01*
X102473663Y-106224701D01*
X102278060Y-105931962D01*
X102204168Y-105882589D01*
X92851578Y-96530000D01*
X93065494Y-96530000D01*
X93574540Y-96319147D01*
X93964147Y-95929540D01*
X94060000Y-95698130D01*
X94155853Y-95929540D01*
X94545460Y-96319147D01*
X95054506Y-96530000D01*
X95605494Y-96530000D01*
X96114540Y-96319147D01*
X96504147Y-95929540D01*
X96715000Y-95420494D01*
X96715000Y-94869506D01*
X96504147Y-94360460D01*
X96114540Y-93970853D01*
X95605494Y-93760000D01*
X95054506Y-93760000D01*
X94545460Y-93970853D01*
X94155853Y-94360460D01*
X94060000Y-94591870D01*
X93964147Y-94360460D01*
X93574540Y-93970853D01*
X93065494Y-93760000D01*
X92514506Y-93760000D01*
X92005460Y-93970853D01*
X91615853Y-94360460D01*
X91520000Y-94591870D01*
X91424147Y-94360460D01*
X91034540Y-93970853D01*
X90525494Y-93760000D01*
X89974506Y-93760000D01*
X89465460Y-93970853D01*
X89075853Y-94360460D01*
X88980000Y-94591870D01*
X88884147Y-94360460D01*
X88494540Y-93970853D01*
X87985494Y-93760000D01*
X87434506Y-93760000D01*
X86925460Y-93970853D01*
X86535853Y-94360460D01*
X86440000Y-94591870D01*
X86344147Y-94360460D01*
X85954540Y-93970853D01*
X85445494Y-93760000D01*
X84894506Y-93760000D01*
X84854999Y-93776364D01*
X84854999Y-89890506D01*
X108393674Y-89890506D01*
X108515177Y-90330331D01*
X108795745Y-90690179D01*
X109192664Y-90915266D01*
X109254190Y-90923964D01*
X109433000Y-90798163D01*
X109433000Y-89707000D01*
X108553407Y-89707000D01*
X108393674Y-89890506D01*
X84854999Y-89890506D01*
X84854999Y-89269494D01*
X108393674Y-89269494D01*
X108553407Y-89453000D01*
X109433000Y-89453000D01*
X109433000Y-88361837D01*
X109254190Y-88236036D01*
X109192664Y-88244734D01*
X108795745Y-88469821D01*
X108515177Y-88829669D01*
X108393674Y-89269494D01*
X84854999Y-89269494D01*
X84854999Y-74781579D01*
X87792796Y-71843782D01*
X109008323Y-71843782D01*
X109106986Y-72110637D01*
X109716711Y-72337158D01*
X110366710Y-72313106D01*
X110855514Y-72110637D01*
X110954177Y-71843782D01*
X115725823Y-71843782D01*
X115824486Y-72110637D01*
X116434211Y-72337158D01*
X117084210Y-72313106D01*
X117573014Y-72110637D01*
X117671677Y-71843782D01*
X116698750Y-70870855D01*
X115725823Y-71843782D01*
X110954177Y-71843782D01*
X109981250Y-70870855D01*
X109008323Y-71843782D01*
X87792796Y-71843782D01*
X89209867Y-70426711D01*
X108335342Y-70426711D01*
X108359394Y-71076710D01*
X108561863Y-71565514D01*
X108828718Y-71664177D01*
X109801645Y-70691250D01*
X110160855Y-70691250D01*
X111133782Y-71664177D01*
X111400637Y-71565514D01*
X111627158Y-70955789D01*
X111608536Y-70452532D01*
X112367073Y-70452532D01*
X112465736Y-70719387D01*
X113075461Y-70945908D01*
X113725460Y-70921856D01*
X114214264Y-70719387D01*
X114312927Y-70452532D01*
X114287106Y-70426711D01*
X115052842Y-70426711D01*
X115076894Y-71076710D01*
X115279363Y-71565514D01*
X115546218Y-71664177D01*
X116519145Y-70691250D01*
X116878355Y-70691250D01*
X117851282Y-71664177D01*
X118118137Y-71565514D01*
X118344658Y-70955789D01*
X118320606Y-70305790D01*
X118118137Y-69816986D01*
X117851282Y-69718323D01*
X116878355Y-70691250D01*
X116519145Y-70691250D01*
X115546218Y-69718323D01*
X115279363Y-69816986D01*
X115052842Y-70426711D01*
X114287106Y-70426711D01*
X113340000Y-69479605D01*
X112367073Y-70452532D01*
X111608536Y-70452532D01*
X111603106Y-70305790D01*
X111400637Y-69816986D01*
X111133782Y-69718323D01*
X110160855Y-70691250D01*
X109801645Y-70691250D01*
X108828718Y-69718323D01*
X108561863Y-69816986D01*
X108335342Y-70426711D01*
X89209867Y-70426711D01*
X90097860Y-69538718D01*
X109008323Y-69538718D01*
X109981250Y-70511645D01*
X110954177Y-69538718D01*
X110855514Y-69271863D01*
X110245789Y-69045342D01*
X109595790Y-69069394D01*
X109106986Y-69271863D01*
X109008323Y-69538718D01*
X90097860Y-69538718D01*
X90601117Y-69035461D01*
X111694092Y-69035461D01*
X111718144Y-69685460D01*
X111920613Y-70174264D01*
X112187468Y-70272927D01*
X113160395Y-69300000D01*
X113519605Y-69300000D01*
X114492532Y-70272927D01*
X114759387Y-70174264D01*
X114985908Y-69564539D01*
X114984953Y-69538718D01*
X115725823Y-69538718D01*
X116698750Y-70511645D01*
X117671677Y-69538718D01*
X117573014Y-69271863D01*
X116963289Y-69045342D01*
X116313290Y-69069394D01*
X115824486Y-69271863D01*
X115725823Y-69538718D01*
X114984953Y-69538718D01*
X114961856Y-68914540D01*
X114759387Y-68425736D01*
X114492532Y-68327073D01*
X113519605Y-69300000D01*
X113160395Y-69300000D01*
X112187468Y-68327073D01*
X111920613Y-68425736D01*
X111694092Y-69035461D01*
X90601117Y-69035461D01*
X91489110Y-68147468D01*
X112367073Y-68147468D01*
X113340000Y-69120395D01*
X114312927Y-68147468D01*
X114214264Y-67880613D01*
X113604539Y-67654092D01*
X112954540Y-67678144D01*
X112465736Y-67880613D01*
X112367073Y-68147468D01*
X91489110Y-68147468D01*
X92656579Y-66980000D01*
X93065494Y-66980000D01*
X93574540Y-66769147D01*
X93964147Y-66379540D01*
X94175000Y-65870494D01*
X94175000Y-65319506D01*
X93964147Y-64810460D01*
X93574540Y-64420853D01*
X93065494Y-64210000D01*
X92514506Y-64210000D01*
X92005460Y-64420853D01*
X91615853Y-64810460D01*
X91520000Y-65041870D01*
X91424147Y-64810460D01*
X91034540Y-64420853D01*
X90525494Y-64210000D01*
X89974506Y-64210000D01*
X89465460Y-64420853D01*
X89075853Y-64810460D01*
X88980000Y-65041870D01*
X88884147Y-64810460D01*
X88494540Y-64420853D01*
X87985494Y-64210000D01*
X87434506Y-64210000D01*
X86925460Y-64420853D01*
X86535853Y-64810460D01*
X86440000Y-65041870D01*
X86344147Y-64810460D01*
X85954540Y-64420853D01*
X85445494Y-64210000D01*
X84894506Y-64210000D01*
X84385460Y-64420853D01*
X83995853Y-64810460D01*
X83785000Y-65319506D01*
X83785000Y-65374868D01*
X81286480Y-67873389D01*
X81191712Y-67936711D01*
X81050889Y-68147468D01*
X80940854Y-68312146D01*
X80852765Y-68755000D01*
X80875001Y-68866788D01*
X80875000Y-115488217D01*
X80852765Y-115600000D01*
X80902555Y-115850310D01*
X80940854Y-116042854D01*
X81085383Y-116259158D01*
X73890737Y-116259158D01*
X68817425Y-111185847D01*
X68817423Y-111185844D01*
X68765000Y-111133421D01*
X68765000Y-110712517D01*
X68552624Y-110199796D01*
X68196951Y-109844123D01*
X68377765Y-109808157D01*
X68587809Y-109667809D01*
X68728157Y-109457765D01*
X68777440Y-109210000D01*
X68777440Y-108697377D01*
X70113834Y-108697377D01*
X70113834Y-109546733D01*
X70438868Y-110331435D01*
X71039454Y-110932021D01*
X71824156Y-111257055D01*
X72673512Y-111257055D01*
X73458214Y-110932021D01*
X74058800Y-110331435D01*
X74383834Y-109546733D01*
X74383834Y-108697377D01*
X74058800Y-107912675D01*
X73458214Y-107312089D01*
X72673512Y-106987055D01*
X71824156Y-106987055D01*
X71039454Y-107312089D01*
X70438868Y-107912675D01*
X70113834Y-108697377D01*
X68777440Y-108697377D01*
X68777440Y-107690000D01*
X68728157Y-107442235D01*
X68587809Y-107232191D01*
X68377765Y-107091843D01*
X68130000Y-107042560D01*
X66610000Y-107042560D01*
X66362235Y-107091843D01*
X66152191Y-107232191D01*
X66011843Y-107442235D01*
X65962560Y-107690000D01*
X65962560Y-108879732D01*
X65620204Y-108537376D01*
X65107483Y-108325000D01*
X64552517Y-108325000D01*
X64039796Y-108537376D01*
X63647376Y-108929796D01*
X63435000Y-109442517D01*
X63435000Y-109997483D01*
X63647376Y-110510204D01*
X64039796Y-110902624D01*
X64250740Y-110990000D01*
X64039796Y-111077376D01*
X63647376Y-111469796D01*
X63435000Y-111982517D01*
X63435000Y-112537483D01*
X63647376Y-113050204D01*
X64039796Y-113442624D01*
X64250740Y-113530000D01*
X64039796Y-113617376D01*
X63647376Y-114009796D01*
X63435000Y-114522517D01*
X63435000Y-115077483D01*
X63647376Y-115590204D01*
X64039796Y-115982624D01*
X64552517Y-116195000D01*
X65107483Y-116195000D01*
X65620204Y-115982624D01*
X66012624Y-115590204D01*
X66122517Y-115324898D01*
X69231775Y-118434156D01*
X69254577Y-118468281D01*
X59907841Y-118468281D01*
X60395935Y-117980187D01*
X60740000Y-117149542D01*
X60740000Y-116250458D01*
X60395935Y-115419813D01*
X59760187Y-114784065D01*
X58929542Y-114440000D01*
X58030458Y-114440000D01*
X57199813Y-114784065D01*
X56564065Y-115419813D01*
X56220000Y-116250458D01*
X56220000Y-117149542D01*
X56564065Y-117980187D01*
X57046750Y-118462872D01*
X57019558Y-118468281D01*
X57019554Y-118468281D01*
X56761409Y-118519629D01*
X56713036Y-118551951D01*
X56542564Y-118665857D01*
X56542563Y-118665858D01*
X56468670Y-118715232D01*
X56419296Y-118789125D01*
X53388960Y-121819462D01*
X53316256Y-121805000D01*
X53023744Y-121805000D01*
X52754999Y-121858457D01*
X52754999Y-116587581D01*
X68544157Y-100798424D01*
X68618049Y-100749051D01*
X68813652Y-100456312D01*
X68865000Y-100198167D01*
X68865000Y-100198163D01*
X68882337Y-100111002D01*
X68865000Y-100023841D01*
X68865000Y-95346459D01*
X68937809Y-95297809D01*
X69078157Y-95087765D01*
X69127440Y-94840000D01*
X69127440Y-93840000D01*
X69332560Y-93840000D01*
X69332560Y-94840000D01*
X69381843Y-95087765D01*
X69522191Y-95297809D01*
X69732235Y-95438157D01*
X69980000Y-95487440D01*
X70980000Y-95487440D01*
X71227765Y-95438157D01*
X71437809Y-95297809D01*
X71578157Y-95087765D01*
X71627440Y-94840000D01*
X71627440Y-93840000D01*
X71832560Y-93840000D01*
X71832560Y-94840000D01*
X71881843Y-95087765D01*
X72022191Y-95297809D01*
X72232235Y-95438157D01*
X72480000Y-95487440D01*
X73480000Y-95487440D01*
X73727765Y-95438157D01*
X73937809Y-95297809D01*
X74078157Y-95087765D01*
X74127440Y-94840000D01*
X74127440Y-93840000D01*
X74078157Y-93592235D01*
X73937809Y-93382191D01*
X73727765Y-93241843D01*
X73480000Y-93192560D01*
X72480000Y-93192560D01*
X72232235Y-93241843D01*
X72022191Y-93382191D01*
X71881843Y-93592235D01*
X71832560Y-93840000D01*
X71627440Y-93840000D01*
X71578157Y-93592235D01*
X71437809Y-93382191D01*
X71227765Y-93241843D01*
X70980000Y-93192560D01*
X69980000Y-93192560D01*
X69732235Y-93241843D01*
X69522191Y-93382191D01*
X69381843Y-93592235D01*
X69332560Y-93840000D01*
X69127440Y-93840000D01*
X69078157Y-93592235D01*
X68937809Y-93382191D01*
X68727765Y-93241843D01*
X68480000Y-93192560D01*
X67480000Y-93192560D01*
X67232235Y-93241843D01*
X67022191Y-93382191D01*
X66881843Y-93592235D01*
X66832560Y-93840000D01*
X66832560Y-94840000D01*
X66881843Y-95087765D01*
X67022191Y-95297809D01*
X67095000Y-95346459D01*
X67095000Y-95427164D01*
X67095001Y-95427169D01*
X67095000Y-99744423D01*
X60740000Y-106099423D01*
X60740000Y-106090458D01*
X60395935Y-105259813D01*
X59760187Y-104624065D01*
X58929542Y-104280000D01*
X58030458Y-104280000D01*
X57199813Y-104624065D01*
X56564065Y-105259813D01*
X56220000Y-106090458D01*
X56220000Y-106989542D01*
X56564065Y-107820187D01*
X57199813Y-108455935D01*
X58030458Y-108800000D01*
X58039424Y-108800000D01*
X51305844Y-115533580D01*
X51231951Y-115582954D01*
X51182577Y-115656847D01*
X51182575Y-115656849D01*
X51036347Y-115875694D01*
X50967662Y-116221003D01*
X50184051Y-116221003D01*
X50201877Y-100055431D01*
X51115000Y-100055431D01*
X51115000Y-100944569D01*
X51455259Y-101766026D01*
X52083974Y-102394741D01*
X52905431Y-102735000D01*
X53794569Y-102735000D01*
X54616026Y-102394741D01*
X55244741Y-101766026D01*
X55585000Y-100944569D01*
X55585000Y-100055431D01*
X55244741Y-99233974D01*
X54616026Y-98605259D01*
X53794569Y-98265000D01*
X52905431Y-98265000D01*
X52083974Y-98605259D01*
X51455259Y-99233974D01*
X51115000Y-100055431D01*
X50201877Y-100055431D01*
X50207864Y-94625750D01*
X64345000Y-94625750D01*
X64345000Y-94966310D01*
X64441673Y-95199699D01*
X64620302Y-95378327D01*
X64853691Y-95475000D01*
X65194250Y-95475000D01*
X65353000Y-95316250D01*
X65353000Y-94467000D01*
X65607000Y-94467000D01*
X65607000Y-95316250D01*
X65765750Y-95475000D01*
X66106309Y-95475000D01*
X66339698Y-95378327D01*
X66518327Y-95199699D01*
X66615000Y-94966310D01*
X66615000Y-94625750D01*
X66456250Y-94467000D01*
X65607000Y-94467000D01*
X65353000Y-94467000D01*
X64503750Y-94467000D01*
X64345000Y-94625750D01*
X50207864Y-94625750D01*
X50208869Y-93713690D01*
X64345000Y-93713690D01*
X64345000Y-94054250D01*
X64503750Y-94213000D01*
X65353000Y-94213000D01*
X65353000Y-93363750D01*
X65607000Y-93363750D01*
X65607000Y-94213000D01*
X66456250Y-94213000D01*
X66615000Y-94054250D01*
X66615000Y-93713690D01*
X66518327Y-93480301D01*
X66339698Y-93301673D01*
X66106309Y-93205000D01*
X65765750Y-93205000D01*
X65607000Y-93363750D01*
X65353000Y-93363750D01*
X65194250Y-93205000D01*
X64853691Y-93205000D01*
X64620302Y-93301673D01*
X64441673Y-93480301D01*
X64345000Y-93713690D01*
X50208869Y-93713690D01*
X50246374Y-59705431D01*
X51115000Y-59705431D01*
X51115000Y-60594569D01*
X51455259Y-61416026D01*
X52083974Y-62044741D01*
X52905431Y-62385000D01*
X53794569Y-62385000D01*
X54616026Y-62044741D01*
X55244741Y-61416026D01*
X55585000Y-60594569D01*
X55585000Y-59705431D01*
X144415000Y-59705431D01*
X144415000Y-60594569D01*
X144755259Y-61416026D01*
X145383974Y-62044741D01*
X146205431Y-62385000D01*
X147094569Y-62385000D01*
X147916026Y-62044741D01*
X148544741Y-61416026D01*
X148885000Y-60594569D01*
X148885000Y-59705431D01*
X148544741Y-58883974D01*
X147916026Y-58255259D01*
X147094569Y-57915000D01*
X146205431Y-57915000D01*
X145383974Y-58255259D01*
X144755259Y-58883974D01*
X144415000Y-59705431D01*
X55585000Y-59705431D01*
X55244741Y-58883974D01*
X54616026Y-58255259D01*
X53794569Y-57915000D01*
X52905431Y-57915000D01*
X52083974Y-58255259D01*
X51455259Y-58883974D01*
X51115000Y-59705431D01*
X50246374Y-59705431D01*
X50253873Y-52905431D01*
X51115000Y-52905431D01*
X51115000Y-53794569D01*
X51455259Y-54616026D01*
X52083974Y-55244741D01*
X52905431Y-55585000D01*
X53794569Y-55585000D01*
X54616026Y-55244741D01*
X55244741Y-54616026D01*
X55585000Y-53794569D01*
X55585000Y-52905431D01*
X144415000Y-52905431D01*
X144415000Y-53794569D01*
X144755259Y-54616026D01*
X145383974Y-55244741D01*
X146205431Y-55585000D01*
X147094569Y-55585000D01*
X147916026Y-55244741D01*
X148544741Y-54616026D01*
X148885000Y-53794569D01*
X148885000Y-52905431D01*
X148544741Y-52083974D01*
X147916026Y-51455259D01*
X147094569Y-51115000D01*
X146205431Y-51115000D01*
X145383974Y-51455259D01*
X144755259Y-52083974D01*
X144415000Y-52905431D01*
X55585000Y-52905431D01*
X55244741Y-52083974D01*
X54616026Y-51455259D01*
X53794569Y-51115000D01*
X52905431Y-51115000D01*
X52083974Y-51455259D01*
X51455259Y-52083974D01*
X51115000Y-52905431D01*
X50253873Y-52905431D01*
X50256860Y-50197000D01*
X149743000Y-50197000D01*
X149743000Y-149693000D01*
X149743000Y-149693000D01*
G37*
X149743000Y-149693000D02*
X50147140Y-149693000D01*
X50150985Y-146205431D01*
X51115000Y-146205431D01*
X51115000Y-147094569D01*
X51455259Y-147916026D01*
X52083974Y-148544741D01*
X52905431Y-148885000D01*
X53794569Y-148885000D01*
X54616026Y-148544741D01*
X55244741Y-147916026D01*
X55585000Y-147094569D01*
X55585000Y-146205431D01*
X55498148Y-145995750D01*
X118695000Y-145995750D01*
X118695000Y-146436310D01*
X118791673Y-146669699D01*
X118970302Y-146848327D01*
X119203691Y-146945000D01*
X119494250Y-146945000D01*
X119653000Y-146786250D01*
X119653000Y-145837000D01*
X119907000Y-145837000D01*
X119907000Y-146786250D01*
X120065750Y-146945000D01*
X120356309Y-146945000D01*
X120589698Y-146848327D01*
X120768327Y-146669699D01*
X120865000Y-146436310D01*
X120865000Y-145995750D01*
X120706250Y-145837000D01*
X119907000Y-145837000D01*
X119653000Y-145837000D01*
X118853750Y-145837000D01*
X118695000Y-145995750D01*
X55498148Y-145995750D01*
X55244741Y-145383974D01*
X54844457Y-144983690D01*
X118695000Y-144983690D01*
X118695000Y-145424250D01*
X118853750Y-145583000D01*
X119653000Y-145583000D01*
X119653000Y-144633750D01*
X119907000Y-144633750D01*
X119907000Y-145583000D01*
X120706250Y-145583000D01*
X120865000Y-145424250D01*
X120865000Y-144983690D01*
X120768327Y-144750301D01*
X120589698Y-144571673D01*
X120356309Y-144475000D01*
X120065750Y-144475000D01*
X119907000Y-144633750D01*
X119653000Y-144633750D01*
X119494250Y-144475000D01*
X119203691Y-144475000D01*
X118970302Y-144571673D01*
X118791673Y-144750301D01*
X118695000Y-144983690D01*
X54844457Y-144983690D01*
X54616026Y-144755259D01*
X53794569Y-144415000D01*
X52905431Y-144415000D01*
X52083974Y-144755259D01*
X51455259Y-145383974D01*
X51115000Y-146205431D01*
X50150985Y-146205431D01*
X50159995Y-138035000D01*
X58772560Y-138035000D01*
X58772560Y-139785000D01*
X58888449Y-140367613D01*
X59218472Y-140861528D01*
X59712387Y-141191551D01*
X60295000Y-141307440D01*
X62045000Y-141307440D01*
X62627613Y-141191551D01*
X63121528Y-140861528D01*
X63451551Y-140367613D01*
X63567440Y-139785000D01*
X63567440Y-138035000D01*
X63451551Y-137452387D01*
X63121528Y-136958472D01*
X62627613Y-136628449D01*
X62459454Y-136595000D01*
X63884250Y-136595000D01*
X64043000Y-136436250D01*
X64043000Y-134337000D01*
X64297000Y-134337000D01*
X64297000Y-136436250D01*
X64455750Y-136595000D01*
X66046309Y-136595000D01*
X66279698Y-136498327D01*
X66458327Y-136319699D01*
X66555000Y-136086310D01*
X66555000Y-134495750D01*
X66396250Y-134337000D01*
X64297000Y-134337000D01*
X64043000Y-134337000D01*
X61943750Y-134337000D01*
X61785000Y-134495750D01*
X61785000Y-136086310D01*
X61881673Y-136319699D01*
X62060302Y-136498327D01*
X62140546Y-136531565D01*
X62045000Y-136512560D01*
X60295000Y-136512560D01*
X59712387Y-136628449D01*
X59218472Y-136958472D01*
X58888449Y-137452387D01*
X58772560Y-138035000D01*
X50159995Y-138035000D01*
X50165316Y-133210000D01*
X56022560Y-133210000D01*
X56022560Y-135210000D01*
X56128934Y-135744777D01*
X56431861Y-136198139D01*
X56885223Y-136501066D01*
X57420000Y-136607440D01*
X58920000Y-136607440D01*
X59454777Y-136501066D01*
X59908139Y-136198139D01*
X60211066Y-135744777D01*
X60317440Y-135210000D01*
X60317440Y-133210000D01*
X60211066Y-132675223D01*
X59982861Y-132333690D01*
X61785000Y-132333690D01*
X61785000Y-133924250D01*
X61943750Y-134083000D01*
X64043000Y-134083000D01*
X64043000Y-131983750D01*
X64297000Y-131983750D01*
X64297000Y-134083000D01*
X66396250Y-134083000D01*
X66555000Y-133924250D01*
X66555000Y-132333690D01*
X66458327Y-132100301D01*
X66279698Y-131921673D01*
X66046309Y-131825000D01*
X64455750Y-131825000D01*
X64297000Y-131983750D01*
X64043000Y-131983750D01*
X63884250Y-131825000D01*
X62293691Y-131825000D01*
X62060302Y-131921673D01*
X61881673Y-132100301D01*
X61785000Y-132333690D01*
X59982861Y-132333690D01*
X59908139Y-132221861D01*
X59454777Y-131918934D01*
X58920000Y-131812560D01*
X57420000Y-131812560D01*
X56885223Y-131918934D01*
X56431861Y-132221861D01*
X56128934Y-132675223D01*
X56022560Y-133210000D01*
X50165316Y-133210000D01*
X50184051Y-116221003D01*
X50967662Y-116221003D01*
X50985000Y-116308168D01*
X50984999Y-124072838D01*
X50967662Y-124159999D01*
X50984999Y-124247160D01*
X50984999Y-124247163D01*
X51036347Y-124505308D01*
X51231950Y-124798048D01*
X51305846Y-124847424D01*
X52562577Y-126104156D01*
X52611951Y-126178049D01*
X52685844Y-126227423D01*
X52685845Y-126227424D01*
X52777401Y-126288600D01*
X52904690Y-126373652D01*
X53162835Y-126425000D01*
X53162839Y-126425000D01*
X53249999Y-126442337D01*
X53337159Y-126425000D01*
X60963422Y-126425000D01*
X62812567Y-128274146D01*
X62861941Y-128348039D01*
X62935834Y-128397413D01*
X62935835Y-128397414D01*
X63039015Y-128466357D01*
X63154680Y-128543642D01*
X63163897Y-128545475D01*
X72606176Y-137987755D01*
X71824156Y-137987755D01*
X71039454Y-138312789D01*
X70438868Y-138913375D01*
X70113834Y-139698077D01*
X70113834Y-140547433D01*
X70438868Y-141332135D01*
X71039454Y-141932721D01*
X71824156Y-142257755D01*
X72673512Y-142257755D01*
X73458214Y-141932721D01*
X74058800Y-141332135D01*
X74383834Y-140547433D01*
X74383834Y-139698077D01*
X74058800Y-138913375D01*
X74040425Y-138895000D01*
X76200494Y-138895000D01*
X76200494Y-141422755D01*
X76249777Y-141670520D01*
X76390125Y-141880564D01*
X76600169Y-142020912D01*
X76847934Y-142070195D01*
X78647934Y-142070195D01*
X78895699Y-142020912D01*
X79105743Y-141880564D01*
X79245063Y-141672058D01*
X79689008Y-141968693D01*
X80287934Y-142087827D01*
X80886861Y-141968693D01*
X81394607Y-141629428D01*
X81557934Y-141384991D01*
X81721262Y-141629428D01*
X82229008Y-141968693D01*
X82827934Y-142087827D01*
X83426861Y-141968693D01*
X83934607Y-141629428D01*
X84097934Y-141384991D01*
X84261262Y-141629428D01*
X84769008Y-141968693D01*
X85367934Y-142087827D01*
X85966861Y-141968693D01*
X86474607Y-141629428D01*
X86637934Y-141384991D01*
X86801262Y-141629428D01*
X87309008Y-141968693D01*
X87907934Y-142087827D01*
X88506861Y-141968693D01*
X89014607Y-141629428D01*
X89177934Y-141384991D01*
X89341262Y-141629428D01*
X89849008Y-141968693D01*
X90447934Y-142087827D01*
X91046861Y-141968693D01*
X91554607Y-141629428D01*
X91717934Y-141384991D01*
X91881262Y-141629428D01*
X92389008Y-141968693D01*
X92987934Y-142087827D01*
X93586861Y-141968693D01*
X94094607Y-141629428D01*
X94257934Y-141384991D01*
X94421262Y-141629428D01*
X94929008Y-141968693D01*
X95527934Y-142087827D01*
X96126861Y-141968693D01*
X96634607Y-141629428D01*
X96797934Y-141384991D01*
X96961262Y-141629428D01*
X97469008Y-141968693D01*
X98067934Y-142087827D01*
X98666861Y-141968693D01*
X99174607Y-141629428D01*
X99337934Y-141384991D01*
X99501262Y-141629428D01*
X100009008Y-141968693D01*
X100607934Y-142087827D01*
X101206861Y-141968693D01*
X101714607Y-141629428D01*
X101877934Y-141384991D01*
X102041262Y-141629428D01*
X102549008Y-141968693D01*
X103147934Y-142087827D01*
X103746861Y-141968693D01*
X104254607Y-141629428D01*
X104417934Y-141384991D01*
X104581262Y-141629428D01*
X105089008Y-141968693D01*
X105687934Y-142087827D01*
X105949416Y-142035815D01*
X107100521Y-143186921D01*
X107149895Y-143260814D01*
X107223788Y-143310188D01*
X107223789Y-143310189D01*
X107442634Y-143456417D01*
X107700779Y-143507765D01*
X107700783Y-143507765D01*
X107787944Y-143525102D01*
X107875105Y-143507765D01*
X116830074Y-143507765D01*
X116917235Y-143525102D01*
X117004396Y-143507765D01*
X117004400Y-143507765D01*
X117262545Y-143456417D01*
X117555284Y-143260814D01*
X117604660Y-143186918D01*
X118744156Y-142047423D01*
X118818049Y-141998049D01*
X118896551Y-141880564D01*
X119013651Y-141705311D01*
X119013652Y-141705310D01*
X119065000Y-141447165D01*
X119065000Y-141447161D01*
X119082337Y-141360001D01*
X119065000Y-141272841D01*
X119065000Y-131205131D01*
X119364265Y-131504396D01*
X119427589Y-131599167D01*
X119765572Y-131825000D01*
X119803023Y-131850024D01*
X120245878Y-131938113D01*
X120357661Y-131915878D01*
X124616389Y-131915878D01*
X124710909Y-131979035D01*
X124958674Y-132028318D01*
X125858674Y-132028318D01*
X126106439Y-131979035D01*
X126316483Y-131838687D01*
X126456831Y-131628643D01*
X126506114Y-131380878D01*
X126506114Y-131081489D01*
X126565909Y-130780878D01*
X126506114Y-130480267D01*
X126506114Y-130180878D01*
X126469508Y-129996843D01*
X127573674Y-131101010D01*
X127573675Y-134636153D01*
X127529604Y-134857713D01*
X127551839Y-134969496D01*
X127551840Y-139265797D01*
X127532712Y-139294424D01*
X127464399Y-139637859D01*
X127464399Y-140537861D01*
X127532712Y-140881296D01*
X127551839Y-140909922D01*
X127551840Y-142612860D01*
X125153923Y-142612860D01*
X125042140Y-142590625D01*
X124930357Y-142612860D01*
X124599285Y-142678714D01*
X124223851Y-142929571D01*
X124160529Y-143024339D01*
X122722309Y-144462560D01*
X122630000Y-144462560D01*
X122382235Y-144511843D01*
X122172191Y-144652191D01*
X122031843Y-144862235D01*
X121982560Y-145110000D01*
X121982560Y-145409390D01*
X121922765Y-145710000D01*
X121982560Y-146010610D01*
X121982560Y-146310000D01*
X122031843Y-146557765D01*
X122172191Y-146767809D01*
X122382235Y-146908157D01*
X122630000Y-146957440D01*
X123530000Y-146957440D01*
X123777765Y-146908157D01*
X123987809Y-146767809D01*
X124128157Y-146557765D01*
X124177440Y-146310000D01*
X124177440Y-146217691D01*
X124189700Y-146205431D01*
X144415000Y-146205431D01*
X144415000Y-147094569D01*
X144755259Y-147916026D01*
X145383974Y-148544741D01*
X146205431Y-148885000D01*
X147094569Y-148885000D01*
X147916026Y-148544741D01*
X148544741Y-147916026D01*
X148885000Y-147094569D01*
X148885000Y-146205431D01*
X148544741Y-145383974D01*
X147916026Y-144755259D01*
X147094569Y-144415000D01*
X146205431Y-144415000D01*
X145383974Y-144755259D01*
X144755259Y-145383974D01*
X144415000Y-146205431D01*
X124189700Y-146205431D01*
X125512272Y-144882860D01*
X127807703Y-144882860D01*
X128023403Y-145026987D01*
X128366838Y-145095300D01*
X129016840Y-145095300D01*
X129360275Y-145026987D01*
X129651425Y-144832446D01*
X129716839Y-144734547D01*
X129782253Y-144832446D01*
X130073403Y-145026987D01*
X130416838Y-145095300D01*
X131066840Y-145095300D01*
X131410275Y-145026987D01*
X131701425Y-144832446D01*
X131895966Y-144541296D01*
X131964279Y-144197861D01*
X131964279Y-143297859D01*
X131895966Y-142954424D01*
X131876839Y-142925799D01*
X131876839Y-141138436D01*
X131889639Y-141143738D01*
X132301387Y-141143738D01*
X132681793Y-140986169D01*
X132972944Y-140695018D01*
X133130513Y-140314612D01*
X133130513Y-139902864D01*
X133045688Y-139698077D01*
X145112934Y-139698077D01*
X145112934Y-140547433D01*
X145437968Y-141332135D01*
X146038554Y-141932721D01*
X146823256Y-142257755D01*
X147672612Y-142257755D01*
X148457314Y-141932721D01*
X149057900Y-141332135D01*
X149382934Y-140547433D01*
X149382934Y-139698077D01*
X149057900Y-138913375D01*
X148457314Y-138312789D01*
X147672612Y-137987755D01*
X146823256Y-137987755D01*
X146038554Y-138312789D01*
X145437968Y-138913375D01*
X145112934Y-139698077D01*
X133045688Y-139698077D01*
X132972944Y-139522458D01*
X132681793Y-139231307D01*
X132301387Y-139073738D01*
X131889639Y-139073738D01*
X131775185Y-139121146D01*
X131696425Y-139003274D01*
X131405275Y-138808733D01*
X131061840Y-138740420D01*
X130411838Y-138740420D01*
X130068403Y-138808733D01*
X129821839Y-138973482D01*
X129821839Y-135057433D01*
X129843674Y-134947661D01*
X129865909Y-134835879D01*
X129843674Y-134724097D01*
X129843674Y-130742660D01*
X129865909Y-130630877D01*
X129806114Y-130330267D01*
X129806114Y-130180878D01*
X129756831Y-129933113D01*
X129616483Y-129723069D01*
X129406439Y-129582721D01*
X129230691Y-129547763D01*
X125139409Y-125456482D01*
X125076085Y-125361711D01*
X124796608Y-125174970D01*
X127404139Y-122567440D01*
X128030000Y-122567440D01*
X128277765Y-122518157D01*
X128487809Y-122377809D01*
X128628157Y-122167765D01*
X128677440Y-121920000D01*
X128677440Y-120420000D01*
X128628157Y-120172235D01*
X128526436Y-120020000D01*
X128628157Y-119867765D01*
X128677440Y-119620000D01*
X128677440Y-118120000D01*
X128628157Y-117872235D01*
X128526436Y-117720000D01*
X128628157Y-117567765D01*
X128650587Y-117455000D01*
X131802841Y-117455000D01*
X131890002Y-117472337D01*
X131977163Y-117455000D01*
X131977167Y-117455000D01*
X132235312Y-117403652D01*
X132528051Y-117208049D01*
X132577427Y-117134153D01*
X132844153Y-116867427D01*
X132918049Y-116818051D01*
X133113652Y-116525312D01*
X133165000Y-116267167D01*
X133165000Y-116267163D01*
X133182337Y-116180003D01*
X133165000Y-116092843D01*
X133165000Y-108697377D01*
X145112414Y-108697377D01*
X145112414Y-109546733D01*
X145437448Y-110331435D01*
X146038034Y-110932021D01*
X146822736Y-111257055D01*
X147672092Y-111257055D01*
X148456794Y-110932021D01*
X149057380Y-110331435D01*
X149382414Y-109546733D01*
X149382414Y-108697377D01*
X149057380Y-107912675D01*
X148456794Y-107312089D01*
X147672092Y-106987055D01*
X146822736Y-106987055D01*
X146038034Y-107312089D01*
X145437448Y-107912675D01*
X145112414Y-108697377D01*
X133165000Y-108697377D01*
X133165000Y-100055431D01*
X144415000Y-100055431D01*
X144415000Y-100944569D01*
X144755259Y-101766026D01*
X145383974Y-102394741D01*
X146205431Y-102735000D01*
X147094569Y-102735000D01*
X147916026Y-102394741D01*
X148544741Y-101766026D01*
X148885000Y-100944569D01*
X148885000Y-100055431D01*
X148544741Y-99233974D01*
X147916026Y-98605259D01*
X147094569Y-98265000D01*
X146205431Y-98265000D01*
X145383974Y-98605259D01*
X144755259Y-99233974D01*
X144415000Y-100055431D01*
X133165000Y-100055431D01*
X133165000Y-91527440D01*
X133280000Y-91527440D01*
X133527765Y-91478157D01*
X133737809Y-91337809D01*
X133878157Y-91127765D01*
X133927440Y-90880000D01*
X133927440Y-88880000D01*
X133878157Y-88632235D01*
X133872488Y-88623751D01*
X134003750Y-88623751D01*
X134003750Y-88813972D01*
X134252664Y-89414903D01*
X134712597Y-89874836D01*
X135313528Y-90123750D01*
X135963972Y-90123750D01*
X136564903Y-89874836D01*
X137024836Y-89414903D01*
X137273750Y-88813972D01*
X137273750Y-88163528D01*
X137024836Y-87562597D01*
X136564903Y-87102664D01*
X135963972Y-86853750D01*
X135608881Y-86853750D01*
X135520364Y-86765232D01*
X135457040Y-86670462D01*
X135081606Y-86419605D01*
X134750534Y-86353751D01*
X134638751Y-86331516D01*
X134526968Y-86353751D01*
X130033031Y-86353751D01*
X129921248Y-86331516D01*
X129478394Y-86419605D01*
X129102960Y-86670462D01*
X129039638Y-86765230D01*
X128951118Y-86853750D01*
X128596028Y-86853750D01*
X127995097Y-87102664D01*
X127535164Y-87562597D01*
X127286250Y-88163528D01*
X127286250Y-88518618D01*
X117835683Y-97969186D01*
X117833750Y-97959469D01*
X117833750Y-82923782D01*
X127948323Y-82923782D01*
X128046986Y-83190637D01*
X128656711Y-83417158D01*
X129306710Y-83393106D01*
X129795514Y-83190637D01*
X129894177Y-82923782D01*
X134665823Y-82923782D01*
X134764486Y-83190637D01*
X135374211Y-83417158D01*
X136024210Y-83393106D01*
X136513014Y-83190637D01*
X136611677Y-82923782D01*
X135638750Y-81950855D01*
X134665823Y-82923782D01*
X129894177Y-82923782D01*
X128921250Y-81950855D01*
X127948323Y-82923782D01*
X117833750Y-82923782D01*
X117833750Y-81506711D01*
X127275342Y-81506711D01*
X127299394Y-82156710D01*
X127501863Y-82645514D01*
X127768718Y-82744177D01*
X128741645Y-81771250D01*
X129100855Y-81771250D01*
X130073782Y-82744177D01*
X130340637Y-82645514D01*
X130567158Y-82035789D01*
X130548536Y-81532532D01*
X131307073Y-81532532D01*
X131405736Y-81799387D01*
X132015461Y-82025908D01*
X132665460Y-82001856D01*
X133154264Y-81799387D01*
X133252927Y-81532532D01*
X133227106Y-81506711D01*
X133992842Y-81506711D01*
X134016894Y-82156710D01*
X134219363Y-82645514D01*
X134486218Y-82744177D01*
X135459145Y-81771250D01*
X135818355Y-81771250D01*
X136791282Y-82744177D01*
X137058137Y-82645514D01*
X137284658Y-82035789D01*
X137260606Y-81385790D01*
X137058137Y-80896986D01*
X136791282Y-80798323D01*
X135818355Y-81771250D01*
X135459145Y-81771250D01*
X134486218Y-80798323D01*
X134219363Y-80896986D01*
X133992842Y-81506711D01*
X133227106Y-81506711D01*
X132280000Y-80559605D01*
X131307073Y-81532532D01*
X130548536Y-81532532D01*
X130543106Y-81385790D01*
X130340637Y-80896986D01*
X130073782Y-80798323D01*
X129100855Y-81771250D01*
X128741645Y-81771250D01*
X127768718Y-80798323D01*
X127501863Y-80896986D01*
X127275342Y-81506711D01*
X117833750Y-81506711D01*
X117833750Y-80618718D01*
X127948323Y-80618718D01*
X128921250Y-81591645D01*
X129894177Y-80618718D01*
X129795514Y-80351863D01*
X129185789Y-80125342D01*
X128535790Y-80149394D01*
X128046986Y-80351863D01*
X127948323Y-80618718D01*
X117833750Y-80618718D01*
X117833750Y-80115461D01*
X130634092Y-80115461D01*
X130658144Y-80765460D01*
X130860613Y-81254264D01*
X131127468Y-81352927D01*
X132100395Y-80380000D01*
X132459605Y-80380000D01*
X133432532Y-81352927D01*
X133699387Y-81254264D01*
X133925908Y-80644539D01*
X133924953Y-80618718D01*
X134665823Y-80618718D01*
X135638750Y-81591645D01*
X136611677Y-80618718D01*
X136513014Y-80351863D01*
X135903289Y-80125342D01*
X135253290Y-80149394D01*
X134764486Y-80351863D01*
X134665823Y-80618718D01*
X133924953Y-80618718D01*
X133901856Y-79994540D01*
X133699387Y-79505736D01*
X133432532Y-79407073D01*
X132459605Y-80380000D01*
X132100395Y-80380000D01*
X131127468Y-79407073D01*
X130860613Y-79505736D01*
X130634092Y-80115461D01*
X117833750Y-80115461D01*
X117833750Y-79227468D01*
X131307073Y-79227468D01*
X132280000Y-80200395D01*
X133252927Y-79227468D01*
X133154264Y-78960613D01*
X132544539Y-78734092D01*
X131894540Y-78758144D01*
X131405736Y-78960613D01*
X131307073Y-79227468D01*
X117833750Y-79227468D01*
X117833750Y-78585989D01*
X118084836Y-78334903D01*
X118333750Y-77733972D01*
X118333750Y-77083528D01*
X118084836Y-76482597D01*
X117624903Y-76022664D01*
X117023972Y-75773750D01*
X116668881Y-75773750D01*
X116580364Y-75685232D01*
X116517040Y-75590462D01*
X116141606Y-75339605D01*
X115810534Y-75273751D01*
X115698751Y-75251516D01*
X115586968Y-75273751D01*
X111093031Y-75273751D01*
X110981248Y-75251516D01*
X110650338Y-75317338D01*
X110538394Y-75339605D01*
X110162960Y-75590462D01*
X110099638Y-75685230D01*
X110011118Y-75773750D01*
X109656028Y-75773750D01*
X109055097Y-76022664D01*
X108595164Y-76482597D01*
X108346250Y-77083528D01*
X108346250Y-77733972D01*
X108595164Y-78334903D01*
X109055097Y-78794836D01*
X109656028Y-79043750D01*
X110306472Y-79043750D01*
X110907403Y-78794836D01*
X111367336Y-78334903D01*
X111616250Y-77733972D01*
X111616250Y-77543751D01*
X111747512Y-77543751D01*
X111741843Y-77552235D01*
X111692560Y-77800000D01*
X111692560Y-79800000D01*
X111741843Y-80047765D01*
X111882191Y-80257809D01*
X112092235Y-80398157D01*
X112340000Y-80447440D01*
X113735861Y-80447440D01*
X113845000Y-80556579D01*
X113845001Y-98329904D01*
X111715000Y-100459906D01*
X111715000Y-90977440D01*
X112625000Y-90977440D01*
X112872765Y-90928157D01*
X113082809Y-90787809D01*
X113223157Y-90577765D01*
X113272440Y-90330000D01*
X113272440Y-88830000D01*
X113223157Y-88582235D01*
X113082809Y-88372191D01*
X112872765Y-88231843D01*
X112625000Y-88182560D01*
X111575000Y-88182560D01*
X111327235Y-88231843D01*
X111281867Y-88262157D01*
X110830000Y-88172275D01*
X110377392Y-88262305D01*
X110185004Y-88390854D01*
X109927336Y-88244734D01*
X109865810Y-88236036D01*
X109687000Y-88361837D01*
X109687000Y-89155290D01*
X109670000Y-89240754D01*
X109670000Y-89919245D01*
X109687000Y-90004709D01*
X109687000Y-90798163D01*
X109865810Y-90923964D01*
X109927336Y-90915266D01*
X109945001Y-90905249D01*
X109945000Y-100673421D01*
X102525011Y-108093411D01*
X102525011Y-106657171D01*
X102542348Y-106570010D01*
X102525011Y-106482847D01*
X102525011Y-106482846D01*
X102473663Y-106224701D01*
X102278060Y-105931962D01*
X102204168Y-105882589D01*
X92851578Y-96530000D01*
X93065494Y-96530000D01*
X93574540Y-96319147D01*
X93964147Y-95929540D01*
X94060000Y-95698130D01*
X94155853Y-95929540D01*
X94545460Y-96319147D01*
X95054506Y-96530000D01*
X95605494Y-96530000D01*
X96114540Y-96319147D01*
X96504147Y-95929540D01*
X96715000Y-95420494D01*
X96715000Y-94869506D01*
X96504147Y-94360460D01*
X96114540Y-93970853D01*
X95605494Y-93760000D01*
X95054506Y-93760000D01*
X94545460Y-93970853D01*
X94155853Y-94360460D01*
X94060000Y-94591870D01*
X93964147Y-94360460D01*
X93574540Y-93970853D01*
X93065494Y-93760000D01*
X92514506Y-93760000D01*
X92005460Y-93970853D01*
X91615853Y-94360460D01*
X91520000Y-94591870D01*
X91424147Y-94360460D01*
X91034540Y-93970853D01*
X90525494Y-93760000D01*
X89974506Y-93760000D01*
X89465460Y-93970853D01*
X89075853Y-94360460D01*
X88980000Y-94591870D01*
X88884147Y-94360460D01*
X88494540Y-93970853D01*
X87985494Y-93760000D01*
X87434506Y-93760000D01*
X86925460Y-93970853D01*
X86535853Y-94360460D01*
X86440000Y-94591870D01*
X86344147Y-94360460D01*
X85954540Y-93970853D01*
X85445494Y-93760000D01*
X84894506Y-93760000D01*
X84854999Y-93776364D01*
X84854999Y-89890506D01*
X108393674Y-89890506D01*
X108515177Y-90330331D01*
X108795745Y-90690179D01*
X109192664Y-90915266D01*
X109254190Y-90923964D01*
X109433000Y-90798163D01*
X109433000Y-89707000D01*
X108553407Y-89707000D01*
X108393674Y-89890506D01*
X84854999Y-89890506D01*
X84854999Y-89269494D01*
X108393674Y-89269494D01*
X108553407Y-89453000D01*
X109433000Y-89453000D01*
X109433000Y-88361837D01*
X109254190Y-88236036D01*
X109192664Y-88244734D01*
X108795745Y-88469821D01*
X108515177Y-88829669D01*
X108393674Y-89269494D01*
X84854999Y-89269494D01*
X84854999Y-74781579D01*
X87792796Y-71843782D01*
X109008323Y-71843782D01*
X109106986Y-72110637D01*
X109716711Y-72337158D01*
X110366710Y-72313106D01*
X110855514Y-72110637D01*
X110954177Y-71843782D01*
X115725823Y-71843782D01*
X115824486Y-72110637D01*
X116434211Y-72337158D01*
X117084210Y-72313106D01*
X117573014Y-72110637D01*
X117671677Y-71843782D01*
X116698750Y-70870855D01*
X115725823Y-71843782D01*
X110954177Y-71843782D01*
X109981250Y-70870855D01*
X109008323Y-71843782D01*
X87792796Y-71843782D01*
X89209867Y-70426711D01*
X108335342Y-70426711D01*
X108359394Y-71076710D01*
X108561863Y-71565514D01*
X108828718Y-71664177D01*
X109801645Y-70691250D01*
X110160855Y-70691250D01*
X111133782Y-71664177D01*
X111400637Y-71565514D01*
X111627158Y-70955789D01*
X111608536Y-70452532D01*
X112367073Y-70452532D01*
X112465736Y-70719387D01*
X113075461Y-70945908D01*
X113725460Y-70921856D01*
X114214264Y-70719387D01*
X114312927Y-70452532D01*
X114287106Y-70426711D01*
X115052842Y-70426711D01*
X115076894Y-71076710D01*
X115279363Y-71565514D01*
X115546218Y-71664177D01*
X116519145Y-70691250D01*
X116878355Y-70691250D01*
X117851282Y-71664177D01*
X118118137Y-71565514D01*
X118344658Y-70955789D01*
X118320606Y-70305790D01*
X118118137Y-69816986D01*
X117851282Y-69718323D01*
X116878355Y-70691250D01*
X116519145Y-70691250D01*
X115546218Y-69718323D01*
X115279363Y-69816986D01*
X115052842Y-70426711D01*
X114287106Y-70426711D01*
X113340000Y-69479605D01*
X112367073Y-70452532D01*
X111608536Y-70452532D01*
X111603106Y-70305790D01*
X111400637Y-69816986D01*
X111133782Y-69718323D01*
X110160855Y-70691250D01*
X109801645Y-70691250D01*
X108828718Y-69718323D01*
X108561863Y-69816986D01*
X108335342Y-70426711D01*
X89209867Y-70426711D01*
X90097860Y-69538718D01*
X109008323Y-69538718D01*
X109981250Y-70511645D01*
X110954177Y-69538718D01*
X110855514Y-69271863D01*
X110245789Y-69045342D01*
X109595790Y-69069394D01*
X109106986Y-69271863D01*
X109008323Y-69538718D01*
X90097860Y-69538718D01*
X90601117Y-69035461D01*
X111694092Y-69035461D01*
X111718144Y-69685460D01*
X111920613Y-70174264D01*
X112187468Y-70272927D01*
X113160395Y-69300000D01*
X113519605Y-69300000D01*
X114492532Y-70272927D01*
X114759387Y-70174264D01*
X114985908Y-69564539D01*
X114984953Y-69538718D01*
X115725823Y-69538718D01*
X116698750Y-70511645D01*
X117671677Y-69538718D01*
X117573014Y-69271863D01*
X116963289Y-69045342D01*
X116313290Y-69069394D01*
X115824486Y-69271863D01*
X115725823Y-69538718D01*
X114984953Y-69538718D01*
X114961856Y-68914540D01*
X114759387Y-68425736D01*
X114492532Y-68327073D01*
X113519605Y-69300000D01*
X113160395Y-69300000D01*
X112187468Y-68327073D01*
X111920613Y-68425736D01*
X111694092Y-69035461D01*
X90601117Y-69035461D01*
X91489110Y-68147468D01*
X112367073Y-68147468D01*
X113340000Y-69120395D01*
X114312927Y-68147468D01*
X114214264Y-67880613D01*
X113604539Y-67654092D01*
X112954540Y-67678144D01*
X112465736Y-67880613D01*
X112367073Y-68147468D01*
X91489110Y-68147468D01*
X92656579Y-66980000D01*
X93065494Y-66980000D01*
X93574540Y-66769147D01*
X93964147Y-66379540D01*
X94175000Y-65870494D01*
X94175000Y-65319506D01*
X93964147Y-64810460D01*
X93574540Y-64420853D01*
X93065494Y-64210000D01*
X92514506Y-64210000D01*
X92005460Y-64420853D01*
X91615853Y-64810460D01*
X91520000Y-65041870D01*
X91424147Y-64810460D01*
X91034540Y-64420853D01*
X90525494Y-64210000D01*
X89974506Y-64210000D01*
X89465460Y-64420853D01*
X89075853Y-64810460D01*
X88980000Y-65041870D01*
X88884147Y-64810460D01*
X88494540Y-64420853D01*
X87985494Y-64210000D01*
X87434506Y-64210000D01*
X86925460Y-64420853D01*
X86535853Y-64810460D01*
X86440000Y-65041870D01*
X86344147Y-64810460D01*
X85954540Y-64420853D01*
X85445494Y-64210000D01*
X84894506Y-64210000D01*
X84385460Y-64420853D01*
X83995853Y-64810460D01*
X83785000Y-65319506D01*
X83785000Y-65374868D01*
X81286480Y-67873389D01*
X81191712Y-67936711D01*
X81050889Y-68147468D01*
X80940854Y-68312146D01*
X80852765Y-68755000D01*
X80875001Y-68866788D01*
X80875000Y-115488217D01*
X80852765Y-115600000D01*
X80902555Y-115850310D01*
X80940854Y-116042854D01*
X81085383Y-116259158D01*
X73890737Y-116259158D01*
X68817425Y-111185847D01*
X68817423Y-111185844D01*
X68765000Y-111133421D01*
X68765000Y-110712517D01*
X68552624Y-110199796D01*
X68196951Y-109844123D01*
X68377765Y-109808157D01*
X68587809Y-109667809D01*
X68728157Y-109457765D01*
X68777440Y-109210000D01*
X68777440Y-108697377D01*
X70113834Y-108697377D01*
X70113834Y-109546733D01*
X70438868Y-110331435D01*
X71039454Y-110932021D01*
X71824156Y-111257055D01*
X72673512Y-111257055D01*
X73458214Y-110932021D01*
X74058800Y-110331435D01*
X74383834Y-109546733D01*
X74383834Y-108697377D01*
X74058800Y-107912675D01*
X73458214Y-107312089D01*
X72673512Y-106987055D01*
X71824156Y-106987055D01*
X71039454Y-107312089D01*
X70438868Y-107912675D01*
X70113834Y-108697377D01*
X68777440Y-108697377D01*
X68777440Y-107690000D01*
X68728157Y-107442235D01*
X68587809Y-107232191D01*
X68377765Y-107091843D01*
X68130000Y-107042560D01*
X66610000Y-107042560D01*
X66362235Y-107091843D01*
X66152191Y-107232191D01*
X66011843Y-107442235D01*
X65962560Y-107690000D01*
X65962560Y-108879732D01*
X65620204Y-108537376D01*
X65107483Y-108325000D01*
X64552517Y-108325000D01*
X64039796Y-108537376D01*
X63647376Y-108929796D01*
X63435000Y-109442517D01*
X63435000Y-109997483D01*
X63647376Y-110510204D01*
X64039796Y-110902624D01*
X64250740Y-110990000D01*
X64039796Y-111077376D01*
X63647376Y-111469796D01*
X63435000Y-111982517D01*
X63435000Y-112537483D01*
X63647376Y-113050204D01*
X64039796Y-113442624D01*
X64250740Y-113530000D01*
X64039796Y-113617376D01*
X63647376Y-114009796D01*
X63435000Y-114522517D01*
X63435000Y-115077483D01*
X63647376Y-115590204D01*
X64039796Y-115982624D01*
X64552517Y-116195000D01*
X65107483Y-116195000D01*
X65620204Y-115982624D01*
X66012624Y-115590204D01*
X66122517Y-115324898D01*
X69231775Y-118434156D01*
X69254577Y-118468281D01*
X59907841Y-118468281D01*
X60395935Y-117980187D01*
X60740000Y-117149542D01*
X60740000Y-116250458D01*
X60395935Y-115419813D01*
X59760187Y-114784065D01*
X58929542Y-114440000D01*
X58030458Y-114440000D01*
X57199813Y-114784065D01*
X56564065Y-115419813D01*
X56220000Y-116250458D01*
X56220000Y-117149542D01*
X56564065Y-117980187D01*
X57046750Y-118462872D01*
X57019558Y-118468281D01*
X57019554Y-118468281D01*
X56761409Y-118519629D01*
X56713036Y-118551951D01*
X56542564Y-118665857D01*
X56542563Y-118665858D01*
X56468670Y-118715232D01*
X56419296Y-118789125D01*
X53388960Y-121819462D01*
X53316256Y-121805000D01*
X53023744Y-121805000D01*
X52754999Y-121858457D01*
X52754999Y-116587581D01*
X68544157Y-100798424D01*
X68618049Y-100749051D01*
X68813652Y-100456312D01*
X68865000Y-100198167D01*
X68865000Y-100198163D01*
X68882337Y-100111002D01*
X68865000Y-100023841D01*
X68865000Y-95346459D01*
X68937809Y-95297809D01*
X69078157Y-95087765D01*
X69127440Y-94840000D01*
X69127440Y-93840000D01*
X69332560Y-93840000D01*
X69332560Y-94840000D01*
X69381843Y-95087765D01*
X69522191Y-95297809D01*
X69732235Y-95438157D01*
X69980000Y-95487440D01*
X70980000Y-95487440D01*
X71227765Y-95438157D01*
X71437809Y-95297809D01*
X71578157Y-95087765D01*
X71627440Y-94840000D01*
X71627440Y-93840000D01*
X71832560Y-93840000D01*
X71832560Y-94840000D01*
X71881843Y-95087765D01*
X72022191Y-95297809D01*
X72232235Y-95438157D01*
X72480000Y-95487440D01*
X73480000Y-95487440D01*
X73727765Y-95438157D01*
X73937809Y-95297809D01*
X74078157Y-95087765D01*
X74127440Y-94840000D01*
X74127440Y-93840000D01*
X74078157Y-93592235D01*
X73937809Y-93382191D01*
X73727765Y-93241843D01*
X73480000Y-93192560D01*
X72480000Y-93192560D01*
X72232235Y-93241843D01*
X72022191Y-93382191D01*
X71881843Y-93592235D01*
X71832560Y-93840000D01*
X71627440Y-93840000D01*
X71578157Y-93592235D01*
X71437809Y-93382191D01*
X71227765Y-93241843D01*
X70980000Y-93192560D01*
X69980000Y-93192560D01*
X69732235Y-93241843D01*
X69522191Y-93382191D01*
X69381843Y-93592235D01*
X69332560Y-93840000D01*
X69127440Y-93840000D01*
X69078157Y-93592235D01*
X68937809Y-93382191D01*
X68727765Y-93241843D01*
X68480000Y-93192560D01*
X67480000Y-93192560D01*
X67232235Y-93241843D01*
X67022191Y-93382191D01*
X66881843Y-93592235D01*
X66832560Y-93840000D01*
X66832560Y-94840000D01*
X66881843Y-95087765D01*
X67022191Y-95297809D01*
X67095000Y-95346459D01*
X67095000Y-95427164D01*
X67095001Y-95427169D01*
X67095000Y-99744423D01*
X60740000Y-106099423D01*
X60740000Y-106090458D01*
X60395935Y-105259813D01*
X59760187Y-104624065D01*
X58929542Y-104280000D01*
X58030458Y-104280000D01*
X57199813Y-104624065D01*
X56564065Y-105259813D01*
X56220000Y-106090458D01*
X56220000Y-106989542D01*
X56564065Y-107820187D01*
X57199813Y-108455935D01*
X58030458Y-108800000D01*
X58039424Y-108800000D01*
X51305844Y-115533580D01*
X51231951Y-115582954D01*
X51182577Y-115656847D01*
X51182575Y-115656849D01*
X51036347Y-115875694D01*
X50967662Y-116221003D01*
X50184051Y-116221003D01*
X50201877Y-100055431D01*
X51115000Y-100055431D01*
X51115000Y-100944569D01*
X51455259Y-101766026D01*
X52083974Y-102394741D01*
X52905431Y-102735000D01*
X53794569Y-102735000D01*
X54616026Y-102394741D01*
X55244741Y-101766026D01*
X55585000Y-100944569D01*
X55585000Y-100055431D01*
X55244741Y-99233974D01*
X54616026Y-98605259D01*
X53794569Y-98265000D01*
X52905431Y-98265000D01*
X52083974Y-98605259D01*
X51455259Y-99233974D01*
X51115000Y-100055431D01*
X50201877Y-100055431D01*
X50207864Y-94625750D01*
X64345000Y-94625750D01*
X64345000Y-94966310D01*
X64441673Y-95199699D01*
X64620302Y-95378327D01*
X64853691Y-95475000D01*
X65194250Y-95475000D01*
X65353000Y-95316250D01*
X65353000Y-94467000D01*
X65607000Y-94467000D01*
X65607000Y-95316250D01*
X65765750Y-95475000D01*
X66106309Y-95475000D01*
X66339698Y-95378327D01*
X66518327Y-95199699D01*
X66615000Y-94966310D01*
X66615000Y-94625750D01*
X66456250Y-94467000D01*
X65607000Y-94467000D01*
X65353000Y-94467000D01*
X64503750Y-94467000D01*
X64345000Y-94625750D01*
X50207864Y-94625750D01*
X50208869Y-93713690D01*
X64345000Y-93713690D01*
X64345000Y-94054250D01*
X64503750Y-94213000D01*
X65353000Y-94213000D01*
X65353000Y-93363750D01*
X65607000Y-93363750D01*
X65607000Y-94213000D01*
X66456250Y-94213000D01*
X66615000Y-94054250D01*
X66615000Y-93713690D01*
X66518327Y-93480301D01*
X66339698Y-93301673D01*
X66106309Y-93205000D01*
X65765750Y-93205000D01*
X65607000Y-93363750D01*
X65353000Y-93363750D01*
X65194250Y-93205000D01*
X64853691Y-93205000D01*
X64620302Y-93301673D01*
X64441673Y-93480301D01*
X64345000Y-93713690D01*
X50208869Y-93713690D01*
X50246374Y-59705431D01*
X51115000Y-59705431D01*
X51115000Y-60594569D01*
X51455259Y-61416026D01*
X52083974Y-62044741D01*
X52905431Y-62385000D01*
X53794569Y-62385000D01*
X54616026Y-62044741D01*
X55244741Y-61416026D01*
X55585000Y-60594569D01*
X55585000Y-59705431D01*
X144415000Y-59705431D01*
X144415000Y-60594569D01*
X144755259Y-61416026D01*
X145383974Y-62044741D01*
X146205431Y-62385000D01*
X147094569Y-62385000D01*
X147916026Y-62044741D01*
X148544741Y-61416026D01*
X148885000Y-60594569D01*
X148885000Y-59705431D01*
X148544741Y-58883974D01*
X147916026Y-58255259D01*
X147094569Y-57915000D01*
X146205431Y-57915000D01*
X145383974Y-58255259D01*
X144755259Y-58883974D01*
X144415000Y-59705431D01*
X55585000Y-59705431D01*
X55244741Y-58883974D01*
X54616026Y-58255259D01*
X53794569Y-57915000D01*
X52905431Y-57915000D01*
X52083974Y-58255259D01*
X51455259Y-58883974D01*
X51115000Y-59705431D01*
X50246374Y-59705431D01*
X50253873Y-52905431D01*
X51115000Y-52905431D01*
X51115000Y-53794569D01*
X51455259Y-54616026D01*
X52083974Y-55244741D01*
X52905431Y-55585000D01*
X53794569Y-55585000D01*
X54616026Y-55244741D01*
X55244741Y-54616026D01*
X55585000Y-53794569D01*
X55585000Y-52905431D01*
X144415000Y-52905431D01*
X144415000Y-53794569D01*
X144755259Y-54616026D01*
X145383974Y-55244741D01*
X146205431Y-55585000D01*
X147094569Y-55585000D01*
X147916026Y-55244741D01*
X148544741Y-54616026D01*
X148885000Y-53794569D01*
X148885000Y-52905431D01*
X148544741Y-52083974D01*
X147916026Y-51455259D01*
X147094569Y-51115000D01*
X146205431Y-51115000D01*
X145383974Y-51455259D01*
X144755259Y-52083974D01*
X144415000Y-52905431D01*
X55585000Y-52905431D01*
X55244741Y-52083974D01*
X54616026Y-51455259D01*
X53794569Y-51115000D01*
X52905431Y-51115000D01*
X52083974Y-51455259D01*
X51455259Y-52083974D01*
X51115000Y-52905431D01*
X50253873Y-52905431D01*
X50256860Y-50197000D01*
X149743000Y-50197000D01*
X149743000Y-149693000D01*
G04 #@! TD*
M02*
