M48
;DRILL file {KiCad 5.0.2-5.fc29} date Tue 26 Mar 2019 06:15:56 AM CET
;FORMAT={-:-/ absolute / inch / decimal}
FMAT,2
INCH,TZ
T1C0.0157
T2C0.0272
T3C0.0295
T4C0.0299
T5C0.0315
T6C0.0394
T7C0.0472
T8C0.0984
%
G90
G05
T1
X3.087Y-5.4323
X3.1594Y-5.2343
X3.2087Y-5.4323
X3.5126Y-5.45
X3.5795Y-4.511
X3.5795Y-4.8224
X3.5846Y-4.9882
X3.6516Y-4.898
X3.6524Y-4.5669
X3.7067Y-5.0315
X3.7173Y-5.0886
X3.7969Y-4.6553
X3.8008Y-5.176
X3.8255Y-4.8331
X3.8345Y-5.3738
X3.8646Y-4.8376
X3.8648Y-4.6496
X3.8839Y-5.1457
X3.9011Y-5.2232
X3.9012Y-5.1039
X3.9228Y-4.7681
X4.0251Y-4.8129
X4.0831Y-4.9705
X4.0831Y-5.1831
X4.1071Y-4.8504
X4.1083Y-5.224
X4.2107Y-4.9119
X4.2739Y-5.3462
X4.285Y-4.9843
X4.335Y-4.913
X4.4039Y-4.9594
X4.4535Y-5.0517
X4.4597Y-5.0065
X4.4965Y-5.1056
X4.5748Y-5.0173
X4.602Y-5.2028
X4.6091Y-4.7606
X4.7083Y-4.9677
X5.2006Y-5.5161
T2
X3.1874Y-5.7293
X3.2874Y-5.8293
X3.3874Y-5.7293
T3
X4.3134Y-3.5268
X4.3634Y-3.5268
X4.4134Y-3.5268
T4
X2.5524Y-4.3197
X2.5524Y-4.4197
X2.5524Y-4.5197
X2.6524Y-4.2697
X2.6524Y-4.3697
X2.6524Y-4.4697
T6
X5.0182Y-3.2099
X5.0182Y-3.4744
X5.1504Y-3.1551
X5.1504Y-3.5291
X5.2826Y-3.2099
X5.2826Y-3.4744
X3.3531Y-2.5825
X3.3531Y-3.7459
X3.4531Y-2.5825
X3.4531Y-3.7459
X3.5531Y-2.5825
X3.5531Y-3.7459
X3.6531Y-2.5825
X3.6531Y-3.7459
X3.7531Y-3.7459
X4.33Y-2.7831
X4.33Y-3.0476
X4.4622Y-2.7283
X4.4622Y-3.1024
X4.5944Y-2.7831
X4.5944Y-3.0476
X2.0933Y-4.8539
X2.1933Y-4.8539
X2.2933Y-4.8539
X2.3933Y-4.8539
X2.4933Y-4.8539
X2.5933Y-4.8539
T7
X3.0609Y-5.5166
X3.1609Y-5.5166
X3.2609Y-5.5166
X3.3609Y-5.5166
X3.4609Y-5.5166
X3.5609Y-5.5166
X3.6609Y-5.5166
X3.7609Y-5.5166
X3.8609Y-5.5166
X3.9609Y-5.5166
X4.0609Y-5.5166
X4.1609Y-5.5166
X4.2609Y-5.5166
X4.3609Y-5.5166
X4.4609Y-5.5166
X4.5609Y-5.5166
T8
X2.8444Y-4.2961
X2.8444Y-5.5166
X5.7971Y-4.2961
X5.7972Y-5.5166
T5
X2.6579Y-3.7094G85X2.6657Y-3.7094
G05
X2.7547Y-3.7094G85X2.7626Y-3.7094
G05
X2.8547Y-3.7094G85X2.8626Y-3.7094
G05
X2.9547Y-3.7094G85X2.9626Y-3.7094
G05
T6
X2.3169Y-5.1252G85X2.3169Y-5.2039
G05
X2.3957Y-5.3496G85X2.4744Y-5.3496
G05
X2.5531Y-5.1252G85X2.5531Y-5.2039
G05
T0
M30
